<?xml version="1.0" encoding="utf-8" standalone="no"?>
<!DOCTYPE svg PUBLIC "-//W3C//DTD SVG 1.1//EN"
  "http://www.w3.org/Graphics/SVG/1.1/DTD/svg11.dtd">
<svg height="264.456pt" version="1.1" viewBox="0 0 775.44 264.456" width="775.44pt" xmlns="http://www.w3.org/2000/svg" xmlns:xlink="http://www.w3.org/1999/xlink">
 <metadata>
  <rdf:RDF xmlns:cc="http://creativecommons.org/ns#" xmlns:dc="http://purl.org/dc/elements/1.1/" xmlns:rdf="http://www.w3.org/1999/02/22-rdf-syntax-ns#">
   <cc:Work>
    <dc:type rdf:resource="http://purl.org/dc/dcmitype/StillImage"/>
    <dc:date>2022-01-24T14:47:24.372897</dc:date>
    <dc:format>image/svg+xml</dc:format>
    <dc:creator>
     <cc:Agent>
      <dc:title>Matplotlib v3.4.3, https://matplotlib.org/</dc:title>
     </cc:Agent>
    </dc:creator>
   </cc:Work>
  </rdf:RDF>
 </metadata>
 <defs>
  <style type="text/css">*{stroke-linecap:butt;stroke-linejoin:round;}</style>
 </defs>
 <g id="figure_1">
  <g id="patch_1">
   <path d="M 0 264.456 
L 775.44 264.456 
L 775.44 0 
L 0 0 
z
" style="fill:none;"/>
  </g>
  <g id="axes_1">
   <g id="line2d_1">
    <path clip-path="url(#pa5b35b9a98)" d="M 126.792 257.256 
L 126.792 7.2 
" style="fill:none;stroke:#1f77b4;stroke-dasharray:7.4,3.2;stroke-dashoffset:0;stroke-width:2;"/>
   </g>
   <g id="line2d_2">
    <path clip-path="url(#pa5b35b9a98)" d="M 643.212 257.256 
L 643.212 7.2 
" style="fill:none;stroke:#1f77b4;stroke-dasharray:7.4,3.2;stroke-dashoffset:0;stroke-width:2;"/>
   </g>
   <g id="patch_2">
    <path clip-path="url(#pa5b35b9a98)" d="M 88.74 72.432 
L 83.304 75.15 
L 83.304 72.45918 
L 61.56 72.45918 
L 61.56 72.40482 
L 83.304 72.40482 
L 83.304 69.714 
z
" style="stroke:#000000;stroke-linejoin:miter;stroke-width:0.5;"/>
   </g>
   <g id="patch_3">
    <path clip-path="url(#pa5b35b9a98)" d="M 88.74 94.176 
L 164.844 94.176 
L 164.844 50.688 
L 88.74 50.688 
z
" style="fill:#ffffff;stroke:#000000;stroke-linejoin:miter;"/>
   </g>
   <g id="patch_4">
    <path clip-path="url(#pa5b35b9a98)" d="M 192.024 72.432 
L 186.588 75.15 
L 186.588 72.45918 
L 164.844 72.45918 
L 164.844 72.40482 
L 186.588 72.40482 
L 186.588 69.714 
z
" style="stroke:#000000;stroke-linejoin:miter;stroke-width:0.5;"/>
   </g>
   <g id="patch_5">
    <path clip-path="url(#pa5b35b9a98)" d="M 192.024 94.176 
L 268.128 94.176 
L 268.128 50.688 
L 192.024 50.688 
z
" style="fill:#ffffff;stroke:#000000;stroke-linejoin:miter;"/>
   </g>
   <g id="patch_6">
    <path clip-path="url(#pa5b35b9a98)" d="M 295.308 72.432 
L 289.872 75.15 
L 289.872 72.45918 
L 268.128 72.45918 
L 268.128 72.40482 
L 289.872 72.40482 
L 289.872 69.714 
z
" style="stroke:#000000;stroke-linejoin:miter;stroke-width:0.5;"/>
   </g>
   <g id="patch_7">
    <path clip-path="url(#pa5b35b9a98)" d="M 295.308 94.176 
L 371.412 94.176 
L 371.412 50.688 
L 295.308 50.688 
z
" style="fill:#ffffff;stroke:#000000;stroke-linejoin:miter;"/>
   </g>
   <g id="patch_8">
    <path clip-path="url(#pa5b35b9a98)" d="M 398.592 72.432 
L 393.156 75.15 
L 393.156 72.45918 
L 371.412 72.45918 
L 371.412 72.40482 
L 393.156 72.40482 
L 393.156 69.714 
z
" style="stroke:#000000;stroke-linejoin:miter;stroke-width:0.5;"/>
   </g>
   <g id="patch_9">
    <path clip-path="url(#pa5b35b9a98)" d="M 398.592 94.176 
L 474.696 94.176 
L 474.696 50.688 
L 398.592 50.688 
z
" style="fill:#ffffff;stroke:#000000;stroke-linejoin:miter;"/>
   </g>
   <g id="patch_10">
    <path clip-path="url(#pa5b35b9a98)" d="M 501.876 72.432 
L 496.44 75.15 
L 496.44 72.45918 
L 474.696 72.45918 
L 474.696 72.40482 
L 496.44 72.40482 
L 496.44 69.714 
z
" style="stroke:#000000;stroke-linejoin:miter;stroke-width:0.5;"/>
   </g>
   <g id="patch_11">
    <path clip-path="url(#pa5b35b9a98)" d="M 501.876 94.176 
L 577.98 94.176 
L 577.98 50.688 
L 501.876 50.688 
z
" style="fill:#ffffff;stroke:#000000;stroke-linejoin:miter;"/>
   </g>
   <g id="patch_12">
    <path clip-path="url(#pa5b35b9a98)" d="M 605.16 72.432 
L 599.724 75.15 
L 599.724 72.45918 
L 577.98 72.45918 
L 577.98 72.40482 
L 599.724 72.40482 
L 599.724 69.714 
z
" style="stroke:#000000;stroke-linejoin:miter;stroke-width:0.5;"/>
   </g>
   <g id="patch_13">
    <path clip-path="url(#pa5b35b9a98)" d="M 605.16 94.176 
L 681.264 94.176 
L 681.264 50.688 
L 605.16 50.688 
z
" style="fill:#ffffff;stroke:#000000;stroke-linejoin:miter;"/>
   </g>
   <g id="patch_14">
    <path clip-path="url(#pa5b35b9a98)" d="M 178.434 219.204 
L 175.716 213.768 
L 178.40682 213.768 
L 178.40682 192.024 
L 178.46118 192.024 
L 178.46118 213.768 
L 181.152 213.768 
z
" style="stroke:#000000;stroke-linejoin:miter;stroke-width:0.5;"/>
   </g>
   <g id="patch_15">
    <path clip-path="url(#pa5b35b9a98)" d="M 61.56 192.024 
L 66.996 189.306 
L 66.996 191.99682 
L 88.74 191.99682 
L 88.74 192.05118 
L 66.996 192.05118 
L 66.996 194.742 
z
" style="stroke:#000000;stroke-linejoin:miter;stroke-width:0.5;"/>
   </g>
   <g id="patch_16">
    <path clip-path="url(#pa5b35b9a98)" d="M 88.74 213.768 
L 164.844 213.768 
L 164.844 170.28 
L 88.74 170.28 
z
" style="fill:#ffffff;stroke:#000000;stroke-linejoin:miter;"/>
   </g>
   <g id="patch_17">
    <path clip-path="url(#pa5b35b9a98)" d="M 164.844 192.024 
L 170.28 189.306 
L 170.28 191.99682 
L 192.024 191.99682 
L 192.024 192.05118 
L 170.28 192.05118 
L 170.28 194.742 
z
" style="stroke:#000000;stroke-linejoin:miter;stroke-width:0.5;"/>
   </g>
   <g id="patch_18">
    <path clip-path="url(#pa5b35b9a98)" d="M 192.024 213.768 
L 268.128 213.768 
L 268.128 170.28 
L 192.024 170.28 
z
" style="fill:#ffffff;stroke:#000000;stroke-linejoin:miter;"/>
   </g>
   <g id="patch_19">
    <path clip-path="url(#pa5b35b9a98)" d="M 268.128 192.024 
L 273.564 189.306 
L 273.564 191.99682 
L 295.308 191.99682 
L 295.308 192.05118 
L 273.564 192.05118 
L 273.564 194.742 
z
" style="stroke:#000000;stroke-linejoin:miter;stroke-width:0.5;"/>
   </g>
   <g id="patch_20">
    <path clip-path="url(#pa5b35b9a98)" d="M 295.308 213.768 
L 371.412 213.768 
L 371.412 170.28 
L 295.308 170.28 
z
" style="fill:#ffffff;stroke:#000000;stroke-linejoin:miter;"/>
   </g>
   <g id="patch_21">
    <path clip-path="url(#pa5b35b9a98)" d="M 371.412 192.024 
L 376.848 189.306 
L 376.848 191.99682 
L 398.592 191.99682 
L 398.592 192.05118 
L 376.848 192.05118 
L 376.848 194.742 
z
" style="stroke:#000000;stroke-linejoin:miter;stroke-width:0.5;"/>
   </g>
   <g id="patch_22">
    <path clip-path="url(#pa5b35b9a98)" d="M 398.592 213.768 
L 474.696 213.768 
L 474.696 170.28 
L 398.592 170.28 
z
" style="fill:#ffffff;stroke:#000000;stroke-linejoin:miter;"/>
   </g>
   <g id="patch_23">
    <path clip-path="url(#pa5b35b9a98)" d="M 474.696 192.024 
L 480.132 189.306 
L 480.132 191.99682 
L 501.876 191.99682 
L 501.876 192.05118 
L 480.132 192.05118 
L 480.132 194.742 
z
" style="stroke:#000000;stroke-linejoin:miter;stroke-width:0.5;"/>
   </g>
   <g id="patch_24">
    <path clip-path="url(#pa5b35b9a98)" d="M 501.876 213.768 
L 577.98 213.768 
L 577.98 170.28 
L 501.876 170.28 
z
" style="fill:#ffffff;stroke:#000000;stroke-linejoin:miter;"/>
   </g>
   <g id="patch_25">
    <path clip-path="url(#pa5b35b9a98)" d="M 577.98 192.024 
L 583.416 189.306 
L 583.416 191.99682 
L 605.16 191.99682 
L 605.16 192.05118 
L 583.416 192.05118 
L 583.416 194.742 
z
" style="stroke:#000000;stroke-linejoin:miter;stroke-width:0.5;"/>
   </g>
   <g id="patch_26">
    <path clip-path="url(#pa5b35b9a98)" d="M 605.16 213.768 
L 681.264 213.768 
L 681.264 170.28 
L 605.16 170.28 
z
" style="fill:#ffffff;stroke:#000000;stroke-linejoin:miter;"/>
   </g>
   <g id="patch_27">
    <path clip-path="url(#pa5b35b9a98)" d="M 708.444 72.432 
L 708.19938 72.51354 
L 708.19938 72.45918 
L 681.264 72.45918 
L 681.264 72.40482 
L 708.19938 72.40482 
L 708.19938 72.35046 
z
" style="stroke:#000000;stroke-linejoin:miter;stroke-width:0.5;"/>
   </g>
   <g id="patch_28">
    <path clip-path="url(#pa5b35b9a98)" d="M 708.444 105.048 
L 705.726 99.612 
L 708.41682 99.612 
L 708.41682 72.432 
L 708.47118 72.432 
L 708.47118 99.612 
L 711.162 99.612 
z
" style="stroke:#000000;stroke-linejoin:miter;stroke-width:0.5;"/>
   </g>
   <g id="patch_29">
    <path clip-path="url(#pa5b35b9a98)" d="M 686.7 159.408 
L 730.188 159.408 
L 730.188 105.048 
L 686.7 105.048 
z
" style="fill:#ffffff;stroke:#000000;stroke-linejoin:miter;"/>
   </g>
   <g id="patch_30">
    <path clip-path="url(#pa5b35b9a98)" d="M 708.444 192.024 
L 708.36246 191.77938 
L 708.41682 191.77938 
L 708.41682 159.408 
L 708.47118 159.408 
L 708.47118 191.77938 
L 708.52554 191.77938 
z
" style="stroke:#000000;stroke-linejoin:miter;stroke-width:0.5;"/>
   </g>
   <g id="patch_31">
    <path clip-path="url(#pa5b35b9a98)" d="M 681.264 192.024 
L 686.7 189.306 
L 686.7 191.99682 
L 708.444 191.99682 
L 708.444 192.05118 
L 686.7 192.05118 
L 686.7 194.742 
z
" style="stroke:#000000;stroke-linejoin:miter;stroke-width:0.5;"/>
   </g>
   <g id="line2d_3">
    <path clip-path="url(#pa5b35b9a98)" d="M 178.434 72.432 
L 178.434 45.252 
" style="fill:none;stroke:#000000;stroke-linecap:square;"/>
   </g>
   <g id="text_1">
    <!-- Analogique -->
    <g style="fill:#1f77b4;" transform="translate(31.149353 243.284524)scale(0.16 -0.16)">
     <defs>
      <path d="M 2272 4416 
L 1722 4416 
L 166 0 
L 653 0 
L 1101 1280 
L 2816 1280 
L 3270 0 
L 3827 0 
L 2272 4416 
z
M 2694 1637 
L 1222 1637 
C 1530 2528 1914 3638 1958 3925 
L 1965 3925 
C 2010 3663 2138 3281 2246 2956 
L 2694 1637 
z
" id="CMSS17-41" transform="scale(0.015625)"/>
      <path d="M 2618 1877 
C 2618 2283 2522 2816 1798 2816 
C 1389 2816 1120 2606 941 2389 
L 941 2758 
L 474 2758 
L 474 0 
L 960 0 
L 960 1559 
C 960 1964 1114 2428 1549 2428 
C 2112 2428 2131 2048 2131 1829 
L 2131 0 
L 2618 0 
L 2618 1877 
z
" id="CMSS17-6e" transform="scale(0.015625)"/>
      <path d="M 2406 1791 
C 2406 2392 1978 2808 1402 2808 
C 1120 2808 813 2757 461 2553 
L 499 2135 
C 659 2248 934 2432 1395 2432 
C 1722 2432 1920 2180 1920 1782 
L 1920 1536 
C 896 1536 256 1238 256 726 
C 256 461 416 -64 947 -64 
C 1043 -64 1562 -64 1933 217 
L 1933 -19 
L 2406 -19 
L 2406 1791 
z
M 1920 816 
C 1920 701 1920 548 1728 434 
C 1562 325 1350 325 1261 325 
C 941 325 723 511 723 744 
C 723 1211 1722 1211 1920 1211 
L 1920 816 
z
" id="CMSS17-61" transform="scale(0.015625)"/>
      <path d="M 947 4416 
L 474 4416 
L 474 0 
L 947 0 
L 947 4416 
z
" id="CMSS17-6c" transform="scale(0.015625)"/>
      <path d="M 2829 1356 
C 2829 2176 2221 2816 1504 2816 
C 768 2816 173 2157 173 1356 
C 173 544 787 -64 1498 -64 
C 2227 -64 2829 563 2829 1356 
z
M 1504 337 
C 1050 337 659 709 659 1408 
C 659 2151 1114 2427 1498 2427 
C 1914 2427 2342 2126 2342 1408 
C 2342 683 1926 337 1504 337 
z
" id="CMSS17-6f" transform="scale(0.015625)"/>
      <path d="M 2848 2808 
C 2483 2808 2170 2738 1914 2617 
C 1702 2777 1485 2808 1338 2808 
C 781 2808 358 2349 358 1814 
C 358 1468 550 1207 563 1195 
C 448 1035 384 863 384 672 
C 384 448 474 289 544 200 
C 211 -3 166 -314 166 -435 
C 166 -898 749 -1280 1498 -1280 
C 2253 -1280 2835 -898 2835 -428 
C 2835 448 1856 448 1587 448 
L 1069 448 
C 973 448 717 448 717 791 
C 717 921 774 1004 781 1010 
C 877 940 1075 832 1338 832 
C 1869 832 2310 1278 2310 1827 
C 2310 2132 2170 2355 2112 2432 
L 2131 2432 
C 2150 2432 2419 2432 2515 2432 
C 2720 2432 2739 2429 2918 2419 
L 2848 2808 
z
M 1338 1182 
C 1120 1182 813 1315 813 1823 
C 813 2375 1165 2464 1331 2464 
C 1549 2464 1856 2331 1856 1823 
C 1856 1271 1504 1182 1338 1182 
z
M 1581 -10 
C 1734 -10 2381 -10 2381 -442 
C 2381 -714 1984 -929 1504 -929 
C 1018 -929 621 -720 621 -435 
C 621 -403 621 -10 1062 -10 
L 1581 -10 
z
" id="CMSS17-67" transform="scale(0.015625)"/>
      <path d="M 979 4183 
L 442 4183 
L 442 3648 
L 979 3648 
L 979 4183 
z
M 947 2739 
L 474 2739 
L 474 0 
L 947 0 
L 947 2739 
z
" id="CMSS17-69" transform="scale(0.015625)"/>
      <path d="M 2611 2816 
L 2138 2816 
L 2138 2428 
C 2112 2460 1818 2816 1318 2816 
C 736 2816 211 2228 211 1399 
C 211 633 653 -5 1229 -5 
C 1498 -5 1837 91 2125 365 
L 2125 -1216 
L 2611 -1216 
L 2611 2816 
z
M 2138 914 
C 2138 832 2138 718 1939 554 
C 1888 510 1747 384 1504 384 
C 1050 384 698 850 698 1399 
C 698 2011 1126 2415 1562 2415 
C 1926 2415 2138 2061 2138 1797 
L 2138 914 
z
" id="CMSS17-71" transform="scale(0.015625)"/>
      <path d="M 2618 2739 
L 2131 2739 
L 2131 972 
C 2131 498 1786 306 1421 306 
C 998 306 960 447 960 709 
L 960 2739 
L 474 2739 
L 474 678 
C 474 179 646 -64 1088 -64 
C 1306 -64 1798 -13 2144 306 
L 2144 0 
L 2618 0 
L 2618 2739 
z
" id="CMSS17-75" transform="scale(0.015625)"/>
      <path d="M 2502 1377 
C 2502 1590 2490 2003 2285 2345 
C 2061 2713 1696 2816 1421 2816 
C 755 2816 192 2188 192 1375 
C 192 582 774 -64 1510 -64 
C 1798 -64 2150 19 2470 248 
C 2470 274 2458 414 2451 420 
C 2451 433 2432 630 2432 656 
C 2125 407 1773 325 1517 325 
C 1107 325 666 667 646 1377 
L 2502 1377 
z
M 698 1728 
C 781 2084 1062 2421 1421 2421 
C 1517 2421 1965 2421 2080 1728 
L 698 1728 
z
" id="CMSS17-65" transform="scale(0.015625)"/>
     </defs>
     <use transform="scale(0.996264)" xlink:href="#CMSS17-41"/>
     <use transform="translate(62.217855 0)scale(0.996264)" xlink:href="#CMSS17-6e"/>
     <use transform="translate(110.422798 0)scale(0.996264)" xlink:href="#CMSS17-61"/>
     <use transform="translate(155.344719 0)scale(0.996264)" xlink:href="#CMSS17-6c"/>
     <use transform="translate(177.525442 0)scale(0.996264)" xlink:href="#CMSS17-6f"/>
     <use transform="translate(224.369065 0)scale(0.996264)" xlink:href="#CMSS17-67"/>
     <use transform="translate(271.212689 0)scale(0.996264)" xlink:href="#CMSS17-69"/>
     <use transform="translate(293.393412 0)scale(0.996264)" xlink:href="#CMSS17-71"/>
     <use transform="translate(341.598355 0)scale(0.996264)" xlink:href="#CMSS17-75"/>
     <use transform="translate(389.803298 0)scale(0.996264)" xlink:href="#CMSS17-65"/>
    </g>
   </g>
   <g id="text_2">
    <!-- Numérique -->
    <g style="fill:#1f77b4;" transform="translate(349.925597 243.284524)scale(0.16 -0.16)">
     <defs>
      <path d="M 1466 4180 
L 1350 4416 
L 563 4416 
L 563 0 
L 1062 0 
L 1062 3926 
L 1069 3932 
C 1114 3817 1139 3760 1402 3194 
L 2771 236 
L 2886 0 
L 3674 0 
L 3674 4416 
L 3174 4416 
L 3174 490 
L 3168 483 
C 3123 598 3098 655 2835 1221 
L 1466 4180 
z
" id="CMSS17-4e" transform="scale(0.015625)"/>
      <path d="M 4288 1877 
C 4288 2308 4179 2816 3462 2816 
C 2982 2816 2694 2516 2566 2331 
C 2451 2670 2182 2816 1798 2816 
C 1363 2816 1088 2568 941 2389 
L 941 2758 
L 474 2758 
L 474 0 
L 960 0 
L 960 1559 
C 960 1939 1101 2428 1555 2428 
C 2138 2428 2138 2016 2138 1829 
L 2138 0 
L 2624 0 
L 2624 1559 
C 2624 1939 2765 2428 3219 2428 
C 3802 2428 3802 2016 3802 1829 
L 3802 0 
L 4288 0 
L 4288 1877 
z
" id="CMSS17-6d" transform="scale(0.015625)"/>
      <path d="M 2502 4448 
L 2016 4448 
L 1222 3328 
L 1613 3328 
L 2502 4448 
z
" id="CMSS17-13" transform="scale(0.015625)"/>
      <path d="M 954 1363 
C 954 1965 1395 2368 1958 2368 
L 1958 2789 
C 1549 2789 1165 2585 934 2253 
L 934 2758 
L 480 2758 
L 480 0 
L 954 0 
L 954 1363 
z
" id="CMSS17-72" transform="scale(0.015625)"/>
     </defs>
     <use transform="scale(0.996264)" xlink:href="#CMSS17-4e"/>
     <use transform="translate(66.061519 0)scale(0.996264)" xlink:href="#CMSS17-75"/>
     <use transform="translate(114.266462 0)scale(0.996264)" xlink:href="#CMSS17-6d"/>
     <use transform="translate(185.893308 0)scale(0.996264)" xlink:href="#CMSS17-13"/>
     <use transform="translate(188.495717 0)scale(0.996264)" xlink:href="#CMSS17-65"/>
     <use transform="translate(230.134539 0)scale(0.996264)" xlink:href="#CMSS17-72"/>
     <use transform="translate(262.044311 0)scale(0.996264)" xlink:href="#CMSS17-69"/>
     <use transform="translate(284.225034 0)scale(0.996264)" xlink:href="#CMSS17-71"/>
     <use transform="translate(332.429978 0)scale(0.996264)" xlink:href="#CMSS17-75"/>
     <use transform="translate(380.634921 0)scale(0.996264)" xlink:href="#CMSS17-65"/>
    </g>
   </g>
   <g id="text_3">
    <!-- Analogique -->
    <g style="fill:#1f77b4;" transform="translate(661.725353 243.284524)scale(0.16 -0.16)">
     <use transform="scale(0.996264)" xlink:href="#CMSS17-41"/>
     <use transform="translate(62.217855 0)scale(0.996264)" xlink:href="#CMSS17-6e"/>
     <use transform="translate(110.422798 0)scale(0.996264)" xlink:href="#CMSS17-61"/>
     <use transform="translate(155.344719 0)scale(0.996264)" xlink:href="#CMSS17-6c"/>
     <use transform="translate(177.525442 0)scale(0.996264)" xlink:href="#CMSS17-6f"/>
     <use transform="translate(224.369065 0)scale(0.996264)" xlink:href="#CMSS17-67"/>
     <use transform="translate(271.212689 0)scale(0.996264)" xlink:href="#CMSS17-69"/>
     <use transform="translate(293.393412 0)scale(0.996264)" xlink:href="#CMSS17-71"/>
     <use transform="translate(341.598355 0)scale(0.996264)" xlink:href="#CMSS17-75"/>
     <use transform="translate(389.803298 0)scale(0.996264)" xlink:href="#CMSS17-65"/>
    </g>
   </g>
   <g id="text_4">
    <!-- $m(t)$ -->
    <g transform="translate(18.072 76.417056)scale(0.16 -0.16)">
     <defs>
      <path d="M 1318 1871 
C 1331 1910 1491 2229 1728 2433 
C 1894 2586 2112 2689 2362 2689 
C 2618 2689 2707 2497 2707 2242 
C 2707 2203 2707 2076 2630 1775 
L 2470 1118 
C 2419 926 2298 453 2285 383 
C 2259 287 2221 121 2221 96 
C 2221 6 2291 -64 2387 -64 
C 2579 -64 2611 83 2669 313 
L 3053 1839 
C 3066 1890 3398 2689 4102 2689 
C 4358 2689 4448 2497 4448 2242 
C 4448 1884 4198 1188 4058 805 
C 4000 651 3968 568 3968 453 
C 3968 166 4166 -64 4474 -64 
C 5069 -64 5293 875 5293 913 
C 5293 945 5267 971 5229 971 
C 5171 971 5165 952 5133 843 
C 4986 332 4749 64 4493 64 
C 4429 64 4326 64 4326 269 
C 4326 436 4403 640 4429 710 
C 4544 1018 4832 1773 4832 2145 
C 4832 2528 4608 2816 4122 2816 
C 3693 2816 3347 2574 3091 2197 
C 3072 2542 2861 2816 2381 2816 
C 1811 2816 1510 2415 1395 2255 
C 1376 2618 1114 2816 832 2816 
C 646 2816 499 2727 378 2484 
C 262 2254 173 1865 173 1839 
C 173 1814 198 1782 243 1782 
C 294 1782 301 1788 339 1935 
C 435 2312 557 2689 813 2689 
C 960 2689 1011 2586 1011 2395 
C 1011 2254 947 2005 902 1807 
L 723 1118 
C 698 996 627 709 595 594 
C 550 428 480 128 480 96 
C 480 6 550 -64 646 -64 
C 723 -64 813 -26 864 70 
C 877 102 934 326 966 453 
L 1107 1028 
L 1318 1871 
z
" id="CMMI12-6d" transform="scale(0.015625)"/>
      <path d="M 1958 -1561 
C 1958 -1555 1958 -1542 1939 -1523 
C 1645 -1224 858 -407 858 1581 
C 858 3569 1632 4379 1946 4697 
C 1946 4704 1958 4717 1958 4736 
C 1958 4755 1939 4768 1914 4768 
C 1843 4768 1299 4296 986 3594 
C 666 2887 576 2199 576 1588 
C 576 1128 621 351 1005 -471 
C 1312 -1135 1837 -1600 1914 -1600 
C 1946 -1600 1958 -1587 1958 -1561 
z
" id="CMR17-28" transform="scale(0.015625)"/>
      <path d="M 1286 2566 
L 1875 2566 
C 1997 2566 2061 2566 2061 2681 
C 2061 2752 2022 2752 1894 2752 
L 1331 2752 
L 1568 3692 
C 1594 3781 1594 3794 1594 3840 
C 1594 3943 1510 4000 1427 4000 
C 1376 4000 1229 3981 1178 3775 
L 928 2752 
L 326 2752 
C 198 2752 141 2752 141 2630 
C 141 2566 186 2566 307 2566 
L 877 2566 
L 454 881 
C 403 658 384 594 384 511 
C 384 211 595 -64 954 -64 
C 1600 -64 1946 868 1946 912 
C 1946 951 1920 970 1882 970 
C 1869 970 1843 970 1830 944 
C 1824 938 1818 931 1773 829 
C 1638 511 1344 64 973 64 
C 781 64 768 224 768 364 
C 768 370 768 492 787 568 
L 1286 2566 
z
" id="CMMI12-74" transform="scale(0.015625)"/>
      <path d="M 1683 1581 
C 1683 2040 1638 2817 1254 3639 
C 947 4303 422 4768 346 4768 
C 326 4768 301 4761 301 4729 
C 301 4717 307 4710 314 4697 
C 621 4378 1402 3568 1402 1584 
C 1402 -407 627 -1217 314 -1537 
C 307 -1549 301 -1556 301 -1568 
C 301 -1600 326 -1600 346 -1600 
C 416 -1600 960 -1128 1274 -426 
C 1594 281 1683 969 1683 1581 
z
" id="CMR17-29" transform="scale(0.015625)"/>
     </defs>
     <use transform="scale(0.996264)" xlink:href="#CMMI12-6d"/>
     <use transform="translate(85.327224 0)scale(0.996264)" xlink:href="#CMR17-28"/>
     <use transform="translate(120.607992 0)scale(0.996264)" xlink:href="#CMMI12-74"/>
     <use transform="translate(155.834322 0)scale(0.996264)" xlink:href="#CMR17-29"/>
    </g>
   </g>
   <g id="text_5">
    <!-- $m[n]$ -->
    <g transform="translate(162.61387 27.493056)scale(0.16 -0.16)">
     <defs>
      <path d="M 1504 -1600 
L 1504 -1377 
L 902 -1377 
L 902 4544 
L 1504 4544 
L 1504 4767 
L 678 4767 
L 678 -1600 
L 1504 -1600 
z
" id="CMR17-5b" transform="scale(0.015625)"/>
      <path d="M 1318 1871 
C 1331 1910 1491 2229 1728 2433 
C 1894 2586 2112 2689 2362 2689 
C 2618 2689 2707 2497 2707 2242 
C 2707 1878 2445 1150 2317 805 
C 2259 651 2227 568 2227 453 
C 2227 166 2426 -64 2733 -64 
C 3328 -64 3552 875 3552 913 
C 3552 945 3526 971 3488 971 
C 3430 971 3424 952 3392 843 
C 3245 319 3002 64 2752 64 
C 2688 64 2586 64 2586 269 
C 2586 429 2656 621 2694 710 
C 2822 1063 3091 1780 3091 2145 
C 3091 2528 2867 2816 2381 2816 
C 1811 2816 1510 2415 1395 2255 
C 1376 2618 1114 2816 832 2816 
C 627 2816 486 2695 378 2478 
C 262 2248 173 1865 173 1839 
C 173 1814 198 1782 243 1782 
C 294 1782 301 1788 339 1935 
C 442 2325 557 2689 813 2689 
C 960 2689 1011 2586 1011 2395 
C 1011 2254 947 2005 902 1807 
L 723 1118 
C 698 996 627 709 595 594 
C 550 428 480 128 480 96 
C 480 6 550 -64 646 -64 
C 723 -64 813 -26 864 70 
C 877 102 934 326 966 453 
L 1107 1028 
L 1318 1871 
z
" id="CMMI12-6e" transform="scale(0.015625)"/>
      <path d="M 915 4767 
L 90 4767 
L 90 4544 
L 691 4544 
L 691 -1377 
L 90 -1377 
L 90 -1600 
L 915 -1600 
L 915 4767 
z
" id="CMR17-5d" transform="scale(0.015625)"/>
     </defs>
     <use transform="scale(0.996264)" xlink:href="#CMMI12-6d"/>
     <use transform="translate(85.327224 0)scale(0.996264)" xlink:href="#CMR17-5b"/>
     <use transform="translate(110.198283 0)scale(0.996264)" xlink:href="#CMMI12-6e"/>
     <use transform="translate(168.42833 0)scale(0.996264)" xlink:href="#CMR17-5d"/>
    </g>
   </g>
   <g id="text_6">
    <!-- CAN -->
    <g transform="translate(111.17942 76.417056)scale(0.16 -0.16)">
     <defs>
      <path d="M 3501 714 
C 3072 427 2874 344 2355 344 
C 1459 344 934 1303 934 2179 
C 934 3112 1472 4032 2381 4032 
C 2790 4032 3059 3918 3386 3715 
L 3475 4217 
C 3168 4370 2778 4440 2387 4440 
C 1158 4440 397 3316 397 2179 
C 397 927 1299 -64 2323 -64 
C 2874 -64 3066 -19 3539 280 
L 3501 714 
z
" id="CMSS17-43" transform="scale(0.015625)"/>
     </defs>
     <use transform="scale(0.996264)" xlink:href="#CMSS17-43"/>
     <use transform="translate(59.855772 0)scale(0.996264)" xlink:href="#CMSS17-41"/>
     <use transform="translate(122.073626 0)scale(0.996264)" xlink:href="#CMSS17-4e"/>
    </g>
   </g>
   <g id="text_7">
    <!-- Codage -->
    <g transform="translate(205.861506 68.225565)scale(0.16 -0.16)">
     <defs>
      <path d="M 2611 4416 
L 2138 4416 
L 2138 2438 
C 1939 2603 1613 2756 1254 2756 
C 672 2756 211 2131 211 1347 
C 211 562 666 -64 1235 -64 
C 1677 -64 1971 172 2125 306 
L 2125 -13 
L 2611 -13 
L 2611 4416 
z
M 2125 836 
C 2125 747 2125 653 1926 482 
C 1798 375 1645 325 1498 325 
C 1152 325 698 576 698 1340 
C 698 2134 1210 2368 1562 2368 
C 1798 2368 1990 2254 2125 2065 
L 2125 836 
z
" id="CMSS17-64" transform="scale(0.015625)"/>
     </defs>
     <use transform="scale(0.996264)" xlink:href="#CMSS17-43"/>
     <use transform="translate(59.855772 0)scale(0.996264)" xlink:href="#CMSS17-6f"/>
     <use transform="translate(109.301834 0)scale(0.996264)" xlink:href="#CMSS17-64"/>
     <use transform="translate(157.506777 0)scale(0.996264)" xlink:href="#CMSS17-61"/>
     <use transform="translate(202.428698 0)scale(0.996264)" xlink:href="#CMSS17-67"/>
     <use transform="translate(249.272321 0)scale(0.996264)" xlink:href="#CMSS17-65"/>
    </g>
    <!-- source -->
    <g transform="translate(209.590078 84.608547)scale(0.16 -0.16)">
     <defs>
      <path d="M 2061 2627 
C 1683 2807 1389 2807 1197 2807 
C 742 2807 198 2648 198 2003 
C 198 1359 902 1218 1094 1179 
C 1389 1122 1715 1058 1715 740 
C 1715 337 1254 337 1171 337 
C 915 337 563 407 243 638 
L 166 210 
C 531 0 883 -64 1178 -64 
C 1965 -64 2163 416 2163 781 
C 2163 1094 1984 1305 1862 1401 
C 1651 1568 1574 1587 1050 1696 
C 960 1709 646 1779 646 2066 
C 646 2432 1050 2432 1139 2432 
C 1555 2432 1811 2303 1984 2208 
L 2061 2627 
z
" id="CMSS17-73" transform="scale(0.015625)"/>
      <path d="M 2464 2541 
C 2464 2585 2170 2714 2093 2739 
C 1882 2816 1613 2816 1542 2816 
C 710 2816 211 2093 211 1363 
C 211 595 768 -64 1517 -64 
C 1946 -64 2253 76 2502 242 
L 2464 664 
C 2189 453 1869 337 1523 337 
C 1024 337 698 774 698 1369 
C 698 1831 909 2414 1549 2414 
C 1901 2414 2099 2343 2394 2145 
L 2464 2541 
z
" id="CMSS17-63" transform="scale(0.015625)"/>
     </defs>
     <use transform="scale(0.996264)" xlink:href="#CMSS17-73"/>
     <use transform="translate(35.913542 0)scale(0.996264)" xlink:href="#CMSS17-6f"/>
     <use transform="translate(82.757166 0)scale(0.996264)" xlink:href="#CMSS17-75"/>
     <use transform="translate(130.962109 0)scale(0.996264)" xlink:href="#CMSS17-72"/>
     <use transform="translate(162.871881 0)scale(0.996264)" xlink:href="#CMSS17-63"/>
     <use transform="translate(204.510703 0)scale(0.996264)" xlink:href="#CMSS17-65"/>
    </g>
   </g>
   <g id="text_8">
    <!-- Chiffre- -->
    <g transform="translate(309.26082 68.225565)scale(0.16 -0.16)">
     <defs>
      <path d="M 2618 1891 
C 2618 2292 2522 2820 1798 2820 
C 1395 2820 1133 2623 947 2407 
L 947 4448 
L 474 4448 
L 474 32 
L 960 32 
L 960 1573 
C 960 1973 1114 2432 1549 2432 
C 2112 2432 2131 2056 2131 1839 
L 2131 32 
L 2618 32 
L 2618 1891 
z
" id="CMSS17-68" transform="scale(0.015625)"/>
      <path d="M 1075 2368 
L 1734 2368 
L 1734 2737 
L 1062 2737 
L 1062 3559 
C 1062 4001 1395 4092 1613 4092 
C 1837 4092 2022 4034 2093 4009 
L 2093 4429 
C 2022 4442 1830 4480 1619 4480 
C 1030 4480 602 3999 602 3359 
L 602 2737 
L 160 2737 
L 160 2368 
L 602 2368 
L 602 0 
L 1075 0 
L 1075 2368 
z
M 2739 2368 
L 3398 2368 
L 3398 2737 
L 2726 2737 
L 2726 3559 
C 2726 4001 3059 4092 3277 4092 
C 3501 4092 3686 4034 3757 4009 
L 3757 4429 
C 3686 4442 3494 4480 3283 4480 
C 2694 4480 2266 4001 2266 3363 
L 2266 0 
L 2739 0 
L 2739 2368 
z
" id="CMSS17-b" transform="scale(0.015625)"/>
      <path d="M 1664 1216 
L 1664 1585 
L 64 1585 
L 64 1216 
L 1664 1216 
z
" id="CMSS17-2d" transform="scale(0.015625)"/>
     </defs>
     <use transform="scale(0.996264)" xlink:href="#CMSS17-43"/>
     <use transform="translate(59.855772 0)scale(0.996264)" xlink:href="#CMSS17-68"/>
     <use transform="translate(108.060715 0)scale(0.996264)" xlink:href="#CMSS17-69"/>
     <use transform="translate(130.241438 0)scale(0.996264)" xlink:href="#CMSS17-b"/>
     <use transform="translate(184.892408 0)scale(0.996264)" xlink:href="#CMSS17-72"/>
     <use transform="translate(216.80218 0)scale(0.996264)" xlink:href="#CMSS17-65"/>
     <use transform="translate(258.441002 0)scale(0.996264)" xlink:href="#CMSS17-2d"/>
    </g>
    <!-- ment -->
    <g transform="translate(316.898765 84.608547)scale(0.16 -0.16)">
     <defs>
      <path d="M 1069 2368 
L 1901 2368 
L 1901 2737 
L 1069 2737 
L 1069 3520 
L 614 3520 
L 614 2737 
L 109 2737 
L 109 2368 
L 602 2368 
L 602 749 
C 602 384 685 -64 1107 -64 
C 1427 -64 1722 25 2003 172 
L 1901 548 
C 1747 414 1562 337 1363 337 
C 1082 337 1069 696 1069 856 
L 1069 2368 
z
" id="CMSS17-74" transform="scale(0.015625)"/>
     </defs>
     <use transform="scale(0.996264)" xlink:href="#CMSS17-6d"/>
     <use transform="translate(74.229254 0)scale(0.996264)" xlink:href="#CMSS17-65"/>
     <use transform="translate(115.868077 0)scale(0.996264)" xlink:href="#CMSS17-6e"/>
     <use transform="translate(164.07302 0)scale(0.996264)" xlink:href="#CMSS17-74"/>
    </g>
   </g>
   <g id="text_9">
    <!-- Codage -->
    <g transform="translate(412.429506 68.225565)scale(0.16 -0.16)">
     <use transform="scale(0.996264)" xlink:href="#CMSS17-43"/>
     <use transform="translate(59.855772 0)scale(0.996264)" xlink:href="#CMSS17-6f"/>
     <use transform="translate(109.301834 0)scale(0.996264)" xlink:href="#CMSS17-64"/>
     <use transform="translate(157.506777 0)scale(0.996264)" xlink:href="#CMSS17-61"/>
     <use transform="translate(202.428698 0)scale(0.996264)" xlink:href="#CMSS17-67"/>
     <use transform="translate(249.272321 0)scale(0.996264)" xlink:href="#CMSS17-65"/>
    </g>
    <!-- canal -->
    <g transform="translate(419.864516 84.608547)scale(0.16 -0.16)">
     <use transform="scale(0.996264)" xlink:href="#CMSS17-63"/>
     <use transform="translate(41.638822 0)scale(0.996264)" xlink:href="#CMSS17-61"/>
     <use transform="translate(86.560743 0)scale(0.996264)" xlink:href="#CMSS17-6e"/>
     <use transform="translate(134.765686 0)scale(0.996264)" xlink:href="#CMSS17-61"/>
     <use transform="translate(179.687606 0)scale(0.996264)" xlink:href="#CMSS17-6c"/>
    </g>
   </g>
   <g id="text_10">
    <!-- Multi- -->
    <g transform="translate(520.062904 68.225565)scale(0.16 -0.16)">
     <defs>
      <path d="M 3194 2371 
L 2886 1473 
C 2835 1307 2662 791 2624 587 
L 2618 587 
C 2598 715 2560 849 2458 1174 
C 2400 1365 2336 1562 2272 1741 
L 1325 4416 
L 576 4416 
L 576 0 
L 1075 0 
L 1075 3900 
L 1082 3900 
C 1082 3894 1139 3613 1530 2499 
L 2374 96 
L 2848 96 
L 3610 2231 
C 3661 2378 3821 2843 3891 3066 
C 3955 3257 4115 3728 4154 3913 
L 4160 3913 
L 4160 0 
L 4666 0 
L 4666 4416 
L 3923 4416 
L 3194 2371 
z
" id="CMSS17-4d" transform="scale(0.015625)"/>
     </defs>
     <use transform="scale(0.996264)" xlink:href="#CMSS17-4d"/>
     <use transform="translate(81.67603 0)scale(0.996264)" xlink:href="#CMSS17-75"/>
     <use transform="translate(129.880973 0)scale(0.996264)" xlink:href="#CMSS17-6c"/>
     <use transform="translate(152.061696 0)scale(0.996264)" xlink:href="#CMSS17-74"/>
     <use transform="translate(185.893263 0)scale(0.996264)" xlink:href="#CMSS17-69"/>
     <use transform="translate(208.073986 0)scale(0.996264)" xlink:href="#CMSS17-2d"/>
    </g>
    <!-- plexage -->
    <g transform="translate(515.944133 84.608547)scale(0.16 -0.16)">
     <defs>
      <path d="M 966 333 
C 1178 129 1466 -5 1773 -5 
C 2368 -5 2880 603 2880 1412 
C 2880 2159 2496 2816 1946 2816 
C 1626 2816 1242 2702 954 2472 
L 954 2765 
L 480 2765 
L 480 -1216 
L 966 -1216 
L 966 333 
z
M 966 2100 
C 1018 2176 1235 2415 1587 2415 
C 2035 2415 2394 1960 2394 1412 
C 2394 787 1958 384 1530 384 
C 1402 384 1267 415 1139 523 
C 966 674 966 768 966 857 
L 966 2100 
z
" id="CMSS17-70" transform="scale(0.015625)"/>
      <path d="M 1587 1414 
L 2656 2739 
L 2099 2739 
L 1363 1777 
L 602 2739 
L 32 2739 
L 1139 1414 
L 0 0 
L 563 0 
L 1363 1121 
L 2195 0 
L 2758 0 
L 1587 1414 
z
" id="CMSS17-78" transform="scale(0.015625)"/>
     </defs>
     <use transform="scale(0.996264)" xlink:href="#CMSS17-70"/>
     <use transform="translate(48.204943 0)scale(0.996264)" xlink:href="#CMSS17-6c"/>
     <use transform="translate(70.385666 0)scale(0.996264)" xlink:href="#CMSS17-65"/>
     <use transform="translate(112.024488 0)scale(0.996264)" xlink:href="#CMSS17-78"/>
     <use transform="translate(155.02463 0)scale(0.996264)" xlink:href="#CMSS17-61"/>
     <use transform="translate(199.946551 0)scale(0.996264)" xlink:href="#CMSS17-67"/>
     <use transform="translate(246.790174 0)scale(0.996264)" xlink:href="#CMSS17-65"/>
    </g>
   </g>
   <g id="text_11">
    <!-- Modu- -->
    <g transform="translate(621.714149 68.225565)scale(0.16 -0.16)">
     <use transform="scale(0.996264)" xlink:href="#CMSS17-4d"/>
     <use transform="translate(81.67603 0)scale(0.996264)" xlink:href="#CMSS17-6f"/>
     <use transform="translate(131.122092 0)scale(0.996264)" xlink:href="#CMSS17-64"/>
     <use transform="translate(179.327035 0)scale(0.996264)" xlink:href="#CMSS17-75"/>
     <use transform="translate(227.531978 0)scale(0.996264)" xlink:href="#CMSS17-2d"/>
    </g>
    <!-- lation -->
    <g transform="translate(625.081123 84.608547)scale(0.16 -0.16)">
     <use transform="scale(0.996264)" xlink:href="#CMSS17-6c"/>
     <use transform="translate(22.180723 0)scale(0.996264)" xlink:href="#CMSS17-61"/>
     <use transform="translate(67.102644 0)scale(0.996264)" xlink:href="#CMSS17-74"/>
     <use transform="translate(100.93421 0)scale(0.996264)" xlink:href="#CMSS17-69"/>
     <use transform="translate(123.114933 0)scale(0.996264)" xlink:href="#CMSS17-6f"/>
     <use transform="translate(169.958557 0)scale(0.996264)" xlink:href="#CMSS17-6e"/>
    </g>
   </g>
   <g id="text_12">
    <!-- $\hat{m}(t)$ -->
    <g transform="translate(18.072 196.009056)scale(0.16 -0.16)">
     <defs>
      <path d="M 1466 4421 
L 678 3555 
L 755 3478 
L 1466 4166 
L 2176 3478 
L 2253 3555 
L 1466 4421 
z
" id="CMR17-5e" transform="scale(0.015625)"/>
     </defs>
     <use transform="translate(19.818381 0.006461)scale(0.996264)" xlink:href="#CMR17-5e"/>
     <use transform="scale(0.996264)" xlink:href="#CMMI12-6d"/>
     <use transform="translate(85.327224 0)scale(0.996264)" xlink:href="#CMR17-28"/>
     <use transform="translate(120.607992 0)scale(0.996264)" xlink:href="#CMMI12-74"/>
     <use transform="translate(155.834322 0)scale(0.996264)" xlink:href="#CMR17-29"/>
    </g>
   </g>
   <g id="text_13">
    <!-- $\hat{m}[n]$ -->
    <g transform="translate(162.61387 244.933056)scale(0.16 -0.16)">
     <use transform="translate(19.818381 0.006461)scale(0.996264)" xlink:href="#CMR17-5e"/>
     <use transform="scale(0.996264)" xlink:href="#CMMI12-6d"/>
     <use transform="translate(85.327224 0)scale(0.996264)" xlink:href="#CMR17-5b"/>
     <use transform="translate(110.198283 0)scale(0.996264)" xlink:href="#CMMI12-6e"/>
     <use transform="translate(168.42833 0)scale(0.996264)" xlink:href="#CMR17-5d"/>
    </g>
   </g>
   <g id="text_14">
    <!-- CNA -->
    <g transform="translate(111.17942 196.009056)scale(0.16 -0.16)">
     <use transform="scale(0.996264)" xlink:href="#CMSS17-43"/>
     <use transform="translate(59.855772 0)scale(0.996264)" xlink:href="#CMSS17-4e"/>
     <use transform="translate(125.917291 0)scale(0.996264)" xlink:href="#CMSS17-41"/>
    </g>
   </g>
   <g id="text_15">
    <!-- Décodage -->
    <g transform="translate(198.297366 187.817565)scale(0.16 -0.16)">
     <defs>
      <path d="M 570 4416 
L 570 0 
L 2144 0 
C 3194 0 4000 980 4000 2170 
C 4000 3398 3194 4416 2144 4416 
L 570 4416 
z
M 1094 357 
L 1094 4059 
L 2003 4059 
C 2861 4059 3475 3277 3475 2170 
C 3475 1107 2867 357 2003 357 
L 1094 357 
z
" id="CMSS17-44" transform="scale(0.015625)"/>
     </defs>
     <use transform="scale(0.996264)" xlink:href="#CMSS17-44"/>
     <use transform="translate(64.940433 0)scale(0.996264)" xlink:href="#CMSS17-13"/>
     <use transform="translate(67.542842 0)scale(0.996264)" xlink:href="#CMSS17-65"/>
     <use transform="translate(109.181664 0)scale(0.996264)" xlink:href="#CMSS17-63"/>
     <use transform="translate(150.820486 0)scale(0.996264)" xlink:href="#CMSS17-6f"/>
     <use transform="translate(200.266548 0)scale(0.996264)" xlink:href="#CMSS17-64"/>
     <use transform="translate(248.471491 0)scale(0.996264)" xlink:href="#CMSS17-61"/>
     <use transform="translate(293.393412 0)scale(0.996264)" xlink:href="#CMSS17-67"/>
     <use transform="translate(340.237035 0)scale(0.996264)" xlink:href="#CMSS17-65"/>
    </g>
    <!-- source -->
    <g transform="translate(209.590078 204.200547)scale(0.16 -0.16)">
     <use transform="scale(0.996264)" xlink:href="#CMSS17-73"/>
     <use transform="translate(35.913542 0)scale(0.996264)" xlink:href="#CMSS17-6f"/>
     <use transform="translate(82.757166 0)scale(0.996264)" xlink:href="#CMSS17-75"/>
     <use transform="translate(130.962109 0)scale(0.996264)" xlink:href="#CMSS17-72"/>
     <use transform="translate(162.871881 0)scale(0.996264)" xlink:href="#CMSS17-63"/>
     <use transform="translate(204.510703 0)scale(0.996264)" xlink:href="#CMSS17-65"/>
    </g>
   </g>
   <g id="text_16">
    <!-- Déchif- -->
    <g transform="translate(309.984957 187.817565)scale(0.16 -0.16)">
     <defs>
      <path d="M 1075 2368 
L 1722 2368 
L 1722 2737 
L 1062 2737 
L 1062 3559 
C 1062 4014 1408 4092 1606 4092 
C 1670 4092 1850 4092 2080 4009 
L 2080 4429 
C 1933 4461 1754 4480 1613 4480 
C 1018 4480 602 3993 602 3359 
L 602 2737 
L 160 2737 
L 160 2368 
L 602 2368 
L 602 0 
L 1075 0 
L 1075 2368 
z
" id="CMSS17-66" transform="scale(0.015625)"/>
     </defs>
     <use transform="scale(0.996264)" xlink:href="#CMSS17-44"/>
     <use transform="translate(64.940433 0)scale(0.996264)" xlink:href="#CMSS17-13"/>
     <use transform="translate(67.542842 0)scale(0.996264)" xlink:href="#CMSS17-65"/>
     <use transform="translate(109.181664 0)scale(0.996264)" xlink:href="#CMSS17-63"/>
     <use transform="translate(150.820486 0)scale(0.996264)" xlink:href="#CMSS17-68"/>
     <use transform="translate(199.025429 0)scale(0.996264)" xlink:href="#CMSS17-69"/>
     <use transform="translate(221.206152 0)scale(0.996264)" xlink:href="#CMSS17-66"/>
     <use transform="translate(249.832811 0)scale(0.996264)" xlink:href="#CMSS17-2d"/>
    </g>
    <!-- frement -->
    <g transform="translate(308.39371 204.200547)scale(0.16 -0.16)">
     <use transform="scale(0.996264)" xlink:href="#CMSS17-66"/>
     <use transform="translate(28.626659 0)scale(0.996264)" xlink:href="#CMSS17-72"/>
     <use transform="translate(60.536431 0)scale(0.996264)" xlink:href="#CMSS17-65"/>
     <use transform="translate(102.175253 0)scale(0.996264)" xlink:href="#CMSS17-6d"/>
     <use transform="translate(176.404508 0)scale(0.996264)" xlink:href="#CMSS17-65"/>
     <use transform="translate(218.04333 0)scale(0.996264)" xlink:href="#CMSS17-6e"/>
     <use transform="translate(266.248273 0)scale(0.996264)" xlink:href="#CMSS17-74"/>
    </g>
   </g>
   <g id="text_17">
    <!-- Décodage -->
    <g transform="translate(404.865366 187.817565)scale(0.16 -0.16)">
     <use transform="scale(0.996264)" xlink:href="#CMSS17-44"/>
     <use transform="translate(64.940433 0)scale(0.996264)" xlink:href="#CMSS17-13"/>
     <use transform="translate(67.542842 0)scale(0.996264)" xlink:href="#CMSS17-65"/>
     <use transform="translate(109.181664 0)scale(0.996264)" xlink:href="#CMSS17-63"/>
     <use transform="translate(150.820486 0)scale(0.996264)" xlink:href="#CMSS17-6f"/>
     <use transform="translate(200.266548 0)scale(0.996264)" xlink:href="#CMSS17-64"/>
     <use transform="translate(248.471491 0)scale(0.996264)" xlink:href="#CMSS17-61"/>
     <use transform="translate(293.393412 0)scale(0.996264)" xlink:href="#CMSS17-67"/>
     <use transform="translate(340.237035 0)scale(0.996264)" xlink:href="#CMSS17-65"/>
    </g>
    <!-- canal -->
    <g transform="translate(419.864516 204.200547)scale(0.16 -0.16)">
     <use transform="scale(0.996264)" xlink:href="#CMSS17-63"/>
     <use transform="translate(41.638822 0)scale(0.996264)" xlink:href="#CMSS17-61"/>
     <use transform="translate(86.560743 0)scale(0.996264)" xlink:href="#CMSS17-6e"/>
     <use transform="translate(134.765686 0)scale(0.996264)" xlink:href="#CMSS17-61"/>
     <use transform="translate(179.687606 0)scale(0.996264)" xlink:href="#CMSS17-6c"/>
    </g>
   </g>
   <g id="text_18">
    <!-- Démulti- -->
    <g transform="translate(511.580925 187.817565)scale(0.16 -0.16)">
     <use transform="scale(0.996264)" xlink:href="#CMSS17-44"/>
     <use transform="translate(64.940433 0)scale(0.996264)" xlink:href="#CMSS17-13"/>
     <use transform="translate(67.542842 0)scale(0.996264)" xlink:href="#CMSS17-65"/>
     <use transform="translate(109.181664 0)scale(0.996264)" xlink:href="#CMSS17-6d"/>
     <use transform="translate(183.410918 0)scale(0.996264)" xlink:href="#CMSS17-75"/>
     <use transform="translate(231.615861 0)scale(0.996264)" xlink:href="#CMSS17-6c"/>
     <use transform="translate(253.796584 0)scale(0.996264)" xlink:href="#CMSS17-74"/>
     <use transform="translate(287.628151 0)scale(0.996264)" xlink:href="#CMSS17-69"/>
     <use transform="translate(309.808874 0)scale(0.996264)" xlink:href="#CMSS17-2d"/>
    </g>
    <!-- plexage -->
    <g transform="translate(515.944133 204.200547)scale(0.16 -0.16)">
     <use transform="scale(0.996264)" xlink:href="#CMSS17-70"/>
     <use transform="translate(48.204943 0)scale(0.996264)" xlink:href="#CMSS17-6c"/>
     <use transform="translate(70.385666 0)scale(0.996264)" xlink:href="#CMSS17-65"/>
     <use transform="translate(112.024488 0)scale(0.996264)" xlink:href="#CMSS17-78"/>
     <use transform="translate(155.02463 0)scale(0.996264)" xlink:href="#CMSS17-61"/>
     <use transform="translate(199.946551 0)scale(0.996264)" xlink:href="#CMSS17-67"/>
     <use transform="translate(246.790174 0)scale(0.996264)" xlink:href="#CMSS17-65"/>
    </g>
   </g>
   <g id="text_19">
    <!-- Démodu- -->
    <g transform="translate(613.23217 187.817565)scale(0.16 -0.16)">
     <use transform="scale(0.996264)" xlink:href="#CMSS17-44"/>
     <use transform="translate(64.940433 0)scale(0.996264)" xlink:href="#CMSS17-13"/>
     <use transform="translate(67.542842 0)scale(0.996264)" xlink:href="#CMSS17-65"/>
     <use transform="translate(109.181664 0)scale(0.996264)" xlink:href="#CMSS17-6d"/>
     <use transform="translate(183.410918 0)scale(0.996264)" xlink:href="#CMSS17-6f"/>
     <use transform="translate(232.85698 0)scale(0.996264)" xlink:href="#CMSS17-64"/>
     <use transform="translate(281.061924 0)scale(0.996264)" xlink:href="#CMSS17-75"/>
     <use transform="translate(329.266867 0)scale(0.996264)" xlink:href="#CMSS17-2d"/>
    </g>
    <!-- lation -->
    <g transform="translate(625.081123 204.200547)scale(0.16 -0.16)">
     <use transform="scale(0.996264)" xlink:href="#CMSS17-6c"/>
     <use transform="translate(22.180723 0)scale(0.996264)" xlink:href="#CMSS17-61"/>
     <use transform="translate(67.102644 0)scale(0.996264)" xlink:href="#CMSS17-74"/>
     <use transform="translate(100.93421 0)scale(0.996264)" xlink:href="#CMSS17-69"/>
     <use transform="translate(123.114933 0)scale(0.996264)" xlink:href="#CMSS17-6f"/>
     <use transform="translate(169.958557 0)scale(0.996264)" xlink:href="#CMSS17-6e"/>
    </g>
   </g>
   <g id="text_20">
    <!-- $x(t)$ -->
    <g transform="translate(713.88 76.417056)scale(0.16 -0.16)">
     <defs>
      <path d="M 3034 2606 
C 2829 2567 2752 2414 2752 2293 
C 2752 2139 2874 2088 2963 2088 
C 3155 2088 3290 2254 3290 2427 
C 3290 2695 2982 2816 2714 2816 
C 2323 2816 2106 2433 2048 2312 
C 1901 2816 1504 2816 1389 2816 
C 736 2816 390 1980 390 1839 
C 390 1814 416 1782 461 1782 
C 512 1782 525 1820 538 1846 
C 755 2555 1184 2689 1370 2689 
C 1658 2689 1715 2420 1715 2267 
C 1715 2127 1677 1980 1600 1673 
L 1382 798 
C 1286 415 1101 64 762 64 
C 730 64 570 64 435 147 
C 666 192 717 383 717 460 
C 717 588 621 664 499 664 
C 346 664 179 530 179 326 
C 179 57 480 -64 755 -64 
C 1062 -64 1280 179 1414 441 
C 1517 64 1837 -64 2074 -64 
C 2726 -64 3072 773 3072 913 
C 3072 945 3046 971 3008 971 
C 2950 971 2944 939 2925 888 
C 2752 326 2381 64 2093 64 
C 1869 64 1747 230 1747 492 
C 1747 632 1773 734 1875 1156 
L 2099 2024 
C 2195 2408 2413 2689 2707 2689 
C 2720 2689 2899 2689 3034 2606 
z
" id="CMMI12-78" transform="scale(0.015625)"/>
     </defs>
     <use transform="scale(0.996264)" xlink:href="#CMMI12-78"/>
     <use transform="translate(55.43406 0)scale(0.996264)" xlink:href="#CMR17-28"/>
     <use transform="translate(90.714827 0)scale(0.996264)" xlink:href="#CMMI12-74"/>
     <use transform="translate(125.941158 0)scale(0.996264)" xlink:href="#CMR17-29"/>
    </g>
   </g>
   <g id="text_21">
    <!-- Canal -->
    <g transform="translate(690.147074 136.213056)scale(0.16 -0.16)">
     <use transform="scale(0.996264)" xlink:href="#CMSS17-43"/>
     <use transform="translate(59.855772 0)scale(0.996264)" xlink:href="#CMSS17-61"/>
     <use transform="translate(104.777692 0)scale(0.996264)" xlink:href="#CMSS17-6e"/>
     <use transform="translate(152.982635 0)scale(0.996264)" xlink:href="#CMSS17-61"/>
     <use transform="translate(197.904556 0)scale(0.996264)" xlink:href="#CMSS17-6c"/>
    </g>
   </g>
   <g id="text_22">
    <!-- $y(t)$ -->
    <g transform="translate(713.88 196.009056)scale(0.16 -0.16)">
     <defs>
      <path d="M 1683 -700 
C 1510 -939 1261 -1152 947 -1152 
C 870 -1152 563 -1152 467 -889 
C 486 -895 518 -895 531 -895 
C 723 -895 851 -729 851 -582 
C 851 -435 730 -384 634 -384 
C 531 -384 307 -458 307 -759 
C 307 -1071 582 -1286 947 -1286 
C 1587 -1286 2234 -700 2413 6 
L 3040 2485 
C 3046 2517 3059 2556 3059 2594 
C 3059 2689 2982 2753 2886 2753 
C 2829 2753 2694 2727 2643 2535 
L 2170 658 
C 2138 543 2138 530 2086 460 
C 1958 281 1747 64 1440 64 
C 1082 64 1050 415 1050 588 
C 1050 952 1222 1443 1395 1903 
C 1466 2088 1504 2178 1504 2305 
C 1504 2574 1312 2816 998 2816 
C 410 2816 173 1890 173 1839 
C 173 1814 198 1782 243 1782 
C 301 1782 307 1807 333 1897 
C 486 2433 730 2689 979 2689 
C 1037 2689 1146 2689 1146 2478 
C 1146 2312 1075 2127 979 1884 
C 666 1047 666 837 666 683 
C 666 77 1101 -64 1421 -64 
C 1606 -64 1837 -6 2061 230 
L 2067 224 
C 1971 -147 1907 -392 1683 -700 
z
" id="CMMI12-79" transform="scale(0.015625)"/>
     </defs>
     <use transform="scale(0.996264)" xlink:href="#CMMI12-79"/>
     <use transform="translate(51.138781 0)scale(0.996264)" xlink:href="#CMR17-28"/>
     <use transform="translate(86.419549 0)scale(0.996264)" xlink:href="#CMMI12-74"/>
     <use transform="translate(121.645879 0)scale(0.996264)" xlink:href="#CMR17-29"/>
    </g>
   </g>
  </g>
 </g>
 <defs>
  <clipPath id="pa5b35b9a98">
   <rect height="250.056" width="761.04" x="7.2" y="7.2"/>
  </clipPath>
 </defs>
</svg>
