<?xml version="1.0" encoding="utf-8" standalone="no"?>
<!DOCTYPE svg PUBLIC "-//W3C//DTD SVG 1.1//EN"
  "http://www.w3.org/Graphics/SVG/1.1/DTD/svg11.dtd">
<!-- Created with matplotlib (https://matplotlib.org/) -->
<svg height="264.456pt" version="1.1" viewBox="0 0 775.44 264.456" width="775.44pt" xmlns="http://www.w3.org/2000/svg" xmlns:xlink="http://www.w3.org/1999/xlink">
 <defs>
  <style type="text/css">
*{stroke-linecap:butt;stroke-linejoin:round;}
  </style>
 </defs>
 <g id="figure_1">
  <g id="patch_1">
   <path d="M 0 264.456 
L 775.44 264.456 
L 775.44 0 
L 0 0 
z
" style="fill:#ffffff;"/>
  </g>
  <g id="axes_1">
   <g id="line2d_1">
    <path clip-path="url(#pe45829bce6)" d="M 126.792 257.256 
L 126.792 7.2 
" style="fill:none;stroke:#1f77b4;stroke-dasharray:7.4,3.2;stroke-dashoffset:0;stroke-width:2;"/>
   </g>
   <g id="line2d_2">
    <path clip-path="url(#pe45829bce6)" d="M 643.212 257.256 
L 643.212 7.2 
" style="fill:none;stroke:#1f77b4;stroke-dasharray:7.4,3.2;stroke-dashoffset:0;stroke-width:2;"/>
   </g>
   <g id="patch_2">
    <path clip-path="url(#pe45829bce6)" d="M 88.74 94.176 
L 164.844 94.176 
L 164.844 50.688 
L 88.74 50.688 
z
" style="fill:#ffffff;stroke:#000000;stroke-linejoin:miter;"/>
   </g>
   <g id="patch_3">
    <path clip-path="url(#pe45829bce6)" d="M 192.024 94.176 
L 268.128 94.176 
L 268.128 50.688 
L 192.024 50.688 
z
" style="fill:#ffffff;stroke:#000000;stroke-linejoin:miter;"/>
   </g>
   <g id="patch_4">
    <path clip-path="url(#pe45829bce6)" d="M 295.308 94.176 
L 371.412 94.176 
L 371.412 50.688 
L 295.308 50.688 
z
" style="fill:#ffffff;stroke:#000000;stroke-linejoin:miter;"/>
   </g>
   <g id="patch_5">
    <path clip-path="url(#pe45829bce6)" d="M 398.592 94.176 
L 474.696 94.176 
L 474.696 50.688 
L 398.592 50.688 
z
" style="fill:#ffffff;stroke:#000000;stroke-linejoin:miter;"/>
   </g>
   <g id="patch_6">
    <path clip-path="url(#pe45829bce6)" d="M 501.876 94.176 
L 577.98 94.176 
L 577.98 50.688 
L 501.876 50.688 
z
" style="fill:#ffffff;stroke:#000000;stroke-linejoin:miter;"/>
   </g>
   <g id="patch_7">
    <path clip-path="url(#pe45829bce6)" d="M 605.16 94.176 
L 681.264 94.176 
L 681.264 50.688 
L 605.16 50.688 
z
" style="fill:#ffffff;stroke:#000000;stroke-linejoin:miter;"/>
   </g>
   <g id="patch_8">
    <path clip-path="url(#pe45829bce6)" d="M 88.74 213.768 
L 164.844 213.768 
L 164.844 170.28 
L 88.74 170.28 
z
" style="fill:#ffffff;stroke:#000000;stroke-linejoin:miter;"/>
   </g>
   <g id="patch_9">
    <path clip-path="url(#pe45829bce6)" d="M 192.024 213.768 
L 268.128 213.768 
L 268.128 170.28 
L 192.024 170.28 
z
" style="fill:#ffffff;stroke:#000000;stroke-linejoin:miter;"/>
   </g>
   <g id="patch_10">
    <path clip-path="url(#pe45829bce6)" d="M 295.308 213.768 
L 371.412 213.768 
L 371.412 170.28 
L 295.308 170.28 
z
" style="fill:#ffffff;stroke:#000000;stroke-linejoin:miter;"/>
   </g>
   <g id="patch_11">
    <path clip-path="url(#pe45829bce6)" d="M 398.592 213.768 
L 474.696 213.768 
L 474.696 170.28 
L 398.592 170.28 
z
" style="fill:#ffffff;stroke:#000000;stroke-linejoin:miter;"/>
   </g>
   <g id="patch_12">
    <path clip-path="url(#pe45829bce6)" d="M 501.876 213.768 
L 577.98 213.768 
L 577.98 170.28 
L 501.876 170.28 
z
" style="fill:#ffffff;stroke:#000000;stroke-linejoin:miter;"/>
   </g>
   <g id="patch_13">
    <path clip-path="url(#pe45829bce6)" d="M 605.16 213.768 
L 681.264 213.768 
L 681.264 170.28 
L 605.16 170.28 
z
" style="fill:#ffffff;stroke:#000000;stroke-linejoin:miter;"/>
   </g>
   <g id="patch_14">
    <path clip-path="url(#pe45829bce6)" d="M 686.7 159.408 
L 730.188 159.408 
L 730.188 105.048 
L 686.7 105.048 
z
" style="fill:#ffffff;stroke:#000000;stroke-linejoin:miter;"/>
   </g>
   <g id="patch_15">
    <path clip-path="url(#pe45829bce6)" d="M 88.74 72.432 
L 83.304 75.15 
L 83.304 72.45918 
L 61.56 72.45918 
L 61.56 72.40482 
L 83.304 72.40482 
L 83.304 69.714 
z
" style="stroke:#000000;stroke-linejoin:miter;stroke-width:0.5;"/>
   </g>
   <g id="patch_16">
    <path clip-path="url(#pe45829bce6)" d="M 192.024 72.432 
L 186.588 75.15 
L 186.588 72.45918 
L 164.844 72.45918 
L 164.844 72.40482 
L 186.588 72.40482 
L 186.588 69.714 
z
" style="stroke:#000000;stroke-linejoin:miter;stroke-width:0.5;"/>
   </g>
   <g id="patch_17">
    <path clip-path="url(#pe45829bce6)" d="M 295.308 72.432 
L 289.872 75.15 
L 289.872 72.45918 
L 268.128 72.45918 
L 268.128 72.40482 
L 289.872 72.40482 
L 289.872 69.714 
z
" style="stroke:#000000;stroke-linejoin:miter;stroke-width:0.5;"/>
   </g>
   <g id="patch_18">
    <path clip-path="url(#pe45829bce6)" d="M 398.592 72.432 
L 393.156 75.15 
L 393.156 72.45918 
L 371.412 72.45918 
L 371.412 72.40482 
L 393.156 72.40482 
L 393.156 69.714 
z
" style="stroke:#000000;stroke-linejoin:miter;stroke-width:0.5;"/>
   </g>
   <g id="patch_19">
    <path clip-path="url(#pe45829bce6)" d="M 501.876 72.432 
L 496.44 75.15 
L 496.44 72.45918 
L 474.696 72.45918 
L 474.696 72.40482 
L 496.44 72.40482 
L 496.44 69.714 
z
" style="stroke:#000000;stroke-linejoin:miter;stroke-width:0.5;"/>
   </g>
   <g id="patch_20">
    <path clip-path="url(#pe45829bce6)" d="M 605.16 72.432 
L 599.724 75.15 
L 599.724 72.45918 
L 577.98 72.45918 
L 577.98 72.40482 
L 599.724 72.40482 
L 599.724 69.714 
z
" style="stroke:#000000;stroke-linejoin:miter;stroke-width:0.5;"/>
   </g>
   <g id="patch_21">
    <path clip-path="url(#pe45829bce6)" d="M 178.434 219.204 
L 175.716 213.768 
L 178.40682 213.768 
L 178.40682 192.024 
L 178.46118 192.024 
L 178.46118 213.768 
L 181.152 213.768 
z
" style="stroke:#000000;stroke-linejoin:miter;stroke-width:0.5;"/>
   </g>
   <g id="patch_22">
    <path clip-path="url(#pe45829bce6)" d="M 61.56 192.024 
L 66.996 189.306 
L 66.996 191.99682 
L 88.74 191.99682 
L 88.74 192.05118 
L 66.996 192.05118 
L 66.996 194.742 
z
" style="stroke:#000000;stroke-linejoin:miter;stroke-width:0.5;"/>
   </g>
   <g id="patch_23">
    <path clip-path="url(#pe45829bce6)" d="M 164.844 192.024 
L 170.28 189.306 
L 170.28 191.99682 
L 192.024 191.99682 
L 192.024 192.05118 
L 170.28 192.05118 
L 170.28 194.742 
z
" style="stroke:#000000;stroke-linejoin:miter;stroke-width:0.5;"/>
   </g>
   <g id="patch_24">
    <path clip-path="url(#pe45829bce6)" d="M 268.128 192.024 
L 273.564 189.306 
L 273.564 191.99682 
L 295.308 191.99682 
L 295.308 192.05118 
L 273.564 192.05118 
L 273.564 194.742 
z
" style="stroke:#000000;stroke-linejoin:miter;stroke-width:0.5;"/>
   </g>
   <g id="patch_25">
    <path clip-path="url(#pe45829bce6)" d="M 371.412 192.024 
L 376.848 189.306 
L 376.848 191.99682 
L 398.592 191.99682 
L 398.592 192.05118 
L 376.848 192.05118 
L 376.848 194.742 
z
" style="stroke:#000000;stroke-linejoin:miter;stroke-width:0.5;"/>
   </g>
   <g id="patch_26">
    <path clip-path="url(#pe45829bce6)" d="M 474.696 192.024 
L 480.132 189.306 
L 480.132 191.99682 
L 501.876 191.99682 
L 501.876 192.05118 
L 480.132 192.05118 
L 480.132 194.742 
z
" style="stroke:#000000;stroke-linejoin:miter;stroke-width:0.5;"/>
   </g>
   <g id="patch_27">
    <path clip-path="url(#pe45829bce6)" d="M 577.98 192.024 
L 583.416 189.306 
L 583.416 191.99682 
L 605.16 191.99682 
L 605.16 192.05118 
L 583.416 192.05118 
L 583.416 194.742 
z
" style="stroke:#000000;stroke-linejoin:miter;stroke-width:0.5;"/>
   </g>
   <g id="patch_28">
    <path clip-path="url(#pe45829bce6)" d="M 708.444 72.432 
L 708.19938 72.51354 
L 708.19938 72.45918 
L 681.264 72.45918 
L 681.264 72.40482 
L 708.19938 72.40482 
L 708.19938 72.35046 
z
" style="stroke:#000000;stroke-linejoin:miter;stroke-width:0.5;"/>
   </g>
   <g id="patch_29">
    <path clip-path="url(#pe45829bce6)" d="M 708.444 105.048 
L 705.726 99.612 
L 708.41682 99.612 
L 708.41682 72.432 
L 708.47118 72.432 
L 708.47118 99.612 
L 711.162 99.612 
z
" style="stroke:#000000;stroke-linejoin:miter;stroke-width:0.5;"/>
   </g>
   <g id="patch_30">
    <path clip-path="url(#pe45829bce6)" d="M 708.444 192.024 
L 708.36246 191.77938 
L 708.41682 191.77938 
L 708.41682 159.408 
L 708.47118 159.408 
L 708.47118 191.77938 
L 708.52554 191.77938 
z
" style="stroke:#000000;stroke-linejoin:miter;stroke-width:0.5;"/>
   </g>
   <g id="patch_31">
    <path clip-path="url(#pe45829bce6)" d="M 681.264 192.024 
L 686.7 189.306 
L 686.7 191.99682 
L 708.444 191.99682 
L 708.444 192.05118 
L 686.7 192.05118 
L 686.7 194.742 
z
" style="stroke:#000000;stroke-linejoin:miter;stroke-width:0.5;"/>
   </g>
   <g id="line2d_3">
    <path clip-path="url(#pe45829bce6)" d="M 178.434 72.432 
L 178.434 45.252 
" style="fill:none;stroke:#000000;stroke-linecap:square;"/>
   </g>
   <g id="text_1">
    <!-- Analogique -->
    <defs>
     <path d="M 35.5 69 
L 26.90625 69 
L 2.59375 0 
L 10.203125 0 
L 17.203125 20 
L 44 20 
L 51.09375 0 
L 59.796875 0 
z
M 42.09375 25.59375 
L 19.09375 25.59375 
C 23.90625 39.53125 29.90625 56.84375 30.59375 61.3125 
L 30.703125 61.3125 
C 31.40625 57.234375 33.40625 51.265625 35.09375 46.1875 
z
" id="CMSS17-65"/>
     <path d="M 40.90625 29.34375 
C 40.90625 35.671875 39.40625 44 28.09375 44 
C 21.703125 44 17.5 40.6875 14.703125 37.28125 
L 14.703125 43.484375 
L 7.40625 43.484375 
L 7.40625 0 
L 15 0 
L 15 24.3125 
C 15 30.65625 17.40625 37.890625 24.203125 37.890625 
C 33 37.890625 33.296875 31.953125 33.296875 28.53125 
L 33.296875 0 
L 40.90625 0 
z
" id="CMSS17-110"/>
     <path d="M 37.59375 27.953125 
C 37.59375 37.484375 30.90625 44 21.90625 44 
C 17.5 44 12.703125 43.1875 7.203125 39.984375 
L 7.796875 33.328125 
C 10.296875 35.15625 14.59375 38.09375 21.796875 38.09375 
C 26.90625 38.09375 30 34.140625 30 27.84375 
L 30 24 
C 14 23.5 4 18.890625 4 11.109375 
C 4 7.0625 6.5 -1 14.796875 -1 
C 16.296875 -1 24.40625 -0.8125 30.203125 3.5 
L 30.203125 -0.203125 
L 37.59375 -0.203125 
z
M 30 12.875 
C 30 11.109375 30 8.734375 27 6.96875 
C 24.40625 5.296875 21.09375 5.09375 19.703125 5.09375 
C 14.703125 5.09375 11.296875 7.859375 11.296875 11.296875 
C 11.296875 18.203125 26.90625 18.890625 30 19 
z
" id="CMSS17-97"/>
     <path d="M 14.796875 69 
L 7.40625 69 
L 7.40625 0 
L 14.796875 0 
z
" id="CMSS17-108"/>
     <path d="M 44.203125 21.1875 
C 44.203125 33.984375 34.703125 44 23.5 44 
C 12 44 2.703125 33.6875 2.703125 21.1875 
C 2.703125 8.5 12.296875 -1 23.40625 -1 
C 34.796875 -1 44.203125 8.796875 44.203125 21.1875 
z
M 23.5 5.296875 
C 16.40625 5.296875 10.296875 11.09375 10.296875 21.984375 
C 10.296875 33.59375 17.40625 37.890625 23.40625 37.890625 
C 29.90625 37.890625 36.59375 33.1875 36.59375 21.984375 
C 36.59375 10.6875 30.09375 5.296875 23.5 5.296875 
z
" id="CMSS17-111"/>
     <path d="M 44.5 44 
C 38.796875 43.890625 33.90625 42.796875 29.90625 40.890625 
C 26.59375 43.484375 23.203125 44 20.90625 44 
C 12.203125 44 5.59375 36.8125 5.59375 28.5 
C 5.59375 23.140625 8.59375 19.09375 8.796875 18.890625 
C 7 16.390625 6 13.6875 6 10.6875 
C 6 7.1875 7.40625 4.6875 8.5 3.296875 
C 3.296875 0.09375 2.59375 -4.8125 2.59375 -6.703125 
C 2.59375 -14 11.703125 -20 23.40625 -20 
C 35.203125 -20 44.296875 -14 44.296875 -6.609375 
C 44.296875 7.1875 29 7.296875 24.796875 7.296875 
L 16.703125 7.296875 
C 15.203125 7.296875 11.203125 7.296875 11.203125 12.390625 
C 11.203125 14.390625 12.09375 15.6875 12.203125 15.796875 
C 13.703125 14.6875 16.796875 13 20.90625 13 
C 29.203125 13 36.09375 19.984375 36.09375 28.5 
C 36.09375 33.25 33.90625 36.703125 33 37.890625 
L 33.296875 37.890625 
C 33.59375 37.890625 37.796875 38.1875 39.296875 38.1875 
C 42.5 38.1875 42.796875 38.09375 45.59375 37.796875 
z
M 20.90625 18.5 
C 17.5 18.5 12.703125 20.578125 12.703125 28.5 
C 12.703125 37.109375 18.203125 38.484375 20.796875 38.484375 
C 24.203125 38.484375 29 36.40625 29 28.5 
C 29 19.875 23.5 18.5 20.90625 18.5 
z
M 24.703125 0 
C 27.09375 0 37.203125 0 37.203125 -6.8125 
C 37.203125 -11.109375 31 -14.5 23.5 -14.5 
C 15.90625 -14.5 9.703125 -11.203125 9.703125 -6.703125 
C 9.703125 -6.203125 9.703125 0 16.59375 0 
z
" id="CMSS17-103"/>
     <path d="M 15.296875 66 
L 6.90625 66 
L 6.90625 57.59375 
L 15.296875 57.59375 
z
M 14.796875 43 
L 7.40625 43 
L 7.40625 0 
L 14.796875 0 
z
" id="CMSS17-105"/>
     <path d="M 40.796875 44 
L 33.40625 44 
L 33.40625 37.890625 
C 33 38.390625 28.40625 44 20.59375 44 
C 11.5 44 3.296875 34.65625 3.296875 21.390625 
C 3.296875 9.140625 10.203125 -1 19.203125 -1 
C 23.40625 -1 28.703125 0.5 33.203125 4.796875 
L 33.203125 -20 
L 40.796875 -20 
z
M 33.40625 13.59375 
C 33.40625 12.28125 33.40625 10.453125 30.296875 7.828125 
C 29.5 7.125 27.296875 5.09375 23.5 5.09375 
C 16.40625 5.09375 10.90625 12.578125 10.90625 21.390625 
C 10.90625 31.21875 17.59375 37.6875 24.40625 37.6875 
C 30.09375 37.6875 33.40625 32.015625 33.40625 27.765625 
z
" id="CMSS17-113"/>
     <path d="M 40.90625 43 
L 33.296875 43 
L 33.296875 15.25 
C 33.296875 7.8125 27.90625 4.796875 22.203125 4.796875 
C 15.59375 4.796875 15 7 15 11.125 
L 15 43 
L 7.40625 43 
L 7.40625 10.625 
C 7.40625 2.796875 10.09375 -1 17 -1 
C 20.40625 -1 28.09375 -0.203125 33.5 4.796875 
L 33.5 -0.203125 
L 40.90625 -0.203125 
z
" id="CMSS17-117"/>
     <path d="M 39.09375 21.484375 
C 39.09375 24.796875 38.90625 31.265625 35.703125 36.671875 
C 32.203125 42.390625 26.5 44 22.203125 44 
C 11.796875 44 3 34.125 3 21.296875 
C 3 9.046875 12.09375 -1 23.59375 -1 
C 28.09375 -1 33.59375 0.296875 38.59375 3.890625 
C 38.59375 4.296875 38.40625 6.46875 38.296875 6.578125 
C 38.296875 6.765625 38 9.828125 38 10.234375 
C 33.203125 6.375 27.703125 5.09375 23.703125 5.09375 
C 17.296875 5.09375 10.40625 10.421875 10.09375 21.484375 
z
M 10.90625 27 
C 12.203125 32.59375 16.59375 37.890625 22.203125 37.890625 
C 23.703125 37.890625 30.703125 37.6875 32.5 27 
z
" id="CMSS17-101"/>
    </defs>
    <g style="fill:#1f77b4;" transform="translate(31.149353 243.284524)scale(0.16 -0.16)">
     <use transform="scale(0.996264)" xlink:href="#CMSS17-65"/>
     <use transform="translate(62.217855 0)scale(0.996264)" xlink:href="#CMSS17-110"/>
     <use transform="translate(110.422798 0)scale(0.996264)" xlink:href="#CMSS17-97"/>
     <use transform="translate(155.344719 0)scale(0.996264)" xlink:href="#CMSS17-108"/>
     <use transform="translate(177.525442 0)scale(0.996264)" xlink:href="#CMSS17-111"/>
     <use transform="translate(224.369065 0)scale(0.996264)" xlink:href="#CMSS17-103"/>
     <use transform="translate(271.212689 0)scale(0.996264)" xlink:href="#CMSS17-105"/>
     <use transform="translate(293.393412 0)scale(0.996264)" xlink:href="#CMSS17-113"/>
     <use transform="translate(341.598355 0)scale(0.996264)" xlink:href="#CMSS17-117"/>
     <use transform="translate(389.803298 0)scale(0.996264)" xlink:href="#CMSS17-101"/>
    </g>
   </g>
   <g id="text_2">
    <!-- Numérique -->
    <defs>
     <path d="M 22.90625 65.296875 
L 21.09375 69 
L 8.796875 69 
L 8.796875 0 
L 16.59375 0 
L 16.59375 61.328125 
L 16.703125 61.421875 
C 17.40625 59.640625 17.796875 58.734375 21.90625 49.890625 
L 43.296875 3.6875 
L 45.09375 0 
L 57.40625 0 
L 57.40625 69 
L 49.59375 69 
L 49.59375 7.65625 
L 49.5 7.5625 
C 48.796875 9.34375 48.40625 10.234375 44.296875 19.09375 
z
" id="CMSS17-78"/>
     <path d="M 67 29.34375 
C 67 36.078125 65.296875 44 54.09375 44 
C 46.59375 44 42.09375 39.296875 40.09375 36.375 
C 38.296875 41.6875 34.09375 44 28.09375 44 
C 21.296875 44 17 40.09375 14.703125 37.28125 
L 14.703125 43.484375 
L 7.40625 43.484375 
L 7.40625 0 
L 15 0 
L 15 24.3125 
C 15 30.25 17.203125 37.890625 24.296875 37.890625 
C 33.40625 37.890625 33.40625 31.453125 33.40625 28.53125 
L 33.40625 0 
L 41 0 
L 41 24.3125 
C 41 30.25 43.203125 37.890625 50.296875 37.890625 
C 59.40625 37.890625 59.40625 31.453125 59.40625 28.53125 
L 59.40625 0 
L 67 0 
z
" id="CMSS17-109"/>
     <path d="M 39.09375 69 
L 31.5 69 
L 19.09375 51.890625 
L 25.203125 51.890625 
z
" id="CMSS17-19"/>
     <path d="M 14.90625 21.390625 
C 14.90625 30.84375 21.796875 37.171875 30.59375 37.375 
L 30.59375 44 
C 24.203125 43.890625 18.203125 40.6875 14.59375 35.46875 
L 14.59375 43.484375 
L 7.5 43.484375 
L 7.5 0 
L 14.90625 0 
z
" id="CMSS17-114"/>
    </defs>
    <g style="fill:#1f77b4;" transform="translate(349.925597 243.284524)scale(0.16 -0.16)">
     <use transform="scale(0.996264)" xlink:href="#CMSS17-78"/>
     <use transform="translate(66.061519 0)scale(0.996264)" xlink:href="#CMSS17-117"/>
     <use transform="translate(114.266462 0)scale(0.996264)" xlink:href="#CMSS17-109"/>
     <use transform="translate(185.893308 0)scale(0.996264)" xlink:href="#CMSS17-19"/>
     <use transform="translate(188.495717 0)scale(0.996264)" xlink:href="#CMSS17-101"/>
     <use transform="translate(230.134539 0)scale(0.996264)" xlink:href="#CMSS17-114"/>
     <use transform="translate(262.044311 0)scale(0.996264)" xlink:href="#CMSS17-105"/>
     <use transform="translate(284.225034 0)scale(0.996264)" xlink:href="#CMSS17-113"/>
     <use transform="translate(332.429978 0)scale(0.996264)" xlink:href="#CMSS17-117"/>
     <use transform="translate(380.634921 0)scale(0.996264)" xlink:href="#CMSS17-101"/>
    </g>
   </g>
   <g id="text_3">
    <!-- Analogique -->
    <g style="fill:#1f77b4;" transform="translate(661.725353 243.284524)scale(0.16 -0.16)">
     <use transform="scale(0.996264)" xlink:href="#CMSS17-65"/>
     <use transform="translate(62.217855 0)scale(0.996264)" xlink:href="#CMSS17-110"/>
     <use transform="translate(110.422798 0)scale(0.996264)" xlink:href="#CMSS17-97"/>
     <use transform="translate(155.344719 0)scale(0.996264)" xlink:href="#CMSS17-108"/>
     <use transform="translate(177.525442 0)scale(0.996264)" xlink:href="#CMSS17-111"/>
     <use transform="translate(224.369065 0)scale(0.996264)" xlink:href="#CMSS17-103"/>
     <use transform="translate(271.212689 0)scale(0.996264)" xlink:href="#CMSS17-105"/>
     <use transform="translate(293.393412 0)scale(0.996264)" xlink:href="#CMSS17-113"/>
     <use transform="translate(341.598355 0)scale(0.996264)" xlink:href="#CMSS17-117"/>
     <use transform="translate(389.803298 0)scale(0.996264)" xlink:href="#CMSS17-101"/>
    </g>
   </g>
   <g id="text_4">
    <!-- $m(t)$ -->
    <defs>
     <path d="M 20.59375 29.21875 
C 20.796875 29.828125 23.296875 34.8125 27 38 
C 29.59375 40.390625 33 41.984375 36.90625 41.984375 
C 40.90625 41.984375 42.296875 39 42.296875 35.015625 
C 42.296875 34.40625 42.296875 32.421875 41.09375 27.734375 
L 38.59375 17.453125 
C 37.796875 14.453125 35.90625 7.078125 35.703125 5.984375 
C 35.296875 4.484375 34.703125 1.890625 34.703125 1.484375 
C 34.703125 0.09375 35.796875 -1 37.296875 -1 
C 40.296875 -1 40.796875 1.296875 41.703125 4.890625 
L 47.703125 28.71875 
C 47.90625 29.53125 53.09375 41.984375 64.09375 41.984375 
C 68.09375 41.984375 69.5 39 69.5 35.015625 
C 69.5 29.421875 65.59375 18.546875 63.40625 12.5625 
C 62.5 10.171875 62 8.875 62 7.078125 
C 62 2.59375 65.09375 -1 69.90625 -1 
C 79.203125 -1 82.703125 13.65625 82.703125 14.265625 
C 82.703125 14.765625 82.296875 15.15625 81.703125 15.15625 
C 80.796875 15.15625 80.703125 14.859375 80.203125 13.15625 
C 77.90625 5.1875 74.203125 1 70.203125 1 
C 69.203125 1 67.59375 1.09375 67.59375 4.28125 
C 67.59375 6.875 68.796875 10.078125 69.203125 11.171875 
C 71 15.953125 75.5 27.734375 75.5 33.515625 
C 75.5 39.5 72 44 64.40625 44 
C 57.703125 44 52.296875 40.203125 48.296875 34.3125 
C 48 39.703125 44.703125 44 37.203125 44 
C 28.296875 44 23.59375 37.703125 21.796875 35.203125 
C 21.5 40.890625 17.40625 44 13 44 
C 10.09375 44 7.796875 42.59375 5.90625 38.796875 
C 4.09375 35.203125 2.703125 29.125 2.703125 28.71875 
C 2.703125 28.328125 3.09375 27.828125 3.796875 27.828125 
C 4.59375 27.828125 4.703125 27.921875 5.296875 30.21875 
C 6.796875 36.109375 8.703125 41.984375 12.703125 41.984375 
C 15 41.984375 15.796875 40.390625 15.796875 37.40625 
C 15.796875 35.203125 14.796875 31.3125 14.09375 28.234375 
L 11.296875 17.453125 
C 10.90625 15.5625 9.796875 11.0625 9.296875 9.265625 
C 8.59375 6.671875 7.5 1.984375 7.5 1.484375 
C 7.5 0.09375 8.59375 -1 10.09375 -1 
C 11.296875 -1 12.703125 -0.40625 13.5 1.09375 
C 13.703125 1.59375 14.59375 5.078125 15.09375 7.078125 
L 17.296875 16.0625 
z
" id="CMMI12-109"/>
     <path d="M 30.59375 -24.40625 
C 30.59375 -24.3125 30.59375 -24.109375 30.296875 -23.8125 
C 25.703125 -19.109375 13.40625 -6.296875 13.40625 24.9375 
C 13.40625 56.171875 25.5 68.875 30.40625 73.890625 
C 30.40625 73.984375 30.59375 74.1875 30.59375 74.484375 
C 30.59375 74.796875 30.296875 75 29.90625 75 
C 28.796875 75 20.296875 67.578125 15.40625 56.5625 
C 10.40625 45.453125 9 34.65625 9 25.046875 
C 9 17.828125 9.703125 5.625 15.703125 -7.296875 
C 20.5 -17.703125 28.703125 -25 29.90625 -25 
C 30.40625 -25 30.59375 -24.8125 30.59375 -24.40625 
z
" id="CMR17-40"/>
     <path d="M 20.09375 40.09375 
L 29.296875 40.09375 
C 31.203125 40.09375 32.203125 40.09375 32.203125 41.890625 
C 32.203125 43 31.59375 43 29.59375 43 
L 20.796875 43 
L 24.5 57.25 
C 24.90625 58.625 24.90625 58.8125 24.90625 59.5 
C 24.90625 61.09375 23.59375 62 22.296875 62 
C 21.5 62 19.203125 61.6875 18.40625 58.53125 
L 14.5 43 
L 5.09375 43 
C 3.09375 43 2.203125 43 2.203125 41.09375 
C 2.203125 40.09375 2.90625 40.09375 4.796875 40.09375 
L 13.703125 40.09375 
L 7.09375 13.765625 
C 6.296875 10.265625 6 9.265625 6 7.96875 
C 6 3.28125 9.296875 -1 14.90625 -1 
C 25 -1 30.40625 13.5625 30.40625 14.265625 
C 30.40625 14.859375 30 15.15625 29.40625 15.15625 
C 29.203125 15.15625 28.796875 15.15625 28.59375 14.75 
C 28.5 14.65625 28.40625 14.5625 27.703125 12.96875 
C 25.59375 7.96875 21 1 15.203125 1 
C 12.203125 1 12 3.484375 12 5.6875 
C 12 5.78125 12 7.671875 12.296875 8.875 
z
" id="CMMI12-116"/>
     <path d="M 26.296875 24.9375 
C 26.296875 32.140625 25.59375 44.359375 19.59375 57.265625 
C 14.796875 67.6875 6.59375 75 5.40625 75 
C 5.09375 75 4.703125 74.890625 4.703125 74.390625 
C 4.703125 74.1875 4.796875 74.09375 4.90625 73.890625 
C 9.703125 68.875 21.90625 56.171875 21.90625 25.046875 
C 21.90625 -6.1875 9.796875 -18.90625 4.90625 -23.90625 
C 4.796875 -24.109375 4.703125 -24.203125 4.703125 -24.40625 
C 4.703125 -24.90625 5.09375 -25 5.40625 -25 
C 6.5 -25 15 -17.609375 19.90625 -6.59375 
C 24.90625 4.515625 26.296875 15.328125 26.296875 24.9375 
z
" id="CMR17-41"/>
    </defs>
    <g transform="translate(18.072 76.417056)scale(0.16 -0.16)">
     <use transform="scale(0.996264)" xlink:href="#CMMI12-109"/>
     <use transform="translate(85.327224 0)scale(0.996264)" xlink:href="#CMR17-40"/>
     <use transform="translate(120.607992 0)scale(0.996264)" xlink:href="#CMMI12-116"/>
     <use transform="translate(155.834322 0)scale(0.996264)" xlink:href="#CMR17-41"/>
    </g>
   </g>
   <g id="text_5">
    <!-- $m[n]$ -->
    <defs>
     <path d="M 23.5 -25 
L 23.5 -21.5 
L 14.09375 -21.5 
L 14.09375 71.484375 
L 23.5 71.484375 
L 23.5 75 
L 10.59375 75 
L 10.59375 -25 
z
" id="CMR17-91"/>
     <path d="M 20.59375 29.21875 
C 20.796875 29.828125 23.296875 34.8125 27 38 
C 29.59375 40.390625 33 41.984375 36.90625 41.984375 
C 40.90625 41.984375 42.296875 39 42.296875 35.015625 
C 42.296875 29.328125 38.203125 17.953125 36.203125 12.5625 
C 35.296875 10.171875 34.796875 8.875 34.796875 7.078125 
C 34.796875 2.59375 37.90625 -1 42.703125 -1 
C 52 -1 55.5 13.65625 55.5 14.265625 
C 55.5 14.765625 55.09375 15.15625 54.5 15.15625 
C 53.59375 15.15625 53.5 14.859375 53 13.15625 
C 50.703125 4.984375 46.90625 1 43 1 
C 42 1 40.40625 1.09375 40.40625 4.28125 
C 40.40625 6.78125 41.5 9.765625 42.09375 11.171875 
C 44.09375 16.65625 48.296875 27.828125 48.296875 33.515625 
C 48.296875 39.5 44.796875 44 37.203125 44 
C 28.296875 44 23.59375 37.703125 21.796875 35.203125 
C 21.5 40.890625 17.40625 44 13 44 
C 9.796875 44 7.59375 42.09375 5.90625 38.703125 
C 4.09375 35.109375 2.703125 29.125 2.703125 28.71875 
C 2.703125 28.328125 3.09375 27.828125 3.796875 27.828125 
C 4.59375 27.828125 4.703125 27.921875 5.296875 30.21875 
C 6.90625 36.3125 8.703125 41.984375 12.703125 41.984375 
C 15 41.984375 15.796875 40.390625 15.796875 37.40625 
C 15.796875 35.203125 14.796875 31.3125 14.09375 28.234375 
L 11.296875 17.453125 
C 10.90625 15.5625 9.796875 11.0625 9.296875 9.265625 
C 8.59375 6.671875 7.5 1.984375 7.5 1.484375 
C 7.5 0.09375 8.59375 -1 10.09375 -1 
C 11.296875 -1 12.703125 -0.40625 13.5 1.09375 
C 13.703125 1.59375 14.59375 5.078125 15.09375 7.078125 
L 17.296875 16.0625 
z
" id="CMMI12-110"/>
     <path d="M 14.296875 75 
L 1.40625 75 
L 1.40625 71.484375 
L 10.796875 71.484375 
L 10.796875 -21.5 
L 1.40625 -21.5 
L 1.40625 -25 
L 14.296875 -25 
z
" id="CMR17-93"/>
    </defs>
    <g transform="translate(162.61387 27.493056)scale(0.16 -0.16)">
     <use transform="scale(0.996264)" xlink:href="#CMMI12-109"/>
     <use transform="translate(85.327224 0)scale(0.996264)" xlink:href="#CMR17-91"/>
     <use transform="translate(110.198283 0)scale(0.996264)" xlink:href="#CMMI12-110"/>
     <use transform="translate(168.42833 0)scale(0.996264)" xlink:href="#CMR17-93"/>
    </g>
   </g>
   <g id="text_6">
    <!-- CAN -->
    <defs>
     <path d="M 54.703125 11.015625 
C 48 6.5 44.90625 5.1875 36.796875 5.1875 
C 22.796875 5.1875 14.59375 20.375 14.59375 34.234375 
C 14.59375 49.015625 23 63.59375 37.203125 63.59375 
C 43.59375 63.59375 47.796875 61.78125 52.90625 58.5625 
L 54.296875 66.484375 
C 49.5 68.890625 43.40625 70 37.296875 70 
C 18.09375 70 6.203125 52.234375 6.203125 34.234375 
C 6.203125 14.4375 20.296875 -1.203125 36.296875 -1.203125 
C 44.90625 -1.203125 47.90625 -0.5 55.296875 4.1875 
z
" id="CMSS17-67"/>
    </defs>
    <g transform="translate(111.17942 76.417056)scale(0.16 -0.16)">
     <use transform="scale(0.996264)" xlink:href="#CMSS17-67"/>
     <use transform="translate(59.855772 0)scale(0.996264)" xlink:href="#CMSS17-65"/>
     <use transform="translate(122.073626 0)scale(0.996264)" xlink:href="#CMSS17-78"/>
    </g>
   </g>
   <g id="text_7">
    <!-- Codage -->
    <defs>
     <path d="M 40.796875 69 
L 33.40625 69 
L 33.40625 38.984375 
C 30.296875 41.59375 25.203125 44 19.59375 44 
C 10.5 44 3.296875 34.046875 3.296875 21.484375 
C 3.296875 8.9375 10.40625 -1 19.296875 -1 
C 26.203125 -1 30.796875 2.6875 33.203125 4.796875 
L 33.203125 -0.203125 
L 40.796875 -0.203125 
z
M 33.203125 13.296875 
C 33.203125 11.875 33.203125 10.359375 30.09375 7.625 
C 28.09375 5.90625 25.703125 5.09375 23.40625 5.09375 
C 18 5.09375 10.90625 9.140625 10.90625 21.390625 
C 10.90625 34.140625 18.90625 37.890625 24.40625 37.890625 
C 28.09375 37.890625 31.09375 36.0625 33.203125 33.03125 
z
" id="CMSS17-100"/>
    </defs>
    <g transform="translate(205.861506 68.225565)scale(0.16 -0.16)">
     <use transform="scale(0.996264)" xlink:href="#CMSS17-67"/>
     <use transform="translate(59.855772 0)scale(0.996264)" xlink:href="#CMSS17-111"/>
     <use transform="translate(109.301834 0)scale(0.996264)" xlink:href="#CMSS17-100"/>
     <use transform="translate(157.506777 0)scale(0.996264)" xlink:href="#CMSS17-97"/>
     <use transform="translate(202.428698 0)scale(0.996264)" xlink:href="#CMSS17-103"/>
     <use transform="translate(249.272321 0)scale(0.996264)" xlink:href="#CMSS17-101"/>
    </g>
    <!-- source -->
    <defs>
     <path d="M 32.203125 40.984375 
C 26.296875 43.796875 21.703125 44 18.703125 44 
C 11.59375 44 3.09375 41.484375 3.09375 31.390625 
C 3.09375 21.296875 14.09375 19.09375 17.09375 18.484375 
C 21.703125 17.59375 26.796875 16.59375 26.796875 11.59375 
C 26.796875 5.296875 19.59375 5.296875 18.296875 5.296875 
C 14.296875 5.296875 8.796875 6.390625 3.796875 9.984375 
L 2.59375 3.296875 
C 8.296875 0 13.796875 -1 18.40625 -1 
C 30.703125 -1 33.796875 6.5 33.796875 12.1875 
C 33.796875 17.09375 31 20.390625 29.09375 21.890625 
C 25.796875 24.484375 24.59375 24.796875 16.40625 26.484375 
C 15 26.6875 10.09375 27.796875 10.09375 32.296875 
C 10.09375 37.984375 16.40625 37.984375 17.796875 37.984375 
C 24.296875 37.984375 28.296875 35.984375 31 34.484375 
z
" id="CMSS17-115"/>
     <path d="M 38.5 39.6875 
C 38.5 40.390625 33.90625 42.390625 32.703125 42.796875 
C 29.40625 44 25.203125 44 24.09375 44 
C 11.09375 44 3.296875 32.6875 3.296875 21.296875 
C 3.296875 9.296875 12 -1 23.703125 -1 
C 30.40625 -1 35.203125 1.1875 39.09375 3.796875 
L 38.5 10.390625 
C 34.203125 7.09375 29.203125 5.296875 23.796875 5.296875 
C 16 5.296875 10.90625 12.09375 10.90625 21.390625 
C 10.90625 28.59375 14.203125 37.6875 24.203125 37.6875 
C 29.703125 37.6875 32.796875 36.59375 37.40625 33.484375 
z
" id="CMSS17-99"/>
    </defs>
    <g transform="translate(209.590078 84.608547)scale(0.16 -0.16)">
     <use transform="scale(0.996264)" xlink:href="#CMSS17-115"/>
     <use transform="translate(35.913542 0)scale(0.996264)" xlink:href="#CMSS17-111"/>
     <use transform="translate(82.757166 0)scale(0.996264)" xlink:href="#CMSS17-117"/>
     <use transform="translate(130.962109 0)scale(0.996264)" xlink:href="#CMSS17-114"/>
     <use transform="translate(162.871881 0)scale(0.996264)" xlink:href="#CMSS17-99"/>
     <use transform="translate(204.510703 0)scale(0.996264)" xlink:href="#CMSS17-101"/>
    </g>
   </g>
   <g id="text_8">
    <!-- Chiffre- -->
    <defs>
     <path d="M 40.90625 29.34375 
C 40.90625 35.671875 39.40625 44 28.09375 44 
C 21.796875 44 17.703125 40.890625 14.796875 37.484375 
L 14.796875 69 
L 7.40625 69 
L 7.40625 0 
L 15 0 
L 15 24.3125 
C 15 30.65625 17.40625 37.890625 24.203125 37.890625 
C 33 37.890625 33.296875 31.953125 33.296875 28.53125 
L 33.296875 0 
L 40.90625 0 
z
" id="CMSS17-104"/>
     <path d="M 16.796875 37.1875 
L 27.09375 37.1875 
L 27.09375 43 
L 16.59375 43 
L 16.59375 55.671875 
C 16.59375 62.5 21.796875 63.890625 25.203125 63.890625 
C 28.703125 63.890625 31.59375 63 32.703125 62.609375 
L 32.703125 69.1875 
C 31.59375 69.390625 28.59375 70 25.296875 70 
C 16.09375 70 9.40625 62.5 9.40625 52.59375 
L 9.40625 43 
L 2.5 43 
L 2.5 37.1875 
L 9.40625 37.1875 
L 9.40625 0 
L 16.796875 0 
z
M 42.796875 37.1875 
L 53.09375 37.1875 
L 53.09375 43 
L 42.59375 43 
L 42.59375 55.671875 
C 42.59375 62.5 47.796875 63.890625 51.203125 63.890625 
C 54.703125 63.890625 57.59375 63 58.703125 62.609375 
L 58.703125 69.1875 
C 57.59375 69.390625 54.59375 70 51.296875 70 
C 42.09375 70 35.40625 62.5 35.40625 52.59375 
L 35.40625 0 
L 42.796875 0 
z
" id="CMSS17-11"/>
     <path d="M 26 19 
L 26 24.796875 
L 1 24.796875 
L 1 19 
z
" id="CMSS17-45"/>
    </defs>
    <g transform="translate(309.26082 68.225565)scale(0.16 -0.16)">
     <use transform="scale(0.996264)" xlink:href="#CMSS17-67"/>
     <use transform="translate(59.855772 0)scale(0.996264)" xlink:href="#CMSS17-104"/>
     <use transform="translate(108.060715 0)scale(0.996264)" xlink:href="#CMSS17-105"/>
     <use transform="translate(130.241438 0)scale(0.996264)" xlink:href="#CMSS17-11"/>
     <use transform="translate(184.892408 0)scale(0.996264)" xlink:href="#CMSS17-114"/>
     <use transform="translate(216.80218 0)scale(0.996264)" xlink:href="#CMSS17-101"/>
     <use transform="translate(258.441002 0)scale(0.996264)" xlink:href="#CMSS17-45"/>
    </g>
    <!-- ment -->
    <defs>
     <path d="M 16.703125 37.1875 
L 29.703125 37.1875 
L 29.703125 43 
L 16.703125 43 
L 16.703125 55 
L 9.59375 55 
L 9.59375 43 
L 1.703125 43 
L 1.703125 37.1875 
L 9.40625 37.1875 
L 9.40625 11.734375 
C 9.40625 6 10.703125 -1 17.296875 -1 
C 22.296875 -1 26.90625 0.390625 31.296875 2.6875 
L 29.703125 8.609375 
C 27.296875 6.5 24.40625 5.296875 21.296875 5.296875 
C 16.90625 5.296875 16.703125 10.921875 16.703125 13.4375 
z
" id="CMSS17-116"/>
    </defs>
    <g transform="translate(316.898765 84.608547)scale(0.16 -0.16)">
     <use transform="scale(0.996264)" xlink:href="#CMSS17-109"/>
     <use transform="translate(74.229254 0)scale(0.996264)" xlink:href="#CMSS17-101"/>
     <use transform="translate(115.868077 0)scale(0.996264)" xlink:href="#CMSS17-110"/>
     <use transform="translate(164.07302 0)scale(0.996264)" xlink:href="#CMSS17-116"/>
    </g>
   </g>
   <g id="text_9">
    <!-- Codage -->
    <g transform="translate(412.429506 68.225565)scale(0.16 -0.16)">
     <use transform="scale(0.996264)" xlink:href="#CMSS17-67"/>
     <use transform="translate(59.855772 0)scale(0.996264)" xlink:href="#CMSS17-111"/>
     <use transform="translate(109.301834 0)scale(0.996264)" xlink:href="#CMSS17-100"/>
     <use transform="translate(157.506777 0)scale(0.996264)" xlink:href="#CMSS17-97"/>
     <use transform="translate(202.428698 0)scale(0.996264)" xlink:href="#CMSS17-103"/>
     <use transform="translate(249.272321 0)scale(0.996264)" xlink:href="#CMSS17-101"/>
    </g>
    <!-- canal -->
    <g transform="translate(419.864516 84.608547)scale(0.16 -0.16)">
     <use transform="scale(0.996264)" xlink:href="#CMSS17-99"/>
     <use transform="translate(41.638822 0)scale(0.996264)" xlink:href="#CMSS17-97"/>
     <use transform="translate(86.560743 0)scale(0.996264)" xlink:href="#CMSS17-110"/>
     <use transform="translate(134.765686 0)scale(0.996264)" xlink:href="#CMSS17-97"/>
     <use transform="translate(179.687606 0)scale(0.996264)" xlink:href="#CMSS17-108"/>
    </g>
   </g>
   <g id="text_10">
    <!-- Multi- -->
    <defs>
     <path d="M 49.90625 37.078125 
L 45.09375 23.0625 
C 44.296875 20.484375 41.59375 12.421875 41 9.25 
L 40.90625 9.25 
C 40.59375 11.234375 40 13.328125 38.40625 18.390625 
C 37.5 21.375 36.5 24.453125 35.5 27.234375 
L 20.703125 69 
L 9 69 
L 9 0 
L 16.796875 0 
L 16.796875 60.921875 
L 16.90625 60.921875 
C 16.90625 60.828125 17.796875 56.453125 23.90625 39.0625 
L 37.09375 1.59375 
L 44.5 1.59375 
L 56.40625 34.890625 
C 57.203125 37.171875 59.703125 44.421875 60.796875 47.90625 
C 61.796875 50.890625 64.296875 58.25 64.90625 61.125 
L 65 61.125 
L 65 0 
L 72.90625 0 
L 72.90625 69 
L 61.296875 69 
z
" id="CMSS17-77"/>
    </defs>
    <g transform="translate(520.062904 68.225565)scale(0.16 -0.16)">
     <use transform="scale(0.996264)" xlink:href="#CMSS17-77"/>
     <use transform="translate(81.67603 0)scale(0.996264)" xlink:href="#CMSS17-117"/>
     <use transform="translate(129.880973 0)scale(0.996264)" xlink:href="#CMSS17-108"/>
     <use transform="translate(152.061696 0)scale(0.996264)" xlink:href="#CMSS17-116"/>
     <use transform="translate(185.893263 0)scale(0.996264)" xlink:href="#CMSS17-105"/>
     <use transform="translate(208.073986 0)scale(0.996264)" xlink:href="#CMSS17-45"/>
    </g>
    <!-- plexage -->
    <defs>
     <path d="M 15.09375 4.296875 
C 18.40625 1.09375 22.90625 -1 27.703125 -1 
C 37 -1 45 8.640625 45 21.59375 
C 45 33.546875 39 44 30.40625 44 
C 25.40625 44 19.40625 42.1875 14.90625 38.59375 
L 14.90625 43.1875 
L 7.5 43.1875 
L 7.5 -20 
L 15.09375 -20 
z
M 15.09375 32.625 
C 15.90625 33.84375 19.296875 37.6875 24.796875 37.6875 
C 31.796875 37.6875 37.40625 30.40625 37.40625 21.59375 
C 37.40625 11.578125 30.59375 5.09375 23.90625 5.09375 
C 21.90625 5.09375 19.796875 5.59375 17.796875 7.3125 
C 15.09375 9.75 15.09375 11.265625 15.09375 12.6875 
z
" id="CMSS17-112"/>
     <path d="M 24.796875 22.1875 
L 41.5 43 
L 32.796875 43 
L 21.296875 27.890625 
L 9.40625 43 
L 0.5 43 
L 17.796875 22.1875 
L 0 0 
L 8.796875 0 
L 21.296875 17.59375 
L 34.296875 0 
L 43.09375 0 
z
" id="CMSS17-120"/>
    </defs>
    <g transform="translate(515.944133 84.608547)scale(0.16 -0.16)">
     <use transform="scale(0.996264)" xlink:href="#CMSS17-112"/>
     <use transform="translate(48.204943 0)scale(0.996264)" xlink:href="#CMSS17-108"/>
     <use transform="translate(70.385666 0)scale(0.996264)" xlink:href="#CMSS17-101"/>
     <use transform="translate(112.024488 0)scale(0.996264)" xlink:href="#CMSS17-120"/>
     <use transform="translate(155.02463 0)scale(0.996264)" xlink:href="#CMSS17-97"/>
     <use transform="translate(199.946551 0)scale(0.996264)" xlink:href="#CMSS17-103"/>
     <use transform="translate(246.790174 0)scale(0.996264)" xlink:href="#CMSS17-101"/>
    </g>
   </g>
   <g id="text_11">
    <!-- Modu- -->
    <g transform="translate(621.714149 68.225565)scale(0.16 -0.16)">
     <use transform="scale(0.996264)" xlink:href="#CMSS17-77"/>
     <use transform="translate(81.67603 0)scale(0.996264)" xlink:href="#CMSS17-111"/>
     <use transform="translate(131.122092 0)scale(0.996264)" xlink:href="#CMSS17-100"/>
     <use transform="translate(179.327035 0)scale(0.996264)" xlink:href="#CMSS17-117"/>
     <use transform="translate(227.531978 0)scale(0.996264)" xlink:href="#CMSS17-45"/>
    </g>
    <!-- lation -->
    <g transform="translate(625.081123 84.608547)scale(0.16 -0.16)">
     <use transform="scale(0.996264)" xlink:href="#CMSS17-108"/>
     <use transform="translate(22.180723 0)scale(0.996264)" xlink:href="#CMSS17-97"/>
     <use transform="translate(67.102644 0)scale(0.996264)" xlink:href="#CMSS17-116"/>
     <use transform="translate(100.93421 0)scale(0.996264)" xlink:href="#CMSS17-105"/>
     <use transform="translate(123.114933 0)scale(0.996264)" xlink:href="#CMSS17-111"/>
     <use transform="translate(169.958557 0)scale(0.996264)" xlink:href="#CMSS17-110"/>
    </g>
   </g>
   <g id="text_12">
    <!-- $\hat{m}(t)$ -->
    <defs>
     <path d="M 22.90625 69 
L 10.59375 55.1875 
L 11.796875 54 
L 22.90625 64.984375 
L 34 54 
L 35.203125 55.1875 
z
" id="CMR17-94"/>
    </defs>
    <g transform="translate(18.072 196.009056)scale(0.16 -0.16)">
     <use transform="translate(19.818381 0.006461)scale(0.996264)" xlink:href="#CMR17-94"/>
     <use transform="scale(0.996264)" xlink:href="#CMMI12-109"/>
     <use transform="translate(85.327224 0)scale(0.996264)" xlink:href="#CMR17-40"/>
     <use transform="translate(120.607992 0)scale(0.996264)" xlink:href="#CMMI12-116"/>
     <use transform="translate(155.834322 0)scale(0.996264)" xlink:href="#CMR17-41"/>
    </g>
   </g>
   <g id="text_13">
    <!-- $\hat{m}[n]$ -->
    <g transform="translate(162.61387 244.933056)scale(0.16 -0.16)">
     <use transform="translate(19.818381 0.006461)scale(0.996264)" xlink:href="#CMR17-94"/>
     <use transform="scale(0.996264)" xlink:href="#CMMI12-109"/>
     <use transform="translate(85.327224 0)scale(0.996264)" xlink:href="#CMR17-91"/>
     <use transform="translate(110.198283 0)scale(0.996264)" xlink:href="#CMMI12-110"/>
     <use transform="translate(168.42833 0)scale(0.996264)" xlink:href="#CMR17-93"/>
    </g>
   </g>
   <g id="text_14">
    <!-- CNA -->
    <g transform="translate(111.17942 196.009056)scale(0.16 -0.16)">
     <use transform="scale(0.996264)" xlink:href="#CMSS17-67"/>
     <use transform="translate(59.855772 0)scale(0.996264)" xlink:href="#CMSS17-78"/>
     <use transform="translate(125.917291 0)scale(0.996264)" xlink:href="#CMSS17-65"/>
    </g>
   </g>
   <g id="text_15">
    <!-- Décodage -->
    <defs>
     <path d="M 8.90625 69 
L 8.90625 0 
L 33.5 0 
C 49.90625 0 62.5 15.328125 62.5 33.890625 
C 62.5 53.0625 49.90625 69 33.5 69 
z
M 17.09375 5.59375 
L 17.09375 63.390625 
L 31.296875 63.390625 
C 44.703125 63.390625 54.296875 51.171875 54.296875 33.890625 
C 54.296875 17.3125 44.796875 5.59375 31.296875 5.59375 
z
" id="CMSS17-68"/>
    </defs>
    <g transform="translate(198.297366 187.817565)scale(0.16 -0.16)">
     <use transform="scale(0.996264)" xlink:href="#CMSS17-68"/>
     <use transform="translate(64.940433 0)scale(0.996264)" xlink:href="#CMSS17-19"/>
     <use transform="translate(67.542842 0)scale(0.996264)" xlink:href="#CMSS17-101"/>
     <use transform="translate(109.181664 0)scale(0.996264)" xlink:href="#CMSS17-99"/>
     <use transform="translate(150.820486 0)scale(0.996264)" xlink:href="#CMSS17-111"/>
     <use transform="translate(200.266548 0)scale(0.996264)" xlink:href="#CMSS17-100"/>
     <use transform="translate(248.471491 0)scale(0.996264)" xlink:href="#CMSS17-97"/>
     <use transform="translate(293.393412 0)scale(0.996264)" xlink:href="#CMSS17-103"/>
     <use transform="translate(340.237035 0)scale(0.996264)" xlink:href="#CMSS17-101"/>
    </g>
    <!-- source -->
    <g transform="translate(209.590078 204.200547)scale(0.16 -0.16)">
     <use transform="scale(0.996264)" xlink:href="#CMSS17-115"/>
     <use transform="translate(35.913542 0)scale(0.996264)" xlink:href="#CMSS17-111"/>
     <use transform="translate(82.757166 0)scale(0.996264)" xlink:href="#CMSS17-117"/>
     <use transform="translate(130.962109 0)scale(0.996264)" xlink:href="#CMSS17-114"/>
     <use transform="translate(162.871881 0)scale(0.996264)" xlink:href="#CMSS17-99"/>
     <use transform="translate(204.510703 0)scale(0.996264)" xlink:href="#CMSS17-101"/>
    </g>
   </g>
   <g id="text_16">
    <!-- Déchif- -->
    <defs>
     <path d="M 16.796875 37.1875 
L 26.90625 37.1875 
L 26.90625 43 
L 16.59375 43 
L 16.59375 55.671875 
C 16.59375 62.703125 22 63.890625 25.09375 63.890625 
C 26.09375 63.890625 28.90625 63.890625 32.5 62.609375 
L 32.5 69.1875 
C 30.203125 69.6875 27.40625 70 25.203125 70 
C 15.90625 70 9.40625 62.40625 9.40625 52.59375 
L 9.40625 43 
L 2.5 43 
L 2.5 37.1875 
L 9.40625 37.1875 
L 9.40625 0 
L 16.796875 0 
z
" id="CMSS17-102"/>
    </defs>
    <g transform="translate(309.984957 187.817565)scale(0.16 -0.16)">
     <use transform="scale(0.996264)" xlink:href="#CMSS17-68"/>
     <use transform="translate(64.940433 0)scale(0.996264)" xlink:href="#CMSS17-19"/>
     <use transform="translate(67.542842 0)scale(0.996264)" xlink:href="#CMSS17-101"/>
     <use transform="translate(109.181664 0)scale(0.996264)" xlink:href="#CMSS17-99"/>
     <use transform="translate(150.820486 0)scale(0.996264)" xlink:href="#CMSS17-104"/>
     <use transform="translate(199.025429 0)scale(0.996264)" xlink:href="#CMSS17-105"/>
     <use transform="translate(221.206152 0)scale(0.996264)" xlink:href="#CMSS17-102"/>
     <use transform="translate(249.832811 0)scale(0.996264)" xlink:href="#CMSS17-45"/>
    </g>
    <!-- frement -->
    <g transform="translate(308.39371 204.200547)scale(0.16 -0.16)">
     <use transform="scale(0.996264)" xlink:href="#CMSS17-102"/>
     <use transform="translate(28.626659 0)scale(0.996264)" xlink:href="#CMSS17-114"/>
     <use transform="translate(60.536431 0)scale(0.996264)" xlink:href="#CMSS17-101"/>
     <use transform="translate(102.175253 0)scale(0.996264)" xlink:href="#CMSS17-109"/>
     <use transform="translate(176.404508 0)scale(0.996264)" xlink:href="#CMSS17-101"/>
     <use transform="translate(218.04333 0)scale(0.996264)" xlink:href="#CMSS17-110"/>
     <use transform="translate(266.248273 0)scale(0.996264)" xlink:href="#CMSS17-116"/>
    </g>
   </g>
   <g id="text_17">
    <!-- Décodage -->
    <g transform="translate(404.865366 187.817565)scale(0.16 -0.16)">
     <use transform="scale(0.996264)" xlink:href="#CMSS17-68"/>
     <use transform="translate(64.940433 0)scale(0.996264)" xlink:href="#CMSS17-19"/>
     <use transform="translate(67.542842 0)scale(0.996264)" xlink:href="#CMSS17-101"/>
     <use transform="translate(109.181664 0)scale(0.996264)" xlink:href="#CMSS17-99"/>
     <use transform="translate(150.820486 0)scale(0.996264)" xlink:href="#CMSS17-111"/>
     <use transform="translate(200.266548 0)scale(0.996264)" xlink:href="#CMSS17-100"/>
     <use transform="translate(248.471491 0)scale(0.996264)" xlink:href="#CMSS17-97"/>
     <use transform="translate(293.393412 0)scale(0.996264)" xlink:href="#CMSS17-103"/>
     <use transform="translate(340.237035 0)scale(0.996264)" xlink:href="#CMSS17-101"/>
    </g>
    <!-- canal -->
    <g transform="translate(419.864516 204.200547)scale(0.16 -0.16)">
     <use transform="scale(0.996264)" xlink:href="#CMSS17-99"/>
     <use transform="translate(41.638822 0)scale(0.996264)" xlink:href="#CMSS17-97"/>
     <use transform="translate(86.560743 0)scale(0.996264)" xlink:href="#CMSS17-110"/>
     <use transform="translate(134.765686 0)scale(0.996264)" xlink:href="#CMSS17-97"/>
     <use transform="translate(179.687606 0)scale(0.996264)" xlink:href="#CMSS17-108"/>
    </g>
   </g>
   <g id="text_18">
    <!-- Démulti- -->
    <g transform="translate(511.580925 187.817565)scale(0.16 -0.16)">
     <use transform="scale(0.996264)" xlink:href="#CMSS17-68"/>
     <use transform="translate(64.940433 0)scale(0.996264)" xlink:href="#CMSS17-19"/>
     <use transform="translate(67.542842 0)scale(0.996264)" xlink:href="#CMSS17-101"/>
     <use transform="translate(109.181664 0)scale(0.996264)" xlink:href="#CMSS17-109"/>
     <use transform="translate(183.410918 0)scale(0.996264)" xlink:href="#CMSS17-117"/>
     <use transform="translate(231.615861 0)scale(0.996264)" xlink:href="#CMSS17-108"/>
     <use transform="translate(253.796584 0)scale(0.996264)" xlink:href="#CMSS17-116"/>
     <use transform="translate(287.628151 0)scale(0.996264)" xlink:href="#CMSS17-105"/>
     <use transform="translate(309.808874 0)scale(0.996264)" xlink:href="#CMSS17-45"/>
    </g>
    <!-- plexage -->
    <g transform="translate(515.944133 204.200547)scale(0.16 -0.16)">
     <use transform="scale(0.996264)" xlink:href="#CMSS17-112"/>
     <use transform="translate(48.204943 0)scale(0.996264)" xlink:href="#CMSS17-108"/>
     <use transform="translate(70.385666 0)scale(0.996264)" xlink:href="#CMSS17-101"/>
     <use transform="translate(112.024488 0)scale(0.996264)" xlink:href="#CMSS17-120"/>
     <use transform="translate(155.02463 0)scale(0.996264)" xlink:href="#CMSS17-97"/>
     <use transform="translate(199.946551 0)scale(0.996264)" xlink:href="#CMSS17-103"/>
     <use transform="translate(246.790174 0)scale(0.996264)" xlink:href="#CMSS17-101"/>
    </g>
   </g>
   <g id="text_19">
    <!-- Démodu- -->
    <g transform="translate(613.23217 187.817565)scale(0.16 -0.16)">
     <use transform="scale(0.996264)" xlink:href="#CMSS17-68"/>
     <use transform="translate(64.940433 0)scale(0.996264)" xlink:href="#CMSS17-19"/>
     <use transform="translate(67.542842 0)scale(0.996264)" xlink:href="#CMSS17-101"/>
     <use transform="translate(109.181664 0)scale(0.996264)" xlink:href="#CMSS17-109"/>
     <use transform="translate(183.410918 0)scale(0.996264)" xlink:href="#CMSS17-111"/>
     <use transform="translate(232.85698 0)scale(0.996264)" xlink:href="#CMSS17-100"/>
     <use transform="translate(281.061924 0)scale(0.996264)" xlink:href="#CMSS17-117"/>
     <use transform="translate(329.266867 0)scale(0.996264)" xlink:href="#CMSS17-45"/>
    </g>
    <!-- lation -->
    <g transform="translate(625.081123 204.200547)scale(0.16 -0.16)">
     <use transform="scale(0.996264)" xlink:href="#CMSS17-108"/>
     <use transform="translate(22.180723 0)scale(0.996264)" xlink:href="#CMSS17-97"/>
     <use transform="translate(67.102644 0)scale(0.996264)" xlink:href="#CMSS17-116"/>
     <use transform="translate(100.93421 0)scale(0.996264)" xlink:href="#CMSS17-105"/>
     <use transform="translate(123.114933 0)scale(0.996264)" xlink:href="#CMSS17-111"/>
     <use transform="translate(169.958557 0)scale(0.996264)" xlink:href="#CMSS17-110"/>
    </g>
   </g>
   <g id="text_20">
    <!-- $x(t)$ -->
    <defs>
     <path d="M 47.40625 41 
C 44.203125 40.390625 43 37.984375 43 36.09375 
C 43 33.6875 44.90625 32.890625 46.296875 32.890625 
C 49.296875 32.890625 51.40625 35.484375 51.40625 38.1875 
C 51.40625 42.09375 46.59375 44 42.40625 44 
C 36.296875 44 32.90625 38.296875 32 36.390625 
C 29.703125 43.59375 23.5 44 21.703125 44 
C 11.5 44 6.09375 31.140625 6.09375 28.890625 
C 6.09375 28.484375 6.5 27.96875 7.203125 27.96875 
C 8 27.96875 8.203125 28.578125 8.40625 28.984375 
C 11.796875 40.1875 18.5 41.984375 21.40625 41.984375 
C 25.90625 41.984375 26.796875 38.09375 26.796875 35.6875 
C 26.796875 33.484375 26.203125 31.140625 25 26.21875 
L 21.59375 12.15625 
C 20.09375 6.09375 17.203125 1 11.90625 1 
C 11.40625 1 8.90625 1 6.796875 1.96875 
C 10.40625 2.59375 11.203125 5.59375 11.203125 6.796875 
C 11.203125 8.796875 9.703125 10 7.796875 10 
C 5.40625 10 2.796875 7.890625 2.796875 4.6875 
C 2.796875 0.890625 7.5 -1 11.796875 -1 
C 16.59375 -1 20 2.390625 22.09375 6.484375 
C 23.703125 1 28.703125 -1 32.40625 -1 
C 42.59375 -1 48 11.734375 48 14 
C 48 14.515625 47.59375 14.921875 47 14.921875 
C 46.09375 14.921875 46 14.40625 45.703125 13.59375 
C 43 4.6875 37.203125 1 32.703125 1 
C 29.203125 1 27.296875 3.1875 27.296875 7.296875 
C 27.296875 9.484375 27.703125 11.125 29.296875 17.90625 
L 32.796875 31.859375 
C 34.296875 37.890625 37.703125 41.984375 42.296875 41.984375 
C 42.5 41.984375 45.296875 41.984375 47.40625 41 
z
" id="CMMI12-120"/>
    </defs>
    <g transform="translate(713.88 76.417056)scale(0.16 -0.16)">
     <use transform="scale(0.996264)" xlink:href="#CMMI12-120"/>
     <use transform="translate(55.43406 0)scale(0.996264)" xlink:href="#CMR17-40"/>
     <use transform="translate(90.714827 0)scale(0.996264)" xlink:href="#CMMI12-116"/>
     <use transform="translate(125.941158 0)scale(0.996264)" xlink:href="#CMR17-41"/>
    </g>
   </g>
   <g id="text_21">
    <!-- Canal -->
    <g transform="translate(690.147074 136.213056)scale(0.16 -0.16)">
     <use transform="scale(0.996264)" xlink:href="#CMSS17-67"/>
     <use transform="translate(59.855772 0)scale(0.996264)" xlink:href="#CMSS17-97"/>
     <use transform="translate(104.777692 0)scale(0.996264)" xlink:href="#CMSS17-110"/>
     <use transform="translate(152.982635 0)scale(0.996264)" xlink:href="#CMSS17-97"/>
     <use transform="translate(197.904556 0)scale(0.996264)" xlink:href="#CMSS17-108"/>
    </g>
   </g>
   <g id="text_22">
    <!-- $y(t)$ -->
    <defs>
     <path d="M 26.296875 -10.515625 
C 23.59375 -14.390625 19.703125 -18 14.796875 -18 
C 13.59375 -18 8.796875 -17.796875 7.296875 -12.90625 
C 7.59375 -13.015625 8.09375 -13.015625 8.296875 -13.015625 
C 11.296875 -13.015625 13.296875 -10.40625 13.296875 -8.109375 
C 13.296875 -5.8125 11.40625 -5 9.90625 -5 
C 8.296875 -5 4.796875 -6.203125 4.796875 -11.109375 
C 4.796875 -16.40625 9.09375 -20 14.796875 -20 
C 24.796875 -20 34.90625 -10.515625 37.703125 -0.109375 
L 47.5 38.796875 
C 47.59375 39.296875 47.796875 39.890625 47.796875 40.484375 
C 47.796875 41.984375 46.59375 43 45.09375 43 
C 44.203125 43 42.09375 42.59375 41.296875 39.59375 
L 33.90625 10.265625 
C 33.40625 8.46875 33.40625 8.28125 32.59375 7.171875 
C 30.59375 4.390625 27.296875 1 22.5 1 
C 16.90625 1 16.40625 6.484375 16.40625 9.171875 
C 16.40625 14.859375 19.09375 22.546875 21.796875 29.71875 
C 22.90625 32.609375 23.5 34.015625 23.5 36.015625 
C 23.5 40.203125 20.5 44 15.59375 44 
C 6.40625 44 2.703125 29.53125 2.703125 28.71875 
C 2.703125 28.328125 3.09375 27.828125 3.796875 27.828125 
C 4.703125 27.828125 4.796875 28.234375 5.203125 29.625 
C 7.59375 38 11.40625 41.984375 15.296875 41.984375 
C 16.203125 41.984375 17.90625 41.984375 17.90625 38.703125 
C 17.90625 36.109375 16.796875 33.21875 15.296875 29.421875 
C 10.40625 16.359375 10.40625 13.0625 10.40625 10.671875 
C 10.40625 1.1875 17.203125 -1 22.203125 -1 
C 25.09375 -1 28.703125 -0.109375 32.203125 3.59375 
L 32.296875 3.484375 
C 30.796875 -2.203125 29.796875 -5.609375 26.296875 -10.515625 
z
" id="CMMI12-121"/>
    </defs>
    <g transform="translate(713.88 196.009056)scale(0.16 -0.16)">
     <use transform="scale(0.996264)" xlink:href="#CMMI12-121"/>
     <use transform="translate(51.138781 0)scale(0.996264)" xlink:href="#CMR17-40"/>
     <use transform="translate(86.419549 0)scale(0.996264)" xlink:href="#CMMI12-116"/>
     <use transform="translate(121.645879 0)scale(0.996264)" xlink:href="#CMR17-41"/>
    </g>
   </g>
  </g>
 </g>
 <defs>
  <clipPath id="pe45829bce6">
   <rect height="250.056" width="761.04" x="7.2" y="7.2"/>
  </clipPath>
 </defs>
</svg>
