<?xml version="1.0" encoding="utf-8" standalone="no"?>
<!DOCTYPE svg PUBLIC "-//W3C//DTD SVG 1.1//EN"
  "http://www.w3.org/Graphics/SVG/1.1/DTD/svg11.dtd">
<!-- Created with matplotlib (https://matplotlib.org/) -->
<svg height="270.01577pt" version="1.1" viewBox="0 0 279.07588 270.01577" width="279.07588pt" xmlns="http://www.w3.org/2000/svg" xmlns:xlink="http://www.w3.org/1999/xlink">
 <defs>
  <style type="text/css">
*{stroke-linecap:butt;stroke-linejoin:round;}
  </style>
 </defs>
 <g id="figure_1">
  <g id="patch_1">
   <path d="M 0 270.01577 
L 279.07588 270.01577 
L 279.07588 0 
L 0 0 
z
" style="fill:none;"/>
  </g>
  <g id="axes_1">
   <g id="patch_2">
    <path d="M 45.749385 228.79109 
L 268.949385 228.79109 
L 268.949385 11.35109 
L 45.749385 11.35109 
z
" style="fill:#ffffff;"/>
   </g>
   <g id="patch_3">
    <path clip-path="url(#p7ad579323b)" d="M 157.349385 174.43109 
C 172.147717 174.43109 186.341941 168.703377 196.805943 158.509415 
C 207.269945 148.315452 213.149385 134.48753 213.149385 120.07109 
C 213.149385 105.654649 207.269945 91.826728 196.805943 81.632765 
C 186.341941 71.438802 172.147717 65.71109 157.349385 65.71109 
C 142.551052 65.71109 128.356828 71.438802 117.892826 81.632765 
C 107.428825 91.826728 101.549385 105.654649 101.549385 120.07109 
C 101.549385 134.48753 107.428825 148.315452 117.892826 158.509415 
C 128.356828 168.703377 142.551052 174.43109 157.349385 174.43109 
z
" style="fill:none;stroke:#000000;stroke-dasharray:1.85,0.8;stroke-dashoffset:0;stroke-linejoin:miter;stroke-width:0.5;"/>
   </g>
   <g id="matplotlib.axis_1">
    <g id="xtick_1">
     <g id="line2d_1">
      <path clip-path="url(#p7ad579323b)" d="M 45.749385 228.79109 
L 45.749385 11.35109 
" style="fill:none;stroke:#b0b0b0;stroke-linecap:square;stroke-width:0.8;"/>
     </g>
     <g id="line2d_2">
      <defs>
       <path d="M 0 0 
L 0 3.5 
" id="m9ad6d6e6f9" style="stroke:#000000;stroke-width:0.8;"/>
      </defs>
      <g>
       <use style="stroke:#000000;stroke-width:0.8;" x="45.749385" xlink:href="#m9ad6d6e6f9" y="228.79109"/>
      </g>
     </g>
     <g id="text_1">
      <!-- $-2$ -->
      <defs>
       <path d="M 65.90625 23 
C 67.59375 23 69.40625 23 69.40625 25 
C 69.40625 27 67.59375 27 65.90625 27 
L 11.796875 27 
C 10.09375 27 8.296875 27 8.296875 25 
C 8.296875 23 10.09375 23 11.796875 23 
z
" id="CMSY10-0"/>
       <path d="M 41.703125 15.46875 
L 39.90625 15.46875 
C 38.90625 8.390625 38.09375 7.1875 37.703125 6.59375 
C 37.203125 5.796875 30 5.796875 28.59375 5.796875 
L 9.40625 5.796875 
C 13 9.6875 20 16.765625 28.5 24.9375 
C 34.59375 30.71875 41.703125 37.5 41.703125 47.390625 
C 41.703125 59.1875 32.296875 66 21.796875 66 
C 10.796875 66 4.09375 56.296875 4.09375 47.296875 
C 4.09375 43.390625 7 42.890625 8.203125 42.890625 
C 9.203125 42.890625 12.203125 43.484375 12.203125 46.984375 
C 12.203125 50.09375 9.59375 51 8.203125 51 
C 7.59375 51 7 50.890625 6.59375 50.6875 
C 8.5 59.1875 14.296875 63.390625 20.40625 63.390625 
C 29.09375 63.390625 34.796875 56.5 34.796875 47.390625 
C 34.796875 38.703125 29.703125 31.21875 24 24.734375 
L 4.09375 2.296875 
L 4.09375 0 
L 39.296875 0 
z
" id="CMR17-50"/>
      </defs>
      <g transform="translate(38.173645 244.09327)scale(0.12 -0.12)">
       <use transform="scale(0.996264)" xlink:href="#CMSY10-0"/>
       <use transform="translate(77.487468 0)scale(0.996264)" xlink:href="#CMR17-50"/>
      </g>
     </g>
    </g>
    <g id="xtick_2">
     <g id="line2d_3">
      <path clip-path="url(#p7ad579323b)" d="M 101.549385 228.79109 
L 101.549385 11.35109 
" style="fill:none;stroke:#b0b0b0;stroke-linecap:square;stroke-width:0.8;"/>
     </g>
     <g id="line2d_4">
      <g>
       <use style="stroke:#000000;stroke-width:0.8;" x="101.549385" xlink:href="#m9ad6d6e6f9" y="228.79109"/>
      </g>
     </g>
     <g id="text_2">
      <!-- $-1$ -->
      <defs>
       <path d="M 26.59375 63.796875 
C 26.59375 65.890625 26.5 66 25.09375 66 
C 21.203125 61.359375 15.296875 59.890625 9.703125 59.6875 
C 9.40625 59.6875 8.90625 59.6875 8.796875 59.5 
C 8.703125 59.296875 8.703125 59.09375 8.703125 57 
C 11.796875 57 17 57.59375 21 59.984375 
L 21 7.296875 
C 21 3.796875 20.796875 2.59375 12.203125 2.59375 
L 9.203125 2.59375 
L 9.203125 0 
C 14 0.09375 19 0.1875 23.796875 0.1875 
C 28.59375 0.1875 33.59375 0.09375 38.40625 0 
L 38.40625 2.59375 
L 35.40625 2.59375 
C 26.796875 2.59375 26.59375 3.6875 26.59375 7.296875 
z
" id="CMR17-49"/>
      </defs>
      <g transform="translate(93.973645 244.09327)scale(0.12 -0.12)">
       <use transform="scale(0.996264)" xlink:href="#CMSY10-0"/>
       <use transform="translate(77.487468 0)scale(0.996264)" xlink:href="#CMR17-49"/>
      </g>
     </g>
    </g>
    <g id="xtick_3">
     <g id="line2d_5">
      <path clip-path="url(#p7ad579323b)" d="M 157.349385 228.79109 
L 157.349385 11.35109 
" style="fill:none;stroke:#b0b0b0;stroke-linecap:square;stroke-width:0.8;"/>
     </g>
     <g id="line2d_6">
      <g>
       <use style="stroke:#000000;stroke-width:0.8;" x="157.349385" xlink:href="#m9ad6d6e6f9" y="228.79109"/>
      </g>
     </g>
     <g id="text_3">
      <!-- $0$ -->
      <defs>
       <path d="M 42 31.84375 
C 42 37.96875 41.90625 48.421875 37.703125 56.453125 
C 34 63.484375 28.09375 66 22.90625 66 
C 18.09375 66 12 63.78125 8.203125 56.5625 
C 4.203125 49.015625 3.796875 39.671875 3.796875 31.84375 
C 3.796875 26.109375 3.90625 17.375 7 9.734375 
C 11.296875 -0.609375 19 -2 22.90625 -2 
C 27.5 -2 34.5 -0.109375 38.59375 9.4375 
C 41.59375 16.375 42 24.5 42 31.84375 
z
M 22.90625 -0.40625 
C 16.5 -0.40625 12.703125 5.125 11.296875 12.75 
C 10.203125 18.6875 10.203125 27.328125 10.203125 32.953125 
C 10.203125 40.6875 10.203125 47.109375 11.5 53.234375 
C 13.40625 61.78125 19 64.390625 22.90625 64.390625 
C 27 64.390625 32.296875 61.671875 34.203125 53.4375 
C 35.5 47.71875 35.59375 40.984375 35.59375 32.953125 
C 35.59375 26.421875 35.59375 18.375 34.40625 12.453125 
C 32.296875 1.5 26.40625 -0.40625 22.90625 -0.40625 
z
" id="CMR17-48"/>
      </defs>
      <g transform="translate(154.422889 244.09327)scale(0.12 -0.12)">
       <use transform="scale(0.996264)" xlink:href="#CMR17-48"/>
      </g>
     </g>
    </g>
    <g id="xtick_4">
     <g id="line2d_7">
      <path clip-path="url(#p7ad579323b)" d="M 213.149385 228.79109 
L 213.149385 11.35109 
" style="fill:none;stroke:#b0b0b0;stroke-linecap:square;stroke-width:0.8;"/>
     </g>
     <g id="line2d_8">
      <g>
       <use style="stroke:#000000;stroke-width:0.8;" x="213.149385" xlink:href="#m9ad6d6e6f9" y="228.79109"/>
      </g>
     </g>
     <g id="text_4">
      <!-- $1$ -->
      <g transform="translate(210.222889 244.09327)scale(0.12 -0.12)">
       <use transform="scale(0.996264)" xlink:href="#CMR17-49"/>
      </g>
     </g>
    </g>
    <g id="xtick_5">
     <g id="line2d_9">
      <path clip-path="url(#p7ad579323b)" d="M 268.949385 228.79109 
L 268.949385 11.35109 
" style="fill:none;stroke:#b0b0b0;stroke-linecap:square;stroke-width:0.8;"/>
     </g>
     <g id="line2d_10">
      <g>
       <use style="stroke:#000000;stroke-width:0.8;" x="268.949385" xlink:href="#m9ad6d6e6f9" y="228.79109"/>
      </g>
     </g>
     <g id="text_5">
      <!-- $2$ -->
      <g transform="translate(266.022889 244.09327)scale(0.12 -0.12)">
       <use transform="scale(0.996264)" xlink:href="#CMR17-50"/>
      </g>
     </g>
    </g>
    <g id="text_6">
     <!-- $I$ -->
     <defs>
      <path d="M 36.796875 60.609375 
C 37.703125 64.09375 37.90625 65.09375 45.203125 65.09375 
C 47.40625 65.09375 48.203125 65.09375 48.203125 66.984375 
C 48.203125 68 47.09375 68 46.796875 68 
C 45 68 42.796875 67.796875 41 67.796875 
L 28.703125 67.796875 
C 26.703125 67.796875 24.40625 68 22.40625 68 
C 21.59375 68 20.5 68 20.5 66.09375 
C 20.5 65.09375 21.296875 65.09375 23.296875 65.09375 
C 29.5 65.09375 29.5 64.296875 29.5 63.203125 
C 29.5 62.5 29.296875 61.90625 29.09375 61.015625 
L 15.59375 7.375 
C 14.703125 3.890625 14.5 2.890625 7.203125 2.890625 
C 5 2.890625 4.09375 2.890625 4.09375 1 
C 4.09375 0 5.09375 0 5.59375 0 
C 7.40625 0 9.59375 0.1875 11.40625 0.1875 
L 23.703125 0.1875 
C 25.703125 0.1875 27.90625 0 29.90625 0 
C 30.703125 0 31.90625 0 31.90625 1.796875 
C 31.90625 2.890625 31.296875 2.890625 29.09375 2.890625 
C 22.90625 2.890625 22.90625 3.6875 22.90625 4.875 
C 22.90625 5.078125 22.90625 5.578125 23.296875 7.171875 
z
" id="CMMI12-73"/>
     </defs>
     <g transform="translate(154.337699 260.103742)scale(0.14 -0.14)">
      <use transform="scale(0.996264)" xlink:href="#CMMI12-73"/>
     </g>
    </g>
   </g>
   <g id="matplotlib.axis_2">
    <g id="ytick_1">
     <g id="line2d_11">
      <path clip-path="url(#p7ad579323b)" d="M 45.749385 228.79109 
L 268.949385 228.79109 
" style="fill:none;stroke:#b0b0b0;stroke-linecap:square;stroke-width:0.8;"/>
     </g>
     <g id="line2d_12">
      <defs>
       <path d="M 0 0 
L -3.5 0 
" id="m8e0b729db7" style="stroke:#000000;stroke-width:0.8;"/>
      </defs>
      <g>
       <use style="stroke:#000000;stroke-width:0.8;" x="45.749385" xlink:href="#m8e0b729db7" y="228.79109"/>
      </g>
     </g>
     <g id="text_7">
      <!-- $-2$ -->
      <g transform="translate(23.597905 232.94218)scale(0.12 -0.12)">
       <use transform="scale(0.996264)" xlink:href="#CMSY10-0"/>
       <use transform="translate(77.487468 0)scale(0.996264)" xlink:href="#CMR17-50"/>
      </g>
     </g>
    </g>
    <g id="ytick_2">
     <g id="line2d_13">
      <path clip-path="url(#p7ad579323b)" d="M 45.749385 174.43109 
L 268.949385 174.43109 
" style="fill:none;stroke:#b0b0b0;stroke-linecap:square;stroke-width:0.8;"/>
     </g>
     <g id="line2d_14">
      <g>
       <use style="stroke:#000000;stroke-width:0.8;" x="45.749385" xlink:href="#m8e0b729db7" y="174.43109"/>
      </g>
     </g>
     <g id="text_8">
      <!-- $-1$ -->
      <g transform="translate(23.597905 178.58218)scale(0.12 -0.12)">
       <use transform="scale(0.996264)" xlink:href="#CMSY10-0"/>
       <use transform="translate(77.487468 0)scale(0.996264)" xlink:href="#CMR17-49"/>
      </g>
     </g>
    </g>
    <g id="ytick_3">
     <g id="line2d_15">
      <path clip-path="url(#p7ad579323b)" d="M 45.749385 120.07109 
L 268.949385 120.07109 
" style="fill:none;stroke:#b0b0b0;stroke-linecap:square;stroke-width:0.8;"/>
     </g>
     <g id="line2d_16">
      <g>
       <use style="stroke:#000000;stroke-width:0.8;" x="45.749385" xlink:href="#m8e0b729db7" y="120.07109"/>
      </g>
     </g>
     <g id="text_9">
      <!-- $0$ -->
      <g transform="translate(32.896394 124.22218)scale(0.12 -0.12)">
       <use transform="scale(0.996264)" xlink:href="#CMR17-48"/>
      </g>
     </g>
    </g>
    <g id="ytick_4">
     <g id="line2d_17">
      <path clip-path="url(#p7ad579323b)" d="M 45.749385 65.71109 
L 268.949385 65.71109 
" style="fill:none;stroke:#b0b0b0;stroke-linecap:square;stroke-width:0.8;"/>
     </g>
     <g id="line2d_18">
      <g>
       <use style="stroke:#000000;stroke-width:0.8;" x="45.749385" xlink:href="#m8e0b729db7" y="65.71109"/>
      </g>
     </g>
     <g id="text_10">
      <!-- $1$ -->
      <g transform="translate(32.896394 69.86218)scale(0.12 -0.12)">
       <use transform="scale(0.996264)" xlink:href="#CMR17-49"/>
      </g>
     </g>
    </g>
    <g id="ytick_5">
     <g id="line2d_19">
      <path clip-path="url(#p7ad579323b)" d="M 45.749385 11.35109 
L 268.949385 11.35109 
" style="fill:none;stroke:#b0b0b0;stroke-linecap:square;stroke-width:0.8;"/>
     </g>
     <g id="line2d_20">
      <g>
       <use style="stroke:#000000;stroke-width:0.8;" x="45.749385" xlink:href="#m8e0b729db7" y="11.35109"/>
      </g>
     </g>
     <g id="text_11">
      <!-- $2$ -->
      <g transform="translate(32.896394 15.50218)scale(0.12 -0.12)">
       <use transform="scale(0.996264)" xlink:href="#CMR17-50"/>
      </g>
     </g>
    </g>
    <g id="text_12">
     <!-- $Q$ -->
     <defs>
      <path d="M 42.59375 0.703125 
C 59.796875 7.703125 72.59375 25.84375 72.59375 43.71875 
C 72.59375 60 61.796875 70 47.796875 70 
C 26.40625 70 4.796875 47.265625 4.796875 24.46875 
C 4.796875 8.828125 15.203125 -2 29.703125 -2 
C 33.09375 -2 36.40625 -1.5 39.59375 -0.5 
C 39 -6.34375 39 -6.828125 39 -8.65625 
C 39 -11.5 39 -19 47 -19 
C 58.90625 -19 63.296875 -0.609375 63.296875 0 
C 63.296875 0.59375 62.90625 1 62.40625 1 
C 61.796875 1 61.59375 0.5 61.296875 -0.609375 
C 59.09375 -6.734375 53.90625 -10.203125 49.5 -10.203125 
C 44.40625 -10.203125 43.09375 -6.828125 42.59375 0.703125 
z
M 24.59375 1.203125 
C 16.703125 3.953125 12.90625 12.375 12.90625 21.5 
C 12.90625 28.421875 15.5 41.546875 22.09375 51.515625 
C 29.5 62.765625 39.40625 67.796875 47.203125 67.796875 
C 57.59375 67.796875 64.59375 59.5 64.59375 46.671875 
C 64.59375 39.375 61.09375 14.890625 42.296875 3.75 
C 41.796875 8.921875 40.40625 15 33.796875 15 
C 28.40625 15 23.796875 9.53125 23.796875 4.5625 
C 23.796875 3.4375 24.203125 1.921875 24.59375 1.203125 
z
M 39.796875 2.421875 
C 36.203125 0.796875 33.09375 0.1875 30.296875 0.1875 
C 29.296875 0.1875 25.796875 0.1875 25.796875 4.65625 
C 25.796875 8.3125 29.296875 12.984375 33.796875 12.984375 
C 38.796875 12.984375 39.90625 9.53125 39.90625 4.453125 
C 39.90625 3.84375 39.90625 3.03125 39.796875 2.421875 
z
" id="CMMI12-81"/>
     </defs>
     <g transform="translate(16.885876 125.479314)rotate(-90)scale(0.14 -0.14)">
      <use transform="scale(0.996264)" xlink:href="#CMMI12-81"/>
     </g>
    </g>
   </g>
   <g id="line2d_21">
    <path clip-path="url(#p7ad579323b)" d="M -1 120.07109 
L 280.07588 120.07109 
" style="fill:none;stroke:#000000;stroke-linecap:square;stroke-width:0.5;"/>
   </g>
   <g id="line2d_22">
    <path clip-path="url(#p7ad579323b)" d="M 157.349385 271.01577 
L 157.349385 -1 
" style="fill:none;stroke:#000000;stroke-linecap:square;stroke-width:0.5;"/>
   </g>
   <g id="line2d_23">
    <defs>
     <path d="M 0 3.75 
C 0.994512 3.75 1.948425 3.354876 2.65165 2.65165 
C 3.354876 1.948425 3.75 0.994512 3.75 0 
C 3.75 -0.994512 3.354876 -1.948425 2.65165 -2.65165 
C 1.948425 -3.354876 0.994512 -3.75 0 -3.75 
C -0.994512 -3.75 -1.948425 -3.354876 -2.65165 -2.65165 
C -3.354876 -1.948425 -3.75 -0.994512 -3.75 0 
C -3.75 0.994512 -3.354876 1.948425 -2.65165 2.65165 
C -1.948425 3.354876 -0.994512 3.75 0 3.75 
z
" id="m0af771e089" style="stroke:#1f77b4;"/>
    </defs>
    <g clip-path="url(#p7ad579323b)">
     <use style="fill:#1f77b4;stroke:#1f77b4;" x="213.149385" xlink:href="#m0af771e089" y="120.07109"/>
     <use style="fill:#1f77b4;stroke:#1f77b4;" x="157.349385" xlink:href="#m0af771e089" y="65.71109"/>
     <use style="fill:#1f77b4;stroke:#1f77b4;" x="101.549385" xlink:href="#m0af771e089" y="120.07109"/>
     <use style="fill:#1f77b4;stroke:#1f77b4;" x="157.349385" xlink:href="#m0af771e089" y="174.43109"/>
    </g>
   </g>
   <g id="patch_4">
    <path d="M 45.749385 228.79109 
L 45.749385 11.35109 
" style="fill:none;stroke:#000000;stroke-linecap:square;stroke-linejoin:miter;stroke-width:0.8;"/>
   </g>
   <g id="patch_5">
    <path d="M 268.949385 228.79109 
L 268.949385 11.35109 
" style="fill:none;stroke:#000000;stroke-linecap:square;stroke-linejoin:miter;stroke-width:0.8;"/>
   </g>
   <g id="patch_6">
    <path d="M 45.749385 228.79109 
L 268.949385 228.79109 
" style="fill:none;stroke:#000000;stroke-linecap:square;stroke-linejoin:miter;stroke-width:0.8;"/>
   </g>
   <g id="patch_7">
    <path d="M 45.749385 11.35109 
L 268.949385 11.35109 
" style="fill:none;stroke:#000000;stroke-linecap:square;stroke-linejoin:miter;stroke-width:0.8;"/>
   </g>
   <g id="text_13">
    <!-- 0 -->
    <g transform="translate(209.73514 112.82309)scale(0.14 -0.14)">
     <use transform="scale(0.996264)" xlink:href="#CMR17-48"/>
    </g>
   </g>
   <g id="text_14">
    <!-- 1 -->
    <g transform="translate(153.93514 58.46309)scale(0.14 -0.14)">
     <use transform="scale(0.996264)" xlink:href="#CMR17-49"/>
    </g>
   </g>
   <g id="text_15">
    <!-- 2 -->
    <g transform="translate(98.13514 112.82309)scale(0.14 -0.14)">
     <use transform="scale(0.996264)" xlink:href="#CMR17-50"/>
    </g>
   </g>
   <g id="text_16">
    <!-- 3 -->
    <defs>
     <path d="M 22.09375 34 
C 31 34 34.90625 26.140625 34.90625 17.09375 
C 34.90625 5.03125 28.5 0.390625 22.703125 0.390625 
C 17.40625 0.390625 8.796875 3.015625 6.09375 10.796875 
C 6.59375 10.59375 7.09375 10.59375 7.59375 10.59375 
C 10 10.59375 11.796875 12.1875 11.796875 14.796875 
C 11.796875 17.6875 9.59375 19 7.59375 19 
C 5.90625 19 3.296875 18.1875 3.296875 14.484375 
C 3.296875 5.234375 12.296875 -2 22.90625 -2 
C 34 -2 42.5 6.75 42.5 16.984375 
C 42.5 26.84375 34.5 34 25 35.09375 
C 32.59375 36.671875 39.90625 43.375 39.90625 52.390625 
C 39.90625 60.25 32 66 23 66 
C 13.90625 66 5.90625 60.34375 5.90625 52.296875 
C 5.90625 48.796875 8.5 48.1875 9.796875 48.1875 
C 11.90625 48.1875 13.703125 49.484375 13.703125 52.09375 
C 13.703125 54.6875 11.90625 56 9.796875 56 
C 9.40625 56 8.90625 56 8.5 55.796875 
C 11.40625 62.484375 19.296875 63.6875 22.796875 63.6875 
C 26.296875 63.6875 32.90625 61.96875 32.90625 52.296875 
C 32.90625 49.484375 32.5 44.546875 29.09375 40.21875 
C 26.09375 36.390625 22.703125 36.1875 19.40625 35.890625 
C 18.90625 35.890625 16.59375 35.6875 16.203125 35.6875 
C 15.5 35.59375 15.09375 35.5 15.09375 34.796875 
C 15.09375 34.09375 15.203125 34 17.203125 34 
z
" id="CMR17-51"/>
    </defs>
    <g transform="translate(153.93514 167.18309)scale(0.14 -0.14)">
     <use transform="scale(0.996264)" xlink:href="#CMR17-51"/>
    </g>
   </g>
  </g>
 </g>
 <defs>
  <clipPath id="p7ad579323b">
   <rect height="217.44" width="223.2" x="45.749385" y="11.35109"/>
  </clipPath>
 </defs>
</svg>
