<?xml version="1.0" encoding="utf-8" standalone="no"?>
<!DOCTYPE svg PUBLIC "-//W3C//DTD SVG 1.1//EN"
  "http://www.w3.org/Graphics/SVG/1.1/DTD/svg11.dtd">
<!-- Created with matplotlib (https://matplotlib.org/) -->
<svg height="270.01577pt" version="1.1" viewBox="0 0 558.07588 270.01577" width="558.07588pt" xmlns="http://www.w3.org/2000/svg" xmlns:xlink="http://www.w3.org/1999/xlink">
 <defs>
  <style type="text/css">
*{stroke-linecap:butt;stroke-linejoin:round;}
  </style>
 </defs>
 <g id="figure_1">
  <g id="patch_1">
   <path d="M 0 270.01577 
L 558.07588 270.01577 
L 558.07588 0 
L 0 0 
z
" style="fill:none;"/>
  </g>
  <g id="axes_1">
   <g id="patch_2">
    <path d="M 45.749385 228.79109 
L 274.022112 228.79109 
L 274.022112 11.35109 
L 45.749385 11.35109 
z
" style="fill:#ffffff;"/>
   </g>
   <g id="matplotlib.axis_1">
    <g id="xtick_1">
     <g id="line2d_1">
      <path clip-path="url(#pb06e185279)" d="M 45.749385 228.79109 
L 45.749385 11.35109 
" style="fill:none;stroke:#b0b0b0;stroke-linecap:square;stroke-width:0.8;"/>
     </g>
     <g id="line2d_2">
      <defs>
       <path d="M 0 0 
L 0 3.5 
" id="mde0d091e85" style="stroke:#000000;stroke-width:0.8;"/>
      </defs>
      <g>
       <use style="stroke:#000000;stroke-width:0.8;" x="45.749385" xlink:href="#mde0d091e85" y="228.79109"/>
      </g>
     </g>
     <g id="text_1">
      <!-- $-2$ -->
      <defs>
       <path d="M 65.90625 23 
C 67.59375 23 69.40625 23 69.40625 25 
C 69.40625 27 67.59375 27 65.90625 27 
L 11.796875 27 
C 10.09375 27 8.296875 27 8.296875 25 
C 8.296875 23 10.09375 23 11.796875 23 
z
" id="CMSY10-0"/>
       <path d="M 41.703125 15.46875 
L 39.90625 15.46875 
C 38.90625 8.390625 38.09375 7.1875 37.703125 6.59375 
C 37.203125 5.796875 30 5.796875 28.59375 5.796875 
L 9.40625 5.796875 
C 13 9.6875 20 16.765625 28.5 24.9375 
C 34.59375 30.71875 41.703125 37.5 41.703125 47.390625 
C 41.703125 59.1875 32.296875 66 21.796875 66 
C 10.796875 66 4.09375 56.296875 4.09375 47.296875 
C 4.09375 43.390625 7 42.890625 8.203125 42.890625 
C 9.203125 42.890625 12.203125 43.484375 12.203125 46.984375 
C 12.203125 50.09375 9.59375 51 8.203125 51 
C 7.59375 51 7 50.890625 6.59375 50.6875 
C 8.5 59.1875 14.296875 63.390625 20.40625 63.390625 
C 29.09375 63.390625 34.796875 56.5 34.796875 47.390625 
C 34.796875 38.703125 29.703125 31.21875 24 24.734375 
L 4.09375 2.296875 
L 4.09375 0 
L 39.296875 0 
z
" id="CMR17-50"/>
      </defs>
      <g transform="translate(38.173645 244.09327)scale(0.12 -0.12)">
       <use transform="scale(0.996264)" xlink:href="#CMSY10-0"/>
       <use transform="translate(77.487468 0)scale(0.996264)" xlink:href="#CMR17-50"/>
      </g>
     </g>
    </g>
    <g id="xtick_2">
     <g id="line2d_3">
      <path clip-path="url(#pb06e185279)" d="M 102.817566 228.79109 
L 102.817566 11.35109 
" style="fill:none;stroke:#b0b0b0;stroke-linecap:square;stroke-width:0.8;"/>
     </g>
     <g id="line2d_4">
      <g>
       <use style="stroke:#000000;stroke-width:0.8;" x="102.817566" xlink:href="#mde0d091e85" y="228.79109"/>
      </g>
     </g>
     <g id="text_2">
      <!-- $-1$ -->
      <defs>
       <path d="M 26.59375 63.796875 
C 26.59375 65.890625 26.5 66 25.09375 66 
C 21.203125 61.359375 15.296875 59.890625 9.703125 59.6875 
C 9.40625 59.6875 8.90625 59.6875 8.796875 59.5 
C 8.703125 59.296875 8.703125 59.09375 8.703125 57 
C 11.796875 57 17 57.59375 21 59.984375 
L 21 7.296875 
C 21 3.796875 20.796875 2.59375 12.203125 2.59375 
L 9.203125 2.59375 
L 9.203125 0 
C 14 0.09375 19 0.1875 23.796875 0.1875 
C 28.59375 0.1875 33.59375 0.09375 38.40625 0 
L 38.40625 2.59375 
L 35.40625 2.59375 
C 26.796875 2.59375 26.59375 3.6875 26.59375 7.296875 
z
" id="CMR17-49"/>
      </defs>
      <g transform="translate(95.241826 244.09327)scale(0.12 -0.12)">
       <use transform="scale(0.996264)" xlink:href="#CMSY10-0"/>
       <use transform="translate(77.487468 0)scale(0.996264)" xlink:href="#CMR17-49"/>
      </g>
     </g>
    </g>
    <g id="xtick_3">
     <g id="line2d_5">
      <path clip-path="url(#pb06e185279)" d="M 159.885748 228.79109 
L 159.885748 11.35109 
" style="fill:none;stroke:#b0b0b0;stroke-linecap:square;stroke-width:0.8;"/>
     </g>
     <g id="line2d_6">
      <g>
       <use style="stroke:#000000;stroke-width:0.8;" x="159.885748" xlink:href="#mde0d091e85" y="228.79109"/>
      </g>
     </g>
     <g id="text_3">
      <!-- $0$ -->
      <defs>
       <path d="M 42 31.84375 
C 42 37.96875 41.90625 48.421875 37.703125 56.453125 
C 34 63.484375 28.09375 66 22.90625 66 
C 18.09375 66 12 63.78125 8.203125 56.5625 
C 4.203125 49.015625 3.796875 39.671875 3.796875 31.84375 
C 3.796875 26.109375 3.90625 17.375 7 9.734375 
C 11.296875 -0.609375 19 -2 22.90625 -2 
C 27.5 -2 34.5 -0.109375 38.59375 9.4375 
C 41.59375 16.375 42 24.5 42 31.84375 
z
M 22.90625 -0.40625 
C 16.5 -0.40625 12.703125 5.125 11.296875 12.75 
C 10.203125 18.6875 10.203125 27.328125 10.203125 32.953125 
C 10.203125 40.6875 10.203125 47.109375 11.5 53.234375 
C 13.40625 61.78125 19 64.390625 22.90625 64.390625 
C 27 64.390625 32.296875 61.671875 34.203125 53.4375 
C 35.5 47.71875 35.59375 40.984375 35.59375 32.953125 
C 35.59375 26.421875 35.59375 18.375 34.40625 12.453125 
C 32.296875 1.5 26.40625 -0.40625 22.90625 -0.40625 
z
" id="CMR17-48"/>
      </defs>
      <g transform="translate(156.959253 244.09327)scale(0.12 -0.12)">
       <use transform="scale(0.996264)" xlink:href="#CMR17-48"/>
      </g>
     </g>
    </g>
    <g id="xtick_4">
     <g id="line2d_7">
      <path clip-path="url(#pb06e185279)" d="M 216.95393 228.79109 
L 216.95393 11.35109 
" style="fill:none;stroke:#b0b0b0;stroke-linecap:square;stroke-width:0.8;"/>
     </g>
     <g id="line2d_8">
      <g>
       <use style="stroke:#000000;stroke-width:0.8;" x="216.95393" xlink:href="#mde0d091e85" y="228.79109"/>
      </g>
     </g>
     <g id="text_4">
      <!-- $1$ -->
      <g transform="translate(214.027435 244.09327)scale(0.12 -0.12)">
       <use transform="scale(0.996264)" xlink:href="#CMR17-49"/>
      </g>
     </g>
    </g>
    <g id="xtick_5">
     <g id="line2d_9">
      <path clip-path="url(#pb06e185279)" d="M 274.022112 228.79109 
L 274.022112 11.35109 
" style="fill:none;stroke:#b0b0b0;stroke-linecap:square;stroke-width:0.8;"/>
     </g>
     <g id="line2d_10">
      <g>
       <use style="stroke:#000000;stroke-width:0.8;" x="274.022112" xlink:href="#mde0d091e85" y="228.79109"/>
      </g>
     </g>
     <g id="text_5">
      <!-- $2$ -->
      <g transform="translate(271.095617 244.09327)scale(0.12 -0.12)">
       <use transform="scale(0.996264)" xlink:href="#CMR17-50"/>
      </g>
     </g>
    </g>
    <g id="text_6">
     <!-- $I$ -->
     <defs>
      <path d="M 36.796875 60.609375 
C 37.703125 64.09375 37.90625 65.09375 45.203125 65.09375 
C 47.40625 65.09375 48.203125 65.09375 48.203125 66.984375 
C 48.203125 68 47.09375 68 46.796875 68 
C 45 68 42.796875 67.796875 41 67.796875 
L 28.703125 67.796875 
C 26.703125 67.796875 24.40625 68 22.40625 68 
C 21.59375 68 20.5 68 20.5 66.09375 
C 20.5 65.09375 21.296875 65.09375 23.296875 65.09375 
C 29.5 65.09375 29.5 64.296875 29.5 63.203125 
C 29.5 62.5 29.296875 61.90625 29.09375 61.015625 
L 15.59375 7.375 
C 14.703125 3.890625 14.5 2.890625 7.203125 2.890625 
C 5 2.890625 4.09375 2.890625 4.09375 1 
C 4.09375 0 5.09375 0 5.59375 0 
C 7.40625 0 9.59375 0.1875 11.40625 0.1875 
L 23.703125 0.1875 
C 25.703125 0.1875 27.90625 0 29.90625 0 
C 30.703125 0 31.90625 0 31.90625 1.796875 
C 31.90625 2.890625 31.296875 2.890625 29.09375 2.890625 
C 22.90625 2.890625 22.90625 3.6875 22.90625 4.875 
C 22.90625 5.078125 22.90625 5.578125 23.296875 7.171875 
z
" id="CMMI12-73"/>
     </defs>
     <g transform="translate(156.874062 260.103742)scale(0.14 -0.14)">
      <use transform="scale(0.996264)" xlink:href="#CMMI12-73"/>
     </g>
    </g>
   </g>
   <g id="matplotlib.axis_2">
    <g id="ytick_1">
     <g id="line2d_11">
      <path clip-path="url(#pb06e185279)" d="M 45.749385 228.79109 
L 274.022112 228.79109 
" style="fill:none;stroke:#b0b0b0;stroke-linecap:square;stroke-width:0.8;"/>
     </g>
     <g id="line2d_12">
      <defs>
       <path d="M 0 0 
L -3.5 0 
" id="m8e4c4125b7" style="stroke:#000000;stroke-width:0.8;"/>
      </defs>
      <g>
       <use style="stroke:#000000;stroke-width:0.8;" x="45.749385" xlink:href="#m8e4c4125b7" y="228.79109"/>
      </g>
     </g>
     <g id="text_7">
      <!-- $-2$ -->
      <g transform="translate(23.597905 232.94218)scale(0.12 -0.12)">
       <use transform="scale(0.996264)" xlink:href="#CMSY10-0"/>
       <use transform="translate(77.487468 0)scale(0.996264)" xlink:href="#CMR17-50"/>
      </g>
     </g>
    </g>
    <g id="ytick_2">
     <g id="line2d_13">
      <path clip-path="url(#pb06e185279)" d="M 45.749385 174.43109 
L 274.022112 174.43109 
" style="fill:none;stroke:#b0b0b0;stroke-linecap:square;stroke-width:0.8;"/>
     </g>
     <g id="line2d_14">
      <g>
       <use style="stroke:#000000;stroke-width:0.8;" x="45.749385" xlink:href="#m8e4c4125b7" y="174.43109"/>
      </g>
     </g>
     <g id="text_8">
      <!-- $-1$ -->
      <g transform="translate(23.597905 178.58218)scale(0.12 -0.12)">
       <use transform="scale(0.996264)" xlink:href="#CMSY10-0"/>
       <use transform="translate(77.487468 0)scale(0.996264)" xlink:href="#CMR17-49"/>
      </g>
     </g>
    </g>
    <g id="ytick_3">
     <g id="line2d_15">
      <path clip-path="url(#pb06e185279)" d="M 45.749385 120.07109 
L 274.022112 120.07109 
" style="fill:none;stroke:#b0b0b0;stroke-linecap:square;stroke-width:0.8;"/>
     </g>
     <g id="line2d_16">
      <g>
       <use style="stroke:#000000;stroke-width:0.8;" x="45.749385" xlink:href="#m8e4c4125b7" y="120.07109"/>
      </g>
     </g>
     <g id="text_9">
      <!-- $0$ -->
      <g transform="translate(32.896394 124.22218)scale(0.12 -0.12)">
       <use transform="scale(0.996264)" xlink:href="#CMR17-48"/>
      </g>
     </g>
    </g>
    <g id="ytick_4">
     <g id="line2d_17">
      <path clip-path="url(#pb06e185279)" d="M 45.749385 65.71109 
L 274.022112 65.71109 
" style="fill:none;stroke:#b0b0b0;stroke-linecap:square;stroke-width:0.8;"/>
     </g>
     <g id="line2d_18">
      <g>
       <use style="stroke:#000000;stroke-width:0.8;" x="45.749385" xlink:href="#m8e4c4125b7" y="65.71109"/>
      </g>
     </g>
     <g id="text_10">
      <!-- $1$ -->
      <g transform="translate(32.896394 69.86218)scale(0.12 -0.12)">
       <use transform="scale(0.996264)" xlink:href="#CMR17-49"/>
      </g>
     </g>
    </g>
    <g id="ytick_5">
     <g id="line2d_19">
      <path clip-path="url(#pb06e185279)" d="M 45.749385 11.35109 
L 274.022112 11.35109 
" style="fill:none;stroke:#b0b0b0;stroke-linecap:square;stroke-width:0.8;"/>
     </g>
     <g id="line2d_20">
      <g>
       <use style="stroke:#000000;stroke-width:0.8;" x="45.749385" xlink:href="#m8e4c4125b7" y="11.35109"/>
      </g>
     </g>
     <g id="text_11">
      <!-- $2$ -->
      <g transform="translate(32.896394 15.50218)scale(0.12 -0.12)">
       <use transform="scale(0.996264)" xlink:href="#CMR17-50"/>
      </g>
     </g>
    </g>
    <g id="text_12">
     <!-- $Q$ -->
     <defs>
      <path d="M 42.59375 0.703125 
C 59.796875 7.703125 72.59375 25.84375 72.59375 43.71875 
C 72.59375 60 61.796875 70 47.796875 70 
C 26.40625 70 4.796875 47.265625 4.796875 24.46875 
C 4.796875 8.828125 15.203125 -2 29.703125 -2 
C 33.09375 -2 36.40625 -1.5 39.59375 -0.5 
C 39 -6.34375 39 -6.828125 39 -8.65625 
C 39 -11.5 39 -19 47 -19 
C 58.90625 -19 63.296875 -0.609375 63.296875 0 
C 63.296875 0.59375 62.90625 1 62.40625 1 
C 61.796875 1 61.59375 0.5 61.296875 -0.609375 
C 59.09375 -6.734375 53.90625 -10.203125 49.5 -10.203125 
C 44.40625 -10.203125 43.09375 -6.828125 42.59375 0.703125 
z
M 24.59375 1.203125 
C 16.703125 3.953125 12.90625 12.375 12.90625 21.5 
C 12.90625 28.421875 15.5 41.546875 22.09375 51.515625 
C 29.5 62.765625 39.40625 67.796875 47.203125 67.796875 
C 57.59375 67.796875 64.59375 59.5 64.59375 46.671875 
C 64.59375 39.375 61.09375 14.890625 42.296875 3.75 
C 41.796875 8.921875 40.40625 15 33.796875 15 
C 28.40625 15 23.796875 9.53125 23.796875 4.5625 
C 23.796875 3.4375 24.203125 1.921875 24.59375 1.203125 
z
M 39.796875 2.421875 
C 36.203125 0.796875 33.09375 0.1875 30.296875 0.1875 
C 29.296875 0.1875 25.796875 0.1875 25.796875 4.65625 
C 25.796875 8.3125 29.296875 12.984375 33.796875 12.984375 
C 38.796875 12.984375 39.90625 9.53125 39.90625 4.453125 
C 39.90625 3.84375 39.90625 3.03125 39.796875 2.421875 
z
" id="CMMI12-81"/>
     </defs>
     <g transform="translate(16.885876 125.479314)rotate(-90)scale(0.14 -0.14)">
      <use transform="scale(0.996264)" xlink:href="#CMMI12-81"/>
     </g>
    </g>
   </g>
   <g id="line2d_21">
    <path clip-path="url(#pb06e185279)" d="M -1 120.07109 
L 331.090294 120.07109 
" style="fill:none;stroke:#000000;stroke-linecap:square;stroke-width:0.5;"/>
   </g>
   <g id="line2d_22">
    <path clip-path="url(#pb06e185279)" d="M 159.885748 271.01577 
L 159.885748 -1 
" style="fill:none;stroke:#000000;stroke-linecap:square;stroke-width:0.5;"/>
   </g>
   <g id="line2d_23">
    <defs>
     <path d="M 0 2.5 
C 0.663008 2.5 1.29895 2.236584 1.767767 1.767767 
C 2.236584 1.29895 2.5 0.663008 2.5 0 
C 2.5 -0.663008 2.236584 -1.29895 1.767767 -1.767767 
C 1.29895 -2.236584 0.663008 -2.5 0 -2.5 
C -0.663008 -2.5 -1.29895 -2.236584 -1.767767 -1.767767 
C -2.236584 -1.29895 -2.5 -0.663008 -2.5 0 
C -2.5 0.663008 -2.236584 1.29895 -1.767767 1.767767 
C -1.29895 2.236584 -0.663008 2.5 0 2.5 
z
" id="m589934a6cc" style="stroke:#1f77b4;"/>
    </defs>
    <g clip-path="url(#pb06e185279)">
     <use style="fill:#1f77b4;stroke:#1f77b4;" x="216.95393" xlink:href="#m589934a6cc" y="120.07109"/>
     <use style="fill:#1f77b4;stroke:#1f77b4;" x="200.239047" xlink:href="#m589934a6cc" y="81.632765"/>
     <use style="fill:#1f77b4;stroke:#1f77b4;" x="159.885748" xlink:href="#m589934a6cc" y="65.71109"/>
     <use style="fill:#1f77b4;stroke:#1f77b4;" x="119.53245" xlink:href="#m589934a6cc" y="81.632765"/>
     <use style="fill:#1f77b4;stroke:#1f77b4;" x="102.817566" xlink:href="#m589934a6cc" y="120.07109"/>
     <use style="fill:#1f77b4;stroke:#1f77b4;" x="119.53245" xlink:href="#m589934a6cc" y="158.509415"/>
     <use style="fill:#1f77b4;stroke:#1f77b4;" x="159.885748" xlink:href="#m589934a6cc" y="174.43109"/>
     <use style="fill:#1f77b4;stroke:#1f77b4;" x="200.239047" xlink:href="#m589934a6cc" y="158.509415"/>
    </g>
   </g>
   <g id="patch_3">
    <path d="M 45.749385 228.79109 
L 45.749385 11.35109 
" style="fill:none;stroke:#000000;stroke-linecap:square;stroke-linejoin:miter;stroke-width:0.8;"/>
   </g>
   <g id="patch_4">
    <path d="M 274.022112 228.79109 
L 274.022112 11.35109 
" style="fill:none;stroke:#000000;stroke-linecap:square;stroke-linejoin:miter;stroke-width:0.8;"/>
   </g>
   <g id="patch_5">
    <path d="M 45.749385 228.79109 
L 274.022112 228.79109 
" style="fill:none;stroke:#000000;stroke-linecap:square;stroke-linejoin:miter;stroke-width:0.8;"/>
   </g>
   <g id="patch_6">
    <path d="M 45.749385 11.35109 
L 274.022112 11.35109 
" style="fill:none;stroke:#000000;stroke-linecap:square;stroke-linejoin:miter;stroke-width:0.8;"/>
   </g>
   <g id="text_13">
    <!-- 000 -->
    <g style="fill:#1f77b4;" transform="translate(214.320288 112.82309)scale(0.14 -0.14)">
     <use transform="scale(0.996264)" xlink:href="#CMR17-48"/>
     <use transform="translate(45.690477 0)scale(0.996264)" xlink:href="#CMR17-48"/>
     <use transform="translate(91.380954 0)scale(0.996264)" xlink:href="#CMR17-48"/>
    </g>
   </g>
   <g id="text_14">
    <!-- 000 -->
    <g style="fill:#2ca02c;" transform="translate(214.320288 100.764966)scale(0.14 -0.14)">
     <use transform="scale(0.996264)" xlink:href="#CMR17-48"/>
     <use transform="translate(45.690477 0)scale(0.996264)" xlink:href="#CMR17-48"/>
     <use transform="translate(91.380954 0)scale(0.996264)" xlink:href="#CMR17-48"/>
    </g>
   </g>
   <g id="text_15">
    <!-- 001 -->
    <g style="fill:#1f77b4;" transform="translate(197.605404 74.384765)scale(0.14 -0.14)">
     <use transform="scale(0.996264)" xlink:href="#CMR17-48"/>
     <use transform="translate(45.690477 0)scale(0.996264)" xlink:href="#CMR17-48"/>
     <use transform="translate(91.380954 0)scale(0.996264)" xlink:href="#CMR17-49"/>
    </g>
   </g>
   <g id="text_16">
    <!-- 001 -->
    <g style="fill:#2ca02c;" transform="translate(197.605404 62.326642)scale(0.14 -0.14)">
     <use transform="scale(0.996264)" xlink:href="#CMR17-48"/>
     <use transform="translate(45.690477 0)scale(0.996264)" xlink:href="#CMR17-48"/>
     <use transform="translate(91.380954 0)scale(0.996264)" xlink:href="#CMR17-49"/>
    </g>
   </g>
   <g id="text_17">
    <!-- 010 -->
    <g style="fill:#1f77b4;" transform="translate(157.252106 58.46309)scale(0.14 -0.14)">
     <use transform="scale(0.996264)" xlink:href="#CMR17-48"/>
     <use transform="translate(45.690477 0)scale(0.996264)" xlink:href="#CMR17-49"/>
     <use transform="translate(91.380954 0)scale(0.996264)" xlink:href="#CMR17-48"/>
    </g>
   </g>
   <g id="text_18">
    <!-- 011 -->
    <g style="fill:#2ca02c;" transform="translate(157.252106 46.404966)scale(0.14 -0.14)">
     <use transform="scale(0.996264)" xlink:href="#CMR17-48"/>
     <use transform="translate(45.690477 0)scale(0.996264)" xlink:href="#CMR17-49"/>
     <use transform="translate(91.380954 0)scale(0.996264)" xlink:href="#CMR17-49"/>
    </g>
   </g>
   <g id="text_19">
    <!-- 011 -->
    <g style="fill:#1f77b4;" transform="translate(116.898808 74.384765)scale(0.14 -0.14)">
     <use transform="scale(0.996264)" xlink:href="#CMR17-48"/>
     <use transform="translate(45.690477 0)scale(0.996264)" xlink:href="#CMR17-49"/>
     <use transform="translate(91.380954 0)scale(0.996264)" xlink:href="#CMR17-49"/>
    </g>
   </g>
   <g id="text_20">
    <!-- 010 -->
    <g style="fill:#2ca02c;" transform="translate(116.898808 62.326642)scale(0.14 -0.14)">
     <use transform="scale(0.996264)" xlink:href="#CMR17-48"/>
     <use transform="translate(45.690477 0)scale(0.996264)" xlink:href="#CMR17-49"/>
     <use transform="translate(91.380954 0)scale(0.996264)" xlink:href="#CMR17-48"/>
    </g>
   </g>
   <g id="text_21">
    <!-- 100 -->
    <g style="fill:#1f77b4;" transform="translate(100.183924 112.82309)scale(0.14 -0.14)">
     <use transform="scale(0.996264)" xlink:href="#CMR17-49"/>
     <use transform="translate(45.690477 0)scale(0.996264)" xlink:href="#CMR17-48"/>
     <use transform="translate(91.380954 0)scale(0.996264)" xlink:href="#CMR17-48"/>
    </g>
   </g>
   <g id="text_22">
    <!-- 110 -->
    <g style="fill:#2ca02c;" transform="translate(100.183924 100.764966)scale(0.14 -0.14)">
     <use transform="scale(0.996264)" xlink:href="#CMR17-49"/>
     <use transform="translate(45.690477 0)scale(0.996264)" xlink:href="#CMR17-49"/>
     <use transform="translate(91.380954 0)scale(0.996264)" xlink:href="#CMR17-48"/>
    </g>
   </g>
   <g id="text_23">
    <!-- 101 -->
    <g style="fill:#1f77b4;" transform="translate(116.898808 151.261415)scale(0.14 -0.14)">
     <use transform="scale(0.996264)" xlink:href="#CMR17-49"/>
     <use transform="translate(45.690477 0)scale(0.996264)" xlink:href="#CMR17-48"/>
     <use transform="translate(91.380954 0)scale(0.996264)" xlink:href="#CMR17-49"/>
    </g>
   </g>
   <g id="text_24">
    <!-- 111 -->
    <g style="fill:#2ca02c;" transform="translate(116.898808 139.203291)scale(0.14 -0.14)">
     <use transform="scale(0.996264)" xlink:href="#CMR17-49"/>
     <use transform="translate(45.690477 0)scale(0.996264)" xlink:href="#CMR17-49"/>
     <use transform="translate(91.380954 0)scale(0.996264)" xlink:href="#CMR17-49"/>
    </g>
   </g>
   <g id="text_25">
    <!-- 110 -->
    <g style="fill:#1f77b4;" transform="translate(157.252106 167.18309)scale(0.14 -0.14)">
     <use transform="scale(0.996264)" xlink:href="#CMR17-49"/>
     <use transform="translate(45.690477 0)scale(0.996264)" xlink:href="#CMR17-49"/>
     <use transform="translate(91.380954 0)scale(0.996264)" xlink:href="#CMR17-48"/>
    </g>
   </g>
   <g id="text_26">
    <!-- 101 -->
    <g style="fill:#2ca02c;" transform="translate(157.252106 155.124966)scale(0.14 -0.14)">
     <use transform="scale(0.996264)" xlink:href="#CMR17-49"/>
     <use transform="translate(45.690477 0)scale(0.996264)" xlink:href="#CMR17-48"/>
     <use transform="translate(91.380954 0)scale(0.996264)" xlink:href="#CMR17-49"/>
    </g>
   </g>
   <g id="text_27">
    <!-- 111 -->
    <g style="fill:#1f77b4;" transform="translate(197.605404 151.261415)scale(0.14 -0.14)">
     <use transform="scale(0.996264)" xlink:href="#CMR17-49"/>
     <use transform="translate(45.690477 0)scale(0.996264)" xlink:href="#CMR17-49"/>
     <use transform="translate(91.380954 0)scale(0.996264)" xlink:href="#CMR17-49"/>
    </g>
   </g>
   <g id="text_28">
    <!-- 100 -->
    <g style="fill:#2ca02c;" transform="translate(197.605404 139.203291)scale(0.14 -0.14)">
     <use transform="scale(0.996264)" xlink:href="#CMR17-49"/>
     <use transform="translate(45.690477 0)scale(0.996264)" xlink:href="#CMR17-48"/>
     <use transform="translate(91.380954 0)scale(0.996264)" xlink:href="#CMR17-48"/>
    </g>
   </g>
  </g>
  <g id="axes_2">
   <g id="patch_7">
    <path d="M 319.676657 228.79109 
L 547.949385 228.79109 
L 547.949385 11.35109 
L 319.676657 11.35109 
z
" style="fill:#ffffff;"/>
   </g>
   <g id="matplotlib.axis_3">
    <g id="xtick_6">
     <g id="line2d_24">
      <path clip-path="url(#p38c48a53ec)" d="M 319.676657 228.79109 
L 319.676657 11.35109 
" style="fill:none;stroke:#b0b0b0;stroke-linecap:square;stroke-width:0.8;"/>
     </g>
     <g id="line2d_25">
      <g>
       <use style="stroke:#000000;stroke-width:0.8;" x="319.676657" xlink:href="#mde0d091e85" y="228.79109"/>
      </g>
     </g>
     <g id="text_29">
      <!-- $-2$ -->
      <g transform="translate(312.100917 244.09327)scale(0.12 -0.12)">
       <use transform="scale(0.996264)" xlink:href="#CMSY10-0"/>
       <use transform="translate(77.487468 0)scale(0.996264)" xlink:href="#CMR17-50"/>
      </g>
     </g>
    </g>
    <g id="xtick_7">
     <g id="line2d_26">
      <path clip-path="url(#p38c48a53ec)" d="M 376.744839 228.79109 
L 376.744839 11.35109 
" style="fill:none;stroke:#b0b0b0;stroke-linecap:square;stroke-width:0.8;"/>
     </g>
     <g id="line2d_27">
      <g>
       <use style="stroke:#000000;stroke-width:0.8;" x="376.744839" xlink:href="#mde0d091e85" y="228.79109"/>
      </g>
     </g>
     <g id="text_30">
      <!-- $-1$ -->
      <g transform="translate(369.169099 244.09327)scale(0.12 -0.12)">
       <use transform="scale(0.996264)" xlink:href="#CMSY10-0"/>
       <use transform="translate(77.487468 0)scale(0.996264)" xlink:href="#CMR17-49"/>
      </g>
     </g>
    </g>
    <g id="xtick_8">
     <g id="line2d_28">
      <path clip-path="url(#p38c48a53ec)" d="M 433.813021 228.79109 
L 433.813021 11.35109 
" style="fill:none;stroke:#b0b0b0;stroke-linecap:square;stroke-width:0.8;"/>
     </g>
     <g id="line2d_29">
      <g>
       <use style="stroke:#000000;stroke-width:0.8;" x="433.813021" xlink:href="#mde0d091e85" y="228.79109"/>
      </g>
     </g>
     <g id="text_31">
      <!-- $0$ -->
      <g transform="translate(430.886526 244.09327)scale(0.12 -0.12)">
       <use transform="scale(0.996264)" xlink:href="#CMR17-48"/>
      </g>
     </g>
    </g>
    <g id="xtick_9">
     <g id="line2d_30">
      <path clip-path="url(#p38c48a53ec)" d="M 490.881203 228.79109 
L 490.881203 11.35109 
" style="fill:none;stroke:#b0b0b0;stroke-linecap:square;stroke-width:0.8;"/>
     </g>
     <g id="line2d_31">
      <g>
       <use style="stroke:#000000;stroke-width:0.8;" x="490.881203" xlink:href="#mde0d091e85" y="228.79109"/>
      </g>
     </g>
     <g id="text_32">
      <!-- $1$ -->
      <g transform="translate(487.954708 244.09327)scale(0.12 -0.12)">
       <use transform="scale(0.996264)" xlink:href="#CMR17-49"/>
      </g>
     </g>
    </g>
    <g id="xtick_10">
     <g id="line2d_32">
      <path clip-path="url(#p38c48a53ec)" d="M 547.949385 228.79109 
L 547.949385 11.35109 
" style="fill:none;stroke:#b0b0b0;stroke-linecap:square;stroke-width:0.8;"/>
     </g>
     <g id="line2d_33">
      <g>
       <use style="stroke:#000000;stroke-width:0.8;" x="547.949385" xlink:href="#mde0d091e85" y="228.79109"/>
      </g>
     </g>
     <g id="text_33">
      <!-- $2$ -->
      <g transform="translate(545.022889 244.09327)scale(0.12 -0.12)">
       <use transform="scale(0.996264)" xlink:href="#CMR17-50"/>
      </g>
     </g>
    </g>
    <g id="text_34">
     <!-- $I$ -->
     <g transform="translate(430.801335 260.103742)scale(0.14 -0.14)">
      <use transform="scale(0.996264)" xlink:href="#CMMI12-73"/>
     </g>
    </g>
   </g>
   <g id="matplotlib.axis_4">
    <g id="ytick_6">
     <g id="line2d_34">
      <path clip-path="url(#p38c48a53ec)" d="M 319.676657 228.79109 
L 547.949385 228.79109 
" style="fill:none;stroke:#b0b0b0;stroke-linecap:square;stroke-width:0.8;"/>
     </g>
     <g id="line2d_35">
      <g>
       <use style="stroke:#000000;stroke-width:0.8;" x="319.676657" xlink:href="#m8e4c4125b7" y="228.79109"/>
      </g>
     </g>
     <g id="text_35">
      <!-- $-2$ -->
      <g transform="translate(297.525178 232.94218)scale(0.12 -0.12)">
       <use transform="scale(0.996264)" xlink:href="#CMSY10-0"/>
       <use transform="translate(77.487468 0)scale(0.996264)" xlink:href="#CMR17-50"/>
      </g>
     </g>
    </g>
    <g id="ytick_7">
     <g id="line2d_36">
      <path clip-path="url(#p38c48a53ec)" d="M 319.676657 174.43109 
L 547.949385 174.43109 
" style="fill:none;stroke:#b0b0b0;stroke-linecap:square;stroke-width:0.8;"/>
     </g>
     <g id="line2d_37">
      <g>
       <use style="stroke:#000000;stroke-width:0.8;" x="319.676657" xlink:href="#m8e4c4125b7" y="174.43109"/>
      </g>
     </g>
     <g id="text_36">
      <!-- $-1$ -->
      <g transform="translate(297.525178 178.58218)scale(0.12 -0.12)">
       <use transform="scale(0.996264)" xlink:href="#CMSY10-0"/>
       <use transform="translate(77.487468 0)scale(0.996264)" xlink:href="#CMR17-49"/>
      </g>
     </g>
    </g>
    <g id="ytick_8">
     <g id="line2d_38">
      <path clip-path="url(#p38c48a53ec)" d="M 319.676657 120.07109 
L 547.949385 120.07109 
" style="fill:none;stroke:#b0b0b0;stroke-linecap:square;stroke-width:0.8;"/>
     </g>
     <g id="line2d_39">
      <g>
       <use style="stroke:#000000;stroke-width:0.8;" x="319.676657" xlink:href="#m8e4c4125b7" y="120.07109"/>
      </g>
     </g>
     <g id="text_37">
      <!-- $0$ -->
      <g transform="translate(306.823667 124.22218)scale(0.12 -0.12)">
       <use transform="scale(0.996264)" xlink:href="#CMR17-48"/>
      </g>
     </g>
    </g>
    <g id="ytick_9">
     <g id="line2d_40">
      <path clip-path="url(#p38c48a53ec)" d="M 319.676657 65.71109 
L 547.949385 65.71109 
" style="fill:none;stroke:#b0b0b0;stroke-linecap:square;stroke-width:0.8;"/>
     </g>
     <g id="line2d_41">
      <g>
       <use style="stroke:#000000;stroke-width:0.8;" x="319.676657" xlink:href="#m8e4c4125b7" y="65.71109"/>
      </g>
     </g>
     <g id="text_38">
      <!-- $1$ -->
      <g transform="translate(306.823667 69.86218)scale(0.12 -0.12)">
       <use transform="scale(0.996264)" xlink:href="#CMR17-49"/>
      </g>
     </g>
    </g>
    <g id="ytick_10">
     <g id="line2d_42">
      <path clip-path="url(#p38c48a53ec)" d="M 319.676657 11.35109 
L 547.949385 11.35109 
" style="fill:none;stroke:#b0b0b0;stroke-linecap:square;stroke-width:0.8;"/>
     </g>
     <g id="line2d_43">
      <g>
       <use style="stroke:#000000;stroke-width:0.8;" x="319.676657" xlink:href="#m8e4c4125b7" y="11.35109"/>
      </g>
     </g>
     <g id="text_39">
      <!-- $2$ -->
      <g transform="translate(306.823667 15.50218)scale(0.12 -0.12)">
       <use transform="scale(0.996264)" xlink:href="#CMR17-50"/>
      </g>
     </g>
    </g>
    <g id="text_40">
     <!-- $Q$ -->
     <g transform="translate(290.813149 125.479314)rotate(-90)scale(0.14 -0.14)">
      <use transform="scale(0.996264)" xlink:href="#CMMI12-81"/>
     </g>
    </g>
   </g>
   <g id="line2d_44">
    <path clip-path="url(#p38c48a53ec)" d="M 262.608475 120.07109 
L 559.07588 120.07109 
" style="fill:none;stroke:#000000;stroke-linecap:square;stroke-width:0.5;"/>
   </g>
   <g id="line2d_45">
    <path clip-path="url(#p38c48a53ec)" d="M 433.813021 271.01577 
L 433.813021 -1 
" style="fill:none;stroke:#000000;stroke-linecap:square;stroke-width:0.5;"/>
   </g>
   <g id="line2d_46">
    <g clip-path="url(#p38c48a53ec)">
     <use style="fill:#1f77b4;stroke:#1f77b4;" x="500.675523" xlink:href="#m589934a6cc" y="126.530255"/>
     <use style="fill:#1f77b4;stroke:#1f77b4;" x="471.380626" xlink:href="#m589934a6cc" y="77.923037"/>
     <use style="fill:#1f77b4;stroke:#1f77b4;" x="440.436981" xlink:href="#m589934a6cc" y="66.519951"/>
     <use style="fill:#1f77b4;stroke:#1f77b4;" x="395.86695" xlink:href="#m589934a6cc" y="77.186481"/>
     <use style="fill:#1f77b4;stroke:#1f77b4;" x="372.00399" xlink:href="#m589934a6cc" y="125.022082"/>
     <use style="fill:#1f77b4;stroke:#1f77b4;" x="401.827922" xlink:href="#m589934a6cc" y="157.47526"/>
     <use style="fill:#1f77b4;stroke:#1f77b4;" x="431.154586" xlink:href="#m589934a6cc" y="181.706692"/>
     <use style="fill:#1f77b4;stroke:#1f77b4;" x="471.351512" xlink:href="#m589934a6cc" y="151.648109"/>
    </g>
   </g>
   <g id="line2d_47">
    <g clip-path="url(#p38c48a53ec)">
     <use style="fill:#1f77b4;stroke:#1f77b4;" x="492.490826" xlink:href="#m589934a6cc" y="132.341485"/>
     <use style="fill:#1f77b4;stroke:#1f77b4;" x="476.996082" xlink:href="#m589934a6cc" y="74.771509"/>
     <use style="fill:#1f77b4;stroke:#1f77b4;" x="437.327028" xlink:href="#m589934a6cc" y="64.661542"/>
     <use style="fill:#1f77b4;stroke:#1f77b4;" x="384.807409" xlink:href="#m589934a6cc" y="72.839961"/>
     <use style="fill:#1f77b4;stroke:#1f77b4;" x="383.449046" xlink:href="#m589934a6cc" y="114.180389"/>
     <use style="fill:#1f77b4;stroke:#1f77b4;" x="411.065566" xlink:href="#m589934a6cc" y="156.792412"/>
     <use style="fill:#1f77b4;stroke:#1f77b4;" x="419.787581" xlink:href="#m589934a6cc" y="172.115043"/>
     <use style="fill:#1f77b4;stroke:#1f77b4;" x="459.362164" xlink:href="#m589934a6cc" y="159.893642"/>
    </g>
   </g>
   <g id="line2d_48">
    <g clip-path="url(#p38c48a53ec)">
     <use style="fill:#1f77b4;stroke:#1f77b4;" x="498.315419" xlink:href="#m589934a6cc" y="112.167644"/>
     <use style="fill:#1f77b4;stroke:#1f77b4;" x="464.495694" xlink:href="#m589934a6cc" y="83.549"/>
     <use style="fill:#1f77b4;stroke:#1f77b4;" x="430.201813" xlink:href="#m589934a6cc" y="54.912364"/>
     <use style="fill:#1f77b4;stroke:#1f77b4;" x="395.539334" xlink:href="#m589934a6cc" y="96.901371"/>
     <use style="fill:#1f77b4;stroke:#1f77b4;" x="392.165411" xlink:href="#m589934a6cc" y="110.869112"/>
     <use style="fill:#1f77b4;stroke:#1f77b4;" x="386.915736" xlink:href="#m589934a6cc" y="150.071115"/>
     <use style="fill:#1f77b4;stroke:#1f77b4;" x="424.576018" xlink:href="#m589934a6cc" y="185.99889"/>
     <use style="fill:#1f77b4;stroke:#1f77b4;" x="469.344453" xlink:href="#m589934a6cc" y="157.257108"/>
    </g>
   </g>
   <g id="line2d_49">
    <g clip-path="url(#p38c48a53ec)">
     <use style="fill:#1f77b4;stroke:#1f77b4;" x="501.288364" xlink:href="#m589934a6cc" y="121.675227"/>
     <use style="fill:#1f77b4;stroke:#1f77b4;" x="474.918926" xlink:href="#m589934a6cc" y="83.090263"/>
     <use style="fill:#1f77b4;stroke:#1f77b4;" x="442.370692" xlink:href="#m589934a6cc" y="66.569378"/>
     <use style="fill:#1f77b4;stroke:#1f77b4;" x="413.789294" xlink:href="#m589934a6cc" y="76.333728"/>
     <use style="fill:#1f77b4;stroke:#1f77b4;" x="379.089761" xlink:href="#m589934a6cc" y="128.766023"/>
     <use style="fill:#1f77b4;stroke:#1f77b4;" x="391.059586" xlink:href="#m589934a6cc" y="170.984027"/>
     <use style="fill:#1f77b4;stroke:#1f77b4;" x="427.212639" xlink:href="#m589934a6cc" y="194.27692"/>
     <use style="fill:#1f77b4;stroke:#1f77b4;" x="479.7139" xlink:href="#m589934a6cc" y="148.735452"/>
    </g>
   </g>
   <g id="line2d_50">
    <g clip-path="url(#p38c48a53ec)">
     <use style="fill:#1f77b4;stroke:#1f77b4;" x="491.512891" xlink:href="#m589934a6cc" y="105.664771"/>
     <use style="fill:#1f77b4;stroke:#1f77b4;" x="487.093285" xlink:href="#m589934a6cc" y="78.743391"/>
     <use style="fill:#1f77b4;stroke:#1f77b4;" x="433.736353" xlink:href="#m589934a6cc" y="62.315874"/>
     <use style="fill:#1f77b4;stroke:#1f77b4;" x="387.106703" xlink:href="#m589934a6cc" y="83.887768"/>
     <use style="fill:#1f77b4;stroke:#1f77b4;" x="380.836022" xlink:href="#m589934a6cc" y="125.695063"/>
     <use style="fill:#1f77b4;stroke:#1f77b4;" x="392.804108" xlink:href="#m589934a6cc" y="151.238853"/>
     <use style="fill:#1f77b4;stroke:#1f77b4;" x="423.076898" xlink:href="#m589934a6cc" y="175.284214"/>
     <use style="fill:#1f77b4;stroke:#1f77b4;" x="466.589948" xlink:href="#m589934a6cc" y="164.699182"/>
    </g>
   </g>
   <g id="line2d_51">
    <g clip-path="url(#p38c48a53ec)">
     <use style="fill:#1f77b4;stroke:#1f77b4;" x="489.733032" xlink:href="#m589934a6cc" y="126.890986"/>
     <use style="fill:#1f77b4;stroke:#1f77b4;" x="466.414126" xlink:href="#m589934a6cc" y="83.444871"/>
     <use style="fill:#1f77b4;stroke:#1f77b4;" x="435.439856" xlink:href="#m589934a6cc" y="65.324554"/>
     <use style="fill:#1f77b4;stroke:#1f77b4;" x="403.126168" xlink:href="#m589934a6cc" y="85.177186"/>
     <use style="fill:#1f77b4;stroke:#1f77b4;" x="369.58776" xlink:href="#m589934a6cc" y="125.802438"/>
     <use style="fill:#1f77b4;stroke:#1f77b4;" x="405.688384" xlink:href="#m589934a6cc" y="164.036899"/>
     <use style="fill:#1f77b4;stroke:#1f77b4;" x="428.098042" xlink:href="#m589934a6cc" y="181.126828"/>
     <use style="fill:#1f77b4;stroke:#1f77b4;" x="475.479562" xlink:href="#m589934a6cc" y="171.311847"/>
    </g>
   </g>
   <g id="line2d_52">
    <g clip-path="url(#p38c48a53ec)">
     <use style="fill:#1f77b4;stroke:#1f77b4;" x="488.630123" xlink:href="#m589934a6cc" y="128.610106"/>
     <use style="fill:#1f77b4;stroke:#1f77b4;" x="477.600325" xlink:href="#m589934a6cc" y="73.735799"/>
     <use style="fill:#1f77b4;stroke:#1f77b4;" x="441.589148" xlink:href="#m589934a6cc" y="73.49934"/>
     <use style="fill:#1f77b4;stroke:#1f77b4;" x="398.999069" xlink:href="#m589934a6cc" y="78.745339"/>
     <use style="fill:#1f77b4;stroke:#1f77b4;" x="397.780198" xlink:href="#m589934a6cc" y="136.121397"/>
     <use style="fill:#1f77b4;stroke:#1f77b4;" x="396.18771" xlink:href="#m589934a6cc" y="151.176737"/>
     <use style="fill:#1f77b4;stroke:#1f77b4;" x="429.906699" xlink:href="#m589934a6cc" y="175.721441"/>
     <use style="fill:#1f77b4;stroke:#1f77b4;" x="490.187937" xlink:href="#m589934a6cc" y="166.399889"/>
    </g>
   </g>
   <g id="line2d_53">
    <g clip-path="url(#p38c48a53ec)">
     <use style="fill:#1f77b4;stroke:#1f77b4;" x="505.248851" xlink:href="#m589934a6cc" y="125.515975"/>
     <use style="fill:#1f77b4;stroke:#1f77b4;" x="480.717929" xlink:href="#m589934a6cc" y="86.112333"/>
     <use style="fill:#1f77b4;stroke:#1f77b4;" x="434.205146" xlink:href="#m589934a6cc" y="70.049551"/>
     <use style="fill:#1f77b4;stroke:#1f77b4;" x="387.078558" xlink:href="#m589934a6cc" y="92.635098"/>
     <use style="fill:#1f77b4;stroke:#1f77b4;" x="376.373645" xlink:href="#m589934a6cc" y="124.894792"/>
     <use style="fill:#1f77b4;stroke:#1f77b4;" x="392.056455" xlink:href="#m589934a6cc" y="159.26291"/>
     <use style="fill:#1f77b4;stroke:#1f77b4;" x="440.017272" xlink:href="#m589934a6cc" y="168.797068"/>
     <use style="fill:#1f77b4;stroke:#1f77b4;" x="480.998024" xlink:href="#m589934a6cc" y="147.74304"/>
    </g>
   </g>
   <g id="line2d_54">
    <g clip-path="url(#p38c48a53ec)">
     <use style="fill:#1f77b4;stroke:#1f77b4;" x="483.961578" xlink:href="#m589934a6cc" y="118.426466"/>
     <use style="fill:#1f77b4;stroke:#1f77b4;" x="478.882804" xlink:href="#m589934a6cc" y="84.764345"/>
     <use style="fill:#1f77b4;stroke:#1f77b4;" x="430.008369" xlink:href="#m589934a6cc" y="62.830375"/>
     <use style="fill:#1f77b4;stroke:#1f77b4;" x="411.223802" xlink:href="#m589934a6cc" y="94.367879"/>
     <use style="fill:#1f77b4;stroke:#1f77b4;" x="376.327754" xlink:href="#m589934a6cc" y="114.673101"/>
     <use style="fill:#1f77b4;stroke:#1f77b4;" x="397.758044" xlink:href="#m589934a6cc" y="165.843777"/>
     <use style="fill:#1f77b4;stroke:#1f77b4;" x="425.79926" xlink:href="#m589934a6cc" y="160.38645"/>
     <use style="fill:#1f77b4;stroke:#1f77b4;" x="467.226633" xlink:href="#m589934a6cc" y="160.861576"/>
    </g>
   </g>
   <g id="line2d_55">
    <g clip-path="url(#p38c48a53ec)">
     <use style="fill:#1f77b4;stroke:#1f77b4;" x="500.274041" xlink:href="#m589934a6cc" y="113.974708"/>
     <use style="fill:#1f77b4;stroke:#1f77b4;" x="462.224945" xlink:href="#m589934a6cc" y="76.30998"/>
     <use style="fill:#1f77b4;stroke:#1f77b4;" x="437.484898" xlink:href="#m589934a6cc" y="66.424414"/>
     <use style="fill:#1f77b4;stroke:#1f77b4;" x="385.857987" xlink:href="#m589934a6cc" y="92.750178"/>
     <use style="fill:#1f77b4;stroke:#1f77b4;" x="372.576958" xlink:href="#m589934a6cc" y="126.632174"/>
     <use style="fill:#1f77b4;stroke:#1f77b4;" x="393.670273" xlink:href="#m589934a6cc" y="160.105611"/>
     <use style="fill:#1f77b4;stroke:#1f77b4;" x="431.098787" xlink:href="#m589934a6cc" y="191.732459"/>
     <use style="fill:#1f77b4;stroke:#1f77b4;" x="476.428407" xlink:href="#m589934a6cc" y="152.376949"/>
    </g>
   </g>
   <g id="line2d_56">
    <g clip-path="url(#p38c48a53ec)">
     <use style="fill:#1f77b4;stroke:#1f77b4;" x="488.829845" xlink:href="#m589934a6cc" y="127.285532"/>
     <use style="fill:#1f77b4;stroke:#1f77b4;" x="472.014969" xlink:href="#m589934a6cc" y="73.1256"/>
     <use style="fill:#1f77b4;stroke:#1f77b4;" x="441.931337" xlink:href="#m589934a6cc" y="61.569778"/>
     <use style="fill:#1f77b4;stroke:#1f77b4;" x="399.177188" xlink:href="#m589934a6cc" y="97.693082"/>
     <use style="fill:#1f77b4;stroke:#1f77b4;" x="378.636658" xlink:href="#m589934a6cc" y="119.076714"/>
     <use style="fill:#1f77b4;stroke:#1f77b4;" x="384.888079" xlink:href="#m589934a6cc" y="168.821762"/>
     <use style="fill:#1f77b4;stroke:#1f77b4;" x="436.4703" xlink:href="#m589934a6cc" y="165.165576"/>
     <use style="fill:#1f77b4;stroke:#1f77b4;" x="477.129678" xlink:href="#m589934a6cc" y="151.928909"/>
    </g>
   </g>
   <g id="line2d_57">
    <g clip-path="url(#p38c48a53ec)">
     <use style="fill:#1f77b4;stroke:#1f77b4;" x="481.434215" xlink:href="#m589934a6cc" y="136.642295"/>
     <use style="fill:#1f77b4;stroke:#1f77b4;" x="466.591608" xlink:href="#m589934a6cc" y="79.106129"/>
     <use style="fill:#1f77b4;stroke:#1f77b4;" x="434.684908" xlink:href="#m589934a6cc" y="58.646407"/>
     <use style="fill:#1f77b4;stroke:#1f77b4;" x="391.415448" xlink:href="#m589934a6cc" y="83.091944"/>
     <use style="fill:#1f77b4;stroke:#1f77b4;" x="389.800924" xlink:href="#m589934a6cc" y="125.862176"/>
     <use style="fill:#1f77b4;stroke:#1f77b4;" x="399.802627" xlink:href="#m589934a6cc" y="153.895609"/>
     <use style="fill:#1f77b4;stroke:#1f77b4;" x="431.395379" xlink:href="#m589934a6cc" y="158.460545"/>
     <use style="fill:#1f77b4;stroke:#1f77b4;" x="479.10896" xlink:href="#m589934a6cc" y="156.838913"/>
    </g>
   </g>
   <g id="line2d_58">
    <g clip-path="url(#p38c48a53ec)">
     <use style="fill:#1f77b4;stroke:#1f77b4;" x="481.287947" xlink:href="#m589934a6cc" y="117.622663"/>
     <use style="fill:#1f77b4;stroke:#1f77b4;" x="486.542737" xlink:href="#m589934a6cc" y="95.713424"/>
     <use style="fill:#1f77b4;stroke:#1f77b4;" x="417.732227" xlink:href="#m589934a6cc" y="81.805561"/>
     <use style="fill:#1f77b4;stroke:#1f77b4;" x="397.76727" xlink:href="#m589934a6cc" y="84.210208"/>
     <use style="fill:#1f77b4;stroke:#1f77b4;" x="371.763175" xlink:href="#m589934a6cc" y="109.518088"/>
     <use style="fill:#1f77b4;stroke:#1f77b4;" x="401.425857" xlink:href="#m589934a6cc" y="157.473612"/>
     <use style="fill:#1f77b4;stroke:#1f77b4;" x="426.541327" xlink:href="#m589934a6cc" y="173.883788"/>
     <use style="fill:#1f77b4;stroke:#1f77b4;" x="485.498757" xlink:href="#m589934a6cc" y="160.432974"/>
    </g>
   </g>
   <g id="line2d_59">
    <g clip-path="url(#p38c48a53ec)">
     <use style="fill:#1f77b4;stroke:#1f77b4;" x="497.197796" xlink:href="#m589934a6cc" y="114.179771"/>
     <use style="fill:#1f77b4;stroke:#1f77b4;" x="477.396322" xlink:href="#m589934a6cc" y="85.611966"/>
     <use style="fill:#1f77b4;stroke:#1f77b4;" x="436.212845" xlink:href="#m589934a6cc" y="81.239208"/>
     <use style="fill:#1f77b4;stroke:#1f77b4;" x="385.03027" xlink:href="#m589934a6cc" y="76.27684"/>
     <use style="fill:#1f77b4;stroke:#1f77b4;" x="386.913133" xlink:href="#m589934a6cc" y="115.525142"/>
     <use style="fill:#1f77b4;stroke:#1f77b4;" x="405.128001" xlink:href="#m589934a6cc" y="163.366196"/>
     <use style="fill:#1f77b4;stroke:#1f77b4;" x="422.673139" xlink:href="#m589934a6cc" y="189.031261"/>
     <use style="fill:#1f77b4;stroke:#1f77b4;" x="493.867641" xlink:href="#m589934a6cc" y="149.340431"/>
    </g>
   </g>
   <g id="line2d_60">
    <g clip-path="url(#p38c48a53ec)">
     <use style="fill:#1f77b4;stroke:#1f77b4;" x="485.845059" xlink:href="#m589934a6cc" y="119.202422"/>
     <use style="fill:#1f77b4;stroke:#1f77b4;" x="470.128074" xlink:href="#m589934a6cc" y="87.828324"/>
     <use style="fill:#1f77b4;stroke:#1f77b4;" x="458.172389" xlink:href="#m589934a6cc" y="76.193914"/>
     <use style="fill:#1f77b4;stroke:#1f77b4;" x="411.675648" xlink:href="#m589934a6cc" y="94.538953"/>
     <use style="fill:#1f77b4;stroke:#1f77b4;" x="384.909042" xlink:href="#m589934a6cc" y="115.789085"/>
     <use style="fill:#1f77b4;stroke:#1f77b4;" x="389.561215" xlink:href="#m589934a6cc" y="157.781259"/>
     <use style="fill:#1f77b4;stroke:#1f77b4;" x="439.372557" xlink:href="#m589934a6cc" y="173.128703"/>
     <use style="fill:#1f77b4;stroke:#1f77b4;" x="454.636419" xlink:href="#m589934a6cc" y="151.64068"/>
    </g>
   </g>
   <g id="patch_8">
    <path d="M 319.676657 228.79109 
L 319.676657 11.35109 
" style="fill:none;stroke:#000000;stroke-linecap:square;stroke-linejoin:miter;stroke-width:0.8;"/>
   </g>
   <g id="patch_9">
    <path d="M 547.949385 228.79109 
L 547.949385 11.35109 
" style="fill:none;stroke:#000000;stroke-linecap:square;stroke-linejoin:miter;stroke-width:0.8;"/>
   </g>
   <g id="patch_10">
    <path d="M 319.676657 228.79109 
L 547.949385 228.79109 
" style="fill:none;stroke:#000000;stroke-linecap:square;stroke-linejoin:miter;stroke-width:0.8;"/>
   </g>
   <g id="patch_11">
    <path d="M 319.676657 11.35109 
L 547.949385 11.35109 
" style="fill:none;stroke:#000000;stroke-linecap:square;stroke-linejoin:miter;stroke-width:0.8;"/>
   </g>
   <g id="line2d_61">
    <defs>
     <path d="M 0 2.5 
C 0.663008 2.5 1.29895 2.236584 1.767767 1.767767 
C 2.236584 1.29895 2.5 0.663008 2.5 0 
C 2.5 -0.663008 2.236584 -1.29895 1.767767 -1.767767 
C 1.29895 -2.236584 0.663008 -2.5 0 -2.5 
C -0.663008 -2.5 -1.29895 -2.236584 -1.767767 -1.767767 
C -2.236584 -1.29895 -2.5 -0.663008 -2.5 0 
C -2.5 0.663008 -2.236584 1.29895 -1.767767 1.767767 
C -1.29895 2.236584 -0.663008 2.5 0 2.5 
z
" id="m26caf849b8" style="stroke:#d62728;"/>
    </defs>
    <g clip-path="url(#p38c48a53ec)">
     <use style="fill:#d62728;stroke:#d62728;" x="493.734612" xlink:href="#m26caf849b8" y="141.81509"/>
    </g>
   </g>
  </g>
 </g>
 <defs>
  <clipPath id="pb06e185279">
   <rect height="217.44" width="228.272727" x="45.749385" y="11.35109"/>
  </clipPath>
  <clipPath id="p38c48a53ec">
   <rect height="217.44" width="228.272727" x="319.676657" y="11.35109"/>
  </clipPath>
 </defs>
</svg>
