<?xml version="1.0" encoding="utf-8" standalone="no"?>
<!DOCTYPE svg PUBLIC "-//W3C//DTD SVG 1.1//EN"
  "http://www.w3.org/Graphics/SVG/1.1/DTD/svg11.dtd">
<!-- Created with matplotlib (https://matplotlib.org/) -->
<svg height="592.02468pt" version="1.1" viewBox="0 0 621.603827 592.02468" width="621.603827pt" xmlns="http://www.w3.org/2000/svg" xmlns:xlink="http://www.w3.org/1999/xlink">
 <defs>
  <style type="text/css">
*{stroke-linecap:butt;stroke-linejoin:round;}
  </style>
 </defs>
 <g id="figure_1">
  <g id="patch_1">
   <path d="M 0 592.02468 
L 621.603827 592.02468 
L 621.603827 0 
L 0 0 
z
" style="fill:none;"/>
  </g>
  <g id="axes_1">
   <g id="patch_2">
    <path d="M 56.403827 254.290909 
L 310.040191 254.290909 
L 310.040191 7.2 
L 56.403827 7.2 
z
" style="fill:#ffffff;"/>
   </g>
   <g id="matplotlib.axis_1">
    <g id="xtick_1">
     <g id="line2d_1">
      <path clip-path="url(#p4056f71a11)" d="M 119.172422 254.290909 
L 119.172422 7.2 
" style="fill:none;stroke:#b0b0b0;stroke-linecap:square;stroke-width:0.8;"/>
     </g>
     <g id="line2d_2">
      <defs>
       <path d="M 0 0 
L 0 3.5 
" id="m209fa09830" style="stroke:#000000;stroke-width:0.8;"/>
      </defs>
      <g>
       <use style="stroke:#000000;stroke-width:0.8;" x="119.172422" xlink:href="#m209fa09830" y="254.290909"/>
      </g>
     </g>
     <g id="text_1">
      <!-- $-T$ -->
      <defs>
       <path d="M 65.90625 23 
C 67.59375 23 69.40625 23 69.40625 25 
C 69.40625 27 67.59375 27 65.90625 27 
L 11.796875 27 
C 10.09375 27 8.296875 27 8.296875 25 
C 8.296875 23 10.09375 23 11.796875 23 
z
" id="CMSY10-0"/>
       <path d="M 41.703125 60.71875 
C 42.296875 63.09375 42.5 64 44 64.390625 
C 44.796875 64.59375 48.09375 64.59375 50.203125 64.59375 
C 60.203125 64.59375 64.90625 64.203125 64.90625 56.4375 
C 64.90625 54.9375 64.5 51.15625 63.90625 47.46875 
L 63.796875 46.28125 
C 63.796875 45.890625 64.203125 45.28125 64.796875 45.28125 
C 65.796875 45.28125 65.796875 45.78125 66.09375 47.375 
L 69 64.984375 
C 69.203125 65.890625 69.203125 66.09375 69.203125 66.390625 
C 69.203125 67.484375 68.59375 67.484375 66.59375 67.484375 
L 11.90625 67.484375 
C 9.59375 67.484375 9.5 67.390625 8.90625 65.59375 
L 2.796875 47.671875 
C 2.703125 47.46875 2.40625 46.375 2.40625 46.28125 
C 2.40625 45.78125 2.796875 45.28125 3.40625 45.28125 
C 4.203125 45.28125 4.40625 45.6875 4.796875 46.984375 
C 9 59.015625 11.09375 64.59375 24.40625 64.59375 
L 31.09375 64.59375 
C 33.5 64.59375 34.5 64.59375 34.5 63.5 
C 34.5 63.203125 34.5 63 34 61.203125 
L 20.59375 7.765625 
C 19.59375 3.890625 19.40625 2.890625 8.796875 2.890625 
C 6.296875 2.890625 5.59375 2.890625 5.59375 1 
C 5.59375 0 6.703125 0 7.203125 0 
C 9.703125 0 12.296875 0.1875 14.796875 0.1875 
L 30.40625 0.1875 
C 32.90625 0.1875 35.59375 0 38.09375 0 
C 39.203125 0 40.203125 0 40.203125 1.890625 
C 40.203125 2.890625 39.5 2.890625 36.90625 2.890625 
C 27.90625 2.890625 27.90625 3.78125 27.90625 5.28125 
C 27.90625 5.375 27.90625 6.078125 28.296875 7.671875 
z
" id="CMMI12-84"/>
      </defs>
      <g transform="translate(111.092675 269.593089)scale(0.12 -0.12)">
       <use transform="scale(0.996264)" xlink:href="#CMSY10-0"/>
       <use transform="translate(77.487468 0)scale(0.996264)" xlink:href="#CMMI12-84"/>
      </g>
     </g>
    </g>
    <g id="xtick_2">
     <g id="line2d_3">
      <path clip-path="url(#p4056f71a11)" d="M 183.222009 254.290909 
L 183.222009 7.2 
" style="fill:none;stroke:#b0b0b0;stroke-linecap:square;stroke-width:0.8;"/>
     </g>
     <g id="line2d_4">
      <g>
       <use style="stroke:#000000;stroke-width:0.8;" x="183.222009" xlink:href="#m209fa09830" y="254.290909"/>
      </g>
     </g>
     <g id="text_2">
      <!-- $0$ -->
      <defs>
       <path d="M 42 31.84375 
C 42 37.96875 41.90625 48.421875 37.703125 56.453125 
C 34 63.484375 28.09375 66 22.90625 66 
C 18.09375 66 12 63.78125 8.203125 56.5625 
C 4.203125 49.015625 3.796875 39.671875 3.796875 31.84375 
C 3.796875 26.109375 3.90625 17.375 7 9.734375 
C 11.296875 -0.609375 19 -2 22.90625 -2 
C 27.5 -2 34.5 -0.109375 38.59375 9.4375 
C 41.59375 16.375 42 24.5 42 31.84375 
z
M 22.90625 -0.40625 
C 16.5 -0.40625 12.703125 5.125 11.296875 12.75 
C 10.203125 18.6875 10.203125 27.328125 10.203125 32.953125 
C 10.203125 40.6875 10.203125 47.109375 11.5 53.234375 
C 13.40625 61.78125 19 64.390625 22.90625 64.390625 
C 27 64.390625 32.296875 61.671875 34.203125 53.4375 
C 35.5 47.71875 35.59375 40.984375 35.59375 32.953125 
C 35.59375 26.421875 35.59375 18.375 34.40625 12.453125 
C 32.296875 1.5 26.40625 -0.40625 22.90625 -0.40625 
z
" id="CMR17-48"/>
      </defs>
      <g transform="translate(180.295514 269.593089)scale(0.12 -0.12)">
       <use transform="scale(0.996264)" xlink:href="#CMR17-48"/>
      </g>
     </g>
    </g>
    <g id="xtick_3">
     <g id="line2d_5">
      <path clip-path="url(#p4056f71a11)" d="M 247.271596 254.290909 
L 247.271596 7.2 
" style="fill:none;stroke:#b0b0b0;stroke-linecap:square;stroke-width:0.8;"/>
     </g>
     <g id="line2d_6">
      <g>
       <use style="stroke:#000000;stroke-width:0.8;" x="247.271596" xlink:href="#m209fa09830" y="254.290909"/>
      </g>
     </g>
     <g id="text_3">
      <!-- $T$ -->
      <g transform="translate(243.841093 269.593089)scale(0.12 -0.12)">
       <use transform="scale(0.996264)" xlink:href="#CMMI12-84"/>
      </g>
     </g>
    </g>
    <g id="text_4">
     <!-- $t$ -->
     <defs>
      <path d="M 20.09375 40.09375 
L 29.296875 40.09375 
C 31.203125 40.09375 32.203125 40.09375 32.203125 41.890625 
C 32.203125 43 31.59375 43 29.59375 43 
L 20.796875 43 
L 24.5 57.25 
C 24.90625 58.625 24.90625 58.8125 24.90625 59.5 
C 24.90625 61.09375 23.59375 62 22.296875 62 
C 21.5 62 19.203125 61.6875 18.40625 58.53125 
L 14.5 43 
L 5.09375 43 
C 3.09375 43 2.203125 43 2.203125 41.09375 
C 2.203125 40.09375 2.90625 40.09375 4.796875 40.09375 
L 13.703125 40.09375 
L 7.09375 13.765625 
C 6.296875 10.265625 6 9.265625 6 7.96875 
C 6 3.28125 9.296875 -1 14.90625 -1 
C 25 -1 30.40625 13.5625 30.40625 14.265625 
C 30.40625 14.859375 30 15.15625 29.40625 15.15625 
C 29.203125 15.15625 28.796875 15.15625 28.59375 14.75 
C 28.5 14.65625 28.40625 14.5625 27.703125 12.96875 
C 25.59375 7.96875 21 1 15.203125 1 
C 12.203125 1 12 3.484375 12 5.6875 
C 12 5.78125 12 7.671875 12.296875 8.875 
z
" id="CMMI12-116"/>
     </defs>
     <g transform="translate(180.756166 285.603561)scale(0.14 -0.14)">
      <use transform="scale(0.996264)" xlink:href="#CMMI12-116"/>
     </g>
    </g>
   </g>
   <g id="matplotlib.axis_2">
    <g id="ytick_1">
     <g id="line2d_7">
      <path clip-path="url(#p4056f71a11)" d="M 56.403827 225.78042 
L 310.040191 225.78042 
" style="fill:none;stroke:#b0b0b0;stroke-linecap:square;stroke-width:0.8;"/>
     </g>
     <g id="line2d_8">
      <defs>
       <path d="M 0 0 
L -3.5 0 
" id="m5aea05228c" style="stroke:#000000;stroke-width:0.8;"/>
      </defs>
      <g>
       <use style="stroke:#000000;stroke-width:0.8;" x="56.403827" xlink:href="#m5aea05228c" y="225.78042"/>
      </g>
     </g>
     <g id="text_5">
      <!-- $-1.0$ -->
      <defs>
       <path d="M 26.59375 63.796875 
C 26.59375 65.890625 26.5 66 25.09375 66 
C 21.203125 61.359375 15.296875 59.890625 9.703125 59.6875 
C 9.40625 59.6875 8.90625 59.6875 8.796875 59.5 
C 8.703125 59.296875 8.703125 59.09375 8.703125 57 
C 11.796875 57 17 57.59375 21 59.984375 
L 21 7.296875 
C 21 3.796875 20.796875 2.59375 12.203125 2.59375 
L 9.203125 2.59375 
L 9.203125 0 
C 14 0.09375 19 0.1875 23.796875 0.1875 
C 28.59375 0.1875 33.59375 0.09375 38.40625 0 
L 38.40625 2.59375 
L 35.40625 2.59375 
C 26.796875 2.59375 26.59375 3.6875 26.59375 7.296875 
z
" id="CMR17-49"/>
       <path d="M 18.40625 4.796875 
C 18.40625 7.6875 16 9.6875 13.59375 9.6875 
C 10.703125 9.6875 8.703125 7.296875 8.703125 4.890625 
C 8.703125 2 11.09375 0 13.5 0 
C 16.40625 0 18.40625 2.390625 18.40625 4.796875 
z
" id="CMMI12-58"/>
      </defs>
      <g transform="translate(25.147696 229.931509)scale(0.12 -0.12)">
       <use transform="scale(0.996264)" xlink:href="#CMSY10-0"/>
       <use transform="translate(77.487468 0)scale(0.996264)" xlink:href="#CMR17-49"/>
       <use transform="translate(123.177945 0)scale(0.996264)" xlink:href="#CMMI12-58"/>
       <use transform="translate(150.275122 0)scale(0.996264)" xlink:href="#CMR17-48"/>
      </g>
     </g>
    </g>
    <g id="ytick_2">
     <g id="line2d_9">
      <path clip-path="url(#p4056f71a11)" d="M 56.403827 178.262937 
L 310.040191 178.262937 
" style="fill:none;stroke:#b0b0b0;stroke-linecap:square;stroke-width:0.8;"/>
     </g>
     <g id="line2d_10">
      <g>
       <use style="stroke:#000000;stroke-width:0.8;" x="56.403827" xlink:href="#m5aea05228c" y="178.262937"/>
      </g>
     </g>
     <g id="text_6">
      <!-- $-0.5$ -->
      <defs>
       <path d="M 11.40625 58.59375 
C 12.40625 58.1875 16.5 56.890625 20.703125 56.890625 
C 30 56.890625 35.09375 61.890625 38 64.6875 
C 38 65.484375 38 66 37.40625 66 
C 37.296875 66 37.09375 66 36.296875 65.59375 
C 32.796875 64.09375 28.703125 63 23.703125 63 
C 20.703125 63 16.203125 63.359375 11.296875 65.484375 
C 10.203125 66 10 66 9.90625 66 
C 9.40625 66 9.296875 65.890625 9.296875 63.90625 
L 9.296875 34.859375 
C 9.296875 33.015625 9.296875 32.5 10.296875 32.5 
C 10.796875 32.5 11 32.703125 11.5 33.421875 
C 14.703125 38.046875 19.09375 40 24.09375 40 
C 27.59375 40 35.09375 37.734375 35.09375 20.203125 
C 35.09375 16.984375 35.09375 11.1875 32.09375 6.59375 
C 29.59375 2.484375 25.703125 0.390625 21.40625 0.390625 
C 14.796875 0.390625 8.09375 4.984375 6.296875 12.6875 
C 6.703125 12.59375 7.5 12.390625 7.90625 12.390625 
C 9.203125 12.390625 11.703125 13.09375 11.703125 16.1875 
C 11.703125 18.890625 9.796875 20 7.90625 20 
C 5.59375 20 4.09375 18.59375 4.09375 15.796875 
C 4.09375 7.09375 11 -2 21.59375 -2 
C 31.90625 -2 41.703125 6.890625 41.703125 19.796875 
C 41.703125 32.09375 33.90625 41.59375 24.203125 41.59375 
C 19.09375 41.59375 14.796875 39.6875 11.40625 36 
z
" id="CMR17-53"/>
      </defs>
      <g transform="translate(25.147696 182.414027)scale(0.12 -0.12)">
       <use transform="scale(0.996264)" xlink:href="#CMSY10-0"/>
       <use transform="translate(77.487468 0)scale(0.996264)" xlink:href="#CMR17-48"/>
       <use transform="translate(123.177945 0)scale(0.996264)" xlink:href="#CMMI12-58"/>
       <use transform="translate(150.275122 0)scale(0.996264)" xlink:href="#CMR17-53"/>
      </g>
     </g>
    </g>
    <g id="ytick_3">
     <g id="line2d_11">
      <path clip-path="url(#p4056f71a11)" d="M 56.403827 130.745455 
L 310.040191 130.745455 
" style="fill:none;stroke:#b0b0b0;stroke-linecap:square;stroke-width:0.8;"/>
     </g>
     <g id="line2d_12">
      <g>
       <use style="stroke:#000000;stroke-width:0.8;" x="56.403827" xlink:href="#m5aea05228c" y="130.745455"/>
      </g>
     </g>
     <g id="text_7">
      <!-- $0.0$ -->
      <g transform="translate(34.446186 134.896544)scale(0.12 -0.12)">
       <use transform="scale(0.996264)" xlink:href="#CMR17-48"/>
       <use transform="translate(45.690477 0)scale(0.996264)" xlink:href="#CMMI12-58"/>
       <use transform="translate(72.787654 0)scale(0.996264)" xlink:href="#CMR17-48"/>
      </g>
     </g>
    </g>
    <g id="ytick_4">
     <g id="line2d_13">
      <path clip-path="url(#p4056f71a11)" d="M 56.403827 83.227972 
L 310.040191 83.227972 
" style="fill:none;stroke:#b0b0b0;stroke-linecap:square;stroke-width:0.8;"/>
     </g>
     <g id="line2d_14">
      <g>
       <use style="stroke:#000000;stroke-width:0.8;" x="56.403827" xlink:href="#m5aea05228c" y="83.227972"/>
      </g>
     </g>
     <g id="text_8">
      <!-- $0.5$ -->
      <g transform="translate(34.446186 87.379062)scale(0.12 -0.12)">
       <use transform="scale(0.996264)" xlink:href="#CMR17-48"/>
       <use transform="translate(45.690477 0)scale(0.996264)" xlink:href="#CMMI12-58"/>
       <use transform="translate(72.787654 0)scale(0.996264)" xlink:href="#CMR17-53"/>
      </g>
     </g>
    </g>
    <g id="ytick_5">
     <g id="line2d_15">
      <path clip-path="url(#p4056f71a11)" d="M 56.403827 35.71049 
L 310.040191 35.71049 
" style="fill:none;stroke:#b0b0b0;stroke-linecap:square;stroke-width:0.8;"/>
     </g>
     <g id="line2d_16">
      <g>
       <use style="stroke:#000000;stroke-width:0.8;" x="56.403827" xlink:href="#m5aea05228c" y="35.71049"/>
      </g>
     </g>
     <g id="text_9">
      <!-- $1.0$ -->
      <g transform="translate(34.446186 39.861579)scale(0.12 -0.12)">
       <use transform="scale(0.996264)" xlink:href="#CMR17-49"/>
       <use transform="translate(45.690477 0)scale(0.996264)" xlink:href="#CMMI12-58"/>
       <use transform="translate(72.787654 0)scale(0.996264)" xlink:href="#CMR17-48"/>
      </g>
     </g>
    </g>
    <g id="text_10">
     <!-- $h(t)$ -->
     <defs>
      <path d="M 28.09375 66.484375 
C 28.203125 66.890625 28.40625 67.484375 28.40625 67.984375 
C 28.40625 69 27.40625 69 27.203125 69 
C 27.09375 69 22.203125 68.59375 21.703125 68.484375 
C 20 68.390625 18.5 68.1875 16.703125 68.09375 
C 14.203125 67.890625 13.5 67.796875 13.5 65.984375 
C 13.5 64.984375 14.296875 64.984375 15.703125 64.984375 
C 20.59375 64.984375 20.703125 64.109375 20.703125 63.125 
C 20.703125 62.53125 20.5 61.734375 20.40625 61.4375 
L 5.90625 3.890625 
C 5.5 2.390625 5.5 2.1875 5.5 1.59375 
C 5.5 -0.609375 7.203125 -1 8.203125 -1 
C 9.90625 -1 11.203125 0.296875 11.703125 1.390625 
L 16.203125 19.453125 
C 16.703125 21.640625 17.296875 23.734375 17.796875 25.9375 
C 18.90625 30.125 18.90625 30.21875 20.796875 33.109375 
C 22.703125 36.015625 27.203125 41.984375 34.90625 41.984375 
C 38.90625 41.984375 40.296875 39 40.296875 35.015625 
C 40.296875 29.421875 36.40625 18.546875 34.203125 12.5625 
C 33.296875 10.171875 32.796875 8.875 32.796875 7.078125 
C 32.796875 2.59375 35.90625 -1 40.703125 -1 
C 50 -1 53.5 13.65625 53.5 14.265625 
C 53.5 14.765625 53.09375 15.15625 52.5 15.15625 
C 51.59375 15.15625 51.5 14.859375 51 13.15625 
C 48.703125 5.1875 45 1 41 1 
C 40 1 38.40625 1.09375 38.40625 4.28125 
C 38.40625 6.875 39.59375 10.078125 40 11.171875 
C 41.796875 15.953125 46.296875 27.734375 46.296875 33.515625 
C 46.296875 39.5 42.796875 44 35.203125 44 
C 29.5 44 24.5 41.296875 20.40625 36.109375 
z
" id="CMMI12-104"/>
      <path d="M 30.59375 -24.40625 
C 30.59375 -24.3125 30.59375 -24.109375 30.296875 -23.8125 
C 25.703125 -19.109375 13.40625 -6.296875 13.40625 24.9375 
C 13.40625 56.171875 25.5 68.875 30.40625 73.890625 
C 30.40625 73.984375 30.59375 74.1875 30.59375 74.484375 
C 30.59375 74.796875 30.296875 75 29.90625 75 
C 28.796875 75 20.296875 67.578125 15.40625 56.5625 
C 10.40625 45.453125 9 34.65625 9 25.046875 
C 9 17.828125 9.703125 5.625 15.703125 -7.296875 
C 20.5 -17.703125 28.703125 -25 29.90625 -25 
C 30.40625 -25 30.59375 -24.8125 30.59375 -24.40625 
z
" id="CMR17-40"/>
      <path d="M 26.296875 24.9375 
C 26.296875 32.140625 25.59375 44.359375 19.59375 57.265625 
C 14.796875 67.6875 6.59375 75 5.40625 75 
C 5.09375 75 4.703125 74.890625 4.703125 74.390625 
C 4.703125 74.1875 4.796875 74.09375 4.90625 73.890625 
C 9.703125 68.875 21.90625 56.171875 21.90625 25.046875 
C 21.90625 -6.1875 9.796875 -18.90625 4.90625 -23.90625 
C 4.796875 -24.109375 4.703125 -24.203125 4.703125 -24.40625 
C 4.703125 -24.90625 5.09375 -25 5.40625 -25 
C 6.5 -25 15 -17.609375 19.90625 -6.59375 
C 24.90625 4.515625 26.296875 15.328125 26.296875 24.9375 
z
" id="CMR17-41"/>
     </defs>
     <g transform="translate(17.660772 142.453168)rotate(-90)scale(0.14 -0.14)">
      <use transform="scale(0.996264)" xlink:href="#CMMI12-104"/>
      <use transform="translate(56.154624 0)scale(0.996264)" xlink:href="#CMR17-40"/>
      <use transform="translate(91.435392 0)scale(0.996264)" xlink:href="#CMMI12-116"/>
      <use transform="translate(126.661722 0)scale(0.996264)" xlink:href="#CMR17-41"/>
     </g>
    </g>
   </g>
   <g id="line2d_17">
    <path clip-path="url(#p4056f71a11)" d="M 67.932753 130.745455 
L 70.238538 130.745455 
L 72.544323 130.745455 
L 74.850108 130.745455 
L 77.155893 130.745455 
L 79.461679 130.745455 
L 81.767464 130.745455 
L 84.073249 130.745455 
L 86.379034 130.745455 
L 88.684819 130.745455 
L 90.990604 130.745455 
L 93.296389 130.745455 
L 95.602174 130.745455 
L 97.90796 130.745455 
L 100.213745 130.745455 
L 102.51953 130.745455 
L 104.825315 130.745455 
L 107.1311 130.745455 
L 109.436885 130.745455 
L 111.74267 130.745455 
L 114.048455 130.745455 
L 116.354241 130.745455 
L 118.660026 130.745455 
L 120.965811 130.745455 
L 123.271596 130.745455 
L 125.577381 130.745455 
L 127.883166 130.745455 
L 130.188951 130.745455 
L 132.494736 130.745455 
L 134.800522 130.745455 
L 137.106307 130.745455 
L 139.412092 130.745455 
L 141.717877 130.745455 
L 144.023662 130.745455 
L 146.329447 130.745455 
L 148.635232 130.745455 
L 150.941017 130.745455 
L 153.246803 35.71049 
L 155.552588 35.71049 
L 157.858373 35.71049 
L 160.164158 35.71049 
L 162.469943 35.71049 
L 164.775728 35.71049 
L 167.081513 35.71049 
L 169.387298 35.71049 
L 171.693084 35.71049 
L 173.998869 35.71049 
L 176.304654 35.71049 
L 178.610439 35.71049 
L 180.916224 35.71049 
L 183.222009 35.71049 
L 185.527794 35.71049 
L 187.833579 35.71049 
L 190.139365 35.71049 
L 192.44515 35.71049 
L 194.750935 35.71049 
L 197.05672 35.71049 
L 199.362505 35.71049 
L 201.66829 35.71049 
L 203.974075 35.71049 
L 206.27986 35.71049 
L 208.585646 35.71049 
L 210.891431 35.71049 
L 213.197216 35.71049 
L 215.503001 130.745455 
L 217.808786 130.745455 
L 220.114571 130.745455 
L 222.420356 130.745455 
L 224.726141 130.745455 
L 227.031926 130.745455 
L 229.337712 130.745455 
L 231.643497 130.745455 
L 233.949282 130.745455 
L 236.255067 130.745455 
L 238.560852 130.745455 
L 240.866637 130.745455 
L 243.172422 130.745455 
L 245.478207 130.745455 
L 247.783993 130.745455 
L 250.089778 130.745455 
L 252.395563 130.745455 
L 254.701348 130.745455 
L 257.007133 130.745455 
L 259.312918 130.745455 
L 261.618703 130.745455 
L 263.924488 130.745455 
L 266.230274 130.745455 
L 268.536059 130.745455 
L 270.841844 130.745455 
L 273.147629 130.745455 
L 275.453414 130.745455 
L 277.759199 130.745455 
L 280.064984 130.745455 
L 282.370769 130.745455 
L 284.676555 130.745455 
L 286.98234 130.745455 
L 289.288125 130.745455 
L 291.59391 130.745455 
L 293.899695 130.745455 
L 296.20548 130.745455 
L 298.511265 130.745455 
" style="fill:none;stroke:#1f77b4;stroke-linecap:square;stroke-width:1.5;"/>
   </g>
   <g id="patch_3">
    <path d="M 56.403827 254.290909 
L 56.403827 7.2 
" style="fill:none;stroke:#000000;stroke-linecap:square;stroke-linejoin:miter;stroke-width:0.8;"/>
   </g>
   <g id="patch_4">
    <path d="M 310.040191 254.290909 
L 310.040191 7.2 
" style="fill:none;stroke:#000000;stroke-linecap:square;stroke-linejoin:miter;stroke-width:0.8;"/>
   </g>
   <g id="patch_5">
    <path d="M 56.403827 254.290909 
L 310.040191 254.290909 
" style="fill:none;stroke:#000000;stroke-linecap:square;stroke-linejoin:miter;stroke-width:0.8;"/>
   </g>
   <g id="patch_6">
    <path d="M 56.403827 7.2 
L 310.040191 7.2 
" style="fill:none;stroke:#000000;stroke-linecap:square;stroke-linejoin:miter;stroke-width:0.8;"/>
   </g>
  </g>
  <g id="axes_2">
   <g id="patch_7">
    <path d="M 360.767464 254.290909 
L 614.403827 254.290909 
L 614.403827 7.2 
L 360.767464 7.2 
z
" style="fill:#ffffff;"/>
   </g>
   <g id="matplotlib.axis_3">
    <g id="xtick_4">
     <g id="line2d_18">
      <path clip-path="url(#p3af87cded3)" d="M 423.536059 254.290909 
L 423.536059 7.2 
" style="fill:none;stroke:#b0b0b0;stroke-linecap:square;stroke-width:0.8;"/>
     </g>
     <g id="line2d_19">
      <g>
       <use style="stroke:#000000;stroke-width:0.8;" x="423.536059" xlink:href="#m209fa09830" y="254.290909"/>
      </g>
     </g>
     <g id="text_11">
      <!-- $-T$ -->
      <g transform="translate(415.456311 269.593089)scale(0.12 -0.12)">
       <use transform="scale(0.996264)" xlink:href="#CMSY10-0"/>
       <use transform="translate(77.487468 0)scale(0.996264)" xlink:href="#CMMI12-84"/>
      </g>
     </g>
    </g>
    <g id="xtick_5">
     <g id="line2d_20">
      <path clip-path="url(#p3af87cded3)" d="M 487.585646 254.290909 
L 487.585646 7.2 
" style="fill:none;stroke:#b0b0b0;stroke-linecap:square;stroke-width:0.8;"/>
     </g>
     <g id="line2d_21">
      <g>
       <use style="stroke:#000000;stroke-width:0.8;" x="487.585646" xlink:href="#m209fa09830" y="254.290909"/>
      </g>
     </g>
     <g id="text_12">
      <!-- $0$ -->
      <g transform="translate(484.65915 269.593089)scale(0.12 -0.12)">
       <use transform="scale(0.996264)" xlink:href="#CMR17-48"/>
      </g>
     </g>
    </g>
    <g id="xtick_6">
     <g id="line2d_22">
      <path clip-path="url(#p3af87cded3)" d="M 551.635232 254.290909 
L 551.635232 7.2 
" style="fill:none;stroke:#b0b0b0;stroke-linecap:square;stroke-width:0.8;"/>
     </g>
     <g id="line2d_23">
      <g>
       <use style="stroke:#000000;stroke-width:0.8;" x="551.635232" xlink:href="#m209fa09830" y="254.290909"/>
      </g>
     </g>
     <g id="text_13">
      <!-- $T$ -->
      <g transform="translate(548.20473 269.593089)scale(0.12 -0.12)">
       <use transform="scale(0.996264)" xlink:href="#CMMI12-84"/>
      </g>
     </g>
    </g>
    <g id="text_14">
     <!-- $t$ -->
     <g transform="translate(485.119802 285.603561)scale(0.14 -0.14)">
      <use transform="scale(0.996264)" xlink:href="#CMMI12-116"/>
     </g>
    </g>
   </g>
   <g id="matplotlib.axis_4">
    <g id="ytick_6">
     <g id="line2d_24">
      <path clip-path="url(#p3af87cded3)" d="M 360.767464 225.78042 
L 614.403827 225.78042 
" style="fill:none;stroke:#b0b0b0;stroke-linecap:square;stroke-width:0.8;"/>
     </g>
     <g id="line2d_25">
      <g>
       <use style="stroke:#000000;stroke-width:0.8;" x="360.767464" xlink:href="#m5aea05228c" y="225.78042"/>
      </g>
     </g>
     <g id="text_15">
      <!-- $-1.0$ -->
      <g transform="translate(329.511333 229.931509)scale(0.12 -0.12)">
       <use transform="scale(0.996264)" xlink:href="#CMSY10-0"/>
       <use transform="translate(77.487468 0)scale(0.996264)" xlink:href="#CMR17-49"/>
       <use transform="translate(123.177945 0)scale(0.996264)" xlink:href="#CMMI12-58"/>
       <use transform="translate(150.275122 0)scale(0.996264)" xlink:href="#CMR17-48"/>
      </g>
     </g>
    </g>
    <g id="ytick_7">
     <g id="line2d_26">
      <path clip-path="url(#p3af87cded3)" d="M 360.767464 178.262937 
L 614.403827 178.262937 
" style="fill:none;stroke:#b0b0b0;stroke-linecap:square;stroke-width:0.8;"/>
     </g>
     <g id="line2d_27">
      <g>
       <use style="stroke:#000000;stroke-width:0.8;" x="360.767464" xlink:href="#m5aea05228c" y="178.262937"/>
      </g>
     </g>
     <g id="text_16">
      <!-- $-0.5$ -->
      <g transform="translate(329.511333 182.414027)scale(0.12 -0.12)">
       <use transform="scale(0.996264)" xlink:href="#CMSY10-0"/>
       <use transform="translate(77.487468 0)scale(0.996264)" xlink:href="#CMR17-48"/>
       <use transform="translate(123.177945 0)scale(0.996264)" xlink:href="#CMMI12-58"/>
       <use transform="translate(150.275122 0)scale(0.996264)" xlink:href="#CMR17-53"/>
      </g>
     </g>
    </g>
    <g id="ytick_8">
     <g id="line2d_28">
      <path clip-path="url(#p3af87cded3)" d="M 360.767464 130.745455 
L 614.403827 130.745455 
" style="fill:none;stroke:#b0b0b0;stroke-linecap:square;stroke-width:0.8;"/>
     </g>
     <g id="line2d_29">
      <g>
       <use style="stroke:#000000;stroke-width:0.8;" x="360.767464" xlink:href="#m5aea05228c" y="130.745455"/>
      </g>
     </g>
     <g id="text_17">
      <!-- $0.0$ -->
      <g transform="translate(338.809822 134.896544)scale(0.12 -0.12)">
       <use transform="scale(0.996264)" xlink:href="#CMR17-48"/>
       <use transform="translate(45.690477 0)scale(0.996264)" xlink:href="#CMMI12-58"/>
       <use transform="translate(72.787654 0)scale(0.996264)" xlink:href="#CMR17-48"/>
      </g>
     </g>
    </g>
    <g id="ytick_9">
     <g id="line2d_30">
      <path clip-path="url(#p3af87cded3)" d="M 360.767464 83.227972 
L 614.403827 83.227972 
" style="fill:none;stroke:#b0b0b0;stroke-linecap:square;stroke-width:0.8;"/>
     </g>
     <g id="line2d_31">
      <g>
       <use style="stroke:#000000;stroke-width:0.8;" x="360.767464" xlink:href="#m5aea05228c" y="83.227972"/>
      </g>
     </g>
     <g id="text_18">
      <!-- $0.5$ -->
      <g transform="translate(338.809822 87.379062)scale(0.12 -0.12)">
       <use transform="scale(0.996264)" xlink:href="#CMR17-48"/>
       <use transform="translate(45.690477 0)scale(0.996264)" xlink:href="#CMMI12-58"/>
       <use transform="translate(72.787654 0)scale(0.996264)" xlink:href="#CMR17-53"/>
      </g>
     </g>
    </g>
    <g id="ytick_10">
     <g id="line2d_32">
      <path clip-path="url(#p3af87cded3)" d="M 360.767464 35.71049 
L 614.403827 35.71049 
" style="fill:none;stroke:#b0b0b0;stroke-linecap:square;stroke-width:0.8;"/>
     </g>
     <g id="line2d_33">
      <g>
       <use style="stroke:#000000;stroke-width:0.8;" x="360.767464" xlink:href="#m5aea05228c" y="35.71049"/>
      </g>
     </g>
     <g id="text_19">
      <!-- $1.0$ -->
      <g transform="translate(338.809822 39.861579)scale(0.12 -0.12)">
       <use transform="scale(0.996264)" xlink:href="#CMR17-49"/>
       <use transform="translate(45.690477 0)scale(0.996264)" xlink:href="#CMMI12-58"/>
       <use transform="translate(72.787654 0)scale(0.996264)" xlink:href="#CMR17-48"/>
      </g>
     </g>
    </g>
    <g id="text_20">
     <!-- $(h*g*r)(t)$ -->
     <defs>
      <path d="M 27.5 43.15625 
C 27.59375 44.578125 27.59375 47 25 47 
C 23.40625 47 22.09375 45.6875 22.40625 44.375 
L 22.40625 43.046875 
L 23.796875 27.1875 
L 11 36.703125 
C 10.09375 37.21875 9.90625 37.421875 9.203125 37.421875 
C 7.796875 37.421875 6.5 35.984375 6.5 34.5625 
C 6.5 32.921875 7.5 32.515625 8.5 32 
L 22.703125 25.046875 
L 8.90625 18.1875 
C 7.296875 17.375 6.5 16.953125 6.5 15.421875 
C 6.5 13.890625 7.796875 12.5625 9.203125 12.5625 
C 9.90625 12.5625 10.09375 12.5625 12.59375 14.5 
L 23.796875 22.796875 
L 22.296875 5.609375 
C 22.296875 3.5 24.09375 3 24.90625 3 
C 26.09375 3 27.59375 3.6875 27.59375 5.609375 
L 26.09375 22.796875 
L 38.90625 13.28125 
C 39.796875 12.765625 40 12.5625 40.703125 12.5625 
C 42.09375 12.5625 43.40625 14 43.40625 15.421875 
C 43.40625 16.953125 42.5 17.46875 41.296875 18.078125 
C 35.296875 21.15625 35.09375 21.15625 27.203125 24.9375 
L 41 31.796875 
C 42.59375 32.609375 43.40625 33.015625 43.40625 34.5625 
C 43.40625 36.09375 42.09375 37.421875 40.703125 37.421875 
C 40 37.421875 39.796875 37.421875 37.296875 35.484375 
L 26.09375 27.1875 
z
" id="CMSY10-3"/>
      <path d="M 33.796875 12.671875 
C 33.40625 11.0625 33.203125 10.671875 31.90625 9.171875 
C 27.796875 3.890625 23.59375 2 20.5 2 
C 17.203125 2 14.09375 4.578125 14.09375 11.46875 
C 14.09375 16.75 17.09375 27.921875 19.296875 32.421875 
C 22.203125 38 26.703125 41.984375 30.90625 41.984375 
C 37.5 41.984375 38.796875 33.8125 38.796875 33.21875 
L 38.5 31.8125 
z
M 40 37.40625 
C 38.703125 40.296875 35.90625 44 30.90625 44 
C 20 44 7.59375 30.328125 7.59375 15.453125 
C 7.59375 5.078125 13.90625 0 20.296875 0 
C 25.59375 0 30.296875 4.1875 32.09375 6.1875 
L 29.90625 -2.75 
C 28.5 -8.125 27.90625 -10.578125 24.296875 -14 
C 20.203125 -18 16.40625 -18 14.203125 -18 
C 11.203125 -18 8.703125 -17.8125 6.203125 -17.03125 
C 9.40625 -16.15625 10.203125 -13.40625 10.203125 -12.328125 
C 10.203125 -10.765625 9 -9.203125 6.796875 -9.203125 
C 4.40625 -9.203125 1.796875 -11.15625 1.796875 -14.390625 
C 1.796875 -18.40625 5.90625 -20 14.40625 -20 
C 27.296875 -20 34 -11.84375 35.296875 -6.5625 
L 46.40625 37.90625 
C 46.703125 39.09375 46.703125 39.296875 46.703125 39.5 
C 46.703125 40.890625 45.59375 42 44.09375 42 
C 41.703125 42 40.296875 40 40 37.3125 
z
" id="CMMI12-103"/>
      <path d="M 38.90625 41.140625 
C 35.796875 40.59375 34.203125 38.390625 34.203125 36.1875 
C 34.203125 33.796875 36.09375 32.984375 37.5 32.984375 
C 40.296875 32.984375 42.59375 35.390625 42.59375 38.390625 
C 42.59375 41.421875 39.5 44 34.5 44 
C 30.5 44 25.90625 42.1875 21.703125 36.484375 
C 21 41.5625 17 44 13 44 
C 9.09375 44 7.09375 41.28125 5.90625 39.1875 
C 4.203125 35.59375 2.703125 29.5625 2.703125 29.0625 
C 2.703125 28.65625 3.09375 28.140625 3.796875 28.140625 
C 4.59375 28.140625 4.703125 28.25 5.296875 30.578125 
C 6.796875 36.59375 8.703125 41.984375 12.703125 41.984375 
C 15.09375 41.984375 15.796875 40.6875 15.796875 37.796875 
C 15.796875 35.59375 14.796875 31.6875 14.09375 28.546875 
L 11.296875 17.65625 
C 10.90625 15.734375 9.796875 11.1875 9.296875 9.375 
C 8.59375 6.75 7.5 2 7.5 1.5 
C 7.5 0.09375 8.59375 -1 10.09375 -1 
C 11.203125 -1 13.09375 -0.3125 13.703125 1.703125 
C 14 2.5 17.703125 17.75 18.296875 20.078125 
C 18.796875 22.296875 19.40625 24.40625 19.90625 26.640625 
C 20.296875 28.046875 20.703125 29.65625 21 30.96875 
C 21.296875 31.875 24 36.796875 26.5 38.984375 
C 27.703125 40.09375 30.296875 41.984375 34.40625 41.984375 
C 36 41.984375 37.59375 41.78125 38.90625 41.140625 
z
" id="CMMI12-114"/>
     </defs>
     <g transform="translate(322.024408 167.723919)rotate(-90)scale(0.14 -0.14)">
      <use transform="scale(0.996264)" xlink:href="#CMR17-40"/>
      <use transform="translate(35.280768 0)scale(0.996264)" xlink:href="#CMMI12-104"/>
      <use transform="translate(113.574599 0)scale(0.996264)" xlink:href="#CMSY10-3"/>
      <use transform="translate(185.527189 0)scale(0.996264)" xlink:href="#CMMI12-103"/>
      <use transform="translate(257.951885 0)scale(0.996264)" xlink:href="#CMSY10-3"/>
      <use transform="translate(329.904475 0)scale(0.996264)" xlink:href="#CMMI12-114"/>
      <use transform="translate(376.575087 0)scale(0.996264)" xlink:href="#CMR17-41"/>
      <use transform="translate(411.855855 0)scale(0.996264)" xlink:href="#CMR17-40"/>
      <use transform="translate(447.136623 0)scale(0.996264)" xlink:href="#CMMI12-116"/>
      <use transform="translate(482.362953 0)scale(0.996264)" xlink:href="#CMR17-41"/>
     </g>
    </g>
   </g>
   <g id="line2d_34">
    <path clip-path="url(#p3af87cded3)" d="M 372.296389 131.563222 
L 374.602174 131.619945 
L 376.90796 131.664061 
L 379.213745 131.690908 
L 381.51953 131.695218 
L 383.825315 131.671143 
L 386.1311 131.612301 
L 388.436885 131.511834 
L 390.74267 131.362478 
L 393.048455 131.156646 
L 395.354241 130.886524 
L 397.660026 130.544179 
L 399.965811 130.121666 
L 402.271596 129.611153 
L 404.577381 129.005045 
L 406.883166 128.24623 
L 409.188951 127.376689 
L 411.494736 126.389559 
L 413.800522 125.278779 
L 416.106307 124.039275 
L 418.412092 122.66713 
L 420.717877 121.159751 
L 423.023662 119.51602 
L 425.329447 117.736422 
L 427.635232 115.823159 
L 429.941017 113.780235 
L 432.246803 111.613514 
L 434.552588 109.330753 
L 436.858373 106.941602 
L 439.164158 104.457571 
L 441.469943 101.891969 
L 443.775728 99.25981 
L 446.081513 96.577684 
L 448.387298 93.863606 
L 450.693084 91.136829 
L 452.998869 88.417638 
L 455.304654 85.727118 
L 457.610439 83.086902 
L 459.916224 80.518911 
L 462.222009 78.045071 
L 464.527794 75.687037 
L 466.833579 73.465901 
L 469.139365 71.401915 
L 471.44515 69.514214 
L 473.750935 67.820552 
L 476.05672 66.337059 
L 478.362505 65.078009 
L 480.66829 64.055624 
L 482.974075 63.279898 
L 485.27986 62.758455 
L 487.585646 62.496438 
L 489.891431 62.496438 
L 492.197216 62.758455 
L 494.503001 63.279898 
L 496.808786 64.055624 
L 499.114571 65.078009 
L 501.420356 66.337059 
L 503.726141 67.820552 
L 506.031926 69.514214 
L 508.337712 71.401915 
L 510.643497 73.465901 
L 512.949282 75.687037 
L 515.255067 78.045071 
L 517.560852 80.518911 
L 519.866637 83.086902 
L 522.172422 85.727118 
L 524.478207 88.417638 
L 526.783993 91.136829 
L 529.089778 93.863606 
L 531.395563 96.577684 
L 533.701348 99.25981 
L 536.007133 101.891969 
L 538.312918 104.457571 
L 540.618703 106.941602 
L 542.924488 109.330753 
L 545.230274 111.613514 
L 547.536059 113.780235 
L 549.841844 115.823159 
L 552.147629 117.736422 
L 554.453414 119.51602 
L 556.759199 121.159751 
L 559.064984 122.66713 
L 561.370769 124.039275 
L 563.676555 125.278779 
L 565.98234 126.389559 
L 568.288125 127.376689 
L 570.59391 128.24623 
L 572.899695 129.005045 
L 575.20548 129.611153 
L 577.511265 130.121666 
L 579.81705 130.544179 
L 582.122836 130.886524 
L 584.428621 131.156646 
L 586.734406 131.362478 
L 589.040191 131.511834 
L 591.345976 131.612301 
L 593.651761 131.671143 
L 595.957546 131.695218 
L 598.263331 131.690908 
L 600.569117 131.664061 
L 602.874902 131.619945 
" style="fill:none;stroke:#1f77b4;stroke-linecap:square;stroke-width:1.5;"/>
   </g>
   <g id="line2d_35">
    <defs>
     <path d="M 0 3.75 
C 0.994512 3.75 1.948425 3.354876 2.65165 2.65165 
C 3.354876 1.948425 3.75 0.994512 3.75 0 
C 3.75 -0.994512 3.354876 -1.948425 2.65165 -2.65165 
C 1.948425 -3.354876 0.994512 -3.75 0 -3.75 
C -0.994512 -3.75 -1.948425 -3.354876 -2.65165 -2.65165 
C -3.354876 -1.948425 -3.75 -0.994512 -3.75 0 
C -3.75 0.994512 -3.354876 1.948425 -2.65165 2.65165 
C -1.948425 3.354876 -0.994512 3.75 0 3.75 
z
" id="mc3a7854d18" style="stroke:#1f77b4;"/>
    </defs>
    <g clip-path="url(#p3af87cded3)">
     <use style="fill:#1f77b4;stroke:#1f77b4;" x="487.585646" xlink:href="#mc3a7854d18" y="62.496438"/>
    </g>
   </g>
   <g id="patch_8">
    <path d="M 360.767464 254.290909 
L 360.767464 7.2 
" style="fill:none;stroke:#000000;stroke-linecap:square;stroke-linejoin:miter;stroke-width:0.8;"/>
   </g>
   <g id="patch_9">
    <path d="M 614.403827 254.290909 
L 614.403827 7.2 
" style="fill:none;stroke:#000000;stroke-linecap:square;stroke-linejoin:miter;stroke-width:0.8;"/>
   </g>
   <g id="patch_10">
    <path d="M 360.767464 254.290909 
L 614.403827 254.290909 
" style="fill:none;stroke:#000000;stroke-linecap:square;stroke-linejoin:miter;stroke-width:0.8;"/>
   </g>
   <g id="patch_11">
    <path d="M 360.767464 7.2 
L 614.403827 7.2 
" style="fill:none;stroke:#000000;stroke-linecap:square;stroke-linejoin:miter;stroke-width:0.8;"/>
   </g>
  </g>
  <g id="axes_3">
   <g id="patch_12">
    <path d="M 56.403827 550.8 
L 310.040191 550.8 
L 310.040191 303.709091 
L 56.403827 303.709091 
z
" style="fill:#ffffff;"/>
   </g>
   <g id="matplotlib.axis_5">
    <g id="xtick_7">
     <g id="line2d_36">
      <path clip-path="url(#pf2bf61b34c)" d="M 119.172422 550.8 
L 119.172422 303.709091 
" style="fill:none;stroke:#b0b0b0;stroke-linecap:square;stroke-width:0.8;"/>
     </g>
     <g id="line2d_37">
      <g>
       <use style="stroke:#000000;stroke-width:0.8;" x="119.172422" xlink:href="#m209fa09830" y="550.8"/>
      </g>
     </g>
     <g id="text_21">
      <!-- $-T$ -->
      <g transform="translate(111.092675 566.10218)scale(0.12 -0.12)">
       <use transform="scale(0.996264)" xlink:href="#CMSY10-0"/>
       <use transform="translate(77.487468 0)scale(0.996264)" xlink:href="#CMMI12-84"/>
      </g>
     </g>
    </g>
    <g id="xtick_8">
     <g id="line2d_38">
      <path clip-path="url(#pf2bf61b34c)" d="M 183.222009 550.8 
L 183.222009 303.709091 
" style="fill:none;stroke:#b0b0b0;stroke-linecap:square;stroke-width:0.8;"/>
     </g>
     <g id="line2d_39">
      <g>
       <use style="stroke:#000000;stroke-width:0.8;" x="183.222009" xlink:href="#m209fa09830" y="550.8"/>
      </g>
     </g>
     <g id="text_22">
      <!-- $0$ -->
      <g transform="translate(180.295514 566.10218)scale(0.12 -0.12)">
       <use transform="scale(0.996264)" xlink:href="#CMR17-48"/>
      </g>
     </g>
    </g>
    <g id="xtick_9">
     <g id="line2d_40">
      <path clip-path="url(#pf2bf61b34c)" d="M 247.271596 550.8 
L 247.271596 303.709091 
" style="fill:none;stroke:#b0b0b0;stroke-linecap:square;stroke-width:0.8;"/>
     </g>
     <g id="line2d_41">
      <g>
       <use style="stroke:#000000;stroke-width:0.8;" x="247.271596" xlink:href="#m209fa09830" y="550.8"/>
      </g>
     </g>
     <g id="text_23">
      <!-- $T$ -->
      <g transform="translate(243.841093 566.10218)scale(0.12 -0.12)">
       <use transform="scale(0.996264)" xlink:href="#CMMI12-84"/>
      </g>
     </g>
    </g>
    <g id="text_24">
     <!-- $t$ -->
     <g transform="translate(180.756166 582.112652)scale(0.14 -0.14)">
      <use transform="scale(0.996264)" xlink:href="#CMMI12-116"/>
     </g>
    </g>
   </g>
   <g id="matplotlib.axis_6">
    <g id="ytick_11">
     <g id="line2d_42">
      <path clip-path="url(#pf2bf61b34c)" d="M 56.403827 522.28951 
L 310.040191 522.28951 
" style="fill:none;stroke:#b0b0b0;stroke-linecap:square;stroke-width:0.8;"/>
     </g>
     <g id="line2d_43">
      <g>
       <use style="stroke:#000000;stroke-width:0.8;" x="56.403827" xlink:href="#m5aea05228c" y="522.28951"/>
      </g>
     </g>
     <g id="text_25">
      <!-- $-1.0$ -->
      <g transform="translate(25.147696 526.4406)scale(0.12 -0.12)">
       <use transform="scale(0.996264)" xlink:href="#CMSY10-0"/>
       <use transform="translate(77.487468 0)scale(0.996264)" xlink:href="#CMR17-49"/>
       <use transform="translate(123.177945 0)scale(0.996264)" xlink:href="#CMMI12-58"/>
       <use transform="translate(150.275122 0)scale(0.996264)" xlink:href="#CMR17-48"/>
      </g>
     </g>
    </g>
    <g id="ytick_12">
     <g id="line2d_44">
      <path clip-path="url(#pf2bf61b34c)" d="M 56.403827 474.772028 
L 310.040191 474.772028 
" style="fill:none;stroke:#b0b0b0;stroke-linecap:square;stroke-width:0.8;"/>
     </g>
     <g id="line2d_45">
      <g>
       <use style="stroke:#000000;stroke-width:0.8;" x="56.403827" xlink:href="#m5aea05228c" y="474.772028"/>
      </g>
     </g>
     <g id="text_26">
      <!-- $-0.5$ -->
      <g transform="translate(25.147696 478.923118)scale(0.12 -0.12)">
       <use transform="scale(0.996264)" xlink:href="#CMSY10-0"/>
       <use transform="translate(77.487468 0)scale(0.996264)" xlink:href="#CMR17-48"/>
       <use transform="translate(123.177945 0)scale(0.996264)" xlink:href="#CMMI12-58"/>
       <use transform="translate(150.275122 0)scale(0.996264)" xlink:href="#CMR17-53"/>
      </g>
     </g>
    </g>
    <g id="ytick_13">
     <g id="line2d_46">
      <path clip-path="url(#pf2bf61b34c)" d="M 56.403827 427.254545 
L 310.040191 427.254545 
" style="fill:none;stroke:#b0b0b0;stroke-linecap:square;stroke-width:0.8;"/>
     </g>
     <g id="line2d_47">
      <g>
       <use style="stroke:#000000;stroke-width:0.8;" x="56.403827" xlink:href="#m5aea05228c" y="427.254545"/>
      </g>
     </g>
     <g id="text_27">
      <!-- $0.0$ -->
      <g transform="translate(34.446186 431.405635)scale(0.12 -0.12)">
       <use transform="scale(0.996264)" xlink:href="#CMR17-48"/>
       <use transform="translate(45.690477 0)scale(0.996264)" xlink:href="#CMMI12-58"/>
       <use transform="translate(72.787654 0)scale(0.996264)" xlink:href="#CMR17-48"/>
      </g>
     </g>
    </g>
    <g id="ytick_14">
     <g id="line2d_48">
      <path clip-path="url(#pf2bf61b34c)" d="M 56.403827 379.737063 
L 310.040191 379.737063 
" style="fill:none;stroke:#b0b0b0;stroke-linecap:square;stroke-width:0.8;"/>
     </g>
     <g id="line2d_49">
      <g>
       <use style="stroke:#000000;stroke-width:0.8;" x="56.403827" xlink:href="#m5aea05228c" y="379.737063"/>
      </g>
     </g>
     <g id="text_28">
      <!-- $0.5$ -->
      <g transform="translate(34.446186 383.888153)scale(0.12 -0.12)">
       <use transform="scale(0.996264)" xlink:href="#CMR17-48"/>
       <use transform="translate(45.690477 0)scale(0.996264)" xlink:href="#CMMI12-58"/>
       <use transform="translate(72.787654 0)scale(0.996264)" xlink:href="#CMR17-53"/>
      </g>
     </g>
    </g>
    <g id="ytick_15">
     <g id="line2d_50">
      <path clip-path="url(#pf2bf61b34c)" d="M 56.403827 332.21958 
L 310.040191 332.21958 
" style="fill:none;stroke:#b0b0b0;stroke-linecap:square;stroke-width:0.8;"/>
     </g>
     <g id="line2d_51">
      <g>
       <use style="stroke:#000000;stroke-width:0.8;" x="56.403827" xlink:href="#m5aea05228c" y="332.21958"/>
      </g>
     </g>
     <g id="text_29">
      <!-- $1.0$ -->
      <g transform="translate(34.446186 336.37067)scale(0.12 -0.12)">
       <use transform="scale(0.996264)" xlink:href="#CMR17-49"/>
       <use transform="translate(45.690477 0)scale(0.996264)" xlink:href="#CMMI12-58"/>
       <use transform="translate(72.787654 0)scale(0.996264)" xlink:href="#CMR17-48"/>
      </g>
     </g>
    </g>
    <g id="text_30">
     <!-- $x(t)$ -->
     <defs>
      <path d="M 47.40625 41 
C 44.203125 40.390625 43 37.984375 43 36.09375 
C 43 33.6875 44.90625 32.890625 46.296875 32.890625 
C 49.296875 32.890625 51.40625 35.484375 51.40625 38.1875 
C 51.40625 42.09375 46.59375 44 42.40625 44 
C 36.296875 44 32.90625 38.296875 32 36.390625 
C 29.703125 43.59375 23.5 44 21.703125 44 
C 11.5 44 6.09375 31.140625 6.09375 28.890625 
C 6.09375 28.484375 6.5 27.96875 7.203125 27.96875 
C 8 27.96875 8.203125 28.578125 8.40625 28.984375 
C 11.796875 40.1875 18.5 41.984375 21.40625 41.984375 
C 25.90625 41.984375 26.796875 38.09375 26.796875 35.6875 
C 26.796875 33.484375 26.203125 31.140625 25 26.21875 
L 21.59375 12.15625 
C 20.09375 6.09375 17.203125 1 11.90625 1 
C 11.40625 1 8.90625 1 6.796875 1.96875 
C 10.40625 2.59375 11.203125 5.59375 11.203125 6.796875 
C 11.203125 8.796875 9.703125 10 7.796875 10 
C 5.40625 10 2.796875 7.890625 2.796875 4.6875 
C 2.796875 0.890625 7.5 -1 11.796875 -1 
C 16.59375 -1 20 2.390625 22.09375 6.484375 
C 23.703125 1 28.703125 -1 32.40625 -1 
C 42.59375 -1 48 11.734375 48 14 
C 48 14.515625 47.59375 14.921875 47 14.921875 
C 46.09375 14.921875 46 14.40625 45.703125 13.59375 
C 43 4.6875 37.203125 1 32.703125 1 
C 29.203125 1 27.296875 3.1875 27.296875 7.296875 
C 27.296875 9.484375 27.703125 11.125 29.296875 17.90625 
L 32.796875 31.859375 
C 34.296875 37.890625 37.703125 41.984375 42.296875 41.984375 
C 42.5 41.984375 45.296875 41.984375 47.40625 41 
z
" id="CMMI12-120"/>
     </defs>
     <g transform="translate(17.660772 438.911819)rotate(-90)scale(0.14 -0.14)">
      <use transform="scale(0.996264)" xlink:href="#CMMI12-120"/>
      <use transform="translate(55.43406 0)scale(0.996264)" xlink:href="#CMR17-40"/>
      <use transform="translate(90.714827 0)scale(0.996264)" xlink:href="#CMMI12-116"/>
      <use transform="translate(125.941158 0)scale(0.996264)" xlink:href="#CMR17-41"/>
     </g>
    </g>
   </g>
   <g id="line2d_52">
    <path clip-path="url(#pf2bf61b34c)" d="M 67.932753 332.21958 
L 70.238538 332.21958 
L 72.544323 332.21958 
L 74.850108 332.21958 
L 77.155893 332.21958 
L 79.461679 332.21958 
L 81.767464 332.21958 
L 84.073249 332.21958 
L 86.379034 332.21958 
L 88.684819 522.28951 
L 90.990604 522.28951 
L 93.296389 522.28951 
L 95.602174 522.28951 
L 97.90796 522.28951 
L 100.213745 522.28951 
L 102.51953 522.28951 
L 104.825315 522.28951 
L 107.1311 522.28951 
L 109.436885 522.28951 
L 111.74267 522.28951 
L 114.048455 522.28951 
L 116.354241 522.28951 
L 118.660026 522.28951 
L 120.965811 522.28951 
L 123.271596 522.28951 
L 125.577381 522.28951 
L 127.883166 522.28951 
L 130.188951 522.28951 
L 132.494736 522.28951 
L 134.800522 522.28951 
L 137.106307 522.28951 
L 139.412092 522.28951 
L 141.717877 522.28951 
L 144.023662 522.28951 
L 146.329447 522.28951 
L 148.635232 522.28951 
L 150.941017 522.28951 
L 153.246803 332.21958 
L 155.552588 332.21958 
L 157.858373 332.21958 
L 160.164158 332.21958 
L 162.469943 332.21958 
L 164.775728 332.21958 
L 167.081513 332.21958 
L 169.387298 332.21958 
L 171.693084 332.21958 
L 173.998869 332.21958 
L 176.304654 332.21958 
L 178.610439 332.21958 
L 180.916224 332.21958 
L 183.222009 332.21958 
L 185.527794 332.21958 
L 187.833579 332.21958 
L 190.139365 332.21958 
L 192.44515 332.21958 
L 194.750935 332.21958 
L 197.05672 332.21958 
L 199.362505 332.21958 
L 201.66829 332.21958 
L 203.974075 332.21958 
L 206.27986 332.21958 
L 208.585646 332.21958 
L 210.891431 332.21958 
L 213.197216 332.21958 
L 215.503001 522.28951 
L 217.808786 522.28951 
L 220.114571 522.28951 
L 222.420356 522.28951 
L 224.726141 522.28951 
L 227.031926 522.28951 
L 229.337712 522.28951 
L 231.643497 522.28951 
L 233.949282 522.28951 
L 236.255067 522.28951 
L 238.560852 522.28951 
L 240.866637 522.28951 
L 243.172422 522.28951 
L 245.478207 522.28951 
L 247.783993 522.28951 
L 250.089778 522.28951 
L 252.395563 522.28951 
L 254.701348 522.28951 
L 257.007133 522.28951 
L 259.312918 522.28951 
L 261.618703 522.28951 
L 263.924488 522.28951 
L 266.230274 522.28951 
L 268.536059 522.28951 
L 270.841844 522.28951 
L 273.147629 522.28951 
L 275.453414 522.28951 
L 277.759199 522.28951 
L 280.064984 522.28951 
L 282.370769 522.28951 
L 284.676555 522.28951 
L 286.98234 522.28951 
L 289.288125 522.28951 
L 291.59391 522.28951 
L 293.899695 522.28951 
L 296.20548 522.28951 
L 298.511265 522.28951 
" style="fill:none;stroke:#ff7f0e;stroke-linecap:square;stroke-width:1.5;"/>
   </g>
   <g id="patch_13">
    <path d="M 56.403827 550.8 
L 56.403827 303.709091 
" style="fill:none;stroke:#000000;stroke-linecap:square;stroke-linejoin:miter;stroke-width:0.8;"/>
   </g>
   <g id="patch_14">
    <path d="M 310.040191 550.8 
L 310.040191 303.709091 
" style="fill:none;stroke:#000000;stroke-linecap:square;stroke-linejoin:miter;stroke-width:0.8;"/>
   </g>
   <g id="patch_15">
    <path d="M 56.403827 550.8 
L 310.040191 550.8 
" style="fill:none;stroke:#000000;stroke-linecap:square;stroke-linejoin:miter;stroke-width:0.8;"/>
   </g>
   <g id="patch_16">
    <path d="M 56.403827 303.709091 
L 310.040191 303.709091 
" style="fill:none;stroke:#000000;stroke-linecap:square;stroke-linejoin:miter;stroke-width:0.8;"/>
   </g>
  </g>
  <g id="axes_4">
   <g id="patch_17">
    <path d="M 360.767464 550.8 
L 614.403827 550.8 
L 614.403827 303.709091 
L 360.767464 303.709091 
z
" style="fill:#ffffff;"/>
   </g>
   <g id="matplotlib.axis_7">
    <g id="xtick_10">
     <g id="line2d_53">
      <path clip-path="url(#pae452ce38e)" d="M 423.536059 550.8 
L 423.536059 303.709091 
" style="fill:none;stroke:#b0b0b0;stroke-linecap:square;stroke-width:0.8;"/>
     </g>
     <g id="line2d_54">
      <g>
       <use style="stroke:#000000;stroke-width:0.8;" x="423.536059" xlink:href="#m209fa09830" y="550.8"/>
      </g>
     </g>
     <g id="text_31">
      <!-- $-T$ -->
      <g transform="translate(415.456311 566.10218)scale(0.12 -0.12)">
       <use transform="scale(0.996264)" xlink:href="#CMSY10-0"/>
       <use transform="translate(77.487468 0)scale(0.996264)" xlink:href="#CMMI12-84"/>
      </g>
     </g>
    </g>
    <g id="xtick_11">
     <g id="line2d_55">
      <path clip-path="url(#pae452ce38e)" d="M 487.585646 550.8 
L 487.585646 303.709091 
" style="fill:none;stroke:#b0b0b0;stroke-linecap:square;stroke-width:0.8;"/>
     </g>
     <g id="line2d_56">
      <g>
       <use style="stroke:#000000;stroke-width:0.8;" x="487.585646" xlink:href="#m209fa09830" y="550.8"/>
      </g>
     </g>
     <g id="text_32">
      <!-- $0$ -->
      <g transform="translate(484.65915 566.10218)scale(0.12 -0.12)">
       <use transform="scale(0.996264)" xlink:href="#CMR17-48"/>
      </g>
     </g>
    </g>
    <g id="xtick_12">
     <g id="line2d_57">
      <path clip-path="url(#pae452ce38e)" d="M 551.635232 550.8 
L 551.635232 303.709091 
" style="fill:none;stroke:#b0b0b0;stroke-linecap:square;stroke-width:0.8;"/>
     </g>
     <g id="line2d_58">
      <g>
       <use style="stroke:#000000;stroke-width:0.8;" x="551.635232" xlink:href="#m209fa09830" y="550.8"/>
      </g>
     </g>
     <g id="text_33">
      <!-- $T$ -->
      <g transform="translate(548.20473 566.10218)scale(0.12 -0.12)">
       <use transform="scale(0.996264)" xlink:href="#CMMI12-84"/>
      </g>
     </g>
    </g>
    <g id="text_34">
     <!-- $t$ -->
     <g transform="translate(485.119802 582.112652)scale(0.14 -0.14)">
      <use transform="scale(0.996264)" xlink:href="#CMMI12-116"/>
     </g>
    </g>
   </g>
   <g id="matplotlib.axis_8">
    <g id="ytick_16">
     <g id="line2d_59">
      <path clip-path="url(#pae452ce38e)" d="M 360.767464 522.28951 
L 614.403827 522.28951 
" style="fill:none;stroke:#b0b0b0;stroke-linecap:square;stroke-width:0.8;"/>
     </g>
     <g id="line2d_60">
      <g>
       <use style="stroke:#000000;stroke-width:0.8;" x="360.767464" xlink:href="#m5aea05228c" y="522.28951"/>
      </g>
     </g>
     <g id="text_35">
      <!-- $-1.0$ -->
      <g transform="translate(329.511333 526.4406)scale(0.12 -0.12)">
       <use transform="scale(0.996264)" xlink:href="#CMSY10-0"/>
       <use transform="translate(77.487468 0)scale(0.996264)" xlink:href="#CMR17-49"/>
       <use transform="translate(123.177945 0)scale(0.996264)" xlink:href="#CMMI12-58"/>
       <use transform="translate(150.275122 0)scale(0.996264)" xlink:href="#CMR17-48"/>
      </g>
     </g>
    </g>
    <g id="ytick_17">
     <g id="line2d_61">
      <path clip-path="url(#pae452ce38e)" d="M 360.767464 474.772028 
L 614.403827 474.772028 
" style="fill:none;stroke:#b0b0b0;stroke-linecap:square;stroke-width:0.8;"/>
     </g>
     <g id="line2d_62">
      <g>
       <use style="stroke:#000000;stroke-width:0.8;" x="360.767464" xlink:href="#m5aea05228c" y="474.772028"/>
      </g>
     </g>
     <g id="text_36">
      <!-- $-0.5$ -->
      <g transform="translate(329.511333 478.923118)scale(0.12 -0.12)">
       <use transform="scale(0.996264)" xlink:href="#CMSY10-0"/>
       <use transform="translate(77.487468 0)scale(0.996264)" xlink:href="#CMR17-48"/>
       <use transform="translate(123.177945 0)scale(0.996264)" xlink:href="#CMMI12-58"/>
       <use transform="translate(150.275122 0)scale(0.996264)" xlink:href="#CMR17-53"/>
      </g>
     </g>
    </g>
    <g id="ytick_18">
     <g id="line2d_63">
      <path clip-path="url(#pae452ce38e)" d="M 360.767464 427.254545 
L 614.403827 427.254545 
" style="fill:none;stroke:#b0b0b0;stroke-linecap:square;stroke-width:0.8;"/>
     </g>
     <g id="line2d_64">
      <g>
       <use style="stroke:#000000;stroke-width:0.8;" x="360.767464" xlink:href="#m5aea05228c" y="427.254545"/>
      </g>
     </g>
     <g id="text_37">
      <!-- $0.0$ -->
      <g transform="translate(338.809822 431.405635)scale(0.12 -0.12)">
       <use transform="scale(0.996264)" xlink:href="#CMR17-48"/>
       <use transform="translate(45.690477 0)scale(0.996264)" xlink:href="#CMMI12-58"/>
       <use transform="translate(72.787654 0)scale(0.996264)" xlink:href="#CMR17-48"/>
      </g>
     </g>
    </g>
    <g id="ytick_19">
     <g id="line2d_65">
      <path clip-path="url(#pae452ce38e)" d="M 360.767464 379.737063 
L 614.403827 379.737063 
" style="fill:none;stroke:#b0b0b0;stroke-linecap:square;stroke-width:0.8;"/>
     </g>
     <g id="line2d_66">
      <g>
       <use style="stroke:#000000;stroke-width:0.8;" x="360.767464" xlink:href="#m5aea05228c" y="379.737063"/>
      </g>
     </g>
     <g id="text_38">
      <!-- $0.5$ -->
      <g transform="translate(338.809822 383.888153)scale(0.12 -0.12)">
       <use transform="scale(0.996264)" xlink:href="#CMR17-48"/>
       <use transform="translate(45.690477 0)scale(0.996264)" xlink:href="#CMMI12-58"/>
       <use transform="translate(72.787654 0)scale(0.996264)" xlink:href="#CMR17-53"/>
      </g>
     </g>
    </g>
    <g id="ytick_20">
     <g id="line2d_67">
      <path clip-path="url(#pae452ce38e)" d="M 360.767464 332.21958 
L 614.403827 332.21958 
" style="fill:none;stroke:#b0b0b0;stroke-linecap:square;stroke-width:0.8;"/>
     </g>
     <g id="line2d_68">
      <g>
       <use style="stroke:#000000;stroke-width:0.8;" x="360.767464" xlink:href="#m5aea05228c" y="332.21958"/>
      </g>
     </g>
     <g id="text_39">
      <!-- $1.0$ -->
      <g transform="translate(338.809822 336.37067)scale(0.12 -0.12)">
       <use transform="scale(0.996264)" xlink:href="#CMR17-49"/>
       <use transform="translate(45.690477 0)scale(0.996264)" xlink:href="#CMMI12-58"/>
       <use transform="translate(72.787654 0)scale(0.996264)" xlink:href="#CMR17-48"/>
      </g>
     </g>
    </g>
    <g id="text_40">
     <!-- $z(t)$ -->
     <defs>
      <path d="M 12.703125 7.59375 
C 17 12.640625 20.5 15.859375 25.5 20.515625 
C 31.5 25.890625 34.09375 28.46875 35.5 30.03125 
C 42.5 37.046875 46 42.390625 46 43.1875 
C 46 44 45.203125 44 45 44 
C 44.296875 44 44.09375 43.59375 43.59375 42.890625 
C 41.09375 38.59375 38.703125 37 36.09375 37 
C 34 37 32.90625 37.546875 31 39.796875 
C 28.90625 42.296875 27.203125 44 24.296875 44 
C 17 44 12.59375 35.390625 12.59375 33.234375 
C 12.59375 32.921875 12.703125 32.296875 13.59375 32.296875 
C 14.40625 32.296875 14.5 32.71875 14.796875 33.4375 
C 16.5 37.296875 21.296875 37.734375 23.203125 37.734375 
C 25.296875 37.734375 27.296875 37.296875 29.40625 36.59375 
C 33.203125 34.984375 34.796875 34.984375 35.796875 34.984375 
C 36.5 34.984375 36.90625 34.984375 37.40625 35.09375 
C 34.09375 31.0625 28.703125 26.09375 24.203125 21.859375 
L 14.09375 12.234375 
C 8 5.9375 4.296875 0.5 4.296875 -0.203125 
C 4.296875 -0.8125 4.796875 -1 5.40625 -1 
C 6 -1 6.09375 -0.90625 6.796875 0.296875 
C 8.40625 2.796875 11.59375 6 15.296875 6 
C 17.40625 6 18.40625 5.5625 20.40625 3.296875 
C 22.296875 1.09375 24 -1 27.203125 -1 
C 37 -1 42.59375 11.296875 42.59375 13.6875 
C 42.59375 14.09375 42.5 14.71875 41.5 14.71875 
C 40.703125 14.71875 40.59375 14.296875 40.296875 13.265625 
C 38.09375 7.1875 32.203125 5.25 28.296875 5.25 
C 26.203125 5.25 24.203125 5.6875 22.09375 6.390625 
C 18.09375 8 17 8 15.703125 8 
C 14.703125 8 13.59375 8 12.703125 7.59375 
z
" id="CMMI12-122"/>
     </defs>
     <g transform="translate(322.024408 438.514293)rotate(-90)scale(0.14 -0.14)">
      <use transform="scale(0.996264)" xlink:href="#CMMI12-122"/>
      <use transform="translate(49.755145 0)scale(0.996264)" xlink:href="#CMR17-40"/>
      <use transform="translate(85.035913 0)scale(0.996264)" xlink:href="#CMMI12-116"/>
      <use transform="translate(120.262243 0)scale(0.996264)" xlink:href="#CMR17-41"/>
     </g>
    </g>
   </g>
   <g id="line2d_69">
    <path clip-path="url(#pae452ce38e)" d="M 372.296389 451.001674 
L 374.602174 453.498313 
L 376.90796 456.081184 
L 379.213745 458.73588 
L 381.51953 461.446391 
L 383.825315 464.195235 
L 386.1311 466.963637 
L 388.436885 469.731718 
L 390.74267 472.478714 
L 393.048455 475.183219 
L 395.354241 477.823435 
L 397.660026 480.377442 
L 399.965811 482.823476 
L 402.271596 485.140207 
L 404.577381 487.307019 
L 406.883166 489.304286 
L 409.188951 491.113636 
L 411.494736 492.718202 
L 413.800522 494.102857 
L 416.106307 495.254419 
L 418.412092 496.161841 
L 420.717877 496.816364 
L 423.023662 497.211643 
L 425.329447 497.343831 
L 427.635232 497.211643 
L 429.941017 496.816364 
L 432.246803 496.161841 
L 434.552588 495.254419 
L 436.858373 494.102857 
L 439.164158 492.718202 
L 441.469943 491.113636 
L 443.775728 489.304286 
L 446.081513 487.307019 
L 448.387298 485.140207 
L 450.693084 482.823476 
L 452.998869 480.377442 
L 455.304654 477.823435 
L 457.610439 475.183219 
L 459.916224 472.478714 
L 462.222009 469.731718 
L 464.527794 466.963637 
L 466.833579 464.195235 
L 469.139365 461.446391 
L 471.44515 458.73588 
L 473.750935 456.081184 
L 476.05672 453.498313 
L 478.362505 451.001674 
L 480.66829 448.603951 
L 482.974075 446.316028 
L 485.27986 444.146938 
L 487.585646 442.103847 
L 489.891431 440.192061 
L 492.197216 438.415068 
L 494.503001 436.774609 
L 496.808786 435.270768 
L 499.114571 433.902086 
L 501.420356 432.665703 
L 503.726141 431.557499 
L 506.031926 430.572269 
L 508.337712 429.703889 
L 510.643497 428.994955 
L 512.949282 428.388847 
L 515.255067 427.878334 
L 517.560852 427.455821 
L 519.866637 427.113476 
L 522.172422 426.843354 
L 524.478207 426.637522 
L 526.783993 426.488166 
L 529.089778 426.387699 
L 531.395563 426.328857 
L 533.701348 426.304782 
L 536.007133 426.309092 
L 538.312918 426.335939 
L 540.618703 426.380055 
L 542.924488 426.436778 
L 545.230274 426.502074 
L 547.536059 426.572532 
L 549.841844 426.645359 
L 552.147629 426.718352 
L 554.453414 426.78987 
L 556.759199 426.858782 
L 559.064984 426.924422 
L 561.370769 426.986524 
L 563.676555 427.045162 
L 565.98234 427.10068 
L 568.288125 427.153623 
L 570.59391 427.204664 
L 572.899695 427.254545 
L 575.20548 427.254545 
L 577.511265 427.254545 
L 579.81705 427.254545 
L 582.122836 427.254545 
L 584.428621 427.254545 
L 586.734406 427.254545 
L 589.040191 427.254545 
L 591.345976 427.254545 
L 593.651761 427.254545 
L 595.957546 427.254545 
L 598.263331 427.254545 
L 600.569117 427.254545 
L 602.874902 427.254545 
" style="fill:none;stroke:#808080;stroke-linecap:square;stroke-width:0.5;"/>
   </g>
   <g id="line2d_70">
    <defs>
     <path d="M 0 3.75 
C 0.994512 3.75 1.948425 3.354876 2.65165 2.65165 
C 3.354876 1.948425 3.75 0.994512 3.75 0 
C 3.75 -0.994512 3.354876 -1.948425 2.65165 -2.65165 
C 1.948425 -3.354876 0.994512 -3.75 0 -3.75 
C -0.994512 -3.75 -1.948425 -3.354876 -2.65165 -2.65165 
C -3.354876 -1.948425 -3.75 -0.994512 -3.75 0 
C -3.75 0.994512 -3.354876 1.948425 -2.65165 2.65165 
C -1.948425 3.354876 -0.994512 3.75 0 3.75 
z
" id="m7b6a6bfee6" style="stroke:#808080;"/>
    </defs>
    <g clip-path="url(#pae452ce38e)">
     <use style="fill:#808080;stroke:#808080;" x="423.023662" xlink:href="#m7b6a6bfee6" y="497.211643"/>
    </g>
   </g>
   <g id="line2d_71">
    <path clip-path="url(#pae452ce38e)" d="M 372.296389 428.072313 
L 374.602174 428.129036 
L 376.90796 428.173152 
L 379.213745 428.199999 
L 381.51953 428.204309 
L 383.825315 428.180234 
L 386.1311 428.121392 
L 388.436885 428.020925 
L 390.74267 427.871569 
L 393.048455 427.665737 
L 395.354241 427.395615 
L 397.660026 427.05327 
L 399.965811 426.630757 
L 402.271596 426.120244 
L 404.577381 425.514136 
L 406.883166 424.755321 
L 409.188951 423.88578 
L 411.494736 422.898649 
L 413.800522 421.78787 
L 416.106307 420.548366 
L 418.412092 419.176221 
L 420.717877 417.668842 
L 423.023662 416.025111 
L 425.329447 414.245513 
L 427.635232 412.33225 
L 429.941017 410.289326 
L 432.246803 408.122605 
L 434.552588 405.839844 
L 436.858373 403.450693 
L 439.164158 400.966662 
L 441.469943 398.40106 
L 443.775728 395.768901 
L 446.081513 393.086775 
L 448.387298 390.372697 
L 450.693084 387.64592 
L 452.998869 384.926729 
L 455.304654 382.236209 
L 457.610439 379.595993 
L 459.916224 377.028002 
L 462.222009 374.554162 
L 464.527794 372.196128 
L 466.833579 369.974992 
L 469.139365 367.911006 
L 471.44515 366.023305 
L 473.750935 364.329643 
L 476.05672 362.84615 
L 478.362505 361.5871 
L 480.66829 360.564715 
L 482.974075 359.788989 
L 485.27986 359.267546 
L 487.585646 359.005529 
L 489.891431 359.005529 
L 492.197216 359.267546 
L 494.503001 359.788989 
L 496.808786 360.564715 
L 499.114571 361.5871 
L 501.420356 362.84615 
L 503.726141 364.329643 
L 506.031926 366.023305 
L 508.337712 367.911006 
L 510.643497 369.974992 
L 512.949282 372.196128 
L 515.255067 374.554162 
L 517.560852 377.028002 
L 519.866637 379.595993 
L 522.172422 382.236209 
L 524.478207 384.926729 
L 526.783993 387.64592 
L 529.089778 390.372697 
L 531.395563 393.086775 
L 533.701348 395.768901 
L 536.007133 398.40106 
L 538.312918 400.966662 
L 540.618703 403.450693 
L 542.924488 405.839844 
L 545.230274 408.122605 
L 547.536059 410.289326 
L 549.841844 412.33225 
L 552.147629 414.245513 
L 554.453414 416.025111 
L 556.759199 417.668842 
L 559.064984 419.176221 
L 561.370769 420.548366 
L 563.676555 421.78787 
L 565.98234 422.898649 
L 568.288125 423.88578 
L 570.59391 424.755321 
L 572.899695 425.514136 
L 575.20548 426.120244 
L 577.511265 426.630757 
L 579.81705 427.05327 
L 582.122836 427.395615 
L 584.428621 427.665737 
L 586.734406 427.871569 
L 589.040191 428.020925 
L 591.345976 428.121392 
L 593.651761 428.180234 
L 595.957546 428.204309 
L 598.263331 428.199999 
L 600.569117 428.173152 
L 602.874902 428.129036 
" style="fill:none;stroke:#808080;stroke-linecap:square;stroke-width:0.5;"/>
   </g>
   <g id="line2d_72">
    <g clip-path="url(#pae452ce38e)">
     <use style="fill:#808080;stroke:#808080;" x="487.585646" xlink:href="#m7b6a6bfee6" y="359.005529"/>
    </g>
   </g>
   <g id="line2d_73">
    <path clip-path="url(#pae452ce38e)" d="M 372.296389 427.254545 
L 374.602174 427.254545 
L 376.90796 427.254545 
L 379.213745 427.254545 
L 381.51953 427.254545 
L 383.825315 427.254545 
L 386.1311 427.254545 
L 388.436885 427.254545 
L 390.74267 427.254545 
L 393.048455 427.254545 
L 395.354241 427.254545 
L 397.660026 427.254545 
L 399.965811 427.254545 
L 402.271596 427.254545 
L 404.577381 427.254545 
L 406.883166 427.204664 
L 409.188951 427.153623 
L 411.494736 427.10068 
L 413.800522 427.045162 
L 416.106307 426.986524 
L 418.412092 426.924422 
L 420.717877 426.858782 
L 423.023662 426.78987 
L 425.329447 426.718352 
L 427.635232 426.645359 
L 429.941017 426.572532 
L 432.246803 426.502074 
L 434.552588 426.436778 
L 436.858373 426.380055 
L 439.164158 426.335939 
L 441.469943 426.309092 
L 443.775728 426.304782 
L 446.081513 426.328857 
L 448.387298 426.387699 
L 450.693084 426.488166 
L 452.998869 426.637522 
L 455.304654 426.843354 
L 457.610439 427.113476 
L 459.916224 427.455821 
L 462.222009 427.878334 
L 464.527794 428.388847 
L 466.833579 428.994955 
L 469.139365 429.703889 
L 471.44515 430.572269 
L 473.750935 431.557499 
L 476.05672 432.665703 
L 478.362505 433.902086 
L 480.66829 435.270768 
L 482.974075 436.774609 
L 485.27986 438.415068 
L 487.585646 440.192061 
L 489.891431 442.103847 
L 492.197216 444.146938 
L 494.503001 446.316028 
L 496.808786 448.603951 
L 499.114571 451.001674 
L 501.420356 453.498313 
L 503.726141 456.081184 
L 506.031926 458.73588 
L 508.337712 461.446391 
L 510.643497 464.195235 
L 512.949282 466.963637 
L 515.255067 469.731718 
L 517.560852 472.478714 
L 519.866637 475.183219 
L 522.172422 477.823435 
L 524.478207 480.377442 
L 526.783993 482.823476 
L 529.089778 485.140207 
L 531.395563 487.307019 
L 533.701348 489.304286 
L 536.007133 491.113636 
L 538.312918 492.718202 
L 540.618703 494.102857 
L 542.924488 495.254419 
L 545.230274 496.161841 
L 547.536059 496.816364 
L 549.841844 497.211643 
L 552.147629 497.343831 
L 554.453414 497.211643 
L 556.759199 496.816364 
L 559.064984 496.161841 
L 561.370769 495.254419 
L 563.676555 494.102857 
L 565.98234 492.718202 
L 568.288125 491.113636 
L 570.59391 489.304286 
L 572.899695 487.307019 
L 575.20548 485.140207 
L 577.511265 482.823476 
L 579.81705 480.377442 
L 582.122836 477.823435 
L 584.428621 475.183219 
L 586.734406 472.478714 
L 589.040191 469.731718 
L 591.345976 466.963637 
L 593.651761 464.195235 
L 595.957546 461.446391 
L 598.263331 458.73588 
L 600.569117 456.081184 
L 602.874902 453.498313 
" style="fill:none;stroke:#808080;stroke-linecap:square;stroke-width:0.5;"/>
   </g>
   <g id="line2d_74">
    <g clip-path="url(#pae452ce38e)">
     <use style="fill:#808080;stroke:#808080;" x="552.147629" xlink:href="#m7b6a6bfee6" y="497.343831"/>
    </g>
   </g>
   <g id="line2d_75">
    <path clip-path="url(#pae452ce38e)" d="M 372.296389 427.23132 
L 374.602174 429.314262 
L 376.90796 431.583649 
L 379.213745 434.024495 
L 381.51953 436.618272 
L 383.825315 439.343042 
L 386.1311 442.173646 
L 388.436885 445.081957 
L 390.74267 448.037195 
L 393.048455 451.006289 
L 395.354241 453.954293 
L 397.660026 456.844843 
L 399.965811 459.640648 
L 402.271596 462.304012 
L 404.577381 464.797367 
L 406.883166 466.984058 
L 409.188951 468.925855 
L 411.494736 470.587365 
L 413.800522 471.935595 
L 416.106307 472.940576 
L 418.412092 473.575954 
L 420.717877 473.819534 
L 423.023662 473.653767 
L 425.329447 473.066176 
L 427.635232 472.049704 
L 429.941017 470.602981 
L 432.246803 468.730504 
L 434.552588 466.442722 
L 436.858373 463.75603 
L 439.164158 460.692658 
L 441.469943 457.280475 
L 443.775728 453.552689 
L 446.081513 449.547463 
L 448.387298 445.307448 
L 450.693084 440.879229 
L 452.998869 436.312721 
L 455.304654 431.660486 
L 457.610439 426.977021 
L 459.916224 422.317998 
L 462.222009 417.73949 
L 464.527794 413.297181 
L 466.833579 409.045586 
L 469.139365 405.037281 
L 471.44515 401.322172 
L 473.750935 397.946795 
L 476.05672 394.953679 
L 478.362505 392.380771 
L 480.66829 390.260928 
L 482.974075 388.621502 
L 485.27986 387.484003 
L 487.585646 386.863863 
L 489.891431 386.720828 
L 492.197216 387.156919 
L 494.503001 388.119569 
L 496.808786 389.599758 
L 499.114571 391.582768 
L 501.420356 394.04847 
L 503.726141 396.971676 
L 506.031926 400.322554 
L 508.337712 404.067106 
L 510.643497 408.266596 
L 512.949282 412.781861 
L 515.255067 417.570757 
L 517.560852 422.588894 
L 519.866637 427.790173 
L 522.172422 433.127328 
L 524.478207 438.552485 
L 526.783993 444.017714 
L 529.089778 449.475577 
L 531.395563 454.879658 
L 533.701348 460.185068 
L 536.007133 465.34892 
L 538.312918 470.330767 
L 540.618703 475.092997 
L 542.924488 479.601178 
L 545.230274 483.824354 
L 547.536059 487.735282 
L 549.841844 491.310618 
L 552.147629 494.531036 
L 554.453414 497.381298 
L 556.759199 499.850261 
L 559.064984 501.930831 
L 561.370769 503.61986 
L 563.676555 504.918002 
L 565.98234 505.829518 
L 568.288125 506.362039 
L 570.59391 506.526303 
L 572.899695 506.335852 
L 575.20548 505.707798 
L 577.511265 504.758726 
L 579.81705 503.50749 
L 582.122836 501.974716 
L 584.428621 500.182531 
L 586.734406 498.15428 
L 589.040191 495.914238 
L 591.345976 493.487322 
L 593.651761 490.898805 
L 595.957546 488.174035 
L 598.263331 485.338172 
L 600.569117 482.41593 
L 602.874902 479.431347 
" style="fill:none;stroke:#ff7f0e;stroke-linecap:square;stroke-width:1.5;"/>
   </g>
   <g id="line2d_76">
    <defs>
     <path d="M 0 3.75 
C 0.994512 3.75 1.948425 3.354876 2.65165 2.65165 
C 3.354876 1.948425 3.75 0.994512 3.75 0 
C 3.75 -0.994512 3.354876 -1.948425 2.65165 -2.65165 
C 1.948425 -3.354876 0.994512 -3.75 0 -3.75 
C -0.994512 -3.75 -1.948425 -3.354876 -2.65165 -2.65165 
C -3.354876 -1.948425 -3.75 -0.994512 -3.75 0 
C -3.75 0.994512 -3.354876 1.948425 -2.65165 2.65165 
C -1.948425 3.354876 -0.994512 3.75 0 3.75 
z
" id="m4319f2d37f" style="stroke:#ff7f0e;"/>
    </defs>
    <g clip-path="url(#pae452ce38e)">
     <use style="fill:#ff7f0e;stroke:#ff7f0e;" x="423.023662" xlink:href="#m4319f2d37f" y="473.653767"/>
    </g>
   </g>
   <g id="line2d_77">
    <g clip-path="url(#pae452ce38e)">
     <use style="fill:#ff7f0e;stroke:#ff7f0e;" x="487.585646" xlink:href="#m4319f2d37f" y="386.863863"/>
    </g>
   </g>
   <g id="line2d_78">
    <g clip-path="url(#pae452ce38e)">
     <use style="fill:#ff7f0e;stroke:#ff7f0e;" x="552.147629" xlink:href="#m4319f2d37f" y="494.531036"/>
    </g>
   </g>
   <g id="patch_18">
    <path d="M 360.767464 550.8 
L 360.767464 303.709091 
" style="fill:none;stroke:#000000;stroke-linecap:square;stroke-linejoin:miter;stroke-width:0.8;"/>
   </g>
   <g id="patch_19">
    <path d="M 614.403827 550.8 
L 614.403827 303.709091 
" style="fill:none;stroke:#000000;stroke-linecap:square;stroke-linejoin:miter;stroke-width:0.8;"/>
   </g>
   <g id="patch_20">
    <path d="M 360.767464 550.8 
L 614.403827 550.8 
" style="fill:none;stroke:#000000;stroke-linecap:square;stroke-linejoin:miter;stroke-width:0.8;"/>
   </g>
   <g id="patch_21">
    <path d="M 360.767464 303.709091 
L 614.403827 303.709091 
" style="fill:none;stroke:#000000;stroke-linecap:square;stroke-linejoin:miter;stroke-width:0.8;"/>
   </g>
  </g>
 </g>
 <defs>
  <clipPath id="p4056f71a11">
   <rect height="247.090909" width="253.636364" x="56.403827" y="7.2"/>
  </clipPath>
  <clipPath id="p3af87cded3">
   <rect height="247.090909" width="253.636364" x="360.767464" y="7.2"/>
  </clipPath>
  <clipPath id="pf2bf61b34c">
   <rect height="247.090909" width="253.636364" x="56.403827" y="303.709091"/>
  </clipPath>
  <clipPath id="pae452ce38e">
   <rect height="247.090909" width="253.636364" x="360.767464" y="303.709091"/>
  </clipPath>
 </defs>
</svg>
