<?xml version="1.0" encoding="utf-8" standalone="no"?>
<!DOCTYPE svg PUBLIC "-//W3C//DTD SVG 1.1//EN"
  "http://www.w3.org/Graphics/SVG/1.1/DTD/svg11.dtd">
<svg height="592.02468pt" version="1.1" viewBox="0 0 621.603827 592.02468" width="621.603827pt" xmlns="http://www.w3.org/2000/svg" xmlns:xlink="http://www.w3.org/1999/xlink">
 <metadata>
  <rdf:RDF xmlns:cc="http://creativecommons.org/ns#" xmlns:dc="http://purl.org/dc/elements/1.1/" xmlns:rdf="http://www.w3.org/1999/02/22-rdf-syntax-ns#">
   <cc:Work>
    <dc:type rdf:resource="http://purl.org/dc/dcmitype/StillImage"/>
    <dc:date>2022-02-21T10:42:44.122075</dc:date>
    <dc:format>image/svg+xml</dc:format>
    <dc:creator>
     <cc:Agent>
      <dc:title>Matplotlib v3.4.3, https://matplotlib.org/</dc:title>
     </cc:Agent>
    </dc:creator>
   </cc:Work>
  </rdf:RDF>
 </metadata>
 <defs>
  <style type="text/css">*{stroke-linecap:butt;stroke-linejoin:round;}</style>
 </defs>
 <g id="figure_1">
  <g id="patch_1">
   <path d="M 0 592.02468 
L 621.603827 592.02468 
L 621.603827 0 
L 0 0 
z
" style="fill:none;"/>
  </g>
  <g id="axes_1">
   <g id="patch_2">
    <path d="M 56.403827 254.290909 
L 310.040191 254.290909 
L 310.040191 7.2 
L 56.403827 7.2 
z
" style="fill:none;"/>
   </g>
   <g id="matplotlib.axis_1">
    <g id="xtick_1">
     <g id="line2d_1">
      <path clip-path="url(#p983736b0a3)" d="M 119.172422 254.290909 
L 119.172422 7.2 
" style="fill:none;stroke:#b0b0b0;stroke-linecap:square;stroke-width:0.8;"/>
     </g>
     <g id="line2d_2">
      <defs>
       <path d="M 0 0 
L 0 3.5 
" id="mc1c2fab3e4" style="stroke:#000000;stroke-width:0.8;"/>
      </defs>
      <g>
       <use style="stroke:#000000;stroke-width:0.8;" x="119.172422" xlink:href="#mc1c2fab3e4" y="254.290909"/>
      </g>
     </g>
     <g id="text_1">
      <!-- $-d$ -->
      <g transform="translate(111.481833 269.593089)scale(0.12 -0.12)">
       <defs>
        <path d="M 4218 1472 
C 4326 1472 4442 1472 4442 1600 
C 4442 1728 4326 1728 4218 1728 
L 755 1728 
C 646 1728 531 1728 531 1600 
C 531 1472 646 1472 755 1472 
L 4218 1472 
z
" id="CMSY10-0" transform="scale(0.015625)"/>
        <path d="M 3219 4257 
C 3226 4282 3238 4320 3238 4352 
C 3238 4416 3174 4416 3162 4416 
C 3155 4416 2842 4388 2810 4380 
C 2701 4373 2605 4358 2490 4358 
C 2330 4345 2285 4339 2285 4224 
C 2285 4160 2336 4160 2426 4160 
C 2739 4160 2746 4103 2746 4040 
C 2746 4002 2733 3952 2726 3933 
L 2336 2395 
C 2266 2561 2093 2816 1760 2816 
C 1037 2816 256 1884 256 939 
C 256 307 627 -64 1062 -64 
C 1414 -64 1715 211 1894 422 
C 1958 45 2259 -64 2451 -64 
C 2643 -64 2797 51 2912 281 
C 3014 498 3104 888 3104 913 
C 3104 945 3078 971 3040 971 
C 2982 971 2976 939 2950 843 
C 2854 466 2733 64 2470 64 
C 2285 64 2272 229 2272 357 
C 2272 382 2272 515 2317 694 
L 3219 4257 
z
M 1926 760 
C 1894 651 1894 639 1805 517 
C 1664 338 1382 64 1082 64 
C 819 64 672 300 672 677 
C 672 1028 870 1743 992 2012 
C 1210 2459 1510 2689 1760 2689 
C 2182 2689 2266 2165 2266 2114 
C 2266 2108 2246 2024 2240 2012 
L 1926 760 
z
" id="CMMI12-64" transform="scale(0.015625)"/>
       </defs>
       <use transform="scale(0.996264)" xlink:href="#CMSY10-0"/>
       <use transform="translate(77.487468 0)scale(0.996264)" xlink:href="#CMMI12-64"/>
      </g>
     </g>
    </g>
    <g id="xtick_2">
     <g id="line2d_3">
      <path clip-path="url(#p983736b0a3)" d="M 183.222009 254.290909 
L 183.222009 7.2 
" style="fill:none;stroke:#b0b0b0;stroke-linecap:square;stroke-width:0.8;"/>
     </g>
     <g id="line2d_4">
      <g>
       <use style="stroke:#000000;stroke-width:0.8;" x="183.222009" xlink:href="#mc1c2fab3e4" y="254.290909"/>
      </g>
     </g>
     <g id="text_2">
      <!-- $0$ -->
      <g transform="translate(180.295514 269.593089)scale(0.12 -0.12)">
       <defs>
        <path d="M 2688 2025 
C 2688 2416 2682 3080 2413 3591 
C 2176 4039 1798 4198 1466 4198 
C 1158 4198 768 4058 525 3597 
C 269 3118 243 2524 243 2025 
C 243 1661 250 1106 448 619 
C 723 -39 1216 -128 1466 -128 
C 1760 -128 2208 -7 2470 600 
C 2662 1042 2688 1559 2688 2025 
z
M 1466 -26 
C 1056 -26 813 325 723 812 
C 653 1188 653 1738 653 2096 
C 653 2588 653 2997 736 3387 
C 858 3929 1216 4096 1466 4096 
C 1728 4096 2067 3923 2189 3400 
C 2272 3036 2278 2607 2278 2096 
C 2278 1680 2278 1169 2202 792 
C 2067 95 1690 -26 1466 -26 
z
" id="CMR17-30" transform="scale(0.015625)"/>
       </defs>
       <use transform="scale(0.996264)" xlink:href="#CMR17-30"/>
      </g>
     </g>
    </g>
    <g id="xtick_3">
     <g id="line2d_5">
      <path clip-path="url(#p983736b0a3)" d="M 247.271596 254.290909 
L 247.271596 7.2 
" style="fill:none;stroke:#b0b0b0;stroke-linecap:square;stroke-width:0.8;"/>
     </g>
     <g id="line2d_6">
      <g>
       <use style="stroke:#000000;stroke-width:0.8;" x="247.271596" xlink:href="#mc1c2fab3e4" y="254.290909"/>
      </g>
     </g>
     <g id="text_3">
      <!-- $d$ -->
      <g transform="translate(244.230251 269.593089)scale(0.12 -0.12)">
       <use transform="scale(0.996264)" xlink:href="#CMMI12-64"/>
      </g>
     </g>
    </g>
    <g id="text_4">
     <!-- $t$ -->
     <g transform="translate(180.756166 285.603561)scale(0.14 -0.14)">
      <defs>
       <path d="M 1286 2566 
L 1875 2566 
C 1997 2566 2061 2566 2061 2681 
C 2061 2752 2022 2752 1894 2752 
L 1331 2752 
L 1568 3692 
C 1594 3781 1594 3794 1594 3840 
C 1594 3943 1510 4000 1427 4000 
C 1376 4000 1229 3981 1178 3775 
L 928 2752 
L 326 2752 
C 198 2752 141 2752 141 2630 
C 141 2566 186 2566 307 2566 
L 877 2566 
L 454 881 
C 403 658 384 594 384 511 
C 384 211 595 -64 954 -64 
C 1600 -64 1946 868 1946 912 
C 1946 951 1920 970 1882 970 
C 1869 970 1843 970 1830 944 
C 1824 938 1818 931 1773 829 
C 1638 511 1344 64 973 64 
C 781 64 768 224 768 364 
C 768 370 768 492 787 568 
L 1286 2566 
z
" id="CMMI12-74" transform="scale(0.015625)"/>
      </defs>
      <use transform="scale(0.996264)" xlink:href="#CMMI12-74"/>
     </g>
    </g>
   </g>
   <g id="matplotlib.axis_2">
    <g id="ytick_1">
     <g id="line2d_7">
      <path clip-path="url(#p983736b0a3)" d="M 56.403827 225.78042 
L 310.040191 225.78042 
" style="fill:none;stroke:#b0b0b0;stroke-linecap:square;stroke-width:0.8;"/>
     </g>
     <g id="line2d_8">
      <defs>
       <path d="M 0 0 
L -3.5 0 
" id="m6afffb2b7a" style="stroke:#000000;stroke-width:0.8;"/>
      </defs>
      <g>
       <use style="stroke:#000000;stroke-width:0.8;" x="56.403827" xlink:href="#m6afffb2b7a" y="225.78042"/>
      </g>
     </g>
     <g id="text_5">
      <!-- $\mathdefault{−1.0}$ -->
      <g transform="translate(25.147696 229.931509)scale(0.12 -0.12)">
       <defs>
        <path d="M 1702 4058 
C 1702 4192 1696 4192 1606 4192 
C 1357 3916 979 3827 621 3827 
C 602 3827 570 3827 563 3808 
C 557 3795 557 3782 557 3648 
C 755 3648 1088 3686 1344 3839 
L 1344 461 
C 1344 236 1331 160 781 160 
L 589 160 
L 589 0 
C 896 0 1216 0 1523 0 
C 1830 0 2150 0 2458 0 
L 2458 160 
L 2266 160 
C 1715 160 1702 230 1702 458 
L 1702 4058 
z
" id="CMR17-31" transform="scale(0.015625)"/>
        <path d="M 1178 307 
C 1178 492 1024 619 870 619 
C 685 619 557 466 557 313 
C 557 128 710 0 864 0 
C 1050 0 1178 153 1178 307 
z
" id="CMMI12-3a" transform="scale(0.015625)"/>
       </defs>
       <use transform="scale(0.996264)" xlink:href="#CMSY10-0"/>
       <use transform="translate(77.487468 0)scale(0.996264)" xlink:href="#CMR17-31"/>
       <use transform="translate(123.177945 0)scale(0.996264)" xlink:href="#CMMI12-3a"/>
       <use transform="translate(150.275122 0)scale(0.996264)" xlink:href="#CMR17-30"/>
      </g>
     </g>
    </g>
    <g id="ytick_2">
     <g id="line2d_9">
      <path clip-path="url(#p983736b0a3)" d="M 56.403827 178.262937 
L 310.040191 178.262937 
" style="fill:none;stroke:#b0b0b0;stroke-linecap:square;stroke-width:0.8;"/>
     </g>
     <g id="line2d_10">
      <g>
       <use style="stroke:#000000;stroke-width:0.8;" x="56.403827" xlink:href="#m6afffb2b7a" y="178.262937"/>
      </g>
     </g>
     <g id="text_6">
      <!-- $\mathdefault{−0.5}$ -->
      <g transform="translate(25.147696 182.414027)scale(0.12 -0.12)">
       <defs>
        <path d="M 730 3692 
C 794 3666 1056 3584 1325 3584 
C 1920 3584 2246 3911 2432 4100 
C 2432 4157 2432 4192 2394 4192 
C 2387 4192 2374 4192 2323 4163 
C 2099 4058 1837 3973 1517 3973 
C 1325 3973 1037 3999 723 4139 
C 653 4171 640 4171 634 4171 
C 602 4171 595 4164 595 4037 
L 595 2203 
C 595 2089 595 2057 659 2057 
C 691 2057 704 2070 736 2114 
C 941 2401 1222 2522 1542 2522 
C 1766 2522 2246 2382 2246 1289 
C 2246 1085 2246 715 2054 421 
C 1894 159 1645 25 1370 25 
C 947 25 518 320 403 814 
C 429 807 480 795 506 795 
C 589 795 749 840 749 1038 
C 749 1210 627 1280 506 1280 
C 358 1280 262 1190 262 1011 
C 262 454 704 -128 1382 -128 
C 2042 -128 2669 440 2669 1264 
C 2669 2030 2170 2624 1549 2624 
C 1222 2624 947 2503 730 2274 
L 730 3692 
z
" id="CMR17-35" transform="scale(0.015625)"/>
       </defs>
       <use transform="scale(0.996264)" xlink:href="#CMSY10-0"/>
       <use transform="translate(77.487468 0)scale(0.996264)" xlink:href="#CMR17-30"/>
       <use transform="translate(123.177945 0)scale(0.996264)" xlink:href="#CMMI12-3a"/>
       <use transform="translate(150.275122 0)scale(0.996264)" xlink:href="#CMR17-35"/>
      </g>
     </g>
    </g>
    <g id="ytick_3">
     <g id="line2d_11">
      <path clip-path="url(#p983736b0a3)" d="M 56.403827 130.745455 
L 310.040191 130.745455 
" style="fill:none;stroke:#b0b0b0;stroke-linecap:square;stroke-width:0.8;"/>
     </g>
     <g id="line2d_12">
      <g>
       <use style="stroke:#000000;stroke-width:0.8;" x="56.403827" xlink:href="#m6afffb2b7a" y="130.745455"/>
      </g>
     </g>
     <g id="text_7">
      <!-- $\mathdefault{0.0}$ -->
      <g transform="translate(34.446186 134.896544)scale(0.12 -0.12)">
       <use transform="scale(0.996264)" xlink:href="#CMR17-30"/>
       <use transform="translate(45.690477 0)scale(0.996264)" xlink:href="#CMMI12-3a"/>
       <use transform="translate(72.787654 0)scale(0.996264)" xlink:href="#CMR17-30"/>
      </g>
     </g>
    </g>
    <g id="ytick_4">
     <g id="line2d_13">
      <path clip-path="url(#p983736b0a3)" d="M 56.403827 83.227972 
L 310.040191 83.227972 
" style="fill:none;stroke:#b0b0b0;stroke-linecap:square;stroke-width:0.8;"/>
     </g>
     <g id="line2d_14">
      <g>
       <use style="stroke:#000000;stroke-width:0.8;" x="56.403827" xlink:href="#m6afffb2b7a" y="83.227972"/>
      </g>
     </g>
     <g id="text_8">
      <!-- $\mathdefault{0.5}$ -->
      <g transform="translate(34.446186 87.379062)scale(0.12 -0.12)">
       <use transform="scale(0.996264)" xlink:href="#CMR17-30"/>
       <use transform="translate(45.690477 0)scale(0.996264)" xlink:href="#CMMI12-3a"/>
       <use transform="translate(72.787654 0)scale(0.996264)" xlink:href="#CMR17-35"/>
      </g>
     </g>
    </g>
    <g id="ytick_5">
     <g id="line2d_15">
      <path clip-path="url(#p983736b0a3)" d="M 56.403827 35.71049 
L 310.040191 35.71049 
" style="fill:none;stroke:#b0b0b0;stroke-linecap:square;stroke-width:0.8;"/>
     </g>
     <g id="line2d_16">
      <g>
       <use style="stroke:#000000;stroke-width:0.8;" x="56.403827" xlink:href="#m6afffb2b7a" y="35.71049"/>
      </g>
     </g>
     <g id="text_9">
      <!-- $\mathdefault{1.0}$ -->
      <g transform="translate(34.446186 39.861579)scale(0.12 -0.12)">
       <use transform="scale(0.996264)" xlink:href="#CMR17-31"/>
       <use transform="translate(45.690477 0)scale(0.996264)" xlink:href="#CMMI12-3a"/>
       <use transform="translate(72.787654 0)scale(0.996264)" xlink:href="#CMR17-30"/>
      </g>
     </g>
    </g>
    <g id="text_10">
     <!-- $h(t)$ -->
     <g transform="translate(17.660772 142.453168)rotate(-90)scale(0.14 -0.14)">
      <defs>
       <path d="M 1798 4257 
C 1805 4283 1818 4321 1818 4352 
C 1818 4416 1754 4416 1741 4416 
C 1734 4416 1421 4388 1389 4380 
C 1280 4373 1184 4358 1069 4358 
C 909 4345 864 4339 864 4224 
C 864 4160 915 4160 1005 4160 
C 1318 4160 1325 4103 1325 4040 
C 1325 4002 1312 3951 1306 3932 
L 378 248 
C 352 152 352 140 352 101 
C 352 -38 461 -64 525 -64 
C 634 -64 717 19 749 89 
L 1037 1245 
C 1069 1386 1107 1520 1139 1660 
C 1210 1929 1210 1935 1331 2120 
C 1453 2305 1741 2689 2234 2689 
C 2490 2689 2579 2497 2579 2242 
C 2579 1884 2330 1188 2189 805 
C 2131 651 2099 568 2099 453 
C 2099 166 2298 -64 2605 -64 
C 3200 -64 3424 875 3424 913 
C 3424 945 3398 971 3360 971 
C 3302 971 3296 952 3264 843 
C 3117 332 2880 64 2624 64 
C 2560 64 2458 64 2458 269 
C 2458 436 2534 640 2560 710 
C 2675 1018 2963 1773 2963 2145 
C 2963 2528 2739 2816 2253 2816 
C 1888 2816 1568 2644 1306 2312 
L 1798 4257 
z
" id="CMMI12-68" transform="scale(0.015625)"/>
       <path d="M 1958 -1561 
C 1958 -1555 1958 -1542 1939 -1523 
C 1645 -1224 858 -407 858 1581 
C 858 3569 1632 4379 1946 4697 
C 1946 4704 1958 4717 1958 4736 
C 1958 4755 1939 4768 1914 4768 
C 1843 4768 1299 4296 986 3594 
C 666 2887 576 2199 576 1588 
C 576 1128 621 351 1005 -471 
C 1312 -1135 1837 -1600 1914 -1600 
C 1946 -1600 1958 -1587 1958 -1561 
z
" id="CMR17-28" transform="scale(0.015625)"/>
       <path d="M 1683 1581 
C 1683 2040 1638 2817 1254 3639 
C 947 4303 422 4768 346 4768 
C 326 4768 301 4761 301 4729 
C 301 4717 307 4710 314 4697 
C 621 4378 1402 3568 1402 1584 
C 1402 -407 627 -1217 314 -1537 
C 307 -1549 301 -1556 301 -1568 
C 301 -1600 326 -1600 346 -1600 
C 416 -1600 960 -1128 1274 -426 
C 1594 281 1683 969 1683 1581 
z
" id="CMR17-29" transform="scale(0.015625)"/>
      </defs>
      <use transform="scale(0.996264)" xlink:href="#CMMI12-68"/>
      <use transform="translate(56.154624 0)scale(0.996264)" xlink:href="#CMR17-28"/>
      <use transform="translate(91.435392 0)scale(0.996264)" xlink:href="#CMMI12-74"/>
      <use transform="translate(126.661722 0)scale(0.996264)" xlink:href="#CMR17-29"/>
     </g>
    </g>
   </g>
   <g id="line2d_17">
    <path clip-path="url(#p983736b0a3)" d="M 67.932753 130.745455 
L 70.238538 130.745455 
L 72.544323 130.745455 
L 74.850108 130.745455 
L 77.155893 130.745455 
L 79.461679 130.745455 
L 81.767464 130.745455 
L 84.073249 130.745455 
L 86.379034 130.745455 
L 88.684819 130.745455 
L 90.990604 130.745455 
L 93.296389 130.745455 
L 95.602174 130.745455 
L 97.90796 130.745455 
L 100.213745 130.745455 
L 102.51953 130.745455 
L 104.825315 130.745455 
L 107.1311 130.745455 
L 109.436885 130.745455 
L 111.74267 130.745455 
L 114.048455 130.745455 
L 116.354241 130.745455 
L 118.660026 130.745455 
L 120.965811 130.745455 
L 123.271596 130.745455 
L 125.577381 130.745455 
L 127.883166 130.745455 
L 130.188951 130.745455 
L 132.494736 130.745455 
L 134.800522 130.745455 
L 137.106307 130.745455 
L 139.412092 130.745455 
L 141.717877 130.745455 
L 144.023662 130.745455 
L 146.329447 130.745455 
L 148.635232 130.745455 
L 150.941017 130.745455 
L 153.246803 35.71049 
L 155.552588 35.71049 
L 157.858373 35.71049 
L 160.164158 35.71049 
L 162.469943 35.71049 
L 164.775728 35.71049 
L 167.081513 35.71049 
L 169.387298 35.71049 
L 171.693084 35.71049 
L 173.998869 35.71049 
L 176.304654 35.71049 
L 178.610439 35.71049 
L 180.916224 35.71049 
L 183.222009 35.71049 
L 185.527794 35.71049 
L 187.833579 35.71049 
L 190.139365 35.71049 
L 192.44515 35.71049 
L 194.750935 35.71049 
L 197.05672 35.71049 
L 199.362505 35.71049 
L 201.66829 35.71049 
L 203.974075 35.71049 
L 206.27986 35.71049 
L 208.585646 35.71049 
L 210.891431 35.71049 
L 213.197216 35.71049 
L 215.503001 130.745455 
L 217.808786 130.745455 
L 220.114571 130.745455 
L 222.420356 130.745455 
L 224.726141 130.745455 
L 227.031926 130.745455 
L 229.337712 130.745455 
L 231.643497 130.745455 
L 233.949282 130.745455 
L 236.255067 130.745455 
L 238.560852 130.745455 
L 240.866637 130.745455 
L 243.172422 130.745455 
L 245.478207 130.745455 
L 247.783993 130.745455 
L 250.089778 130.745455 
L 252.395563 130.745455 
L 254.701348 130.745455 
L 257.007133 130.745455 
L 259.312918 130.745455 
L 261.618703 130.745455 
L 263.924488 130.745455 
L 266.230274 130.745455 
L 268.536059 130.745455 
L 270.841844 130.745455 
L 273.147629 130.745455 
L 275.453414 130.745455 
L 277.759199 130.745455 
L 280.064984 130.745455 
L 282.370769 130.745455 
L 284.676555 130.745455 
L 286.98234 130.745455 
L 289.288125 130.745455 
L 291.59391 130.745455 
L 293.899695 130.745455 
L 296.20548 130.745455 
L 298.511265 130.745455 
" style="fill:none;stroke:#1f77b4;stroke-linecap:square;stroke-width:1.5;"/>
   </g>
   <g id="patch_3">
    <path d="M 56.403827 254.290909 
L 56.403827 7.2 
" style="fill:none;stroke:#000000;stroke-linecap:square;stroke-linejoin:miter;stroke-width:0.8;"/>
   </g>
   <g id="patch_4">
    <path d="M 310.040191 254.290909 
L 310.040191 7.2 
" style="fill:none;stroke:#000000;stroke-linecap:square;stroke-linejoin:miter;stroke-width:0.8;"/>
   </g>
   <g id="patch_5">
    <path d="M 56.403827 254.290909 
L 310.040191 254.290909 
" style="fill:none;stroke:#000000;stroke-linecap:square;stroke-linejoin:miter;stroke-width:0.8;"/>
   </g>
   <g id="patch_6">
    <path d="M 56.403827 7.2 
L 310.040191 7.2 
" style="fill:none;stroke:#000000;stroke-linecap:square;stroke-linejoin:miter;stroke-width:0.8;"/>
   </g>
  </g>
  <g id="axes_2">
   <g id="patch_7">
    <path d="M 360.767464 254.290909 
L 614.403827 254.290909 
L 614.403827 7.2 
L 360.767464 7.2 
z
" style="fill:none;"/>
   </g>
   <g id="matplotlib.axis_3">
    <g id="xtick_4">
     <g id="line2d_18">
      <path clip-path="url(#p164cdcf527)" d="M 423.536059 254.290909 
L 423.536059 7.2 
" style="fill:none;stroke:#b0b0b0;stroke-linecap:square;stroke-width:0.8;"/>
     </g>
     <g id="line2d_19">
      <g>
       <use style="stroke:#000000;stroke-width:0.8;" x="423.536059" xlink:href="#mc1c2fab3e4" y="254.290909"/>
      </g>
     </g>
     <g id="text_11">
      <!-- $-d$ -->
      <g transform="translate(415.845469 269.593089)scale(0.12 -0.12)">
       <use transform="scale(0.996264)" xlink:href="#CMSY10-0"/>
       <use transform="translate(77.487468 0)scale(0.996264)" xlink:href="#CMMI12-64"/>
      </g>
     </g>
    </g>
    <g id="xtick_5">
     <g id="line2d_20">
      <path clip-path="url(#p164cdcf527)" d="M 487.585646 254.290909 
L 487.585646 7.2 
" style="fill:none;stroke:#b0b0b0;stroke-linecap:square;stroke-width:0.8;"/>
     </g>
     <g id="line2d_21">
      <g>
       <use style="stroke:#000000;stroke-width:0.8;" x="487.585646" xlink:href="#mc1c2fab3e4" y="254.290909"/>
      </g>
     </g>
     <g id="text_12">
      <!-- $0$ -->
      <g transform="translate(484.65915 269.593089)scale(0.12 -0.12)">
       <use transform="scale(0.996264)" xlink:href="#CMR17-30"/>
      </g>
     </g>
    </g>
    <g id="xtick_6">
     <g id="line2d_22">
      <path clip-path="url(#p164cdcf527)" d="M 551.635232 254.290909 
L 551.635232 7.2 
" style="fill:none;stroke:#b0b0b0;stroke-linecap:square;stroke-width:0.8;"/>
     </g>
     <g id="line2d_23">
      <g>
       <use style="stroke:#000000;stroke-width:0.8;" x="551.635232" xlink:href="#mc1c2fab3e4" y="254.290909"/>
      </g>
     </g>
     <g id="text_13">
      <!-- $d$ -->
      <g transform="translate(548.593888 269.593089)scale(0.12 -0.12)">
       <use transform="scale(0.996264)" xlink:href="#CMMI12-64"/>
      </g>
     </g>
    </g>
    <g id="text_14">
     <!-- $t$ -->
     <g transform="translate(485.119802 285.603561)scale(0.14 -0.14)">
      <use transform="scale(0.996264)" xlink:href="#CMMI12-74"/>
     </g>
    </g>
   </g>
   <g id="matplotlib.axis_4">
    <g id="ytick_6">
     <g id="line2d_24">
      <path clip-path="url(#p164cdcf527)" d="M 360.767464 225.78042 
L 614.403827 225.78042 
" style="fill:none;stroke:#b0b0b0;stroke-linecap:square;stroke-width:0.8;"/>
     </g>
     <g id="line2d_25">
      <g>
       <use style="stroke:#000000;stroke-width:0.8;" x="360.767464" xlink:href="#m6afffb2b7a" y="225.78042"/>
      </g>
     </g>
     <g id="text_15">
      <!-- $\mathdefault{−1.0}$ -->
      <g transform="translate(329.511333 229.931509)scale(0.12 -0.12)">
       <use transform="scale(0.996264)" xlink:href="#CMSY10-0"/>
       <use transform="translate(77.487468 0)scale(0.996264)" xlink:href="#CMR17-31"/>
       <use transform="translate(123.177945 0)scale(0.996264)" xlink:href="#CMMI12-3a"/>
       <use transform="translate(150.275122 0)scale(0.996264)" xlink:href="#CMR17-30"/>
      </g>
     </g>
    </g>
    <g id="ytick_7">
     <g id="line2d_26">
      <path clip-path="url(#p164cdcf527)" d="M 360.767464 178.262937 
L 614.403827 178.262937 
" style="fill:none;stroke:#b0b0b0;stroke-linecap:square;stroke-width:0.8;"/>
     </g>
     <g id="line2d_27">
      <g>
       <use style="stroke:#000000;stroke-width:0.8;" x="360.767464" xlink:href="#m6afffb2b7a" y="178.262937"/>
      </g>
     </g>
     <g id="text_16">
      <!-- $\mathdefault{−0.5}$ -->
      <g transform="translate(329.511333 182.414027)scale(0.12 -0.12)">
       <use transform="scale(0.996264)" xlink:href="#CMSY10-0"/>
       <use transform="translate(77.487468 0)scale(0.996264)" xlink:href="#CMR17-30"/>
       <use transform="translate(123.177945 0)scale(0.996264)" xlink:href="#CMMI12-3a"/>
       <use transform="translate(150.275122 0)scale(0.996264)" xlink:href="#CMR17-35"/>
      </g>
     </g>
    </g>
    <g id="ytick_8">
     <g id="line2d_28">
      <path clip-path="url(#p164cdcf527)" d="M 360.767464 130.745455 
L 614.403827 130.745455 
" style="fill:none;stroke:#b0b0b0;stroke-linecap:square;stroke-width:0.8;"/>
     </g>
     <g id="line2d_29">
      <g>
       <use style="stroke:#000000;stroke-width:0.8;" x="360.767464" xlink:href="#m6afffb2b7a" y="130.745455"/>
      </g>
     </g>
     <g id="text_17">
      <!-- $\mathdefault{0.0}$ -->
      <g transform="translate(338.809822 134.896544)scale(0.12 -0.12)">
       <use transform="scale(0.996264)" xlink:href="#CMR17-30"/>
       <use transform="translate(45.690477 0)scale(0.996264)" xlink:href="#CMMI12-3a"/>
       <use transform="translate(72.787654 0)scale(0.996264)" xlink:href="#CMR17-30"/>
      </g>
     </g>
    </g>
    <g id="ytick_9">
     <g id="line2d_30">
      <path clip-path="url(#p164cdcf527)" d="M 360.767464 83.227972 
L 614.403827 83.227972 
" style="fill:none;stroke:#b0b0b0;stroke-linecap:square;stroke-width:0.8;"/>
     </g>
     <g id="line2d_31">
      <g>
       <use style="stroke:#000000;stroke-width:0.8;" x="360.767464" xlink:href="#m6afffb2b7a" y="83.227972"/>
      </g>
     </g>
     <g id="text_18">
      <!-- $\mathdefault{0.5}$ -->
      <g transform="translate(338.809822 87.379062)scale(0.12 -0.12)">
       <use transform="scale(0.996264)" xlink:href="#CMR17-30"/>
       <use transform="translate(45.690477 0)scale(0.996264)" xlink:href="#CMMI12-3a"/>
       <use transform="translate(72.787654 0)scale(0.996264)" xlink:href="#CMR17-35"/>
      </g>
     </g>
    </g>
    <g id="ytick_10">
     <g id="line2d_32">
      <path clip-path="url(#p164cdcf527)" d="M 360.767464 35.71049 
L 614.403827 35.71049 
" style="fill:none;stroke:#b0b0b0;stroke-linecap:square;stroke-width:0.8;"/>
     </g>
     <g id="line2d_33">
      <g>
       <use style="stroke:#000000;stroke-width:0.8;" x="360.767464" xlink:href="#m6afffb2b7a" y="35.71049"/>
      </g>
     </g>
     <g id="text_19">
      <!-- $\mathdefault{1.0}$ -->
      <g transform="translate(338.809822 39.861579)scale(0.12 -0.12)">
       <use transform="scale(0.996264)" xlink:href="#CMR17-31"/>
       <use transform="translate(45.690477 0)scale(0.996264)" xlink:href="#CMMI12-3a"/>
       <use transform="translate(72.787654 0)scale(0.996264)" xlink:href="#CMR17-30"/>
      </g>
     </g>
    </g>
    <g id="text_20">
     <!-- $u(t)$ -->
     <g transform="translate(322.024408 142.408764)rotate(-90)scale(0.14 -0.14)">
      <defs>
       <path d="M 2182 370 
C 2266 13 2573 -64 2726 -64 
C 2931 -64 3085 70 3187 287 
C 3296 517 3379 894 3379 913 
C 3379 945 3354 971 3315 971 
C 3258 971 3251 939 3226 843 
C 3110 402 2995 64 2739 64 
C 2547 64 2547 275 2547 358 
C 2547 505 2566 568 2630 837 
C 2675 1009 2720 1181 2758 1360 
L 3021 2401 
C 3066 2561 3066 2574 3066 2593 
C 3066 2689 2989 2753 2893 2753 
C 2707 2753 2662 2593 2624 2433 
C 2560 2184 2214 811 2170 588 
C 2163 588 1914 64 1446 64 
C 1114 64 1050 351 1050 588 
C 1050 952 1229 1462 1395 1890 
C 1472 2095 1504 2178 1504 2305 
C 1504 2580 1306 2816 998 2816 
C 410 2816 173 1890 173 1839 
C 173 1814 198 1782 243 1782 
C 301 1782 307 1807 333 1896 
C 486 2441 736 2682 979 2682 
C 1043 2682 1146 2682 1146 2478 
C 1146 2312 1075 2127 979 1884 
C 698 1124 666 881 666 690 
C 666 38 1158 -64 1421 -64 
C 1830 -64 2054 217 2182 370 
z
" id="CMMI12-75" transform="scale(0.015625)"/>
      </defs>
      <use transform="scale(0.996264)" xlink:href="#CMMI12-75"/>
      <use transform="translate(55.52033 0)scale(0.996264)" xlink:href="#CMR17-28"/>
      <use transform="translate(90.801097 0)scale(0.996264)" xlink:href="#CMMI12-74"/>
      <use transform="translate(126.027428 0)scale(0.996264)" xlink:href="#CMR17-29"/>
     </g>
    </g>
   </g>
   <g id="line2d_34">
    <path clip-path="url(#p164cdcf527)" d="M 372.296389 131.563222 
L 374.602174 131.619945 
L 376.90796 131.664061 
L 379.213745 131.690908 
L 381.51953 131.695218 
L 383.825315 131.671143 
L 386.1311 131.612301 
L 388.436885 131.511834 
L 390.74267 131.362478 
L 393.048455 131.156646 
L 395.354241 130.886524 
L 397.660026 130.544179 
L 399.965811 130.121666 
L 402.271596 129.611153 
L 404.577381 129.005045 
L 406.883166 128.24623 
L 409.188951 127.376689 
L 411.494736 126.389559 
L 413.800522 125.278779 
L 416.106307 124.039275 
L 418.412092 122.66713 
L 420.717877 121.159751 
L 423.023662 119.51602 
L 425.329447 117.736422 
L 427.635232 115.823159 
L 429.941017 113.780235 
L 432.246803 111.613514 
L 434.552588 109.330753 
L 436.858373 106.941602 
L 439.164158 104.457571 
L 441.469943 101.891969 
L 443.775728 99.25981 
L 446.081513 96.577684 
L 448.387298 93.863606 
L 450.693084 91.136829 
L 452.998869 88.417638 
L 455.304654 85.727118 
L 457.610439 83.086902 
L 459.916224 80.518911 
L 462.222009 78.045071 
L 464.527794 75.687037 
L 466.833579 73.465901 
L 469.139365 71.401915 
L 471.44515 69.514214 
L 473.750935 67.820552 
L 476.05672 66.337059 
L 478.362505 65.078009 
L 480.66829 64.055624 
L 482.974075 63.279898 
L 485.27986 62.758455 
L 487.585646 62.496438 
L 489.891431 62.496438 
L 492.197216 62.758455 
L 494.503001 63.279898 
L 496.808786 64.055624 
L 499.114571 65.078009 
L 501.420356 66.337059 
L 503.726141 67.820552 
L 506.031926 69.514214 
L 508.337712 71.401915 
L 510.643497 73.465901 
L 512.949282 75.687037 
L 515.255067 78.045071 
L 517.560852 80.518911 
L 519.866637 83.086902 
L 522.172422 85.727118 
L 524.478207 88.417638 
L 526.783993 91.136829 
L 529.089778 93.863606 
L 531.395563 96.577684 
L 533.701348 99.25981 
L 536.007133 101.891969 
L 538.312918 104.457571 
L 540.618703 106.941602 
L 542.924488 109.330753 
L 545.230274 111.613514 
L 547.536059 113.780235 
L 549.841844 115.823159 
L 552.147629 117.736422 
L 554.453414 119.51602 
L 556.759199 121.159751 
L 559.064984 122.66713 
L 561.370769 124.039275 
L 563.676555 125.278779 
L 565.98234 126.389559 
L 568.288125 127.376689 
L 570.59391 128.24623 
L 572.899695 129.005045 
L 575.20548 129.611153 
L 577.511265 130.121666 
L 579.81705 130.544179 
L 582.122836 130.886524 
L 584.428621 131.156646 
L 586.734406 131.362478 
L 589.040191 131.511834 
L 591.345976 131.612301 
L 593.651761 131.671143 
L 595.957546 131.695218 
L 598.263331 131.690908 
L 600.569117 131.664061 
L 602.874902 131.619945 
" style="fill:none;stroke:#1f77b4;stroke-linecap:square;stroke-width:1.5;"/>
   </g>
   <g id="line2d_35">
    <defs>
     <path d="M 0 3.75 
C 0.994512 3.75 1.948425 3.354876 2.65165 2.65165 
C 3.354876 1.948425 3.75 0.994512 3.75 0 
C 3.75 -0.994512 3.354876 -1.948425 2.65165 -2.65165 
C 1.948425 -3.354876 0.994512 -3.75 0 -3.75 
C -0.994512 -3.75 -1.948425 -3.354876 -2.65165 -2.65165 
C -3.354876 -1.948425 -3.75 -0.994512 -3.75 0 
C -3.75 0.994512 -3.354876 1.948425 -2.65165 2.65165 
C -1.948425 3.354876 -0.994512 3.75 0 3.75 
z
" id="m241f83363d" style="stroke:#1f77b4;"/>
    </defs>
    <g clip-path="url(#p164cdcf527)">
     <use style="fill:#1f77b4;stroke:#1f77b4;" x="487.585646" xlink:href="#m241f83363d" y="62.496438"/>
    </g>
   </g>
   <g id="patch_8">
    <path d="M 360.767464 254.290909 
L 360.767464 7.2 
" style="fill:none;stroke:#000000;stroke-linecap:square;stroke-linejoin:miter;stroke-width:0.8;"/>
   </g>
   <g id="patch_9">
    <path d="M 614.403827 254.290909 
L 614.403827 7.2 
" style="fill:none;stroke:#000000;stroke-linecap:square;stroke-linejoin:miter;stroke-width:0.8;"/>
   </g>
   <g id="patch_10">
    <path d="M 360.767464 254.290909 
L 614.403827 254.290909 
" style="fill:none;stroke:#000000;stroke-linecap:square;stroke-linejoin:miter;stroke-width:0.8;"/>
   </g>
   <g id="patch_11">
    <path d="M 360.767464 7.2 
L 614.403827 7.2 
" style="fill:none;stroke:#000000;stroke-linecap:square;stroke-linejoin:miter;stroke-width:0.8;"/>
   </g>
  </g>
  <g id="axes_3">
   <g id="patch_12">
    <path d="M 56.403827 550.8 
L 310.040191 550.8 
L 310.040191 303.709091 
L 56.403827 303.709091 
z
" style="fill:none;"/>
   </g>
   <g id="matplotlib.axis_5">
    <g id="xtick_7">
     <g id="line2d_36">
      <path clip-path="url(#p79d36a5d75)" d="M 119.172422 550.8 
L 119.172422 303.709091 
" style="fill:none;stroke:#b0b0b0;stroke-linecap:square;stroke-width:0.8;"/>
     </g>
     <g id="line2d_37">
      <g>
       <use style="stroke:#000000;stroke-width:0.8;" x="119.172422" xlink:href="#mc1c2fab3e4" y="550.8"/>
      </g>
     </g>
     <g id="text_21">
      <!-- $-d$ -->
      <g transform="translate(111.481833 566.10218)scale(0.12 -0.12)">
       <use transform="scale(0.996264)" xlink:href="#CMSY10-0"/>
       <use transform="translate(77.487468 0)scale(0.996264)" xlink:href="#CMMI12-64"/>
      </g>
     </g>
    </g>
    <g id="xtick_8">
     <g id="line2d_38">
      <path clip-path="url(#p79d36a5d75)" d="M 183.222009 550.8 
L 183.222009 303.709091 
" style="fill:none;stroke:#b0b0b0;stroke-linecap:square;stroke-width:0.8;"/>
     </g>
     <g id="line2d_39">
      <g>
       <use style="stroke:#000000;stroke-width:0.8;" x="183.222009" xlink:href="#mc1c2fab3e4" y="550.8"/>
      </g>
     </g>
     <g id="text_22">
      <!-- $0$ -->
      <g transform="translate(180.295514 566.10218)scale(0.12 -0.12)">
       <use transform="scale(0.996264)" xlink:href="#CMR17-30"/>
      </g>
     </g>
    </g>
    <g id="xtick_9">
     <g id="line2d_40">
      <path clip-path="url(#p79d36a5d75)" d="M 247.271596 550.8 
L 247.271596 303.709091 
" style="fill:none;stroke:#b0b0b0;stroke-linecap:square;stroke-width:0.8;"/>
     </g>
     <g id="line2d_41">
      <g>
       <use style="stroke:#000000;stroke-width:0.8;" x="247.271596" xlink:href="#mc1c2fab3e4" y="550.8"/>
      </g>
     </g>
     <g id="text_23">
      <!-- $d$ -->
      <g transform="translate(244.230251 566.10218)scale(0.12 -0.12)">
       <use transform="scale(0.996264)" xlink:href="#CMMI12-64"/>
      </g>
     </g>
    </g>
    <g id="text_24">
     <!-- $t$ -->
     <g transform="translate(180.756166 582.112652)scale(0.14 -0.14)">
      <use transform="scale(0.996264)" xlink:href="#CMMI12-74"/>
     </g>
    </g>
   </g>
   <g id="matplotlib.axis_6">
    <g id="ytick_11">
     <g id="line2d_42">
      <path clip-path="url(#p79d36a5d75)" d="M 56.403827 522.28951 
L 310.040191 522.28951 
" style="fill:none;stroke:#b0b0b0;stroke-linecap:square;stroke-width:0.8;"/>
     </g>
     <g id="line2d_43">
      <g>
       <use style="stroke:#000000;stroke-width:0.8;" x="56.403827" xlink:href="#m6afffb2b7a" y="522.28951"/>
      </g>
     </g>
     <g id="text_25">
      <!-- $\mathdefault{−1.0}$ -->
      <g transform="translate(25.147696 526.4406)scale(0.12 -0.12)">
       <use transform="scale(0.996264)" xlink:href="#CMSY10-0"/>
       <use transform="translate(77.487468 0)scale(0.996264)" xlink:href="#CMR17-31"/>
       <use transform="translate(123.177945 0)scale(0.996264)" xlink:href="#CMMI12-3a"/>
       <use transform="translate(150.275122 0)scale(0.996264)" xlink:href="#CMR17-30"/>
      </g>
     </g>
    </g>
    <g id="ytick_12">
     <g id="line2d_44">
      <path clip-path="url(#p79d36a5d75)" d="M 56.403827 474.772028 
L 310.040191 474.772028 
" style="fill:none;stroke:#b0b0b0;stroke-linecap:square;stroke-width:0.8;"/>
     </g>
     <g id="line2d_45">
      <g>
       <use style="stroke:#000000;stroke-width:0.8;" x="56.403827" xlink:href="#m6afffb2b7a" y="474.772028"/>
      </g>
     </g>
     <g id="text_26">
      <!-- $\mathdefault{−0.5}$ -->
      <g transform="translate(25.147696 478.923118)scale(0.12 -0.12)">
       <use transform="scale(0.996264)" xlink:href="#CMSY10-0"/>
       <use transform="translate(77.487468 0)scale(0.996264)" xlink:href="#CMR17-30"/>
       <use transform="translate(123.177945 0)scale(0.996264)" xlink:href="#CMMI12-3a"/>
       <use transform="translate(150.275122 0)scale(0.996264)" xlink:href="#CMR17-35"/>
      </g>
     </g>
    </g>
    <g id="ytick_13">
     <g id="line2d_46">
      <path clip-path="url(#p79d36a5d75)" d="M 56.403827 427.254545 
L 310.040191 427.254545 
" style="fill:none;stroke:#b0b0b0;stroke-linecap:square;stroke-width:0.8;"/>
     </g>
     <g id="line2d_47">
      <g>
       <use style="stroke:#000000;stroke-width:0.8;" x="56.403827" xlink:href="#m6afffb2b7a" y="427.254545"/>
      </g>
     </g>
     <g id="text_27">
      <!-- $\mathdefault{0.0}$ -->
      <g transform="translate(34.446186 431.405635)scale(0.12 -0.12)">
       <use transform="scale(0.996264)" xlink:href="#CMR17-30"/>
       <use transform="translate(45.690477 0)scale(0.996264)" xlink:href="#CMMI12-3a"/>
       <use transform="translate(72.787654 0)scale(0.996264)" xlink:href="#CMR17-30"/>
      </g>
     </g>
    </g>
    <g id="ytick_14">
     <g id="line2d_48">
      <path clip-path="url(#p79d36a5d75)" d="M 56.403827 379.737063 
L 310.040191 379.737063 
" style="fill:none;stroke:#b0b0b0;stroke-linecap:square;stroke-width:0.8;"/>
     </g>
     <g id="line2d_49">
      <g>
       <use style="stroke:#000000;stroke-width:0.8;" x="56.403827" xlink:href="#m6afffb2b7a" y="379.737063"/>
      </g>
     </g>
     <g id="text_28">
      <!-- $\mathdefault{0.5}$ -->
      <g transform="translate(34.446186 383.888153)scale(0.12 -0.12)">
       <use transform="scale(0.996264)" xlink:href="#CMR17-30"/>
       <use transform="translate(45.690477 0)scale(0.996264)" xlink:href="#CMMI12-3a"/>
       <use transform="translate(72.787654 0)scale(0.996264)" xlink:href="#CMR17-35"/>
      </g>
     </g>
    </g>
    <g id="ytick_15">
     <g id="line2d_50">
      <path clip-path="url(#p79d36a5d75)" d="M 56.403827 332.21958 
L 310.040191 332.21958 
" style="fill:none;stroke:#b0b0b0;stroke-linecap:square;stroke-width:0.8;"/>
     </g>
     <g id="line2d_51">
      <g>
       <use style="stroke:#000000;stroke-width:0.8;" x="56.403827" xlink:href="#m6afffb2b7a" y="332.21958"/>
      </g>
     </g>
     <g id="text_29">
      <!-- $\mathdefault{1.0}$ -->
      <g transform="translate(34.446186 336.37067)scale(0.12 -0.12)">
       <use transform="scale(0.996264)" xlink:href="#CMR17-31"/>
       <use transform="translate(45.690477 0)scale(0.996264)" xlink:href="#CMMI12-3a"/>
       <use transform="translate(72.787654 0)scale(0.996264)" xlink:href="#CMR17-30"/>
      </g>
     </g>
    </g>
    <g id="text_30">
     <!-- $x(t)$ -->
     <g transform="translate(17.660772 438.911819)rotate(-90)scale(0.14 -0.14)">
      <defs>
       <path d="M 3034 2606 
C 2829 2567 2752 2414 2752 2293 
C 2752 2139 2874 2088 2963 2088 
C 3155 2088 3290 2254 3290 2427 
C 3290 2695 2982 2816 2714 2816 
C 2323 2816 2106 2433 2048 2312 
C 1901 2816 1504 2816 1389 2816 
C 736 2816 390 1980 390 1839 
C 390 1814 416 1782 461 1782 
C 512 1782 525 1820 538 1846 
C 755 2555 1184 2689 1370 2689 
C 1658 2689 1715 2420 1715 2267 
C 1715 2127 1677 1980 1600 1673 
L 1382 798 
C 1286 415 1101 64 762 64 
C 730 64 570 64 435 147 
C 666 192 717 383 717 460 
C 717 588 621 664 499 664 
C 346 664 179 530 179 326 
C 179 57 480 -64 755 -64 
C 1062 -64 1280 179 1414 441 
C 1517 64 1837 -64 2074 -64 
C 2726 -64 3072 773 3072 913 
C 3072 945 3046 971 3008 971 
C 2950 971 2944 939 2925 888 
C 2752 326 2381 64 2093 64 
C 1869 64 1747 230 1747 492 
C 1747 632 1773 734 1875 1156 
L 2099 2024 
C 2195 2408 2413 2689 2707 2689 
C 2720 2689 2899 2689 3034 2606 
z
" id="CMMI12-78" transform="scale(0.015625)"/>
      </defs>
      <use transform="scale(0.996264)" xlink:href="#CMMI12-78"/>
      <use transform="translate(55.43406 0)scale(0.996264)" xlink:href="#CMR17-28"/>
      <use transform="translate(90.714827 0)scale(0.996264)" xlink:href="#CMMI12-74"/>
      <use transform="translate(125.941158 0)scale(0.996264)" xlink:href="#CMR17-29"/>
     </g>
    </g>
   </g>
   <g id="line2d_52">
    <path clip-path="url(#p79d36a5d75)" d="M 67.932753 332.21958 
L 70.238538 332.21958 
L 72.544323 332.21958 
L 74.850108 332.21958 
L 77.155893 332.21958 
L 79.461679 332.21958 
L 81.767464 332.21958 
L 84.073249 332.21958 
L 86.379034 332.21958 
L 88.684819 522.28951 
L 90.990604 522.28951 
L 93.296389 522.28951 
L 95.602174 522.28951 
L 97.90796 522.28951 
L 100.213745 522.28951 
L 102.51953 522.28951 
L 104.825315 522.28951 
L 107.1311 522.28951 
L 109.436885 522.28951 
L 111.74267 522.28951 
L 114.048455 522.28951 
L 116.354241 522.28951 
L 118.660026 522.28951 
L 120.965811 522.28951 
L 123.271596 522.28951 
L 125.577381 522.28951 
L 127.883166 522.28951 
L 130.188951 522.28951 
L 132.494736 522.28951 
L 134.800522 522.28951 
L 137.106307 522.28951 
L 139.412092 522.28951 
L 141.717877 522.28951 
L 144.023662 522.28951 
L 146.329447 522.28951 
L 148.635232 522.28951 
L 150.941017 522.28951 
L 153.246803 332.21958 
L 155.552588 332.21958 
L 157.858373 332.21958 
L 160.164158 332.21958 
L 162.469943 332.21958 
L 164.775728 332.21958 
L 167.081513 332.21958 
L 169.387298 332.21958 
L 171.693084 332.21958 
L 173.998869 332.21958 
L 176.304654 332.21958 
L 178.610439 332.21958 
L 180.916224 332.21958 
L 183.222009 332.21958 
L 185.527794 332.21958 
L 187.833579 332.21958 
L 190.139365 332.21958 
L 192.44515 332.21958 
L 194.750935 332.21958 
L 197.05672 332.21958 
L 199.362505 332.21958 
L 201.66829 332.21958 
L 203.974075 332.21958 
L 206.27986 332.21958 
L 208.585646 332.21958 
L 210.891431 332.21958 
L 213.197216 332.21958 
L 215.503001 522.28951 
L 217.808786 522.28951 
L 220.114571 522.28951 
L 222.420356 522.28951 
L 224.726141 522.28951 
L 227.031926 522.28951 
L 229.337712 522.28951 
L 231.643497 522.28951 
L 233.949282 522.28951 
L 236.255067 522.28951 
L 238.560852 522.28951 
L 240.866637 522.28951 
L 243.172422 522.28951 
L 245.478207 522.28951 
L 247.783993 522.28951 
L 250.089778 522.28951 
L 252.395563 522.28951 
L 254.701348 522.28951 
L 257.007133 522.28951 
L 259.312918 522.28951 
L 261.618703 522.28951 
L 263.924488 522.28951 
L 266.230274 522.28951 
L 268.536059 522.28951 
L 270.841844 522.28951 
L 273.147629 522.28951 
L 275.453414 522.28951 
L 277.759199 522.28951 
L 280.064984 522.28951 
L 282.370769 522.28951 
L 284.676555 522.28951 
L 286.98234 522.28951 
L 289.288125 522.28951 
L 291.59391 522.28951 
L 293.899695 522.28951 
L 296.20548 522.28951 
L 298.511265 522.28951 
" style="fill:none;stroke:#ff7f0e;stroke-linecap:square;stroke-width:1.5;"/>
   </g>
   <g id="patch_13">
    <path d="M 56.403827 550.8 
L 56.403827 303.709091 
" style="fill:none;stroke:#000000;stroke-linecap:square;stroke-linejoin:miter;stroke-width:0.8;"/>
   </g>
   <g id="patch_14">
    <path d="M 310.040191 550.8 
L 310.040191 303.709091 
" style="fill:none;stroke:#000000;stroke-linecap:square;stroke-linejoin:miter;stroke-width:0.8;"/>
   </g>
   <g id="patch_15">
    <path d="M 56.403827 550.8 
L 310.040191 550.8 
" style="fill:none;stroke:#000000;stroke-linecap:square;stroke-linejoin:miter;stroke-width:0.8;"/>
   </g>
   <g id="patch_16">
    <path d="M 56.403827 303.709091 
L 310.040191 303.709091 
" style="fill:none;stroke:#000000;stroke-linecap:square;stroke-linejoin:miter;stroke-width:0.8;"/>
   </g>
  </g>
  <g id="axes_4">
   <g id="patch_17">
    <path d="M 360.767464 550.8 
L 614.403827 550.8 
L 614.403827 303.709091 
L 360.767464 303.709091 
z
" style="fill:none;"/>
   </g>
   <g id="matplotlib.axis_7">
    <g id="xtick_10">
     <g id="line2d_53">
      <path clip-path="url(#p7e55aae531)" d="M 423.536059 550.8 
L 423.536059 303.709091 
" style="fill:none;stroke:#b0b0b0;stroke-linecap:square;stroke-width:0.8;"/>
     </g>
     <g id="line2d_54">
      <g>
       <use style="stroke:#000000;stroke-width:0.8;" x="423.536059" xlink:href="#mc1c2fab3e4" y="550.8"/>
      </g>
     </g>
     <g id="text_31">
      <!-- $-d$ -->
      <g transform="translate(415.845469 566.10218)scale(0.12 -0.12)">
       <use transform="scale(0.996264)" xlink:href="#CMSY10-0"/>
       <use transform="translate(77.487468 0)scale(0.996264)" xlink:href="#CMMI12-64"/>
      </g>
     </g>
    </g>
    <g id="xtick_11">
     <g id="line2d_55">
      <path clip-path="url(#p7e55aae531)" d="M 487.585646 550.8 
L 487.585646 303.709091 
" style="fill:none;stroke:#b0b0b0;stroke-linecap:square;stroke-width:0.8;"/>
     </g>
     <g id="line2d_56">
      <g>
       <use style="stroke:#000000;stroke-width:0.8;" x="487.585646" xlink:href="#mc1c2fab3e4" y="550.8"/>
      </g>
     </g>
     <g id="text_32">
      <!-- $0$ -->
      <g transform="translate(484.65915 566.10218)scale(0.12 -0.12)">
       <use transform="scale(0.996264)" xlink:href="#CMR17-30"/>
      </g>
     </g>
    </g>
    <g id="xtick_12">
     <g id="line2d_57">
      <path clip-path="url(#p7e55aae531)" d="M 551.635232 550.8 
L 551.635232 303.709091 
" style="fill:none;stroke:#b0b0b0;stroke-linecap:square;stroke-width:0.8;"/>
     </g>
     <g id="line2d_58">
      <g>
       <use style="stroke:#000000;stroke-width:0.8;" x="551.635232" xlink:href="#mc1c2fab3e4" y="550.8"/>
      </g>
     </g>
     <g id="text_33">
      <!-- $d$ -->
      <g transform="translate(548.593888 566.10218)scale(0.12 -0.12)">
       <use transform="scale(0.996264)" xlink:href="#CMMI12-64"/>
      </g>
     </g>
    </g>
    <g id="text_34">
     <!-- $t$ -->
     <g transform="translate(485.119802 582.112652)scale(0.14 -0.14)">
      <use transform="scale(0.996264)" xlink:href="#CMMI12-74"/>
     </g>
    </g>
   </g>
   <g id="matplotlib.axis_8">
    <g id="ytick_16">
     <g id="line2d_59">
      <path clip-path="url(#p7e55aae531)" d="M 360.767464 522.28951 
L 614.403827 522.28951 
" style="fill:none;stroke:#b0b0b0;stroke-linecap:square;stroke-width:0.8;"/>
     </g>
     <g id="line2d_60">
      <g>
       <use style="stroke:#000000;stroke-width:0.8;" x="360.767464" xlink:href="#m6afffb2b7a" y="522.28951"/>
      </g>
     </g>
     <g id="text_35">
      <!-- $\mathdefault{−1.0}$ -->
      <g transform="translate(329.511333 526.4406)scale(0.12 -0.12)">
       <use transform="scale(0.996264)" xlink:href="#CMSY10-0"/>
       <use transform="translate(77.487468 0)scale(0.996264)" xlink:href="#CMR17-31"/>
       <use transform="translate(123.177945 0)scale(0.996264)" xlink:href="#CMMI12-3a"/>
       <use transform="translate(150.275122 0)scale(0.996264)" xlink:href="#CMR17-30"/>
      </g>
     </g>
    </g>
    <g id="ytick_17">
     <g id="line2d_61">
      <path clip-path="url(#p7e55aae531)" d="M 360.767464 474.772028 
L 614.403827 474.772028 
" style="fill:none;stroke:#b0b0b0;stroke-linecap:square;stroke-width:0.8;"/>
     </g>
     <g id="line2d_62">
      <g>
       <use style="stroke:#000000;stroke-width:0.8;" x="360.767464" xlink:href="#m6afffb2b7a" y="474.772028"/>
      </g>
     </g>
     <g id="text_36">
      <!-- $\mathdefault{−0.5}$ -->
      <g transform="translate(329.511333 478.923118)scale(0.12 -0.12)">
       <use transform="scale(0.996264)" xlink:href="#CMSY10-0"/>
       <use transform="translate(77.487468 0)scale(0.996264)" xlink:href="#CMR17-30"/>
       <use transform="translate(123.177945 0)scale(0.996264)" xlink:href="#CMMI12-3a"/>
       <use transform="translate(150.275122 0)scale(0.996264)" xlink:href="#CMR17-35"/>
      </g>
     </g>
    </g>
    <g id="ytick_18">
     <g id="line2d_63">
      <path clip-path="url(#p7e55aae531)" d="M 360.767464 427.254545 
L 614.403827 427.254545 
" style="fill:none;stroke:#b0b0b0;stroke-linecap:square;stroke-width:0.8;"/>
     </g>
     <g id="line2d_64">
      <g>
       <use style="stroke:#000000;stroke-width:0.8;" x="360.767464" xlink:href="#m6afffb2b7a" y="427.254545"/>
      </g>
     </g>
     <g id="text_37">
      <!-- $\mathdefault{0.0}$ -->
      <g transform="translate(338.809822 431.405635)scale(0.12 -0.12)">
       <use transform="scale(0.996264)" xlink:href="#CMR17-30"/>
       <use transform="translate(45.690477 0)scale(0.996264)" xlink:href="#CMMI12-3a"/>
       <use transform="translate(72.787654 0)scale(0.996264)" xlink:href="#CMR17-30"/>
      </g>
     </g>
    </g>
    <g id="ytick_19">
     <g id="line2d_65">
      <path clip-path="url(#p7e55aae531)" d="M 360.767464 379.737063 
L 614.403827 379.737063 
" style="fill:none;stroke:#b0b0b0;stroke-linecap:square;stroke-width:0.8;"/>
     </g>
     <g id="line2d_66">
      <g>
       <use style="stroke:#000000;stroke-width:0.8;" x="360.767464" xlink:href="#m6afffb2b7a" y="379.737063"/>
      </g>
     </g>
     <g id="text_38">
      <!-- $\mathdefault{0.5}$ -->
      <g transform="translate(338.809822 383.888153)scale(0.12 -0.12)">
       <use transform="scale(0.996264)" xlink:href="#CMR17-30"/>
       <use transform="translate(45.690477 0)scale(0.996264)" xlink:href="#CMMI12-3a"/>
       <use transform="translate(72.787654 0)scale(0.996264)" xlink:href="#CMR17-35"/>
      </g>
     </g>
    </g>
    <g id="ytick_20">
     <g id="line2d_67">
      <path clip-path="url(#p7e55aae531)" d="M 360.767464 332.21958 
L 614.403827 332.21958 
" style="fill:none;stroke:#b0b0b0;stroke-linecap:square;stroke-width:0.8;"/>
     </g>
     <g id="line2d_68">
      <g>
       <use style="stroke:#000000;stroke-width:0.8;" x="360.767464" xlink:href="#m6afffb2b7a" y="332.21958"/>
      </g>
     </g>
     <g id="text_39">
      <!-- $\mathdefault{1.0}$ -->
      <g transform="translate(338.809822 336.37067)scale(0.12 -0.12)">
       <use transform="scale(0.996264)" xlink:href="#CMR17-31"/>
       <use transform="translate(45.690477 0)scale(0.996264)" xlink:href="#CMMI12-3a"/>
       <use transform="translate(72.787654 0)scale(0.996264)" xlink:href="#CMR17-30"/>
      </g>
     </g>
    </g>
    <g id="text_40">
     <!-- $z(t)$ -->
     <g transform="translate(322.024408 438.514293)rotate(-90)scale(0.14 -0.14)">
      <defs>
       <path d="M 813 486 
C 1088 803 1312 1004 1632 1296 
C 2016 1632 2182 1793 2272 1891 
C 2720 2338 2944 2713 2944 2764 
C 2944 2816 2893 2816 2880 2816 
C 2835 2816 2822 2793 2790 2750 
C 2630 2494 2477 2367 2310 2367 
C 2176 2367 2106 2421 1984 2565 
C 1850 2715 1741 2816 1555 2816 
C 1088 2816 806 2257 806 2128 
C 806 2108 813 2068 870 2068 
C 922 2068 928 2091 947 2133 
C 1056 2372 1363 2414 1485 2414 
C 1619 2414 1747 2376 1882 2327 
C 2125 2240 2227 2240 2291 2240 
C 2336 2240 2362 2240 2394 2246 
C 2182 1994 1837 1683 1549 1418 
L 902 816 
C 512 415 275 33 275 -12 
C 275 -51 307 -64 346 -64 
C 384 -64 390 -57 435 14 
C 538 163 742 384 979 384 
C 1114 384 1178 342 1306 193 
C 1427 61 1536 -64 1741 -64 
C 2368 -64 2726 732 2726 876 
C 2726 903 2720 942 2656 942 
C 2605 942 2598 917 2579 855 
C 2438 488 2061 338 1811 338 
C 1677 338 1549 376 1414 425 
C 1158 512 1088 512 1005 512 
C 941 512 870 512 813 486 
z
" id="CMMI12-7a" transform="scale(0.015625)"/>
      </defs>
      <use transform="scale(0.996264)" xlink:href="#CMMI12-7a"/>
      <use transform="translate(49.755145 0)scale(0.996264)" xlink:href="#CMR17-28"/>
      <use transform="translate(85.035913 0)scale(0.996264)" xlink:href="#CMMI12-74"/>
      <use transform="translate(120.262243 0)scale(0.996264)" xlink:href="#CMR17-29"/>
     </g>
    </g>
   </g>
   <g id="line2d_69">
    <path clip-path="url(#p7e55aae531)" d="M 372.296389 451.001674 
L 374.602174 453.498313 
L 376.90796 456.081184 
L 379.213745 458.73588 
L 381.51953 461.446391 
L 383.825315 464.195235 
L 386.1311 466.963637 
L 388.436885 469.731718 
L 390.74267 472.478714 
L 393.048455 475.183219 
L 395.354241 477.823435 
L 397.660026 480.377442 
L 399.965811 482.823476 
L 402.271596 485.140207 
L 404.577381 487.307019 
L 406.883166 489.304286 
L 409.188951 491.113636 
L 411.494736 492.718202 
L 413.800522 494.102857 
L 416.106307 495.254419 
L 418.412092 496.161841 
L 420.717877 496.816364 
L 423.023662 497.211643 
L 425.329447 497.343831 
L 427.635232 497.211643 
L 429.941017 496.816364 
L 432.246803 496.161841 
L 434.552588 495.254419 
L 436.858373 494.102857 
L 439.164158 492.718202 
L 441.469943 491.113636 
L 443.775728 489.304286 
L 446.081513 487.307019 
L 448.387298 485.140207 
L 450.693084 482.823476 
L 452.998869 480.377442 
L 455.304654 477.823435 
L 457.610439 475.183219 
L 459.916224 472.478714 
L 462.222009 469.731718 
L 464.527794 466.963637 
L 466.833579 464.195235 
L 469.139365 461.446391 
L 471.44515 458.73588 
L 473.750935 456.081184 
L 476.05672 453.498313 
L 478.362505 451.001674 
L 480.66829 448.603951 
L 482.974075 446.316028 
L 485.27986 444.146938 
L 487.585646 442.103847 
L 489.891431 440.192061 
L 492.197216 438.415068 
L 494.503001 436.774609 
L 496.808786 435.270768 
L 499.114571 433.902086 
L 501.420356 432.665703 
L 503.726141 431.557499 
L 506.031926 430.572269 
L 508.337712 429.703889 
L 510.643497 428.994955 
L 512.949282 428.388847 
L 515.255067 427.878334 
L 517.560852 427.455821 
L 519.866637 427.113476 
L 522.172422 426.843354 
L 524.478207 426.637522 
L 526.783993 426.488166 
L 529.089778 426.387699 
L 531.395563 426.328857 
L 533.701348 426.304782 
L 536.007133 426.309092 
L 538.312918 426.335939 
L 540.618703 426.380055 
L 542.924488 426.436778 
L 545.230274 426.502074 
L 547.536059 426.572532 
L 549.841844 426.645359 
L 552.147629 426.718352 
L 554.453414 426.78987 
L 556.759199 426.858782 
L 559.064984 426.924422 
L 561.370769 426.986524 
L 563.676555 427.045162 
L 565.98234 427.10068 
L 568.288125 427.153623 
L 570.59391 427.204664 
L 572.899695 427.254545 
L 575.20548 427.254545 
L 577.511265 427.254545 
L 579.81705 427.254545 
L 582.122836 427.254545 
L 584.428621 427.254545 
L 586.734406 427.254545 
L 589.040191 427.254545 
L 591.345976 427.254545 
L 593.651761 427.254545 
L 595.957546 427.254545 
L 598.263331 427.254545 
L 600.569117 427.254545 
L 602.874902 427.254545 
" style="fill:none;stroke:#808080;stroke-linecap:square;stroke-width:0.5;"/>
   </g>
   <g id="line2d_70">
    <defs>
     <path d="M 0 3.75 
C 0.994512 3.75 1.948425 3.354876 2.65165 2.65165 
C 3.354876 1.948425 3.75 0.994512 3.75 0 
C 3.75 -0.994512 3.354876 -1.948425 2.65165 -2.65165 
C 1.948425 -3.354876 0.994512 -3.75 0 -3.75 
C -0.994512 -3.75 -1.948425 -3.354876 -2.65165 -2.65165 
C -3.354876 -1.948425 -3.75 -0.994512 -3.75 0 
C -3.75 0.994512 -3.354876 1.948425 -2.65165 2.65165 
C -1.948425 3.354876 -0.994512 3.75 0 3.75 
z
" id="m6f97516f0c" style="stroke:#808080;"/>
    </defs>
    <g clip-path="url(#p7e55aae531)">
     <use style="fill:#808080;stroke:#808080;" x="423.023662" xlink:href="#m6f97516f0c" y="497.211643"/>
    </g>
   </g>
   <g id="line2d_71">
    <path clip-path="url(#p7e55aae531)" d="M 372.296389 428.072313 
L 374.602174 428.129036 
L 376.90796 428.173152 
L 379.213745 428.199999 
L 381.51953 428.204309 
L 383.825315 428.180234 
L 386.1311 428.121392 
L 388.436885 428.020925 
L 390.74267 427.871569 
L 393.048455 427.665737 
L 395.354241 427.395615 
L 397.660026 427.05327 
L 399.965811 426.630757 
L 402.271596 426.120244 
L 404.577381 425.514136 
L 406.883166 424.755321 
L 409.188951 423.88578 
L 411.494736 422.898649 
L 413.800522 421.78787 
L 416.106307 420.548366 
L 418.412092 419.176221 
L 420.717877 417.668842 
L 423.023662 416.025111 
L 425.329447 414.245513 
L 427.635232 412.33225 
L 429.941017 410.289326 
L 432.246803 408.122605 
L 434.552588 405.839844 
L 436.858373 403.450693 
L 439.164158 400.966662 
L 441.469943 398.40106 
L 443.775728 395.768901 
L 446.081513 393.086775 
L 448.387298 390.372697 
L 450.693084 387.64592 
L 452.998869 384.926729 
L 455.304654 382.236209 
L 457.610439 379.595993 
L 459.916224 377.028002 
L 462.222009 374.554162 
L 464.527794 372.196128 
L 466.833579 369.974992 
L 469.139365 367.911006 
L 471.44515 366.023305 
L 473.750935 364.329643 
L 476.05672 362.84615 
L 478.362505 361.5871 
L 480.66829 360.564715 
L 482.974075 359.788989 
L 485.27986 359.267546 
L 487.585646 359.005529 
L 489.891431 359.005529 
L 492.197216 359.267546 
L 494.503001 359.788989 
L 496.808786 360.564715 
L 499.114571 361.5871 
L 501.420356 362.84615 
L 503.726141 364.329643 
L 506.031926 366.023305 
L 508.337712 367.911006 
L 510.643497 369.974992 
L 512.949282 372.196128 
L 515.255067 374.554162 
L 517.560852 377.028002 
L 519.866637 379.595993 
L 522.172422 382.236209 
L 524.478207 384.926729 
L 526.783993 387.64592 
L 529.089778 390.372697 
L 531.395563 393.086775 
L 533.701348 395.768901 
L 536.007133 398.40106 
L 538.312918 400.966662 
L 540.618703 403.450693 
L 542.924488 405.839844 
L 545.230274 408.122605 
L 547.536059 410.289326 
L 549.841844 412.33225 
L 552.147629 414.245513 
L 554.453414 416.025111 
L 556.759199 417.668842 
L 559.064984 419.176221 
L 561.370769 420.548366 
L 563.676555 421.78787 
L 565.98234 422.898649 
L 568.288125 423.88578 
L 570.59391 424.755321 
L 572.899695 425.514136 
L 575.20548 426.120244 
L 577.511265 426.630757 
L 579.81705 427.05327 
L 582.122836 427.395615 
L 584.428621 427.665737 
L 586.734406 427.871569 
L 589.040191 428.020925 
L 591.345976 428.121392 
L 593.651761 428.180234 
L 595.957546 428.204309 
L 598.263331 428.199999 
L 600.569117 428.173152 
L 602.874902 428.129036 
" style="fill:none;stroke:#808080;stroke-linecap:square;stroke-width:0.5;"/>
   </g>
   <g id="line2d_72">
    <g clip-path="url(#p7e55aae531)">
     <use style="fill:#808080;stroke:#808080;" x="487.585646" xlink:href="#m6f97516f0c" y="359.005529"/>
    </g>
   </g>
   <g id="line2d_73">
    <path clip-path="url(#p7e55aae531)" d="M 372.296389 427.254545 
L 374.602174 427.254545 
L 376.90796 427.254545 
L 379.213745 427.254545 
L 381.51953 427.254545 
L 383.825315 427.254545 
L 386.1311 427.254545 
L 388.436885 427.254545 
L 390.74267 427.254545 
L 393.048455 427.254545 
L 395.354241 427.254545 
L 397.660026 427.254545 
L 399.965811 427.254545 
L 402.271596 427.254545 
L 404.577381 427.254545 
L 406.883166 427.204664 
L 409.188951 427.153623 
L 411.494736 427.10068 
L 413.800522 427.045162 
L 416.106307 426.986524 
L 418.412092 426.924422 
L 420.717877 426.858782 
L 423.023662 426.78987 
L 425.329447 426.718352 
L 427.635232 426.645359 
L 429.941017 426.572532 
L 432.246803 426.502074 
L 434.552588 426.436778 
L 436.858373 426.380055 
L 439.164158 426.335939 
L 441.469943 426.309092 
L 443.775728 426.304782 
L 446.081513 426.328857 
L 448.387298 426.387699 
L 450.693084 426.488166 
L 452.998869 426.637522 
L 455.304654 426.843354 
L 457.610439 427.113476 
L 459.916224 427.455821 
L 462.222009 427.878334 
L 464.527794 428.388847 
L 466.833579 428.994955 
L 469.139365 429.703889 
L 471.44515 430.572269 
L 473.750935 431.557499 
L 476.05672 432.665703 
L 478.362505 433.902086 
L 480.66829 435.270768 
L 482.974075 436.774609 
L 485.27986 438.415068 
L 487.585646 440.192061 
L 489.891431 442.103847 
L 492.197216 444.146938 
L 494.503001 446.316028 
L 496.808786 448.603951 
L 499.114571 451.001674 
L 501.420356 453.498313 
L 503.726141 456.081184 
L 506.031926 458.73588 
L 508.337712 461.446391 
L 510.643497 464.195235 
L 512.949282 466.963637 
L 515.255067 469.731718 
L 517.560852 472.478714 
L 519.866637 475.183219 
L 522.172422 477.823435 
L 524.478207 480.377442 
L 526.783993 482.823476 
L 529.089778 485.140207 
L 531.395563 487.307019 
L 533.701348 489.304286 
L 536.007133 491.113636 
L 538.312918 492.718202 
L 540.618703 494.102857 
L 542.924488 495.254419 
L 545.230274 496.161841 
L 547.536059 496.816364 
L 549.841844 497.211643 
L 552.147629 497.343831 
L 554.453414 497.211643 
L 556.759199 496.816364 
L 559.064984 496.161841 
L 561.370769 495.254419 
L 563.676555 494.102857 
L 565.98234 492.718202 
L 568.288125 491.113636 
L 570.59391 489.304286 
L 572.899695 487.307019 
L 575.20548 485.140207 
L 577.511265 482.823476 
L 579.81705 480.377442 
L 582.122836 477.823435 
L 584.428621 475.183219 
L 586.734406 472.478714 
L 589.040191 469.731718 
L 591.345976 466.963637 
L 593.651761 464.195235 
L 595.957546 461.446391 
L 598.263331 458.73588 
L 600.569117 456.081184 
L 602.874902 453.498313 
" style="fill:none;stroke:#808080;stroke-linecap:square;stroke-width:0.5;"/>
   </g>
   <g id="line2d_74">
    <g clip-path="url(#p7e55aae531)">
     <use style="fill:#808080;stroke:#808080;" x="552.147629" xlink:href="#m6f97516f0c" y="497.343831"/>
    </g>
   </g>
   <g id="line2d_75">
    <path clip-path="url(#p7e55aae531)" d="M 372.296389 427.23132 
L 374.602174 429.314262 
L 376.90796 431.583649 
L 379.213745 434.024495 
L 381.51953 436.618272 
L 383.825315 439.343042 
L 386.1311 442.173646 
L 388.436885 445.081957 
L 390.74267 448.037195 
L 393.048455 451.006289 
L 395.354241 453.954293 
L 397.660026 456.844843 
L 399.965811 459.640648 
L 402.271596 462.304012 
L 404.577381 464.797367 
L 406.883166 466.984058 
L 409.188951 468.925855 
L 411.494736 470.587365 
L 413.800522 471.935595 
L 416.106307 472.940576 
L 418.412092 473.575954 
L 420.717877 473.819534 
L 423.023662 473.653767 
L 425.329447 473.066176 
L 427.635232 472.049704 
L 429.941017 470.602981 
L 432.246803 468.730504 
L 434.552588 466.442722 
L 436.858373 463.75603 
L 439.164158 460.692658 
L 441.469943 457.280475 
L 443.775728 453.552689 
L 446.081513 449.547463 
L 448.387298 445.307448 
L 450.693084 440.879229 
L 452.998869 436.312721 
L 455.304654 431.660486 
L 457.610439 426.977021 
L 459.916224 422.317998 
L 462.222009 417.73949 
L 464.527794 413.297181 
L 466.833579 409.045586 
L 469.139365 405.037281 
L 471.44515 401.322172 
L 473.750935 397.946795 
L 476.05672 394.953679 
L 478.362505 392.380771 
L 480.66829 390.260928 
L 482.974075 388.621502 
L 485.27986 387.484003 
L 487.585646 386.863863 
L 489.891431 386.720828 
L 492.197216 387.156919 
L 494.503001 388.119569 
L 496.808786 389.599758 
L 499.114571 391.582768 
L 501.420356 394.04847 
L 503.726141 396.971676 
L 506.031926 400.322554 
L 508.337712 404.067106 
L 510.643497 408.266596 
L 512.949282 412.781861 
L 515.255067 417.570757 
L 517.560852 422.588894 
L 519.866637 427.790173 
L 522.172422 433.127328 
L 524.478207 438.552485 
L 526.783993 444.017714 
L 529.089778 449.475577 
L 531.395563 454.879658 
L 533.701348 460.185068 
L 536.007133 465.34892 
L 538.312918 470.330767 
L 540.618703 475.092997 
L 542.924488 479.601178 
L 545.230274 483.824354 
L 547.536059 487.735282 
L 549.841844 491.310618 
L 552.147629 494.531036 
L 554.453414 497.381298 
L 556.759199 499.850261 
L 559.064984 501.930831 
L 561.370769 503.61986 
L 563.676555 504.918002 
L 565.98234 505.829518 
L 568.288125 506.362039 
L 570.59391 506.526303 
L 572.899695 506.335852 
L 575.20548 505.707798 
L 577.511265 504.758726 
L 579.81705 503.50749 
L 582.122836 501.974716 
L 584.428621 500.182531 
L 586.734406 498.15428 
L 589.040191 495.914238 
L 591.345976 493.487322 
L 593.651761 490.898805 
L 595.957546 488.174035 
L 598.263331 485.338172 
L 600.569117 482.41593 
L 602.874902 479.431347 
" style="fill:none;stroke:#ff7f0e;stroke-linecap:square;stroke-width:1.5;"/>
   </g>
   <g id="line2d_76">
    <defs>
     <path d="M 0 3.75 
C 0.994512 3.75 1.948425 3.354876 2.65165 2.65165 
C 3.354876 1.948425 3.75 0.994512 3.75 0 
C 3.75 -0.994512 3.354876 -1.948425 2.65165 -2.65165 
C 1.948425 -3.354876 0.994512 -3.75 0 -3.75 
C -0.994512 -3.75 -1.948425 -3.354876 -2.65165 -2.65165 
C -3.354876 -1.948425 -3.75 -0.994512 -3.75 0 
C -3.75 0.994512 -3.354876 1.948425 -2.65165 2.65165 
C -1.948425 3.354876 -0.994512 3.75 0 3.75 
z
" id="m4036bee484" style="stroke:#ff7f0e;"/>
    </defs>
    <g clip-path="url(#p7e55aae531)">
     <use style="fill:#ff7f0e;stroke:#ff7f0e;" x="423.023662" xlink:href="#m4036bee484" y="473.653767"/>
    </g>
   </g>
   <g id="line2d_77">
    <g clip-path="url(#p7e55aae531)">
     <use style="fill:#ff7f0e;stroke:#ff7f0e;" x="487.585646" xlink:href="#m4036bee484" y="386.863863"/>
    </g>
   </g>
   <g id="line2d_78">
    <g clip-path="url(#p7e55aae531)">
     <use style="fill:#ff7f0e;stroke:#ff7f0e;" x="552.147629" xlink:href="#m4036bee484" y="494.531036"/>
    </g>
   </g>
   <g id="patch_18">
    <path d="M 360.767464 550.8 
L 360.767464 303.709091 
" style="fill:none;stroke:#000000;stroke-linecap:square;stroke-linejoin:miter;stroke-width:0.8;"/>
   </g>
   <g id="patch_19">
    <path d="M 614.403827 550.8 
L 614.403827 303.709091 
" style="fill:none;stroke:#000000;stroke-linecap:square;stroke-linejoin:miter;stroke-width:0.8;"/>
   </g>
   <g id="patch_20">
    <path d="M 360.767464 550.8 
L 614.403827 550.8 
" style="fill:none;stroke:#000000;stroke-linecap:square;stroke-linejoin:miter;stroke-width:0.8;"/>
   </g>
   <g id="patch_21">
    <path d="M 360.767464 303.709091 
L 614.403827 303.709091 
" style="fill:none;stroke:#000000;stroke-linecap:square;stroke-linejoin:miter;stroke-width:0.8;"/>
   </g>
  </g>
 </g>
 <defs>
  <clipPath id="p983736b0a3">
   <rect height="247.090909" width="253.636364" x="56.403827" y="7.2"/>
  </clipPath>
  <clipPath id="p164cdcf527">
   <rect height="247.090909" width="253.636364" x="360.767464" y="7.2"/>
  </clipPath>
  <clipPath id="p79d36a5d75">
   <rect height="247.090909" width="253.636364" x="56.403827" y="303.709091"/>
  </clipPath>
  <clipPath id="p7e55aae531">
   <rect height="247.090909" width="253.636364" x="360.767464" y="303.709091"/>
  </clipPath>
 </defs>
</svg>
