<?xml version="1.0" encoding="utf-8" standalone="no"?>
<!DOCTYPE svg PUBLIC "-//W3C//DTD SVG 1.1//EN"
  "http://www.w3.org/Graphics/SVG/1.1/DTD/svg11.dtd">
<svg height="592.02468pt" version="1.1" viewBox="0 0 621.603827 592.02468" width="621.603827pt" xmlns="http://www.w3.org/2000/svg" xmlns:xlink="http://www.w3.org/1999/xlink">
 <metadata>
  <rdf:RDF xmlns:cc="http://creativecommons.org/ns#" xmlns:dc="http://purl.org/dc/elements/1.1/" xmlns:rdf="http://www.w3.org/1999/02/22-rdf-syntax-ns#">
   <cc:Work>
    <dc:type rdf:resource="http://purl.org/dc/dcmitype/StillImage"/>
    <dc:date>2022-12-20T17:18:03.655752</dc:date>
    <dc:format>image/svg+xml</dc:format>
    <dc:creator>
     <cc:Agent>
      <dc:title>Matplotlib v3.4.3, https://matplotlib.org/</dc:title>
     </cc:Agent>
    </dc:creator>
   </cc:Work>
  </rdf:RDF>
 </metadata>
 <defs>
  <style type="text/css">*{stroke-linecap:butt;stroke-linejoin:round;}</style>
 </defs>
 <g id="figure_1">
  <g id="patch_1">
   <path d="M 0 592.02468 
L 621.603827 592.02468 
L 621.603827 0 
L 0 0 
z
" style="fill:none;"/>
  </g>
  <g id="axes_1">
   <g id="patch_2">
    <path d="M 56.403827 254.290909 
L 310.040191 254.290909 
L 310.040191 7.2 
L 56.403827 7.2 
z
" style="fill:#ffffff;"/>
   </g>
   <g id="matplotlib.axis_1">
    <g id="xtick_1">
     <g id="line2d_1">
      <path clip-path="url(#p64c4c268ca)" d="M 119.172422 254.290909 
L 119.172422 7.2 
" style="fill:none;stroke:#b0b0b0;stroke-linecap:square;stroke-width:0.8;"/>
     </g>
     <g id="line2d_2">
      <defs>
       <path d="M 0 0 
L 0 3.5 
" id="m0bbbf54f43" style="stroke:#000000;stroke-width:0.8;"/>
      </defs>
      <g>
       <use style="stroke:#000000;stroke-width:0.8;" x="119.172422" xlink:href="#m0bbbf54f43" y="254.290909"/>
      </g>
     </g>
     <g id="text_1">
      <!-- $-d$ -->
      <g transform="translate(111.481833 269.593089)scale(0.12 -0.12)">
       <defs>
        <path d="M 4218 1472 
C 4326 1472 4442 1472 4442 1600 
C 4442 1728 4326 1728 4218 1728 
L 755 1728 
C 646 1728 531 1728 531 1600 
C 531 1472 646 1472 755 1472 
L 4218 1472 
z
" id="CMSY10-0" transform="scale(0.015625)"/>
        <path d="M 3219 4255 
C 3226 4281 3238 4319 3238 4351 
C 3238 4416 3174 4416 3162 4416 
C 3155 4416 2842 4390 2810 4383 
C 2701 4377 2605 4364 2490 4358 
C 2330 4345 2285 4339 2285 4223 
C 2285 4159 2336 4159 2426 4159 
C 2739 4159 2746 4103 2746 4040 
C 2746 4002 2733 3951 2726 3932 
L 2336 2394 
C 2266 2560 2093 2816 1760 2816 
C 1037 2816 256 1883 256 938 
C 256 306 627 -64 1062 -64 
C 1414 -64 1715 210 1894 421 
C 1958 44 2259 -64 2451 -64 
C 2643 -64 2797 51 2912 281 
C 3014 498 3104 887 3104 913 
C 3104 945 3078 970 3040 970 
C 2982 970 2976 938 2950 842 
C 2854 466 2733 64 2470 64 
C 2285 64 2272 230 2272 357 
C 2272 383 2272 517 2317 696 
L 3219 4255 
z
M 1926 759 
C 1894 651 1894 638 1805 517 
C 1664 338 1382 64 1082 64 
C 819 64 672 300 672 676 
C 672 1028 870 1743 992 2011 
C 1210 2458 1510 2687 1760 2687 
C 2182 2687 2266 2164 2266 2113 
C 2266 2107 2246 2024 2240 2011 
L 1926 759 
z
" id="CMMI12-64" transform="scale(0.015625)"/>
       </defs>
       <use transform="scale(0.996264)" xlink:href="#CMSY10-0"/>
       <use transform="translate(77.487468 0)scale(0.996264)" xlink:href="#CMMI12-64"/>
      </g>
     </g>
    </g>
    <g id="xtick_2">
     <g id="line2d_3">
      <path clip-path="url(#p64c4c268ca)" d="M 183.222009 254.290909 
L 183.222009 7.2 
" style="fill:none;stroke:#b0b0b0;stroke-linecap:square;stroke-width:0.8;"/>
     </g>
     <g id="line2d_4">
      <g>
       <use style="stroke:#000000;stroke-width:0.8;" x="183.222009" xlink:href="#m0bbbf54f43" y="254.290909"/>
      </g>
     </g>
     <g id="text_2">
      <!-- $0$ -->
      <g transform="translate(180.295514 269.593089)scale(0.12 -0.12)">
       <defs>
        <path d="M 2688 2038 
C 2688 2430 2682 3099 2413 3613 
C 2176 4063 1798 4224 1466 4224 
C 1158 4224 768 4082 525 3620 
C 269 3137 243 2539 243 2038 
C 243 1671 250 1112 448 623 
C 723 -39 1216 -128 1466 -128 
C 1760 -128 2208 -7 2470 604 
C 2662 1048 2688 1568 2688 2038 
z
M 1466 -26 
C 1056 -26 813 328 723 816 
C 653 1196 653 1749 653 2109 
C 653 2604 653 3015 736 3407 
C 858 3954 1216 4121 1466 4121 
C 1728 4121 2067 3947 2189 3420 
C 2272 3054 2278 2623 2278 2109 
C 2278 1691 2278 1176 2202 797 
C 2067 96 1690 -26 1466 -26 
z
" id="CMR17-30" transform="scale(0.015625)"/>
       </defs>
       <use transform="scale(0.996264)" xlink:href="#CMR17-30"/>
      </g>
     </g>
    </g>
    <g id="xtick_3">
     <g id="line2d_5">
      <path clip-path="url(#p64c4c268ca)" d="M 247.271596 254.290909 
L 247.271596 7.2 
" style="fill:none;stroke:#b0b0b0;stroke-linecap:square;stroke-width:0.8;"/>
     </g>
     <g id="line2d_6">
      <g>
       <use style="stroke:#000000;stroke-width:0.8;" x="247.271596" xlink:href="#m0bbbf54f43" y="254.290909"/>
      </g>
     </g>
     <g id="text_3">
      <!-- $d$ -->
      <g transform="translate(244.230251 269.593089)scale(0.12 -0.12)">
       <use transform="scale(0.996264)" xlink:href="#CMMI12-64"/>
      </g>
     </g>
    </g>
    <g id="text_4">
     <!-- $t$ -->
     <g transform="translate(180.756166 285.603561)scale(0.14 -0.14)">
      <defs>
       <path d="M 1286 2566 
L 1875 2566 
C 1997 2566 2061 2566 2061 2681 
C 2061 2752 2022 2752 1894 2752 
L 1331 2752 
L 1568 3664 
C 1594 3752 1594 3764 1594 3808 
C 1594 3910 1510 3968 1427 3968 
C 1376 3968 1229 3948 1178 3746 
L 928 2752 
L 326 2752 
C 198 2752 141 2752 141 2630 
C 141 2566 186 2566 307 2566 
L 877 2566 
L 454 881 
C 403 657 384 593 384 510 
C 384 210 595 -64 954 -64 
C 1600 -64 1946 868 1946 913 
C 1946 951 1920 970 1882 970 
C 1869 970 1843 970 1830 944 
C 1824 938 1818 932 1773 830 
C 1638 510 1344 64 973 64 
C 781 64 768 223 768 364 
C 768 370 768 491 787 568 
L 1286 2566 
z
" id="CMMI12-74" transform="scale(0.015625)"/>
      </defs>
      <use transform="scale(0.996264)" xlink:href="#CMMI12-74"/>
     </g>
    </g>
   </g>
   <g id="matplotlib.axis_2">
    <g id="ytick_1">
     <g id="line2d_7">
      <path clip-path="url(#p64c4c268ca)" d="M 56.403827 225.78042 
L 310.040191 225.78042 
" style="fill:none;stroke:#b0b0b0;stroke-linecap:square;stroke-width:0.8;"/>
     </g>
     <g id="line2d_8">
      <defs>
       <path d="M 0 0 
L -3.5 0 
" id="mabcc696d24" style="stroke:#000000;stroke-width:0.8;"/>
      </defs>
      <g>
       <use style="stroke:#000000;stroke-width:0.8;" x="56.403827" xlink:href="#mabcc696d24" y="225.78042"/>
      </g>
     </g>
     <g id="text_5">
      <!-- $\mathdefault{−1.0}$ -->
      <g transform="translate(25.147696 229.931509)scale(0.12 -0.12)">
       <defs>
        <path d="M 1702 4083 
C 1702 4217 1696 4224 1606 4224 
C 1357 3927 979 3833 621 3820 
C 602 3820 570 3820 563 3808 
C 557 3795 557 3782 557 3648 
C 755 3648 1088 3686 1344 3839 
L 1344 467 
C 1344 243 1331 166 781 166 
L 589 166 
L 589 0 
C 896 6 1216 12 1523 12 
C 1830 12 2150 6 2458 0 
L 2458 166 
L 2266 166 
C 1715 166 1702 236 1702 467 
L 1702 4083 
z
" id="CMR17-31" transform="scale(0.015625)"/>
        <path d="M 1178 307 
C 1178 492 1024 620 870 620 
C 685 620 557 467 557 313 
C 557 128 710 0 864 0 
C 1050 0 1178 153 1178 307 
z
" id="CMMI12-3a" transform="scale(0.015625)"/>
       </defs>
       <use transform="scale(0.996264)" xlink:href="#CMSY10-0"/>
       <use transform="translate(77.487468 0)scale(0.996264)" xlink:href="#CMR17-31"/>
       <use transform="translate(123.177945 0)scale(0.996264)" xlink:href="#CMMI12-3a"/>
       <use transform="translate(150.275122 0)scale(0.996264)" xlink:href="#CMR17-30"/>
      </g>
     </g>
    </g>
    <g id="ytick_2">
     <g id="line2d_9">
      <path clip-path="url(#p64c4c268ca)" d="M 56.403827 178.262937 
L 310.040191 178.262937 
" style="fill:none;stroke:#b0b0b0;stroke-linecap:square;stroke-width:0.8;"/>
     </g>
     <g id="line2d_10">
      <g>
       <use style="stroke:#000000;stroke-width:0.8;" x="56.403827" xlink:href="#mabcc696d24" y="178.262937"/>
      </g>
     </g>
     <g id="text_6">
      <!-- $\mathdefault{−0.5}$ -->
      <g transform="translate(25.147696 182.414027)scale(0.12 -0.12)">
       <defs>
        <path d="M 730 3750 
C 794 3724 1056 3641 1325 3641 
C 1920 3641 2246 3961 2432 4140 
C 2432 4191 2432 4224 2394 4224 
C 2387 4224 2374 4224 2323 4198 
C 2099 4102 1837 4032 1517 4032 
C 1325 4032 1037 4055 723 4191 
C 653 4224 640 4224 634 4224 
C 602 4224 595 4217 595 4090 
L 595 2231 
C 595 2113 595 2080 659 2080 
C 691 2080 704 2093 736 2139 
C 941 2435 1222 2560 1542 2560 
C 1766 2560 2246 2415 2246 1293 
C 2246 1087 2246 716 2054 422 
C 1894 159 1645 25 1370 25 
C 947 25 518 319 403 812 
C 429 806 480 793 506 793 
C 589 793 749 838 749 1036 
C 749 1209 627 1280 506 1280 
C 358 1280 262 1190 262 1011 
C 262 454 704 -128 1382 -128 
C 2042 -128 2669 441 2669 1267 
C 2669 2054 2170 2662 1549 2662 
C 1222 2662 947 2540 730 2304 
L 730 3750 
z
" id="CMR17-35" transform="scale(0.015625)"/>
       </defs>
       <use transform="scale(0.996264)" xlink:href="#CMSY10-0"/>
       <use transform="translate(77.487468 0)scale(0.996264)" xlink:href="#CMR17-30"/>
       <use transform="translate(123.177945 0)scale(0.996264)" xlink:href="#CMMI12-3a"/>
       <use transform="translate(150.275122 0)scale(0.996264)" xlink:href="#CMR17-35"/>
      </g>
     </g>
    </g>
    <g id="ytick_3">
     <g id="line2d_11">
      <path clip-path="url(#p64c4c268ca)" d="M 56.403827 130.745455 
L 310.040191 130.745455 
" style="fill:none;stroke:#b0b0b0;stroke-linecap:square;stroke-width:0.8;"/>
     </g>
     <g id="line2d_12">
      <g>
       <use style="stroke:#000000;stroke-width:0.8;" x="56.403827" xlink:href="#mabcc696d24" y="130.745455"/>
      </g>
     </g>
     <g id="text_7">
      <!-- $\mathdefault{0.0}$ -->
      <g transform="translate(34.446186 134.896544)scale(0.12 -0.12)">
       <use transform="scale(0.996264)" xlink:href="#CMR17-30"/>
       <use transform="translate(45.690477 0)scale(0.996264)" xlink:href="#CMMI12-3a"/>
       <use transform="translate(72.787654 0)scale(0.996264)" xlink:href="#CMR17-30"/>
      </g>
     </g>
    </g>
    <g id="ytick_4">
     <g id="line2d_13">
      <path clip-path="url(#p64c4c268ca)" d="M 56.403827 83.227972 
L 310.040191 83.227972 
" style="fill:none;stroke:#b0b0b0;stroke-linecap:square;stroke-width:0.8;"/>
     </g>
     <g id="line2d_14">
      <g>
       <use style="stroke:#000000;stroke-width:0.8;" x="56.403827" xlink:href="#mabcc696d24" y="83.227972"/>
      </g>
     </g>
     <g id="text_8">
      <!-- $\mathdefault{0.5}$ -->
      <g transform="translate(34.446186 87.379062)scale(0.12 -0.12)">
       <use transform="scale(0.996264)" xlink:href="#CMR17-30"/>
       <use transform="translate(45.690477 0)scale(0.996264)" xlink:href="#CMMI12-3a"/>
       <use transform="translate(72.787654 0)scale(0.996264)" xlink:href="#CMR17-35"/>
      </g>
     </g>
    </g>
    <g id="ytick_5">
     <g id="line2d_15">
      <path clip-path="url(#p64c4c268ca)" d="M 56.403827 35.71049 
L 310.040191 35.71049 
" style="fill:none;stroke:#b0b0b0;stroke-linecap:square;stroke-width:0.8;"/>
     </g>
     <g id="line2d_16">
      <g>
       <use style="stroke:#000000;stroke-width:0.8;" x="56.403827" xlink:href="#mabcc696d24" y="35.71049"/>
      </g>
     </g>
     <g id="text_9">
      <!-- $\mathdefault{1.0}$ -->
      <g transform="translate(34.446186 39.861579)scale(0.12 -0.12)">
       <use transform="scale(0.996264)" xlink:href="#CMR17-31"/>
       <use transform="translate(45.690477 0)scale(0.996264)" xlink:href="#CMMI12-3a"/>
       <use transform="translate(72.787654 0)scale(0.996264)" xlink:href="#CMR17-30"/>
      </g>
     </g>
    </g>
    <g id="text_10">
     <!-- $h(t)$ -->
     <g transform="translate(17.660772 142.453168)rotate(-90)scale(0.14 -0.14)">
      <defs>
       <path d="M 1798 4255 
C 1805 4281 1818 4319 1818 4351 
C 1818 4416 1754 4416 1741 4416 
C 1734 4416 1421 4390 1389 4383 
C 1280 4377 1184 4364 1069 4358 
C 909 4345 864 4339 864 4223 
C 864 4159 915 4159 1005 4159 
C 1318 4159 1325 4103 1325 4040 
C 1325 4002 1312 3951 1306 3932 
L 378 249 
C 352 153 352 140 352 102 
C 352 -39 461 -64 525 -64 
C 634 -64 717 19 749 89 
L 1037 1245 
C 1069 1385 1107 1519 1139 1660 
C 1210 1928 1210 1934 1331 2119 
C 1453 2305 1741 2687 2234 2687 
C 2490 2687 2579 2496 2579 2241 
C 2579 1883 2330 1187 2189 804 
C 2131 651 2099 568 2099 453 
C 2099 166 2298 -64 2605 -64 
C 3200 -64 3424 874 3424 913 
C 3424 945 3398 970 3360 970 
C 3302 970 3296 951 3264 842 
C 3117 332 2880 64 2624 64 
C 2560 64 2458 70 2458 274 
C 2458 440 2534 645 2560 715 
C 2675 1021 2963 1775 2963 2145 
C 2963 2528 2739 2816 2253 2816 
C 1888 2816 1568 2643 1306 2311 
L 1798 4255 
z
" id="CMMI12-68" transform="scale(0.015625)"/>
       <path d="M 1958 -1562 
C 1958 -1556 1958 -1543 1939 -1524 
C 1645 -1223 858 -403 858 1596 
C 858 3595 1632 4408 1946 4729 
C 1946 4735 1958 4748 1958 4767 
C 1958 4787 1939 4800 1914 4800 
C 1843 4800 1299 4325 986 3620 
C 666 2909 576 2218 576 1603 
C 576 1141 621 360 1005 -467 
C 1312 -1133 1837 -1600 1914 -1600 
C 1946 -1600 1958 -1588 1958 -1562 
z
" id="CMR17-28" transform="scale(0.015625)"/>
       <path d="M 1683 1596 
C 1683 2057 1638 2839 1254 3665 
C 947 4332 422 4800 346 4800 
C 326 4800 301 4793 301 4761 
C 301 4748 307 4742 314 4729 
C 621 4408 1402 3595 1402 1603 
C 1402 -396 627 -1210 314 -1530 
C 307 -1543 301 -1549 301 -1562 
C 301 -1594 326 -1600 346 -1600 
C 416 -1600 960 -1127 1274 -422 
C 1594 289 1683 981 1683 1596 
z
" id="CMR17-29" transform="scale(0.015625)"/>
      </defs>
      <use transform="scale(0.996264)" xlink:href="#CMMI12-68"/>
      <use transform="translate(56.154624 0)scale(0.996264)" xlink:href="#CMR17-28"/>
      <use transform="translate(91.435392 0)scale(0.996264)" xlink:href="#CMMI12-74"/>
      <use transform="translate(126.661722 0)scale(0.996264)" xlink:href="#CMR17-29"/>
     </g>
    </g>
   </g>
   <g id="line2d_17">
    <path clip-path="url(#p64c4c268ca)" d="M 67.932753 130.745455 
L 70.238538 130.745455 
L 72.544323 130.745455 
L 74.850108 130.745455 
L 77.155893 130.745455 
L 79.461679 130.745455 
L 81.767464 130.745455 
L 84.073249 130.745455 
L 86.379034 130.745455 
L 88.684819 130.745455 
L 90.990604 130.745455 
L 93.296389 130.745455 
L 95.602174 130.745455 
L 97.90796 130.745455 
L 100.213745 130.745455 
L 102.51953 130.745455 
L 104.825315 130.745455 
L 107.1311 130.745455 
L 109.436885 130.745455 
L 111.74267 130.745455 
L 114.048455 130.745455 
L 116.354241 130.745455 
L 118.660026 130.745455 
L 120.965811 130.745455 
L 123.271596 130.745455 
L 125.577381 130.745455 
L 127.883166 130.745455 
L 130.188951 130.745455 
L 132.494736 130.745455 
L 134.800522 130.745455 
L 137.106307 130.745455 
L 139.412092 130.745455 
L 141.717877 130.745455 
L 144.023662 130.745455 
L 146.329447 130.745455 
L 148.635232 130.745455 
L 150.941017 130.745455 
L 153.246803 35.71049 
L 155.552588 35.71049 
L 157.858373 35.71049 
L 160.164158 35.71049 
L 162.469943 35.71049 
L 164.775728 35.71049 
L 167.081513 35.71049 
L 169.387298 35.71049 
L 171.693084 35.71049 
L 173.998869 35.71049 
L 176.304654 35.71049 
L 178.610439 35.71049 
L 180.916224 35.71049 
L 183.222009 35.71049 
L 185.527794 35.71049 
L 187.833579 35.71049 
L 190.139365 35.71049 
L 192.44515 35.71049 
L 194.750935 35.71049 
L 197.05672 35.71049 
L 199.362505 35.71049 
L 201.66829 35.71049 
L 203.974075 35.71049 
L 206.27986 35.71049 
L 208.585646 35.71049 
L 210.891431 35.71049 
L 213.197216 35.71049 
L 215.503001 130.745455 
L 217.808786 130.745455 
L 220.114571 130.745455 
L 222.420356 130.745455 
L 224.726141 130.745455 
L 227.031926 130.745455 
L 229.337712 130.745455 
L 231.643497 130.745455 
L 233.949282 130.745455 
L 236.255067 130.745455 
L 238.560852 130.745455 
L 240.866637 130.745455 
L 243.172422 130.745455 
L 245.478207 130.745455 
L 247.783993 130.745455 
L 250.089778 130.745455 
L 252.395563 130.745455 
L 254.701348 130.745455 
L 257.007133 130.745455 
L 259.312918 130.745455 
L 261.618703 130.745455 
L 263.924488 130.745455 
L 266.230274 130.745455 
L 268.536059 130.745455 
L 270.841844 130.745455 
L 273.147629 130.745455 
L 275.453414 130.745455 
L 277.759199 130.745455 
L 280.064984 130.745455 
L 282.370769 130.745455 
L 284.676555 130.745455 
L 286.98234 130.745455 
L 289.288125 130.745455 
L 291.59391 130.745455 
L 293.899695 130.745455 
L 296.20548 130.745455 
L 298.511265 130.745455 
" style="fill:none;stroke:#1f77b4;stroke-linecap:square;stroke-width:1.5;"/>
   </g>
   <g id="patch_3">
    <path d="M 56.403827 254.290909 
L 56.403827 7.2 
" style="fill:none;stroke:#000000;stroke-linecap:square;stroke-linejoin:miter;stroke-width:0.8;"/>
   </g>
   <g id="patch_4">
    <path d="M 310.040191 254.290909 
L 310.040191 7.2 
" style="fill:none;stroke:#000000;stroke-linecap:square;stroke-linejoin:miter;stroke-width:0.8;"/>
   </g>
   <g id="patch_5">
    <path d="M 56.403827 254.290909 
L 310.040191 254.290909 
" style="fill:none;stroke:#000000;stroke-linecap:square;stroke-linejoin:miter;stroke-width:0.8;"/>
   </g>
   <g id="patch_6">
    <path d="M 56.403827 7.2 
L 310.040191 7.2 
" style="fill:none;stroke:#000000;stroke-linecap:square;stroke-linejoin:miter;stroke-width:0.8;"/>
   </g>
  </g>
  <g id="axes_2">
   <g id="patch_7">
    <path d="M 360.767464 254.290909 
L 614.403827 254.290909 
L 614.403827 7.2 
L 360.767464 7.2 
z
" style="fill:#ffffff;"/>
   </g>
   <g id="matplotlib.axis_3">
    <g id="xtick_4">
     <g id="line2d_18">
      <path clip-path="url(#p548f7dbf17)" d="M 423.536059 254.290909 
L 423.536059 7.2 
" style="fill:none;stroke:#b0b0b0;stroke-linecap:square;stroke-width:0.8;"/>
     </g>
     <g id="line2d_19">
      <g>
       <use style="stroke:#000000;stroke-width:0.8;" x="423.536059" xlink:href="#m0bbbf54f43" y="254.290909"/>
      </g>
     </g>
     <g id="text_11">
      <!-- $-d$ -->
      <g transform="translate(415.845469 269.593089)scale(0.12 -0.12)">
       <use transform="scale(0.996264)" xlink:href="#CMSY10-0"/>
       <use transform="translate(77.487468 0)scale(0.996264)" xlink:href="#CMMI12-64"/>
      </g>
     </g>
    </g>
    <g id="xtick_5">
     <g id="line2d_20">
      <path clip-path="url(#p548f7dbf17)" d="M 487.585646 254.290909 
L 487.585646 7.2 
" style="fill:none;stroke:#b0b0b0;stroke-linecap:square;stroke-width:0.8;"/>
     </g>
     <g id="line2d_21">
      <g>
       <use style="stroke:#000000;stroke-width:0.8;" x="487.585646" xlink:href="#m0bbbf54f43" y="254.290909"/>
      </g>
     </g>
     <g id="text_12">
      <!-- $0$ -->
      <g transform="translate(484.65915 269.593089)scale(0.12 -0.12)">
       <use transform="scale(0.996264)" xlink:href="#CMR17-30"/>
      </g>
     </g>
    </g>
    <g id="xtick_6">
     <g id="line2d_22">
      <path clip-path="url(#p548f7dbf17)" d="M 551.635232 254.290909 
L 551.635232 7.2 
" style="fill:none;stroke:#b0b0b0;stroke-linecap:square;stroke-width:0.8;"/>
     </g>
     <g id="line2d_23">
      <g>
       <use style="stroke:#000000;stroke-width:0.8;" x="551.635232" xlink:href="#m0bbbf54f43" y="254.290909"/>
      </g>
     </g>
     <g id="text_13">
      <!-- $d$ -->
      <g transform="translate(548.593888 269.593089)scale(0.12 -0.12)">
       <use transform="scale(0.996264)" xlink:href="#CMMI12-64"/>
      </g>
     </g>
    </g>
    <g id="text_14">
     <!-- $t$ -->
     <g transform="translate(485.119802 285.603561)scale(0.14 -0.14)">
      <use transform="scale(0.996264)" xlink:href="#CMMI12-74"/>
     </g>
    </g>
   </g>
   <g id="matplotlib.axis_4">
    <g id="ytick_6">
     <g id="line2d_24">
      <path clip-path="url(#p548f7dbf17)" d="M 360.767464 225.78042 
L 614.403827 225.78042 
" style="fill:none;stroke:#b0b0b0;stroke-linecap:square;stroke-width:0.8;"/>
     </g>
     <g id="line2d_25">
      <g>
       <use style="stroke:#000000;stroke-width:0.8;" x="360.767464" xlink:href="#mabcc696d24" y="225.78042"/>
      </g>
     </g>
     <g id="text_15">
      <!-- $\mathdefault{−1.0}$ -->
      <g transform="translate(329.511333 229.931509)scale(0.12 -0.12)">
       <use transform="scale(0.996264)" xlink:href="#CMSY10-0"/>
       <use transform="translate(77.487468 0)scale(0.996264)" xlink:href="#CMR17-31"/>
       <use transform="translate(123.177945 0)scale(0.996264)" xlink:href="#CMMI12-3a"/>
       <use transform="translate(150.275122 0)scale(0.996264)" xlink:href="#CMR17-30"/>
      </g>
     </g>
    </g>
    <g id="ytick_7">
     <g id="line2d_26">
      <path clip-path="url(#p548f7dbf17)" d="M 360.767464 178.262937 
L 614.403827 178.262937 
" style="fill:none;stroke:#b0b0b0;stroke-linecap:square;stroke-width:0.8;"/>
     </g>
     <g id="line2d_27">
      <g>
       <use style="stroke:#000000;stroke-width:0.8;" x="360.767464" xlink:href="#mabcc696d24" y="178.262937"/>
      </g>
     </g>
     <g id="text_16">
      <!-- $\mathdefault{−0.5}$ -->
      <g transform="translate(329.511333 182.414027)scale(0.12 -0.12)">
       <use transform="scale(0.996264)" xlink:href="#CMSY10-0"/>
       <use transform="translate(77.487468 0)scale(0.996264)" xlink:href="#CMR17-30"/>
       <use transform="translate(123.177945 0)scale(0.996264)" xlink:href="#CMMI12-3a"/>
       <use transform="translate(150.275122 0)scale(0.996264)" xlink:href="#CMR17-35"/>
      </g>
     </g>
    </g>
    <g id="ytick_8">
     <g id="line2d_28">
      <path clip-path="url(#p548f7dbf17)" d="M 360.767464 130.745455 
L 614.403827 130.745455 
" style="fill:none;stroke:#b0b0b0;stroke-linecap:square;stroke-width:0.8;"/>
     </g>
     <g id="line2d_29">
      <g>
       <use style="stroke:#000000;stroke-width:0.8;" x="360.767464" xlink:href="#mabcc696d24" y="130.745455"/>
      </g>
     </g>
     <g id="text_17">
      <!-- $\mathdefault{0.0}$ -->
      <g transform="translate(338.809822 134.896544)scale(0.12 -0.12)">
       <use transform="scale(0.996264)" xlink:href="#CMR17-30"/>
       <use transform="translate(45.690477 0)scale(0.996264)" xlink:href="#CMMI12-3a"/>
       <use transform="translate(72.787654 0)scale(0.996264)" xlink:href="#CMR17-30"/>
      </g>
     </g>
    </g>
    <g id="ytick_9">
     <g id="line2d_30">
      <path clip-path="url(#p548f7dbf17)" d="M 360.767464 83.227972 
L 614.403827 83.227972 
" style="fill:none;stroke:#b0b0b0;stroke-linecap:square;stroke-width:0.8;"/>
     </g>
     <g id="line2d_31">
      <g>
       <use style="stroke:#000000;stroke-width:0.8;" x="360.767464" xlink:href="#mabcc696d24" y="83.227972"/>
      </g>
     </g>
     <g id="text_18">
      <!-- $\mathdefault{0.5}$ -->
      <g transform="translate(338.809822 87.379062)scale(0.12 -0.12)">
       <use transform="scale(0.996264)" xlink:href="#CMR17-30"/>
       <use transform="translate(45.690477 0)scale(0.996264)" xlink:href="#CMMI12-3a"/>
       <use transform="translate(72.787654 0)scale(0.996264)" xlink:href="#CMR17-35"/>
      </g>
     </g>
    </g>
    <g id="ytick_10">
     <g id="line2d_32">
      <path clip-path="url(#p548f7dbf17)" d="M 360.767464 35.71049 
L 614.403827 35.71049 
" style="fill:none;stroke:#b0b0b0;stroke-linecap:square;stroke-width:0.8;"/>
     </g>
     <g id="line2d_33">
      <g>
       <use style="stroke:#000000;stroke-width:0.8;" x="360.767464" xlink:href="#mabcc696d24" y="35.71049"/>
      </g>
     </g>
     <g id="text_19">
      <!-- $\mathdefault{1.0}$ -->
      <g transform="translate(338.809822 39.861579)scale(0.12 -0.12)">
       <use transform="scale(0.996264)" xlink:href="#CMR17-31"/>
       <use transform="translate(45.690477 0)scale(0.996264)" xlink:href="#CMMI12-3a"/>
       <use transform="translate(72.787654 0)scale(0.996264)" xlink:href="#CMR17-30"/>
      </g>
     </g>
    </g>
    <g id="text_20">
     <!-- $u(t)$ -->
     <g transform="translate(322.024408 142.408764)rotate(-90)scale(0.14 -0.14)">
      <defs>
       <path d="M 2182 370 
C 2266 12 2573 -64 2726 -64 
C 2931 -64 3085 70 3187 287 
C 3296 517 3379 893 3379 913 
C 3379 944 3354 970 3315 970 
C 3258 970 3251 938 3226 842 
C 3110 402 2995 64 2739 64 
C 2547 64 2547 274 2547 357 
C 2547 504 2566 568 2630 836 
C 2675 1008 2720 1181 2758 1359 
L 3021 2400 
C 3066 2560 3066 2572 3066 2591 
C 3066 2687 2989 2752 2893 2752 
C 2707 2752 2662 2591 2624 2432 
C 2560 2183 2214 810 2170 587 
C 2163 587 1914 64 1446 64 
C 1114 64 1050 351 1050 587 
C 1050 951 1229 1462 1395 1890 
C 1472 2094 1504 2177 1504 2305 
C 1504 2579 1306 2816 998 2816 
C 410 2816 173 1890 173 1838 
C 173 1813 198 1781 243 1781 
C 301 1781 307 1807 333 1896 
C 486 2445 736 2687 979 2687 
C 1043 2687 1146 2681 1146 2477 
C 1146 2311 1075 2126 979 1883 
C 698 1123 666 881 666 689 
C 666 38 1158 -64 1421 -64 
C 1830 -64 2054 217 2182 370 
z
" id="CMMI12-75" transform="scale(0.015625)"/>
      </defs>
      <use transform="scale(0.996264)" xlink:href="#CMMI12-75"/>
      <use transform="translate(55.52033 0)scale(0.996264)" xlink:href="#CMR17-28"/>
      <use transform="translate(90.801097 0)scale(0.996264)" xlink:href="#CMMI12-74"/>
      <use transform="translate(126.027428 0)scale(0.996264)" xlink:href="#CMR17-29"/>
     </g>
    </g>
   </g>
   <g id="line2d_34">
    <path clip-path="url(#p548f7dbf17)" d="M 372.296389 131.563222 
L 374.602174 131.619945 
L 376.90796 131.664061 
L 379.213745 131.690908 
L 381.51953 131.695218 
L 383.825315 131.671143 
L 386.1311 131.612301 
L 388.436885 131.511834 
L 390.74267 131.362478 
L 393.048455 131.156646 
L 395.354241 130.886524 
L 397.660026 130.544179 
L 399.965811 130.121666 
L 402.271596 129.611153 
L 404.577381 129.005045 
L 406.883166 128.24623 
L 409.188951 127.376689 
L 411.494736 126.389559 
L 413.800522 125.278779 
L 416.106307 124.039275 
L 418.412092 122.66713 
L 420.717877 121.159751 
L 423.023662 119.51602 
L 425.329447 117.736422 
L 427.635232 115.823159 
L 429.941017 113.780235 
L 432.246803 111.613514 
L 434.552588 109.330753 
L 436.858373 106.941602 
L 439.164158 104.457571 
L 441.469943 101.891969 
L 443.775728 99.25981 
L 446.081513 96.577684 
L 448.387298 93.863606 
L 450.693084 91.136829 
L 452.998869 88.417638 
L 455.304654 85.727118 
L 457.610439 83.086902 
L 459.916224 80.518911 
L 462.222009 78.045071 
L 464.527794 75.687037 
L 466.833579 73.465901 
L 469.139365 71.401915 
L 471.44515 69.514214 
L 473.750935 67.820552 
L 476.05672 66.337059 
L 478.362505 65.078009 
L 480.66829 64.055624 
L 482.974075 63.279898 
L 485.27986 62.758455 
L 487.585646 62.496438 
L 489.891431 62.496438 
L 492.197216 62.758455 
L 494.503001 63.279898 
L 496.808786 64.055624 
L 499.114571 65.078009 
L 501.420356 66.337059 
L 503.726141 67.820552 
L 506.031926 69.514214 
L 508.337712 71.401915 
L 510.643497 73.465901 
L 512.949282 75.687037 
L 515.255067 78.045071 
L 517.560852 80.518911 
L 519.866637 83.086902 
L 522.172422 85.727118 
L 524.478207 88.417638 
L 526.783993 91.136829 
L 529.089778 93.863606 
L 531.395563 96.577684 
L 533.701348 99.25981 
L 536.007133 101.891969 
L 538.312918 104.457571 
L 540.618703 106.941602 
L 542.924488 109.330753 
L 545.230274 111.613514 
L 547.536059 113.780235 
L 549.841844 115.823159 
L 552.147629 117.736422 
L 554.453414 119.51602 
L 556.759199 121.159751 
L 559.064984 122.66713 
L 561.370769 124.039275 
L 563.676555 125.278779 
L 565.98234 126.389559 
L 568.288125 127.376689 
L 570.59391 128.24623 
L 572.899695 129.005045 
L 575.20548 129.611153 
L 577.511265 130.121666 
L 579.81705 130.544179 
L 582.122836 130.886524 
L 584.428621 131.156646 
L 586.734406 131.362478 
L 589.040191 131.511834 
L 591.345976 131.612301 
L 593.651761 131.671143 
L 595.957546 131.695218 
L 598.263331 131.690908 
L 600.569117 131.664061 
L 602.874902 131.619945 
" style="fill:none;stroke:#1f77b4;stroke-linecap:square;stroke-width:1.5;"/>
   </g>
   <g id="line2d_35">
    <defs>
     <path d="M 0 3.75 
C 0.994512 3.75 1.948425 3.354876 2.65165 2.65165 
C 3.354876 1.948425 3.75 0.994512 3.75 0 
C 3.75 -0.994512 3.354876 -1.948425 2.65165 -2.65165 
C 1.948425 -3.354876 0.994512 -3.75 0 -3.75 
C -0.994512 -3.75 -1.948425 -3.354876 -2.65165 -2.65165 
C -3.354876 -1.948425 -3.75 -0.994512 -3.75 0 
C -3.75 0.994512 -3.354876 1.948425 -2.65165 2.65165 
C -1.948425 3.354876 -0.994512 3.75 0 3.75 
z
" id="m213db81d04" style="stroke:#1f77b4;"/>
    </defs>
    <g clip-path="url(#p548f7dbf17)">
     <use style="fill:#1f77b4;stroke:#1f77b4;" x="487.585646" xlink:href="#m213db81d04" y="62.496438"/>
    </g>
   </g>
   <g id="patch_8">
    <path d="M 360.767464 254.290909 
L 360.767464 7.2 
" style="fill:none;stroke:#000000;stroke-linecap:square;stroke-linejoin:miter;stroke-width:0.8;"/>
   </g>
   <g id="patch_9">
    <path d="M 614.403827 254.290909 
L 614.403827 7.2 
" style="fill:none;stroke:#000000;stroke-linecap:square;stroke-linejoin:miter;stroke-width:0.8;"/>
   </g>
   <g id="patch_10">
    <path d="M 360.767464 254.290909 
L 614.403827 254.290909 
" style="fill:none;stroke:#000000;stroke-linecap:square;stroke-linejoin:miter;stroke-width:0.8;"/>
   </g>
   <g id="patch_11">
    <path d="M 360.767464 7.2 
L 614.403827 7.2 
" style="fill:none;stroke:#000000;stroke-linecap:square;stroke-linejoin:miter;stroke-width:0.8;"/>
   </g>
  </g>
  <g id="axes_3">
   <g id="patch_12">
    <path d="M 56.403827 550.8 
L 310.040191 550.8 
L 310.040191 303.709091 
L 56.403827 303.709091 
z
" style="fill:#ffffff;"/>
   </g>
   <g id="matplotlib.axis_5">
    <g id="xtick_7">
     <g id="line2d_36">
      <path clip-path="url(#p767088e076)" d="M 119.172422 550.8 
L 119.172422 303.709091 
" style="fill:none;stroke:#b0b0b0;stroke-linecap:square;stroke-width:0.8;"/>
     </g>
     <g id="line2d_37">
      <g>
       <use style="stroke:#000000;stroke-width:0.8;" x="119.172422" xlink:href="#m0bbbf54f43" y="550.8"/>
      </g>
     </g>
     <g id="text_21">
      <!-- $-d$ -->
      <g transform="translate(111.481833 566.10218)scale(0.12 -0.12)">
       <use transform="scale(0.996264)" xlink:href="#CMSY10-0"/>
       <use transform="translate(77.487468 0)scale(0.996264)" xlink:href="#CMMI12-64"/>
      </g>
     </g>
    </g>
    <g id="xtick_8">
     <g id="line2d_38">
      <path clip-path="url(#p767088e076)" d="M 183.222009 550.8 
L 183.222009 303.709091 
" style="fill:none;stroke:#b0b0b0;stroke-linecap:square;stroke-width:0.8;"/>
     </g>
     <g id="line2d_39">
      <g>
       <use style="stroke:#000000;stroke-width:0.8;" x="183.222009" xlink:href="#m0bbbf54f43" y="550.8"/>
      </g>
     </g>
     <g id="text_22">
      <!-- $0$ -->
      <g transform="translate(180.295514 566.10218)scale(0.12 -0.12)">
       <use transform="scale(0.996264)" xlink:href="#CMR17-30"/>
      </g>
     </g>
    </g>
    <g id="xtick_9">
     <g id="line2d_40">
      <path clip-path="url(#p767088e076)" d="M 247.271596 550.8 
L 247.271596 303.709091 
" style="fill:none;stroke:#b0b0b0;stroke-linecap:square;stroke-width:0.8;"/>
     </g>
     <g id="line2d_41">
      <g>
       <use style="stroke:#000000;stroke-width:0.8;" x="247.271596" xlink:href="#m0bbbf54f43" y="550.8"/>
      </g>
     </g>
     <g id="text_23">
      <!-- $d$ -->
      <g transform="translate(244.230251 566.10218)scale(0.12 -0.12)">
       <use transform="scale(0.996264)" xlink:href="#CMMI12-64"/>
      </g>
     </g>
    </g>
    <g id="text_24">
     <!-- $t$ -->
     <g transform="translate(180.756166 582.112652)scale(0.14 -0.14)">
      <use transform="scale(0.996264)" xlink:href="#CMMI12-74"/>
     </g>
    </g>
   </g>
   <g id="matplotlib.axis_6">
    <g id="ytick_11">
     <g id="line2d_42">
      <path clip-path="url(#p767088e076)" d="M 56.403827 522.28951 
L 310.040191 522.28951 
" style="fill:none;stroke:#b0b0b0;stroke-linecap:square;stroke-width:0.8;"/>
     </g>
     <g id="line2d_43">
      <g>
       <use style="stroke:#000000;stroke-width:0.8;" x="56.403827" xlink:href="#mabcc696d24" y="522.28951"/>
      </g>
     </g>
     <g id="text_25">
      <!-- $\mathdefault{−1.0}$ -->
      <g transform="translate(25.147696 526.4406)scale(0.12 -0.12)">
       <use transform="scale(0.996264)" xlink:href="#CMSY10-0"/>
       <use transform="translate(77.487468 0)scale(0.996264)" xlink:href="#CMR17-31"/>
       <use transform="translate(123.177945 0)scale(0.996264)" xlink:href="#CMMI12-3a"/>
       <use transform="translate(150.275122 0)scale(0.996264)" xlink:href="#CMR17-30"/>
      </g>
     </g>
    </g>
    <g id="ytick_12">
     <g id="line2d_44">
      <path clip-path="url(#p767088e076)" d="M 56.403827 474.772028 
L 310.040191 474.772028 
" style="fill:none;stroke:#b0b0b0;stroke-linecap:square;stroke-width:0.8;"/>
     </g>
     <g id="line2d_45">
      <g>
       <use style="stroke:#000000;stroke-width:0.8;" x="56.403827" xlink:href="#mabcc696d24" y="474.772028"/>
      </g>
     </g>
     <g id="text_26">
      <!-- $\mathdefault{−0.5}$ -->
      <g transform="translate(25.147696 478.923118)scale(0.12 -0.12)">
       <use transform="scale(0.996264)" xlink:href="#CMSY10-0"/>
       <use transform="translate(77.487468 0)scale(0.996264)" xlink:href="#CMR17-30"/>
       <use transform="translate(123.177945 0)scale(0.996264)" xlink:href="#CMMI12-3a"/>
       <use transform="translate(150.275122 0)scale(0.996264)" xlink:href="#CMR17-35"/>
      </g>
     </g>
    </g>
    <g id="ytick_13">
     <g id="line2d_46">
      <path clip-path="url(#p767088e076)" d="M 56.403827 427.254545 
L 310.040191 427.254545 
" style="fill:none;stroke:#b0b0b0;stroke-linecap:square;stroke-width:0.8;"/>
     </g>
     <g id="line2d_47">
      <g>
       <use style="stroke:#000000;stroke-width:0.8;" x="56.403827" xlink:href="#mabcc696d24" y="427.254545"/>
      </g>
     </g>
     <g id="text_27">
      <!-- $\mathdefault{0.0}$ -->
      <g transform="translate(34.446186 431.405635)scale(0.12 -0.12)">
       <use transform="scale(0.996264)" xlink:href="#CMR17-30"/>
       <use transform="translate(45.690477 0)scale(0.996264)" xlink:href="#CMMI12-3a"/>
       <use transform="translate(72.787654 0)scale(0.996264)" xlink:href="#CMR17-30"/>
      </g>
     </g>
    </g>
    <g id="ytick_14">
     <g id="line2d_48">
      <path clip-path="url(#p767088e076)" d="M 56.403827 379.737063 
L 310.040191 379.737063 
" style="fill:none;stroke:#b0b0b0;stroke-linecap:square;stroke-width:0.8;"/>
     </g>
     <g id="line2d_49">
      <g>
       <use style="stroke:#000000;stroke-width:0.8;" x="56.403827" xlink:href="#mabcc696d24" y="379.737063"/>
      </g>
     </g>
     <g id="text_28">
      <!-- $\mathdefault{0.5}$ -->
      <g transform="translate(34.446186 383.888153)scale(0.12 -0.12)">
       <use transform="scale(0.996264)" xlink:href="#CMR17-30"/>
       <use transform="translate(45.690477 0)scale(0.996264)" xlink:href="#CMMI12-3a"/>
       <use transform="translate(72.787654 0)scale(0.996264)" xlink:href="#CMR17-35"/>
      </g>
     </g>
    </g>
    <g id="ytick_15">
     <g id="line2d_50">
      <path clip-path="url(#p767088e076)" d="M 56.403827 332.21958 
L 310.040191 332.21958 
" style="fill:none;stroke:#b0b0b0;stroke-linecap:square;stroke-width:0.8;"/>
     </g>
     <g id="line2d_51">
      <g>
       <use style="stroke:#000000;stroke-width:0.8;" x="56.403827" xlink:href="#mabcc696d24" y="332.21958"/>
      </g>
     </g>
     <g id="text_29">
      <!-- $\mathdefault{1.0}$ -->
      <g transform="translate(34.446186 336.37067)scale(0.12 -0.12)">
       <use transform="scale(0.996264)" xlink:href="#CMR17-31"/>
       <use transform="translate(45.690477 0)scale(0.996264)" xlink:href="#CMMI12-3a"/>
       <use transform="translate(72.787654 0)scale(0.996264)" xlink:href="#CMR17-30"/>
      </g>
     </g>
    </g>
    <g id="text_30">
     <!-- $x(t)$ -->
     <g transform="translate(17.660772 438.911819)rotate(-90)scale(0.14 -0.14)">
      <defs>
       <path d="M 3034 2624 
C 2829 2585 2752 2431 2752 2310 
C 2752 2156 2874 2105 2963 2105 
C 3155 2105 3290 2271 3290 2444 
C 3290 2694 2982 2816 2714 2816 
C 2323 2816 2106 2451 2048 2329 
C 1901 2790 1504 2816 1389 2816 
C 736 2816 390 1993 390 1849 
C 390 1823 416 1790 461 1790 
C 512 1790 525 1829 538 1855 
C 755 2572 1184 2687 1370 2687 
C 1658 2687 1715 2438 1715 2284 
C 1715 2143 1677 1993 1600 1678 
L 1382 778 
C 1286 390 1101 64 762 64 
C 730 64 570 64 435 126 
C 666 166 717 358 717 435 
C 717 563 621 640 499 640 
C 346 640 179 505 179 300 
C 179 57 480 -64 755 -64 
C 1062 -64 1280 153 1414 415 
C 1517 64 1837 -64 2074 -64 
C 2726 -64 3072 751 3072 896 
C 3072 929 3046 955 3008 955 
C 2950 955 2944 922 2925 870 
C 2752 300 2381 64 2093 64 
C 1869 64 1747 204 1747 467 
C 1747 607 1773 712 1875 1146 
L 2099 2039 
C 2195 2425 2413 2687 2707 2687 
C 2720 2687 2899 2687 3034 2624 
z
" id="CMMI12-78" transform="scale(0.015625)"/>
      </defs>
      <use transform="scale(0.996264)" xlink:href="#CMMI12-78"/>
      <use transform="translate(55.43406 0)scale(0.996264)" xlink:href="#CMR17-28"/>
      <use transform="translate(90.714827 0)scale(0.996264)" xlink:href="#CMMI12-74"/>
      <use transform="translate(125.941158 0)scale(0.996264)" xlink:href="#CMR17-29"/>
     </g>
    </g>
   </g>
   <g id="line2d_52">
    <path clip-path="url(#p767088e076)" d="M 67.932753 332.21958 
L 70.238538 332.21958 
L 72.544323 332.21958 
L 74.850108 332.21958 
L 77.155893 332.21958 
L 79.461679 332.21958 
L 81.767464 332.21958 
L 84.073249 332.21958 
L 86.379034 332.21958 
L 88.684819 522.28951 
L 90.990604 522.28951 
L 93.296389 522.28951 
L 95.602174 522.28951 
L 97.90796 522.28951 
L 100.213745 522.28951 
L 102.51953 522.28951 
L 104.825315 522.28951 
L 107.1311 522.28951 
L 109.436885 522.28951 
L 111.74267 522.28951 
L 114.048455 522.28951 
L 116.354241 522.28951 
L 118.660026 522.28951 
L 120.965811 522.28951 
L 123.271596 522.28951 
L 125.577381 522.28951 
L 127.883166 522.28951 
L 130.188951 522.28951 
L 132.494736 522.28951 
L 134.800522 522.28951 
L 137.106307 522.28951 
L 139.412092 522.28951 
L 141.717877 522.28951 
L 144.023662 522.28951 
L 146.329447 522.28951 
L 148.635232 522.28951 
L 150.941017 522.28951 
L 153.246803 332.21958 
L 155.552588 332.21958 
L 157.858373 332.21958 
L 160.164158 332.21958 
L 162.469943 332.21958 
L 164.775728 332.21958 
L 167.081513 332.21958 
L 169.387298 332.21958 
L 171.693084 332.21958 
L 173.998869 332.21958 
L 176.304654 332.21958 
L 178.610439 332.21958 
L 180.916224 332.21958 
L 183.222009 332.21958 
L 185.527794 332.21958 
L 187.833579 332.21958 
L 190.139365 332.21958 
L 192.44515 332.21958 
L 194.750935 332.21958 
L 197.05672 332.21958 
L 199.362505 332.21958 
L 201.66829 332.21958 
L 203.974075 332.21958 
L 206.27986 332.21958 
L 208.585646 332.21958 
L 210.891431 332.21958 
L 213.197216 332.21958 
L 215.503001 522.28951 
L 217.808786 522.28951 
L 220.114571 522.28951 
L 222.420356 522.28951 
L 224.726141 522.28951 
L 227.031926 522.28951 
L 229.337712 522.28951 
L 231.643497 522.28951 
L 233.949282 522.28951 
L 236.255067 522.28951 
L 238.560852 522.28951 
L 240.866637 522.28951 
L 243.172422 522.28951 
L 245.478207 522.28951 
L 247.783993 522.28951 
L 250.089778 522.28951 
L 252.395563 522.28951 
L 254.701348 522.28951 
L 257.007133 522.28951 
L 259.312918 522.28951 
L 261.618703 522.28951 
L 263.924488 522.28951 
L 266.230274 522.28951 
L 268.536059 522.28951 
L 270.841844 522.28951 
L 273.147629 522.28951 
L 275.453414 522.28951 
L 277.759199 522.28951 
L 280.064984 522.28951 
L 282.370769 522.28951 
L 284.676555 522.28951 
L 286.98234 522.28951 
L 289.288125 522.28951 
L 291.59391 522.28951 
L 293.899695 522.28951 
L 296.20548 522.28951 
L 298.511265 522.28951 
" style="fill:none;stroke:#ff7f0e;stroke-linecap:square;stroke-width:1.5;"/>
   </g>
   <g id="patch_13">
    <path d="M 56.403827 550.8 
L 56.403827 303.709091 
" style="fill:none;stroke:#000000;stroke-linecap:square;stroke-linejoin:miter;stroke-width:0.8;"/>
   </g>
   <g id="patch_14">
    <path d="M 310.040191 550.8 
L 310.040191 303.709091 
" style="fill:none;stroke:#000000;stroke-linecap:square;stroke-linejoin:miter;stroke-width:0.8;"/>
   </g>
   <g id="patch_15">
    <path d="M 56.403827 550.8 
L 310.040191 550.8 
" style="fill:none;stroke:#000000;stroke-linecap:square;stroke-linejoin:miter;stroke-width:0.8;"/>
   </g>
   <g id="patch_16">
    <path d="M 56.403827 303.709091 
L 310.040191 303.709091 
" style="fill:none;stroke:#000000;stroke-linecap:square;stroke-linejoin:miter;stroke-width:0.8;"/>
   </g>
  </g>
  <g id="axes_4">
   <g id="patch_17">
    <path d="M 360.767464 550.8 
L 614.403827 550.8 
L 614.403827 303.709091 
L 360.767464 303.709091 
z
" style="fill:#ffffff;"/>
   </g>
   <g id="matplotlib.axis_7">
    <g id="xtick_10">
     <g id="line2d_53">
      <path clip-path="url(#p033c3426b6)" d="M 423.536059 550.8 
L 423.536059 303.709091 
" style="fill:none;stroke:#b0b0b0;stroke-linecap:square;stroke-width:0.8;"/>
     </g>
     <g id="line2d_54">
      <g>
       <use style="stroke:#000000;stroke-width:0.8;" x="423.536059" xlink:href="#m0bbbf54f43" y="550.8"/>
      </g>
     </g>
     <g id="text_31">
      <!-- $-d$ -->
      <g transform="translate(415.845469 566.10218)scale(0.12 -0.12)">
       <use transform="scale(0.996264)" xlink:href="#CMSY10-0"/>
       <use transform="translate(77.487468 0)scale(0.996264)" xlink:href="#CMMI12-64"/>
      </g>
     </g>
    </g>
    <g id="xtick_11">
     <g id="line2d_55">
      <path clip-path="url(#p033c3426b6)" d="M 487.585646 550.8 
L 487.585646 303.709091 
" style="fill:none;stroke:#b0b0b0;stroke-linecap:square;stroke-width:0.8;"/>
     </g>
     <g id="line2d_56">
      <g>
       <use style="stroke:#000000;stroke-width:0.8;" x="487.585646" xlink:href="#m0bbbf54f43" y="550.8"/>
      </g>
     </g>
     <g id="text_32">
      <!-- $0$ -->
      <g transform="translate(484.65915 566.10218)scale(0.12 -0.12)">
       <use transform="scale(0.996264)" xlink:href="#CMR17-30"/>
      </g>
     </g>
    </g>
    <g id="xtick_12">
     <g id="line2d_57">
      <path clip-path="url(#p033c3426b6)" d="M 551.635232 550.8 
L 551.635232 303.709091 
" style="fill:none;stroke:#b0b0b0;stroke-linecap:square;stroke-width:0.8;"/>
     </g>
     <g id="line2d_58">
      <g>
       <use style="stroke:#000000;stroke-width:0.8;" x="551.635232" xlink:href="#m0bbbf54f43" y="550.8"/>
      </g>
     </g>
     <g id="text_33">
      <!-- $d$ -->
      <g transform="translate(548.593888 566.10218)scale(0.12 -0.12)">
       <use transform="scale(0.996264)" xlink:href="#CMMI12-64"/>
      </g>
     </g>
    </g>
    <g id="text_34">
     <!-- $t$ -->
     <g transform="translate(485.119802 582.112652)scale(0.14 -0.14)">
      <use transform="scale(0.996264)" xlink:href="#CMMI12-74"/>
     </g>
    </g>
   </g>
   <g id="matplotlib.axis_8">
    <g id="ytick_16">
     <g id="line2d_59">
      <path clip-path="url(#p033c3426b6)" d="M 360.767464 522.28951 
L 614.403827 522.28951 
" style="fill:none;stroke:#b0b0b0;stroke-linecap:square;stroke-width:0.8;"/>
     </g>
     <g id="line2d_60">
      <g>
       <use style="stroke:#000000;stroke-width:0.8;" x="360.767464" xlink:href="#mabcc696d24" y="522.28951"/>
      </g>
     </g>
     <g id="text_35">
      <!-- $\mathdefault{−1.0}$ -->
      <g transform="translate(329.511333 526.4406)scale(0.12 -0.12)">
       <use transform="scale(0.996264)" xlink:href="#CMSY10-0"/>
       <use transform="translate(77.487468 0)scale(0.996264)" xlink:href="#CMR17-31"/>
       <use transform="translate(123.177945 0)scale(0.996264)" xlink:href="#CMMI12-3a"/>
       <use transform="translate(150.275122 0)scale(0.996264)" xlink:href="#CMR17-30"/>
      </g>
     </g>
    </g>
    <g id="ytick_17">
     <g id="line2d_61">
      <path clip-path="url(#p033c3426b6)" d="M 360.767464 474.772028 
L 614.403827 474.772028 
" style="fill:none;stroke:#b0b0b0;stroke-linecap:square;stroke-width:0.8;"/>
     </g>
     <g id="line2d_62">
      <g>
       <use style="stroke:#000000;stroke-width:0.8;" x="360.767464" xlink:href="#mabcc696d24" y="474.772028"/>
      </g>
     </g>
     <g id="text_36">
      <!-- $\mathdefault{−0.5}$ -->
      <g transform="translate(329.511333 478.923118)scale(0.12 -0.12)">
       <use transform="scale(0.996264)" xlink:href="#CMSY10-0"/>
       <use transform="translate(77.487468 0)scale(0.996264)" xlink:href="#CMR17-30"/>
       <use transform="translate(123.177945 0)scale(0.996264)" xlink:href="#CMMI12-3a"/>
       <use transform="translate(150.275122 0)scale(0.996264)" xlink:href="#CMR17-35"/>
      </g>
     </g>
    </g>
    <g id="ytick_18">
     <g id="line2d_63">
      <path clip-path="url(#p033c3426b6)" d="M 360.767464 427.254545 
L 614.403827 427.254545 
" style="fill:none;stroke:#b0b0b0;stroke-linecap:square;stroke-width:0.8;"/>
     </g>
     <g id="line2d_64">
      <g>
       <use style="stroke:#000000;stroke-width:0.8;" x="360.767464" xlink:href="#mabcc696d24" y="427.254545"/>
      </g>
     </g>
     <g id="text_37">
      <!-- $\mathdefault{0.0}$ -->
      <g transform="translate(338.809822 431.405635)scale(0.12 -0.12)">
       <use transform="scale(0.996264)" xlink:href="#CMR17-30"/>
       <use transform="translate(45.690477 0)scale(0.996264)" xlink:href="#CMMI12-3a"/>
       <use transform="translate(72.787654 0)scale(0.996264)" xlink:href="#CMR17-30"/>
      </g>
     </g>
    </g>
    <g id="ytick_19">
     <g id="line2d_65">
      <path clip-path="url(#p033c3426b6)" d="M 360.767464 379.737063 
L 614.403827 379.737063 
" style="fill:none;stroke:#b0b0b0;stroke-linecap:square;stroke-width:0.8;"/>
     </g>
     <g id="line2d_66">
      <g>
       <use style="stroke:#000000;stroke-width:0.8;" x="360.767464" xlink:href="#mabcc696d24" y="379.737063"/>
      </g>
     </g>
     <g id="text_38">
      <!-- $\mathdefault{0.5}$ -->
      <g transform="translate(338.809822 383.888153)scale(0.12 -0.12)">
       <use transform="scale(0.996264)" xlink:href="#CMR17-30"/>
       <use transform="translate(45.690477 0)scale(0.996264)" xlink:href="#CMMI12-3a"/>
       <use transform="translate(72.787654 0)scale(0.996264)" xlink:href="#CMR17-35"/>
      </g>
     </g>
    </g>
    <g id="ytick_20">
     <g id="line2d_67">
      <path clip-path="url(#p033c3426b6)" d="M 360.767464 332.21958 
L 614.403827 332.21958 
" style="fill:none;stroke:#b0b0b0;stroke-linecap:square;stroke-width:0.8;"/>
     </g>
     <g id="line2d_68">
      <g>
       <use style="stroke:#000000;stroke-width:0.8;" x="360.767464" xlink:href="#mabcc696d24" y="332.21958"/>
      </g>
     </g>
     <g id="text_39">
      <!-- $\mathdefault{1.0}$ -->
      <g transform="translate(338.809822 336.37067)scale(0.12 -0.12)">
       <use transform="scale(0.996264)" xlink:href="#CMR17-31"/>
       <use transform="translate(45.690477 0)scale(0.996264)" xlink:href="#CMMI12-3a"/>
       <use transform="translate(72.787654 0)scale(0.996264)" xlink:href="#CMR17-30"/>
      </g>
     </g>
    </g>
    <g id="text_40">
     <!-- $z(t)$ -->
     <g transform="translate(322.024408 438.514293)rotate(-90)scale(0.14 -0.14)">
      <defs>
       <path d="M 813 486 
C 1088 809 1312 1015 1632 1313 
C 2016 1657 2182 1822 2272 1922 
C 2720 2371 2944 2713 2944 2764 
C 2944 2816 2893 2816 2880 2816 
C 2835 2816 2822 2790 2790 2745 
C 2630 2470 2477 2368 2310 2368 
C 2176 2368 2106 2403 1984 2547 
C 1850 2707 1741 2816 1555 2816 
C 1088 2816 806 2265 806 2127 
C 806 2107 813 2067 870 2067 
C 922 2067 928 2094 947 2140 
C 1056 2387 1363 2415 1485 2415 
C 1619 2415 1747 2387 1882 2342 
C 2125 2239 2227 2239 2291 2239 
C 2336 2239 2362 2239 2394 2246 
C 2182 1988 1837 1670 1549 1399 
L 902 783 
C 512 380 275 32 275 -13 
C 275 -52 307 -64 346 -64 
C 384 -64 390 -58 435 19 
C 538 179 742 384 979 384 
C 1114 384 1178 356 1306 211 
C 1427 70 1536 -64 1741 -64 
C 2368 -64 2726 723 2726 876 
C 2726 902 2720 942 2656 942 
C 2605 942 2598 915 2579 849 
C 2438 460 2061 336 1811 336 
C 1677 336 1549 364 1414 409 
C 1158 512 1088 512 1005 512 
C 941 512 870 512 813 486 
z
" id="CMMI12-7a" transform="scale(0.015625)"/>
      </defs>
      <use transform="scale(0.996264)" xlink:href="#CMMI12-7a"/>
      <use transform="translate(49.755145 0)scale(0.996264)" xlink:href="#CMR17-28"/>
      <use transform="translate(85.035913 0)scale(0.996264)" xlink:href="#CMMI12-74"/>
      <use transform="translate(120.262243 0)scale(0.996264)" xlink:href="#CMR17-29"/>
     </g>
    </g>
   </g>
   <g id="line2d_69">
    <path clip-path="url(#p033c3426b6)" d="M 372.296389 451.001674 
L 374.602174 453.498313 
L 376.90796 456.081184 
L 379.213745 458.73588 
L 381.51953 461.446391 
L 383.825315 464.195235 
L 386.1311 466.963637 
L 388.436885 469.731718 
L 390.74267 472.478714 
L 393.048455 475.183219 
L 395.354241 477.823435 
L 397.660026 480.377442 
L 399.965811 482.823476 
L 402.271596 485.140207 
L 404.577381 487.307019 
L 406.883166 489.304286 
L 409.188951 491.113636 
L 411.494736 492.718202 
L 413.800522 494.102857 
L 416.106307 495.254419 
L 418.412092 496.161841 
L 420.717877 496.816364 
L 423.023662 497.211643 
L 425.329447 497.343831 
L 427.635232 497.211643 
L 429.941017 496.816364 
L 432.246803 496.161841 
L 434.552588 495.254419 
L 436.858373 494.102857 
L 439.164158 492.718202 
L 441.469943 491.113636 
L 443.775728 489.304286 
L 446.081513 487.307019 
L 448.387298 485.140207 
L 450.693084 482.823476 
L 452.998869 480.377442 
L 455.304654 477.823435 
L 457.610439 475.183219 
L 459.916224 472.478714 
L 462.222009 469.731718 
L 464.527794 466.963637 
L 466.833579 464.195235 
L 469.139365 461.446391 
L 471.44515 458.73588 
L 473.750935 456.081184 
L 476.05672 453.498313 
L 478.362505 451.001674 
L 480.66829 448.603951 
L 482.974075 446.316028 
L 485.27986 444.146938 
L 487.585646 442.103847 
L 489.891431 440.192061 
L 492.197216 438.415068 
L 494.503001 436.774609 
L 496.808786 435.270768 
L 499.114571 433.902086 
L 501.420356 432.665703 
L 503.726141 431.557499 
L 506.031926 430.572269 
L 508.337712 429.703889 
L 510.643497 428.994955 
L 512.949282 428.388847 
L 515.255067 427.878334 
L 517.560852 427.455821 
L 519.866637 427.113476 
L 522.172422 426.843354 
L 524.478207 426.637522 
L 526.783993 426.488166 
L 529.089778 426.387699 
L 531.395563 426.328857 
L 533.701348 426.304782 
L 536.007133 426.309092 
L 538.312918 426.335939 
L 540.618703 426.380055 
L 542.924488 426.436778 
L 545.230274 426.502074 
L 547.536059 426.572532 
L 549.841844 426.645359 
L 552.147629 426.718352 
L 554.453414 426.78987 
L 556.759199 426.858782 
L 559.064984 426.924422 
L 561.370769 426.986524 
L 563.676555 427.045162 
L 565.98234 427.10068 
L 568.288125 427.153623 
L 570.59391 427.204664 
L 572.899695 427.254545 
L 575.20548 427.254545 
L 577.511265 427.254545 
L 579.81705 427.254545 
L 582.122836 427.254545 
L 584.428621 427.254545 
L 586.734406 427.254545 
L 589.040191 427.254545 
L 591.345976 427.254545 
L 593.651761 427.254545 
L 595.957546 427.254545 
L 598.263331 427.254545 
L 600.569117 427.254545 
L 602.874902 427.254545 
" style="fill:none;stroke:#808080;stroke-linecap:square;stroke-width:0.5;"/>
   </g>
   <g id="line2d_70">
    <defs>
     <path d="M 0 3.75 
C 0.994512 3.75 1.948425 3.354876 2.65165 2.65165 
C 3.354876 1.948425 3.75 0.994512 3.75 0 
C 3.75 -0.994512 3.354876 -1.948425 2.65165 -2.65165 
C 1.948425 -3.354876 0.994512 -3.75 0 -3.75 
C -0.994512 -3.75 -1.948425 -3.354876 -2.65165 -2.65165 
C -3.354876 -1.948425 -3.75 -0.994512 -3.75 0 
C -3.75 0.994512 -3.354876 1.948425 -2.65165 2.65165 
C -1.948425 3.354876 -0.994512 3.75 0 3.75 
z
" id="maa8bcf1b00" style="stroke:#808080;"/>
    </defs>
    <g clip-path="url(#p033c3426b6)">
     <use style="fill:#808080;stroke:#808080;" x="423.023662" xlink:href="#maa8bcf1b00" y="497.211643"/>
    </g>
   </g>
   <g id="line2d_71">
    <path clip-path="url(#p033c3426b6)" d="M 372.296389 428.072313 
L 374.602174 428.129036 
L 376.90796 428.173152 
L 379.213745 428.199999 
L 381.51953 428.204309 
L 383.825315 428.180234 
L 386.1311 428.121392 
L 388.436885 428.020925 
L 390.74267 427.871569 
L 393.048455 427.665737 
L 395.354241 427.395615 
L 397.660026 427.05327 
L 399.965811 426.630757 
L 402.271596 426.120244 
L 404.577381 425.514136 
L 406.883166 424.755321 
L 409.188951 423.88578 
L 411.494736 422.898649 
L 413.800522 421.78787 
L 416.106307 420.548366 
L 418.412092 419.176221 
L 420.717877 417.668842 
L 423.023662 416.025111 
L 425.329447 414.245513 
L 427.635232 412.33225 
L 429.941017 410.289326 
L 432.246803 408.122605 
L 434.552588 405.839844 
L 436.858373 403.450693 
L 439.164158 400.966662 
L 441.469943 398.40106 
L 443.775728 395.768901 
L 446.081513 393.086775 
L 448.387298 390.372697 
L 450.693084 387.64592 
L 452.998869 384.926729 
L 455.304654 382.236209 
L 457.610439 379.595993 
L 459.916224 377.028002 
L 462.222009 374.554162 
L 464.527794 372.196128 
L 466.833579 369.974992 
L 469.139365 367.911006 
L 471.44515 366.023305 
L 473.750935 364.329643 
L 476.05672 362.84615 
L 478.362505 361.5871 
L 480.66829 360.564715 
L 482.974075 359.788989 
L 485.27986 359.267546 
L 487.585646 359.005529 
L 489.891431 359.005529 
L 492.197216 359.267546 
L 494.503001 359.788989 
L 496.808786 360.564715 
L 499.114571 361.5871 
L 501.420356 362.84615 
L 503.726141 364.329643 
L 506.031926 366.023305 
L 508.337712 367.911006 
L 510.643497 369.974992 
L 512.949282 372.196128 
L 515.255067 374.554162 
L 517.560852 377.028002 
L 519.866637 379.595993 
L 522.172422 382.236209 
L 524.478207 384.926729 
L 526.783993 387.64592 
L 529.089778 390.372697 
L 531.395563 393.086775 
L 533.701348 395.768901 
L 536.007133 398.40106 
L 538.312918 400.966662 
L 540.618703 403.450693 
L 542.924488 405.839844 
L 545.230274 408.122605 
L 547.536059 410.289326 
L 549.841844 412.33225 
L 552.147629 414.245513 
L 554.453414 416.025111 
L 556.759199 417.668842 
L 559.064984 419.176221 
L 561.370769 420.548366 
L 563.676555 421.78787 
L 565.98234 422.898649 
L 568.288125 423.88578 
L 570.59391 424.755321 
L 572.899695 425.514136 
L 575.20548 426.120244 
L 577.511265 426.630757 
L 579.81705 427.05327 
L 582.122836 427.395615 
L 584.428621 427.665737 
L 586.734406 427.871569 
L 589.040191 428.020925 
L 591.345976 428.121392 
L 593.651761 428.180234 
L 595.957546 428.204309 
L 598.263331 428.199999 
L 600.569117 428.173152 
L 602.874902 428.129036 
" style="fill:none;stroke:#808080;stroke-linecap:square;stroke-width:0.5;"/>
   </g>
   <g id="line2d_72">
    <g clip-path="url(#p033c3426b6)">
     <use style="fill:#808080;stroke:#808080;" x="487.585646" xlink:href="#maa8bcf1b00" y="359.005529"/>
    </g>
   </g>
   <g id="line2d_73">
    <path clip-path="url(#p033c3426b6)" d="M 372.296389 427.254545 
L 374.602174 427.254545 
L 376.90796 427.254545 
L 379.213745 427.254545 
L 381.51953 427.254545 
L 383.825315 427.254545 
L 386.1311 427.254545 
L 388.436885 427.254545 
L 390.74267 427.254545 
L 393.048455 427.254545 
L 395.354241 427.254545 
L 397.660026 427.254545 
L 399.965811 427.254545 
L 402.271596 427.254545 
L 404.577381 427.254545 
L 406.883166 427.204664 
L 409.188951 427.153623 
L 411.494736 427.10068 
L 413.800522 427.045162 
L 416.106307 426.986524 
L 418.412092 426.924422 
L 420.717877 426.858782 
L 423.023662 426.78987 
L 425.329447 426.718352 
L 427.635232 426.645359 
L 429.941017 426.572532 
L 432.246803 426.502074 
L 434.552588 426.436778 
L 436.858373 426.380055 
L 439.164158 426.335939 
L 441.469943 426.309092 
L 443.775728 426.304782 
L 446.081513 426.328857 
L 448.387298 426.387699 
L 450.693084 426.488166 
L 452.998869 426.637522 
L 455.304654 426.843354 
L 457.610439 427.113476 
L 459.916224 427.455821 
L 462.222009 427.878334 
L 464.527794 428.388847 
L 466.833579 428.994955 
L 469.139365 429.703889 
L 471.44515 430.572269 
L 473.750935 431.557499 
L 476.05672 432.665703 
L 478.362505 433.902086 
L 480.66829 435.270768 
L 482.974075 436.774609 
L 485.27986 438.415068 
L 487.585646 440.192061 
L 489.891431 442.103847 
L 492.197216 444.146938 
L 494.503001 446.316028 
L 496.808786 448.603951 
L 499.114571 451.001674 
L 501.420356 453.498313 
L 503.726141 456.081184 
L 506.031926 458.73588 
L 508.337712 461.446391 
L 510.643497 464.195235 
L 512.949282 466.963637 
L 515.255067 469.731718 
L 517.560852 472.478714 
L 519.866637 475.183219 
L 522.172422 477.823435 
L 524.478207 480.377442 
L 526.783993 482.823476 
L 529.089778 485.140207 
L 531.395563 487.307019 
L 533.701348 489.304286 
L 536.007133 491.113636 
L 538.312918 492.718202 
L 540.618703 494.102857 
L 542.924488 495.254419 
L 545.230274 496.161841 
L 547.536059 496.816364 
L 549.841844 497.211643 
L 552.147629 497.343831 
L 554.453414 497.211643 
L 556.759199 496.816364 
L 559.064984 496.161841 
L 561.370769 495.254419 
L 563.676555 494.102857 
L 565.98234 492.718202 
L 568.288125 491.113636 
L 570.59391 489.304286 
L 572.899695 487.307019 
L 575.20548 485.140207 
L 577.511265 482.823476 
L 579.81705 480.377442 
L 582.122836 477.823435 
L 584.428621 475.183219 
L 586.734406 472.478714 
L 589.040191 469.731718 
L 591.345976 466.963637 
L 593.651761 464.195235 
L 595.957546 461.446391 
L 598.263331 458.73588 
L 600.569117 456.081184 
L 602.874902 453.498313 
" style="fill:none;stroke:#808080;stroke-linecap:square;stroke-width:0.5;"/>
   </g>
   <g id="line2d_74">
    <g clip-path="url(#p033c3426b6)">
     <use style="fill:#808080;stroke:#808080;" x="552.147629" xlink:href="#maa8bcf1b00" y="497.343831"/>
    </g>
   </g>
   <g id="line2d_75">
    <path clip-path="url(#p033c3426b6)" d="M 372.296389 427.23132 
L 374.602174 429.314262 
L 376.90796 431.583649 
L 379.213745 434.024495 
L 381.51953 436.618272 
L 383.825315 439.343042 
L 386.1311 442.173646 
L 388.436885 445.081957 
L 390.74267 448.037195 
L 393.048455 451.006289 
L 395.354241 453.954293 
L 397.660026 456.844843 
L 399.965811 459.640648 
L 402.271596 462.304012 
L 404.577381 464.797367 
L 406.883166 466.984058 
L 409.188951 468.925855 
L 411.494736 470.587365 
L 413.800522 471.935595 
L 416.106307 472.940576 
L 418.412092 473.575954 
L 420.717877 473.819534 
L 423.023662 473.653767 
L 425.329447 473.066176 
L 427.635232 472.049704 
L 429.941017 470.602981 
L 432.246803 468.730504 
L 434.552588 466.442722 
L 436.858373 463.75603 
L 439.164158 460.692658 
L 441.469943 457.280475 
L 443.775728 453.552689 
L 446.081513 449.547463 
L 448.387298 445.307448 
L 450.693084 440.879229 
L 452.998869 436.312721 
L 455.304654 431.660486 
L 457.610439 426.977021 
L 459.916224 422.317998 
L 462.222009 417.73949 
L 464.527794 413.297181 
L 466.833579 409.045586 
L 469.139365 405.037281 
L 471.44515 401.322172 
L 473.750935 397.946795 
L 476.05672 394.953679 
L 478.362505 392.380771 
L 480.66829 390.260928 
L 482.974075 388.621502 
L 485.27986 387.484003 
L 487.585646 386.863863 
L 489.891431 386.720828 
L 492.197216 387.156919 
L 494.503001 388.119569 
L 496.808786 389.599758 
L 499.114571 391.582768 
L 501.420356 394.04847 
L 503.726141 396.971676 
L 506.031926 400.322554 
L 508.337712 404.067106 
L 510.643497 408.266596 
L 512.949282 412.781861 
L 515.255067 417.570757 
L 517.560852 422.588894 
L 519.866637 427.790173 
L 522.172422 433.127328 
L 524.478207 438.552485 
L 526.783993 444.017714 
L 529.089778 449.475577 
L 531.395563 454.879658 
L 533.701348 460.185068 
L 536.007133 465.34892 
L 538.312918 470.330767 
L 540.618703 475.092997 
L 542.924488 479.601178 
L 545.230274 483.824354 
L 547.536059 487.735282 
L 549.841844 491.310618 
L 552.147629 494.531036 
L 554.453414 497.381298 
L 556.759199 499.850261 
L 559.064984 501.930831 
L 561.370769 503.61986 
L 563.676555 504.918002 
L 565.98234 505.829518 
L 568.288125 506.362039 
L 570.59391 506.526303 
L 572.899695 506.335852 
L 575.20548 505.707798 
L 577.511265 504.758726 
L 579.81705 503.50749 
L 582.122836 501.974716 
L 584.428621 500.182531 
L 586.734406 498.15428 
L 589.040191 495.914238 
L 591.345976 493.487322 
L 593.651761 490.898805 
L 595.957546 488.174035 
L 598.263331 485.338172 
L 600.569117 482.41593 
L 602.874902 479.431347 
" style="fill:none;stroke:#ff7f0e;stroke-linecap:square;stroke-width:1.5;"/>
   </g>
   <g id="line2d_76">
    <defs>
     <path d="M 0 3.75 
C 0.994512 3.75 1.948425 3.354876 2.65165 2.65165 
C 3.354876 1.948425 3.75 0.994512 3.75 0 
C 3.75 -0.994512 3.354876 -1.948425 2.65165 -2.65165 
C 1.948425 -3.354876 0.994512 -3.75 0 -3.75 
C -0.994512 -3.75 -1.948425 -3.354876 -2.65165 -2.65165 
C -3.354876 -1.948425 -3.75 -0.994512 -3.75 0 
C -3.75 0.994512 -3.354876 1.948425 -2.65165 2.65165 
C -1.948425 3.354876 -0.994512 3.75 0 3.75 
z
" id="ma4bcebb5a0" style="stroke:#ff7f0e;"/>
    </defs>
    <g clip-path="url(#p033c3426b6)">
     <use style="fill:#ff7f0e;stroke:#ff7f0e;" x="423.023662" xlink:href="#ma4bcebb5a0" y="473.653767"/>
    </g>
   </g>
   <g id="line2d_77">
    <g clip-path="url(#p033c3426b6)">
     <use style="fill:#ff7f0e;stroke:#ff7f0e;" x="487.585646" xlink:href="#ma4bcebb5a0" y="386.863863"/>
    </g>
   </g>
   <g id="line2d_78">
    <g clip-path="url(#p033c3426b6)">
     <use style="fill:#ff7f0e;stroke:#ff7f0e;" x="552.147629" xlink:href="#ma4bcebb5a0" y="494.531036"/>
    </g>
   </g>
   <g id="patch_18">
    <path d="M 360.767464 550.8 
L 360.767464 303.709091 
" style="fill:none;stroke:#000000;stroke-linecap:square;stroke-linejoin:miter;stroke-width:0.8;"/>
   </g>
   <g id="patch_19">
    <path d="M 614.403827 550.8 
L 614.403827 303.709091 
" style="fill:none;stroke:#000000;stroke-linecap:square;stroke-linejoin:miter;stroke-width:0.8;"/>
   </g>
   <g id="patch_20">
    <path d="M 360.767464 550.8 
L 614.403827 550.8 
" style="fill:none;stroke:#000000;stroke-linecap:square;stroke-linejoin:miter;stroke-width:0.8;"/>
   </g>
   <g id="patch_21">
    <path d="M 360.767464 303.709091 
L 614.403827 303.709091 
" style="fill:none;stroke:#000000;stroke-linecap:square;stroke-linejoin:miter;stroke-width:0.8;"/>
   </g>
  </g>
 </g>
 <defs>
  <clipPath id="p64c4c268ca">
   <rect height="247.090909" width="253.636364" x="56.403827" y="7.2"/>
  </clipPath>
  <clipPath id="p548f7dbf17">
   <rect height="247.090909" width="253.636364" x="360.767464" y="7.2"/>
  </clipPath>
  <clipPath id="p767088e076">
   <rect height="247.090909" width="253.636364" x="56.403827" y="303.709091"/>
  </clipPath>
  <clipPath id="p033c3426b6">
   <rect height="247.090909" width="253.636364" x="360.767464" y="303.709091"/>
  </clipPath>
 </defs>
</svg>
