<?xml version="1.0" encoding="utf-8" standalone="no"?>
<!DOCTYPE svg PUBLIC "-//W3C//DTD SVG 1.1//EN"
  "http://www.w3.org/Graphics/SVG/1.1/DTD/svg11.dtd">
<!-- Created with matplotlib (https://matplotlib.org/) -->
<svg height="157.14468pt" version="1.1" viewBox="0 0 500.899176 157.14468" width="500.899176pt" xmlns="http://www.w3.org/2000/svg" xmlns:xlink="http://www.w3.org/1999/xlink">
 <defs>
  <style type="text/css">
*{stroke-linecap:butt;stroke-linejoin:round;}
  </style>
 </defs>
 <g id="figure_1">
  <g id="patch_1">
   <path d="M 0 157.14468 
L 500.899176 157.14468 
L 500.899176 0 
L 0 0 
z
" style="fill:none;"/>
  </g>
  <g id="axes_1">
   <g id="patch_2">
    <path d="M 47.299176 115.92 
L 493.699176 115.92 
L 493.699176 7.2 
L 47.299176 7.2 
z
" style="fill:#ffffff;"/>
   </g>
   <g id="matplotlib.axis_1">
    <g id="xtick_1">
     <g id="line2d_1">
      <path clip-path="url(#pb4abdd2459)" d="M 67.590085 115.92 
L 67.590085 7.2 
" style="fill:none;stroke:#b0b0b0;stroke-linecap:square;stroke-width:0.8;"/>
     </g>
     <g id="line2d_2">
      <defs>
       <path d="M 0 0 
L 0 3.5 
" id="m5f49a12b6d" style="stroke:#000000;stroke-width:0.8;"/>
      </defs>
      <g>
       <use style="stroke:#000000;stroke-width:0.8;" x="67.590085" xlink:href="#m5f49a12b6d" y="115.92"/>
      </g>
     </g>
     <g id="text_1">
      <!-- $0$ -->
      <defs>
       <path d="M 42 31.84375 
C 42 37.96875 41.90625 48.421875 37.703125 56.453125 
C 34 63.484375 28.09375 66 22.90625 66 
C 18.09375 66 12 63.78125 8.203125 56.5625 
C 4.203125 49.015625 3.796875 39.671875 3.796875 31.84375 
C 3.796875 26.109375 3.90625 17.375 7 9.734375 
C 11.296875 -0.609375 19 -2 22.90625 -2 
C 27.5 -2 34.5 -0.109375 38.59375 9.4375 
C 41.59375 16.375 42 24.5 42 31.84375 
z
M 22.90625 -0.40625 
C 16.5 -0.40625 12.703125 5.125 11.296875 12.75 
C 10.203125 18.6875 10.203125 27.328125 10.203125 32.953125 
C 10.203125 40.6875 10.203125 47.109375 11.5 53.234375 
C 13.40625 61.78125 19 64.390625 22.90625 64.390625 
C 27 64.390625 32.296875 61.671875 34.203125 53.4375 
C 35.5 47.71875 35.59375 40.984375 35.59375 32.953125 
C 35.59375 26.421875 35.59375 18.375 34.40625 12.453125 
C 32.296875 1.5 26.40625 -0.40625 22.90625 -0.40625 
z
" id="CMR17-48"/>
      </defs>
      <g transform="translate(64.66359 131.22218)scale(0.12 -0.12)">
       <use transform="scale(0.996264)" xlink:href="#CMR17-48"/>
      </g>
     </g>
    </g>
    <g id="xtick_2">
     <g id="line2d_3">
      <path clip-path="url(#pb4abdd2459)" d="M 135.339364 115.92 
L 135.339364 7.2 
" style="fill:none;stroke:#b0b0b0;stroke-linecap:square;stroke-width:0.8;"/>
     </g>
     <g id="line2d_4">
      <g>
       <use style="stroke:#000000;stroke-width:0.8;" x="135.339364" xlink:href="#m5f49a12b6d" y="115.92"/>
      </g>
     </g>
     <g id="text_2">
      <!-- $1$ -->
      <defs>
       <path d="M 26.59375 63.796875 
C 26.59375 65.890625 26.5 66 25.09375 66 
C 21.203125 61.359375 15.296875 59.890625 9.703125 59.6875 
C 9.40625 59.6875 8.90625 59.6875 8.796875 59.5 
C 8.703125 59.296875 8.703125 59.09375 8.703125 57 
C 11.796875 57 17 57.59375 21 59.984375 
L 21 7.296875 
C 21 3.796875 20.796875 2.59375 12.203125 2.59375 
L 9.203125 2.59375 
L 9.203125 0 
C 14 0.09375 19 0.1875 23.796875 0.1875 
C 28.59375 0.1875 33.59375 0.09375 38.40625 0 
L 38.40625 2.59375 
L 35.40625 2.59375 
C 26.796875 2.59375 26.59375 3.6875 26.59375 7.296875 
z
" id="CMR17-49"/>
      </defs>
      <g transform="translate(132.412869 131.22218)scale(0.12 -0.12)">
       <use transform="scale(0.996264)" xlink:href="#CMR17-49"/>
      </g>
     </g>
    </g>
    <g id="xtick_3">
     <g id="line2d_5">
      <path clip-path="url(#pb4abdd2459)" d="M 203.088643 115.92 
L 203.088643 7.2 
" style="fill:none;stroke:#b0b0b0;stroke-linecap:square;stroke-width:0.8;"/>
     </g>
     <g id="line2d_6">
      <g>
       <use style="stroke:#000000;stroke-width:0.8;" x="203.088643" xlink:href="#m5f49a12b6d" y="115.92"/>
      </g>
     </g>
     <g id="text_3">
      <!-- $2$ -->
      <defs>
       <path d="M 41.703125 15.46875 
L 39.90625 15.46875 
C 38.90625 8.390625 38.09375 7.1875 37.703125 6.59375 
C 37.203125 5.796875 30 5.796875 28.59375 5.796875 
L 9.40625 5.796875 
C 13 9.6875 20 16.765625 28.5 24.9375 
C 34.59375 30.71875 41.703125 37.5 41.703125 47.390625 
C 41.703125 59.1875 32.296875 66 21.796875 66 
C 10.796875 66 4.09375 56.296875 4.09375 47.296875 
C 4.09375 43.390625 7 42.890625 8.203125 42.890625 
C 9.203125 42.890625 12.203125 43.484375 12.203125 46.984375 
C 12.203125 50.09375 9.59375 51 8.203125 51 
C 7.59375 51 7 50.890625 6.59375 50.6875 
C 8.5 59.1875 14.296875 63.390625 20.40625 63.390625 
C 29.09375 63.390625 34.796875 56.5 34.796875 47.390625 
C 34.796875 38.703125 29.703125 31.21875 24 24.734375 
L 4.09375 2.296875 
L 4.09375 0 
L 39.296875 0 
z
" id="CMR17-50"/>
      </defs>
      <g transform="translate(200.162148 131.22218)scale(0.12 -0.12)">
       <use transform="scale(0.996264)" xlink:href="#CMR17-50"/>
      </g>
     </g>
    </g>
    <g id="xtick_4">
     <g id="line2d_7">
      <path clip-path="url(#pb4abdd2459)" d="M 270.837922 115.92 
L 270.837922 7.2 
" style="fill:none;stroke:#b0b0b0;stroke-linecap:square;stroke-width:0.8;"/>
     </g>
     <g id="line2d_8">
      <g>
       <use style="stroke:#000000;stroke-width:0.8;" x="270.837922" xlink:href="#m5f49a12b6d" y="115.92"/>
      </g>
     </g>
     <g id="text_4">
      <!-- $3$ -->
      <defs>
       <path d="M 22.09375 34 
C 31 34 34.90625 26.140625 34.90625 17.09375 
C 34.90625 5.03125 28.5 0.390625 22.703125 0.390625 
C 17.40625 0.390625 8.796875 3.015625 6.09375 10.796875 
C 6.59375 10.59375 7.09375 10.59375 7.59375 10.59375 
C 10 10.59375 11.796875 12.1875 11.796875 14.796875 
C 11.796875 17.6875 9.59375 19 7.59375 19 
C 5.90625 19 3.296875 18.1875 3.296875 14.484375 
C 3.296875 5.234375 12.296875 -2 22.90625 -2 
C 34 -2 42.5 6.75 42.5 16.984375 
C 42.5 26.84375 34.5 34 25 35.09375 
C 32.59375 36.671875 39.90625 43.375 39.90625 52.390625 
C 39.90625 60.25 32 66 23 66 
C 13.90625 66 5.90625 60.34375 5.90625 52.296875 
C 5.90625 48.796875 8.5 48.1875 9.796875 48.1875 
C 11.90625 48.1875 13.703125 49.484375 13.703125 52.09375 
C 13.703125 54.6875 11.90625 56 9.796875 56 
C 9.40625 56 8.90625 56 8.5 55.796875 
C 11.40625 62.484375 19.296875 63.6875 22.796875 63.6875 
C 26.296875 63.6875 32.90625 61.96875 32.90625 52.296875 
C 32.90625 49.484375 32.5 44.546875 29.09375 40.21875 
C 26.09375 36.390625 22.703125 36.1875 19.40625 35.890625 
C 18.90625 35.890625 16.59375 35.6875 16.203125 35.6875 
C 15.5 35.59375 15.09375 35.5 15.09375 34.796875 
C 15.09375 34.09375 15.203125 34 17.203125 34 
z
" id="CMR17-51"/>
      </defs>
      <g transform="translate(267.911427 131.22218)scale(0.12 -0.12)">
       <use transform="scale(0.996264)" xlink:href="#CMR17-51"/>
      </g>
     </g>
    </g>
    <g id="xtick_5">
     <g id="line2d_9">
      <path clip-path="url(#pb4abdd2459)" d="M 338.587201 115.92 
L 338.587201 7.2 
" style="fill:none;stroke:#b0b0b0;stroke-linecap:square;stroke-width:0.8;"/>
     </g>
     <g id="line2d_10">
      <g>
       <use style="stroke:#000000;stroke-width:0.8;" x="338.587201" xlink:href="#m5f49a12b6d" y="115.92"/>
      </g>
     </g>
     <g id="text_5">
      <!-- $4$ -->
      <defs>
       <path d="M 33.59375 64.796875 
C 33.59375 66.890625 33.5 67 31.703125 67 
L 2 19.59375 
L 2 17 
L 27.796875 17 
L 27.796875 7.1875 
C 27.796875 3.59375 27.59375 2.59375 20.59375 2.59375 
L 18.703125 2.59375 
L 18.703125 0 
C 21.90625 0.1875 27.296875 0.1875 30.703125 0.1875 
C 34.09375 0.1875 39.5 0.1875 42.703125 0 
L 42.703125 2.59375 
L 40.796875 2.59375 
C 33.796875 2.59375 33.59375 3.59375 33.59375 7.1875 
L 33.59375 17 
L 43.796875 17 
L 43.796875 19.59375 
L 33.59375 19.59375 
z
M 28.09375 58.171875 
L 28.09375 19.59375 
L 4 19.59375 
z
" id="CMR17-52"/>
      </defs>
      <g transform="translate(335.660706 131.22218)scale(0.12 -0.12)">
       <use transform="scale(0.996264)" xlink:href="#CMR17-52"/>
      </g>
     </g>
    </g>
    <g id="xtick_6">
     <g id="line2d_11">
      <path clip-path="url(#pb4abdd2459)" d="M 406.33648 115.92 
L 406.33648 7.2 
" style="fill:none;stroke:#b0b0b0;stroke-linecap:square;stroke-width:0.8;"/>
     </g>
     <g id="line2d_12">
      <g>
       <use style="stroke:#000000;stroke-width:0.8;" x="406.33648" xlink:href="#m5f49a12b6d" y="115.92"/>
      </g>
     </g>
     <g id="text_6">
      <!-- $5$ -->
      <defs>
       <path d="M 11.40625 58.59375 
C 12.40625 58.1875 16.5 56.890625 20.703125 56.890625 
C 30 56.890625 35.09375 61.890625 38 64.6875 
C 38 65.484375 38 66 37.40625 66 
C 37.296875 66 37.09375 66 36.296875 65.59375 
C 32.796875 64.09375 28.703125 63 23.703125 63 
C 20.703125 63 16.203125 63.359375 11.296875 65.484375 
C 10.203125 66 10 66 9.90625 66 
C 9.40625 66 9.296875 65.890625 9.296875 63.90625 
L 9.296875 34.859375 
C 9.296875 33.015625 9.296875 32.5 10.296875 32.5 
C 10.796875 32.5 11 32.703125 11.5 33.421875 
C 14.703125 38.046875 19.09375 40 24.09375 40 
C 27.59375 40 35.09375 37.734375 35.09375 20.203125 
C 35.09375 16.984375 35.09375 11.1875 32.09375 6.59375 
C 29.59375 2.484375 25.703125 0.390625 21.40625 0.390625 
C 14.796875 0.390625 8.09375 4.984375 6.296875 12.6875 
C 6.703125 12.59375 7.5 12.390625 7.90625 12.390625 
C 9.203125 12.390625 11.703125 13.09375 11.703125 16.1875 
C 11.703125 18.890625 9.796875 20 7.90625 20 
C 5.59375 20 4.09375 18.59375 4.09375 15.796875 
C 4.09375 7.09375 11 -2 21.59375 -2 
C 31.90625 -2 41.703125 6.890625 41.703125 19.796875 
C 41.703125 32.09375 33.90625 41.59375 24.203125 41.59375 
C 19.09375 41.59375 14.796875 39.6875 11.40625 36 
z
" id="CMR17-53"/>
      </defs>
      <g transform="translate(403.409985 131.22218)scale(0.12 -0.12)">
       <use transform="scale(0.996264)" xlink:href="#CMR17-53"/>
      </g>
     </g>
    </g>
    <g id="xtick_7">
     <g id="line2d_13">
      <path clip-path="url(#pb4abdd2459)" d="M 474.08576 115.92 
L 474.08576 7.2 
" style="fill:none;stroke:#b0b0b0;stroke-linecap:square;stroke-width:0.8;"/>
     </g>
     <g id="line2d_14">
      <g>
       <use style="stroke:#000000;stroke-width:0.8;" x="474.08576" xlink:href="#m5f49a12b6d" y="115.92"/>
      </g>
     </g>
     <g id="text_7">
      <!-- $6$ -->
      <defs>
       <path d="M 10.59375 34.34375 
C 10.59375 58 21.796875 63.6875 28.296875 63.6875 
C 30.40625 63.6875 35.5 63.265625 37.5 59.09375 
C 35.90625 59.09375 32.90625 59.09375 32.90625 55.59375 
C 32.90625 52.890625 35.09375 52 36.5 52 
C 37.40625 52 40.09375 52.390625 40.09375 55.796875 
C 40.09375 62.296875 35.09375 66 28.203125 66 
C 16.296875 66 3.796875 53.296875 3.796875 31.421875 
C 3.796875 4.015625 15.09375 -2 23.09375 -2 
C 32.796875 -2 42 6.734375 42 20.234375 
C 42 32.828125 33.90625 42 23.703125 42 
C 17.59375 42 13.09375 37.96875 10.59375 30.921875 
z
M 23.09375 0.390625 
C 10.796875 0.390625 10.796875 18.9375 10.796875 22.65625 
C 10.796875 29.90625 14.203125 40.390625 23.5 40.390625 
C 25.203125 40.390625 30.09375 40.390625 33.40625 33.4375 
C 35.203125 29.515625 35.203125 25.375 35.203125 20.34375 
C 35.203125 14.90625 35.203125 10.875 33.09375 6.84375 
C 30.90625 2.703125 27.703125 0.390625 23.09375 0.390625 
z
" id="CMR17-54"/>
      </defs>
      <g transform="translate(471.159264 131.22218)scale(0.12 -0.12)">
       <use transform="scale(0.996264)" xlink:href="#CMR17-54"/>
      </g>
     </g>
    </g>
    <g id="text_8">
     <!-- temps -->
     <defs>
      <path d="M 15.09375 40.390625 
L 29.09375 40.390625 
L 29.09375 43 
L 15.09375 43 
L 15.09375 62 
L 13.296875 62 
C 13.09375 51.4375 9.59375 42.1875 1.09375 41.984375 
L 1.09375 40.390625 
L 9.796875 40.390625 
L 9.796875 12.15625 
C 9.796875 10.234375 9.796875 -1 21.40625 -1 
C 27.296875 -1 30.703125 4.8125 30.703125 12.25 
L 30.703125 17.984375 
L 28.90625 17.984375 
L 28.90625 12.34375 
C 28.90625 5.421875 26.203125 0.796875 22 0.796875 
C 19.09375 0.796875 15.09375 2.796875 15.09375 11.953125 
z
" id="CMR17-116"/>
      <path d="M 38.09375 23.484375 
C 38.5 23.890625 38.5 24.09375 38.5 25.09375 
C 38.5 35.171875 33.09375 44 21.703125 44 
C 11.09375 44 2.703125 33.984375 2.703125 21.78125 
C 2.703125 8.65625 12.203125 -1 22.796875 -1 
C 34 -1 38.40625 9.671875 38.40625 11.796875 
C 38.40625 12.5 37.796875 12.5 37.59375 12.5 
C 36.90625 12.5 36.796875 12.296875 36.40625 11.078125 
C 34.203125 4.21875 28.703125 0.796875 23.5 0.796875 
C 19.203125 0.796875 14.90625 3.21875 12.203125 7.65625 
C 9.09375 12.796875 9.09375 18.75 9.09375 23.484375 
z
M 9.203125 25 
C 9.90625 39.234375 17.59375 42.390625 21.59375 42.390625 
C 28.40625 42.390625 33 36.0625 33.09375 25 
z
" id="CMR17-101"/>
      <path d="M 67.59375 30.53125 
C 67.59375 35.5625 66.703125 44 54.796875 44 
C 48 44 43.296875 39.375 41.5 33.953125 
L 41.40625 33.953125 
C 40.203125 42.1875 34.296875 44 28.703125 44 
C 20.796875 44 16.703125 37.875 15.203125 33.84375 
L 15.09375 33.84375 
L 15.09375 44 
L 3.296875 42.890625 
L 3.296875 40.28125 
C 9.203125 40.28125 10.09375 39.6875 10.09375 34.859375 
L 10.09375 6.921875 
C 10.09375 3.09375 9.703125 2.59375 3.296875 2.59375 
L 3.296875 0 
C 5.703125 0.1875 10.09375 0.1875 12.703125 0.1875 
C 15.296875 0.1875 19.796875 0.1875 22.203125 0 
L 22.203125 2.59375 
C 15.796875 2.59375 15.40625 3 15.40625 6.921875 
L 15.40625 26.21875 
C 15.40625 35.453125 21 42.390625 28 42.390625 
C 35.40625 42.390625 36.203125 35.765625 36.203125 30.9375 
L 36.203125 6.921875 
C 36.203125 3.09375 35.796875 2.59375 29.40625 2.59375 
L 29.40625 0 
C 31.796875 0.1875 36.203125 0.1875 38.796875 0.1875 
C 41.40625 0.1875 45.90625 0.1875 48.296875 0 
L 48.296875 2.59375 
C 41.90625 2.59375 41.5 3 41.5 6.921875 
L 41.5 26.21875 
C 41.5 35.453125 47.09375 42.390625 54.09375 42.390625 
C 61.5 42.390625 62.296875 35.765625 62.296875 30.9375 
L 62.296875 6.921875 
C 62.296875 3.09375 61.90625 2.59375 55.5 2.59375 
L 55.5 0 
C 57.90625 0.1875 62.296875 0.1875 64.90625 0.1875 
C 67.5 0.1875 72 0.1875 74.40625 0 
L 74.40625 2.59375 
C 68 2.59375 67.59375 3 67.59375 6.921875 
z
" id="CMR17-109"/>
      <path d="M 22 -17.40625 
C 15.59375 -17.40625 15.203125 -17 15.203125 -13.03125 
L 15.203125 5.9375 
C 18.09375 1.703125 22.296875 -1 27.59375 -1 
C 37.59375 -1 47.703125 7.859375 47.703125 21.59375 
C 47.703125 34.3125 39 44 28.703125 44 
C 22.703125 44 17.796875 40.671875 15 36.640625 
L 15 44 
L 3.09375 42.890625 
L 3.09375 40.265625 
C 9 40.265625 9.90625 39.671875 9.90625 34.8125 
L 9.90625 -13.03125 
C 9.90625 -16.890625 9.5 -17.40625 3.09375 -17.40625 
L 3.09375 -20 
C 5.5 -19.8125 9.90625 -19.8125 12.5 -19.8125 
C 15.09375 -19.8125 19.59375 -19.8125 22 -20 
z
M 15.203125 31.484375 
C 15.203125 32.90625 15.203125 35.015625 19.09375 38.765625 
C 19.59375 39.15625 23 42.1875 28 42.1875 
C 35.296875 42.1875 41.296875 33 41.296875 21.5 
C 41.296875 9.984375 34.90625 0.59375 27 0.59375 
C 23.40625 0.59375 19.5 2.3125 16.5 7.046875 
C 15.203125 9.28125 15.203125 9.875 15.203125 11.5 
z
" id="CMR17-112"/>
      <path d="M 30.90625 42 
C 30.90625 43.796875 30.796875 43.890625 30.203125 43.890625 
C 29.796875 43.890625 29.703125 43.796875 28.5 42.296875 
C 28.203125 41.890625 27.296875 40.890625 27 40.5 
C 23.796875 43.890625 19.296875 44 17.59375 44 
C 6.5 44 2.5 38.1875 2.5 32.390625 
C 2.5 23.390625 12.703125 21.296875 15.59375 20.6875 
C 21.90625 19.390625 24.09375 19 26.203125 17.1875 
C 27.5 16 29.703125 13.796875 29.703125 10.1875 
C 29.703125 6 27.296875 0.59375 18.09375 0.59375 
C 9.40625 0.59375 6.296875 7.1875 4.5 16 
C 4.203125 17.390625 4.203125 17.5 3.40625 17.5 
C 2.59375 17.5 2.5 17.390625 2.5 15.390625 
L 2.5 1 
C 2.5 -0.8125 2.59375 -0.90625 3.203125 -0.90625 
C 3.703125 -0.90625 3.796875 -0.8125 4.296875 0 
C 4.90625 0.890625 6.40625 3.296875 7 4.296875 
C 9 1.59375 12.5 -1 18.09375 -1 
C 28 -1 33.296875 4.390625 33.296875 12.1875 
C 33.296875 17.296875 30.59375 20 29.296875 21.1875 
C 26.296875 24.296875 22.796875 25 18.59375 25.796875 
C 13.09375 27 6.09375 28.390625 6.09375 34.5 
C 6.09375 37.09375 7.5 42.59375 17.59375 42.59375 
C 28.296875 42.59375 28.90625 32.59375 29.09375 29.390625 
C 29.203125 28.890625 29.703125 28.796875 30 28.796875 
C 30.90625 28.796875 30.90625 29.09375 30.90625 30.796875 
z
" id="CMR17-115"/>
     </defs>
     <g transform="translate(252.631297 147.232652)scale(0.14 -0.14)">
      <use transform="scale(0.996264)" xlink:href="#CMR17-116"/>
      <use transform="translate(35.280768 0)scale(0.996264)" xlink:href="#CMR17-101"/>
      <use transform="translate(75.766428 0)scale(0.996264)" xlink:href="#CMR17-109"/>
      <use transform="translate(152.686018 0)scale(0.996264)" xlink:href="#CMR17-112"/>
      <use transform="translate(203.581388 0)scale(0.996264)" xlink:href="#CMR17-115"/>
     </g>
    </g>
   </g>
   <g id="matplotlib.axis_2">
    <g id="ytick_1">
     <g id="line2d_15">
      <path clip-path="url(#pb4abdd2459)" d="M 47.299176 110.978182 
L 493.699176 110.978182 
" style="fill:none;stroke:#b0b0b0;stroke-linecap:square;stroke-width:0.8;"/>
     </g>
     <g id="line2d_16">
      <defs>
       <path d="M 0 0 
L -3.5 0 
" id="mb2ef4671ca" style="stroke:#000000;stroke-width:0.8;"/>
      </defs>
      <g>
       <use style="stroke:#000000;stroke-width:0.8;" x="47.299176" xlink:href="#mb2ef4671ca" y="110.978182"/>
      </g>
     </g>
     <g id="text_9">
      <!-- $-1$ -->
      <defs>
       <path d="M 65.90625 23 
C 67.59375 23 69.40625 23 69.40625 25 
C 69.40625 27 67.59375 27 65.90625 27 
L 11.796875 27 
C 10.09375 27 8.296875 27 8.296875 25 
C 8.296875 23 10.09375 23 11.796875 23 
z
" id="CMSY10-0"/>
      </defs>
      <g transform="translate(25.147696 115.129272)scale(0.12 -0.12)">
       <use transform="scale(0.996264)" xlink:href="#CMSY10-0"/>
       <use transform="translate(77.487468 0)scale(0.996264)" xlink:href="#CMR17-49"/>
      </g>
     </g>
    </g>
    <g id="ytick_2">
     <g id="line2d_17">
      <path clip-path="url(#pb4abdd2459)" d="M 47.299176 61.56 
L 493.699176 61.56 
" style="fill:none;stroke:#b0b0b0;stroke-linecap:square;stroke-width:0.8;"/>
     </g>
     <g id="line2d_18">
      <g>
       <use style="stroke:#000000;stroke-width:0.8;" x="47.299176" xlink:href="#mb2ef4671ca" y="61.56"/>
      </g>
     </g>
     <g id="text_10">
      <!-- $0$ -->
      <g transform="translate(34.446186 65.71109)scale(0.12 -0.12)">
       <use transform="scale(0.996264)" xlink:href="#CMR17-48"/>
      </g>
     </g>
    </g>
    <g id="ytick_3">
     <g id="line2d_19">
      <path clip-path="url(#pb4abdd2459)" d="M 47.299176 12.141818 
L 493.699176 12.141818 
" style="fill:none;stroke:#b0b0b0;stroke-linecap:square;stroke-width:0.8;"/>
     </g>
     <g id="line2d_20">
      <g>
       <use style="stroke:#000000;stroke-width:0.8;" x="47.299176" xlink:href="#mb2ef4671ca" y="12.141818"/>
      </g>
     </g>
     <g id="text_11">
      <!-- $1$ -->
      <g transform="translate(34.446186 16.292908)scale(0.12 -0.12)">
       <use transform="scale(0.996264)" xlink:href="#CMR17-49"/>
      </g>
     </g>
    </g>
    <g id="text_12">
     <!-- $x(t)$ -->
     <defs>
      <path d="M 47.40625 41 
C 44.203125 40.390625 43 37.984375 43 36.09375 
C 43 33.6875 44.90625 32.890625 46.296875 32.890625 
C 49.296875 32.890625 51.40625 35.484375 51.40625 38.1875 
C 51.40625 42.09375 46.59375 44 42.40625 44 
C 36.296875 44 32.90625 38.296875 32 36.390625 
C 29.703125 43.59375 23.5 44 21.703125 44 
C 11.5 44 6.09375 31.140625 6.09375 28.890625 
C 6.09375 28.484375 6.5 27.96875 7.203125 27.96875 
C 8 27.96875 8.203125 28.578125 8.40625 28.984375 
C 11.796875 40.1875 18.5 41.984375 21.40625 41.984375 
C 25.90625 41.984375 26.796875 38.09375 26.796875 35.6875 
C 26.796875 33.484375 26.203125 31.140625 25 26.21875 
L 21.59375 12.15625 
C 20.09375 6.09375 17.203125 1 11.90625 1 
C 11.40625 1 8.90625 1 6.796875 1.96875 
C 10.40625 2.59375 11.203125 5.59375 11.203125 6.796875 
C 11.203125 8.796875 9.703125 10 7.796875 10 
C 5.40625 10 2.796875 7.890625 2.796875 4.6875 
C 2.796875 0.890625 7.5 -1 11.796875 -1 
C 16.59375 -1 20 2.390625 22.09375 6.484375 
C 23.703125 1 28.703125 -1 32.40625 -1 
C 42.59375 -1 48 11.734375 48 14 
C 48 14.515625 47.59375 14.921875 47 14.921875 
C 46.09375 14.921875 46 14.40625 45.703125 13.59375 
C 43 4.6875 37.203125 1 32.703125 1 
C 29.203125 1 27.296875 3.1875 27.296875 7.296875 
C 27.296875 9.484375 27.703125 11.125 29.296875 17.90625 
L 32.796875 31.859375 
C 34.296875 37.890625 37.703125 41.984375 42.296875 41.984375 
C 42.5 41.984375 45.296875 41.984375 47.40625 41 
z
" id="CMMI12-120"/>
      <path d="M 30.59375 -24.40625 
C 30.59375 -24.3125 30.59375 -24.109375 30.296875 -23.8125 
C 25.703125 -19.109375 13.40625 -6.296875 13.40625 24.9375 
C 13.40625 56.171875 25.5 68.875 30.40625 73.890625 
C 30.40625 73.984375 30.59375 74.1875 30.59375 74.484375 
C 30.59375 74.796875 30.296875 75 29.90625 75 
C 28.796875 75 20.296875 67.578125 15.40625 56.5625 
C 10.40625 45.453125 9 34.65625 9 25.046875 
C 9 17.828125 9.703125 5.625 15.703125 -7.296875 
C 20.5 -17.703125 28.703125 -25 29.90625 -25 
C 30.40625 -25 30.59375 -24.8125 30.59375 -24.40625 
z
" id="CMR17-40"/>
      <path d="M 20.09375 40.09375 
L 29.296875 40.09375 
C 31.203125 40.09375 32.203125 40.09375 32.203125 41.890625 
C 32.203125 43 31.59375 43 29.59375 43 
L 20.796875 43 
L 24.5 57.25 
C 24.90625 58.625 24.90625 58.8125 24.90625 59.5 
C 24.90625 61.09375 23.59375 62 22.296875 62 
C 21.5 62 19.203125 61.6875 18.40625 58.53125 
L 14.5 43 
L 5.09375 43 
C 3.09375 43 2.203125 43 2.203125 41.09375 
C 2.203125 40.09375 2.90625 40.09375 4.796875 40.09375 
L 13.703125 40.09375 
L 7.09375 13.765625 
C 6.296875 10.265625 6 9.265625 6 7.96875 
C 6 3.28125 9.296875 -1 14.90625 -1 
C 25 -1 30.40625 13.5625 30.40625 14.265625 
C 30.40625 14.859375 30 15.15625 29.40625 15.15625 
C 29.203125 15.15625 28.796875 15.15625 28.59375 14.75 
C 28.5 14.65625 28.40625 14.5625 27.703125 12.96875 
C 25.59375 7.96875 21 1 15.203125 1 
C 12.203125 1 12 3.484375 12 5.6875 
C 12 5.78125 12 7.671875 12.296875 8.875 
z
" id="CMMI12-116"/>
      <path d="M 26.296875 24.9375 
C 26.296875 32.140625 25.59375 44.359375 19.59375 57.265625 
C 14.796875 67.6875 6.59375 75 5.40625 75 
C 5.09375 75 4.703125 74.890625 4.703125 74.390625 
C 4.703125 74.1875 4.796875 74.09375 4.90625 73.890625 
C 9.703125 68.875 21.90625 56.171875 21.90625 25.046875 
C 21.90625 -6.1875 9.796875 -18.90625 4.90625 -23.90625 
C 4.796875 -24.109375 4.703125 -24.203125 4.703125 -24.40625 
C 4.703125 -24.90625 5.09375 -25 5.40625 -25 
C 6.5 -25 15 -17.609375 19.90625 -6.59375 
C 24.90625 4.515625 26.296875 15.328125 26.296875 24.9375 
z
" id="CMR17-41"/>
     </defs>
     <g transform="translate(17.660772 73.217274)rotate(-90)scale(0.14 -0.14)">
      <use transform="scale(0.996264)" xlink:href="#CMMI12-120"/>
      <use transform="translate(55.43406 0)scale(0.996264)" xlink:href="#CMR17-40"/>
      <use transform="translate(90.714827 0)scale(0.996264)" xlink:href="#CMMI12-116"/>
      <use transform="translate(125.941158 0)scale(0.996264)" xlink:href="#CMR17-41"/>
     </g>
    </g>
   </g>
   <g id="line2d_21">
    <path clip-path="url(#pb4abdd2459)" d="M 67.590085 12.141818 
L 68.267578 13.01715 
L 68.94507 15.612137 
L 69.622563 19.834849 
L 70.300056 25.535696 
L 71.655042 40.518762 
L 75.719998 93.060335 
L 76.397491 99.637364 
L 77.074984 104.865483 
L 77.752477 108.559484 
L 78.42997 110.588505 
L 79.107462 110.880666 
L 79.784955 109.425619 
L 80.462448 106.274908 
L 81.139941 101.540149 
L 81.817434 95.389073 
L 83.172419 79.752046 
L 86.559883 35.080414 
L 87.914869 21.579851 
L 88.592361 16.845092 
L 89.269854 13.694381 
L 89.947347 12.239334 
L 90.62484 12.531495 
L 91.302333 14.560516 
L 91.979825 18.254517 
L 92.657318 23.482636 
L 93.334811 30.059665 
L 94.689797 46.288942 
L 98.077261 90.607278 
L 98.754753 97.584304 
L 99.432246 103.285151 
L 100.109739 107.507863 
L 100.787232 110.10285 
L 101.464724 110.978182 
L 102.142217 110.10285 
L 102.81971 107.507863 
L 103.497203 103.285151 
L 104.174696 97.584304 
L 105.529681 82.601238 
L 109.594638 30.059665 
L 110.272131 23.482636 
L 110.949624 18.254517 
L 111.627116 14.560516 
L 112.304609 12.531495 
L 112.982102 12.239334 
L 113.659595 13.694381 
L 114.337087 16.845092 
L 115.01458 21.579851 
L 115.692073 27.730927 
L 117.047059 43.367954 
L 120.434523 88.039586 
L 121.789508 101.540149 
L 122.467001 106.274908 
L 123.144494 109.425619 
L 123.821987 110.880666 
L 124.499479 110.588505 
L 125.176972 108.559484 
L 125.854465 104.865483 
L 126.531958 99.637364 
L 127.209451 93.060335 
L 128.564436 76.831058 
L 131.9519 32.512722 
L 132.629393 25.535696 
L 133.306886 19.834849 
L 133.984378 15.612137 
L 134.661871 13.01715 
L 135.339364 61.56 
L 137.371842 35.080414 
L 138.726828 21.579851 
L 139.404321 16.845092 
L 140.081814 13.694381 
L 140.759306 12.239334 
L 141.436799 12.531495 
L 142.114292 14.560516 
L 142.791785 18.254517 
L 143.469278 23.482636 
L 144.14677 30.059665 
L 145.501756 46.288942 
L 148.88922 90.607278 
L 149.566713 97.584304 
L 150.244205 103.285151 
L 150.921698 107.507863 
L 151.599191 110.10285 
L 152.276684 110.978182 
L 152.954177 110.10285 
L 153.631669 107.507863 
L 154.309162 103.285151 
L 154.986655 97.584304 
L 156.341641 82.601238 
L 160.406597 30.059665 
L 161.08409 23.482636 
L 161.761583 18.254517 
L 162.439076 14.560516 
L 163.116568 12.531495 
L 163.794061 12.239334 
L 164.471554 13.694381 
L 165.149047 16.845092 
L 165.82654 21.579851 
L 166.504032 27.730927 
L 167.859018 43.367954 
L 171.246482 88.039586 
L 172.601468 101.540149 
L 173.27896 106.274908 
L 173.956453 109.425619 
L 174.633946 110.880666 
L 175.311439 110.588505 
L 175.988931 108.559484 
L 176.666424 104.865483 
L 177.343917 99.637364 
L 178.02141 93.060335 
L 179.376395 76.831058 
L 182.763859 32.512722 
L 183.441352 25.535696 
L 184.118845 19.834849 
L 184.796338 15.612137 
L 185.473831 13.01715 
L 186.151323 12.141818 
L 186.828816 13.01715 
L 187.506309 15.612137 
L 188.183802 19.834849 
L 188.861295 25.535696 
L 190.21628 40.518762 
L 194.281237 93.060335 
L 194.95873 99.637364 
L 195.636222 104.865483 
L 196.313715 108.559484 
L 196.991208 110.588505 
L 197.668701 110.880666 
L 198.346194 109.425619 
L 199.023686 106.274908 
L 199.701179 101.540149 
L 200.378672 95.389073 
L 201.733658 79.752046 
L 203.088643 61.56 
L 205.121121 88.039586 
L 206.476107 101.540149 
L 207.1536 106.274908 
L 207.831093 109.425619 
L 208.508585 110.880666 
L 209.186078 110.588505 
L 209.863571 108.559484 
L 210.541064 104.865483 
L 211.218557 99.637364 
L 211.896049 93.060335 
L 213.251035 76.831058 
L 216.638499 32.512722 
L 217.315992 25.535696 
L 217.993485 19.834849 
L 218.670977 15.612137 
L 219.34847 13.01715 
L 220.025963 12.141818 
L 220.703456 13.01715 
L 221.380948 15.612137 
L 222.058441 19.834849 
L 222.735934 25.535696 
L 224.09092 40.518762 
L 228.155876 93.060335 
L 228.833369 99.637364 
L 229.510862 104.865483 
L 230.188355 108.559484 
L 230.865848 110.588505 
L 231.54334 110.880666 
L 232.220833 109.425619 
L 232.898326 106.274908 
L 233.575819 101.540149 
L 234.253312 95.389073 
L 235.608297 79.752046 
L 238.995761 35.080414 
L 240.350747 21.579851 
L 241.028239 16.845092 
L 241.705732 13.694381 
L 242.383225 12.239334 
L 243.060718 12.531495 
L 243.738211 14.560516 
L 244.415703 18.254517 
L 245.093196 23.482636 
L 245.770689 30.059665 
L 247.125675 46.288942 
L 250.513138 90.607278 
L 251.190631 97.584304 
L 251.868124 103.285151 
L 252.545617 107.507863 
L 253.22311 110.10285 
L 253.900602 110.978182 
L 254.578095 110.10285 
L 255.255588 107.507863 
L 255.933081 103.285151 
L 256.610574 97.584304 
L 257.965559 82.601238 
L 262.030516 30.059665 
L 262.708009 23.482636 
L 263.385502 18.254517 
L 264.062994 14.560516 
L 264.740487 12.531495 
L 265.41798 12.239334 
L 266.095473 13.694381 
L 266.772965 16.845092 
L 267.450458 21.579851 
L 268.127951 27.730927 
L 269.482937 43.367954 
L 272.870401 88.039586 
L 274.225386 101.540149 
L 274.902879 106.274908 
L 275.580372 109.425619 
L 276.257865 110.880666 
L 276.935357 110.588505 
L 277.61285 108.559484 
L 278.290343 104.865483 
L 278.967836 99.637364 
L 279.645328 93.060335 
L 281.000314 76.831058 
L 284.387778 32.512722 
L 285.065271 25.535696 
L 285.742764 19.834849 
L 286.420256 15.612137 
L 287.097749 13.01715 
L 287.775242 12.141818 
L 288.452735 13.01715 
L 289.130228 15.612137 
L 289.80772 19.834849 
L 290.485213 25.535696 
L 291.840199 40.518762 
L 295.905155 93.060335 
L 296.582648 99.637364 
L 297.260141 104.865483 
L 297.937634 108.559484 
L 298.615127 110.588505 
L 299.292619 110.880666 
L 299.970112 109.425619 
L 300.647605 106.274908 
L 301.325098 101.540149 
L 302.002591 95.389073 
L 303.357576 79.752046 
L 306.74504 35.080414 
L 308.100026 21.579851 
L 308.777519 16.845092 
L 309.455011 13.694381 
L 310.132504 12.239334 
L 310.809997 12.531495 
L 311.48749 14.560516 
L 312.164982 18.254517 
L 312.842475 23.482636 
L 313.519968 30.059665 
L 314.874954 46.288942 
L 318.262418 90.607278 
L 318.93991 97.584304 
L 319.617403 103.285151 
L 320.294896 107.507863 
L 320.972389 110.10285 
L 321.649882 110.978182 
L 322.327374 110.10285 
L 323.004867 107.507863 
L 323.68236 103.285151 
L 324.359853 97.584304 
L 325.714838 82.601238 
L 329.779795 30.059665 
L 330.457288 23.482636 
L 331.134781 18.254517 
L 331.812273 14.560516 
L 332.489766 12.531495 
L 333.167259 12.239334 
L 333.844752 13.694381 
L 334.522245 16.845092 
L 335.199737 21.579851 
L 335.87723 27.730927 
L 337.232216 43.367954 
L 337.909709 52.299956 
L 338.587201 110.978182 
L 339.264694 110.10285 
L 339.942187 107.507863 
L 340.61968 103.285151 
L 341.297172 97.584304 
L 342.652158 82.601238 
L 346.717115 30.059665 
L 347.394608 23.482636 
L 348.0721 18.254517 
L 348.749593 14.560516 
L 349.427086 12.531495 
L 350.104579 12.239334 
L 350.782072 13.694381 
L 351.459564 16.845092 
L 352.137057 21.579851 
L 352.81455 27.730927 
L 354.169536 43.367954 
L 357.556999 88.039586 
L 358.911985 101.540149 
L 359.589478 106.274908 
L 360.266971 109.425619 
L 360.944463 110.880666 
L 361.621956 110.588505 
L 362.299449 108.559484 
L 362.976942 104.865483 
L 363.654435 99.637364 
L 364.331927 93.060335 
L 365.686913 76.831058 
L 369.074377 32.512722 
L 369.75187 25.535696 
L 370.429362 19.834849 
L 371.106855 15.612137 
L 371.784348 13.01715 
L 372.461841 12.141818 
L 373.139334 13.01715 
L 373.816826 15.612137 
L 374.494319 19.834849 
L 375.171812 25.535696 
L 376.526798 40.518762 
L 380.591754 93.060335 
L 381.269247 99.637364 
L 381.94674 104.865483 
L 382.624233 108.559484 
L 383.301726 110.588505 
L 383.979218 110.880666 
L 384.656711 109.425619 
L 385.334204 106.274908 
L 386.011697 101.540149 
L 386.689189 95.389073 
L 388.044175 79.752046 
L 391.431639 35.080414 
L 392.786625 21.579851 
L 393.464117 16.845092 
L 394.14161 13.694381 
L 394.819103 12.239334 
L 395.496596 12.531495 
L 396.174089 14.560516 
L 396.851581 18.254517 
L 397.529074 23.482636 
L 398.206567 30.059665 
L 399.561553 46.288942 
L 402.949016 90.607278 
L 403.626509 97.584304 
L 404.304002 103.285151 
L 404.981495 107.507863 
L 405.658988 110.10285 
L 406.33648 12.141818 
L 407.013973 13.01715 
L 407.691466 15.612137 
L 408.368959 19.834849 
L 409.046452 25.535696 
L 410.401437 40.518762 
L 414.466394 93.060335 
L 415.143887 99.637364 
L 415.821379 104.865483 
L 416.498872 108.559484 
L 417.176365 110.588505 
L 417.853858 110.880666 
L 418.531351 109.425619 
L 419.208843 106.274908 
L 419.886336 101.540149 
L 420.563829 95.389073 
L 421.918815 79.752046 
L 425.306279 35.080414 
L 426.661264 21.579851 
L 427.338757 16.845092 
L 428.01625 13.694381 
L 428.693743 12.239334 
L 429.371235 12.531495 
L 430.048728 14.560516 
L 430.726221 18.254517 
L 431.403714 23.482636 
L 432.081206 30.059665 
L 433.436192 46.288942 
L 436.823656 90.607278 
L 437.501149 97.584304 
L 438.178642 103.285151 
L 438.856134 107.507863 
L 439.533627 110.10285 
L 440.21112 110.978182 
L 440.888613 110.10285 
L 441.566106 107.507863 
L 442.243598 103.285151 
L 442.921091 97.584304 
L 444.276077 82.601238 
L 448.341033 30.059665 
L 449.018526 23.482636 
L 449.696019 18.254517 
L 450.373512 14.560516 
L 451.051005 12.531495 
L 451.728497 12.239334 
L 452.40599 13.694381 
L 453.083483 16.845092 
L 453.760976 21.579851 
L 454.438469 27.730927 
L 455.793454 43.367954 
L 459.180918 88.039586 
L 460.535904 101.540149 
L 461.213396 106.274908 
L 461.890889 109.425619 
L 462.568382 110.880666 
L 463.245875 110.588505 
L 463.923368 108.559484 
L 464.60086 104.865483 
L 465.278353 99.637364 
L 465.955846 93.060335 
L 467.310832 76.831058 
L 470.698296 32.512722 
L 471.375788 25.535696 
L 472.053281 19.834849 
L 472.730774 15.612137 
L 473.408267 13.01715 
L 473.408267 13.01715 
" style="fill:none;stroke:#1f77b4;stroke-linecap:square;stroke-width:1.5;"/>
   </g>
   <g id="patch_3">
    <path d="M 47.299176 115.92 
L 47.299176 7.2 
" style="fill:none;stroke:#000000;stroke-linecap:square;stroke-linejoin:miter;stroke-width:0.8;"/>
   </g>
   <g id="patch_4">
    <path d="M 493.699176 115.92 
L 493.699176 7.2 
" style="fill:none;stroke:#000000;stroke-linecap:square;stroke-linejoin:miter;stroke-width:0.8;"/>
   </g>
   <g id="patch_5">
    <path d="M 47.299176 115.92 
L 493.699176 115.92 
" style="fill:none;stroke:#000000;stroke-linecap:square;stroke-linejoin:miter;stroke-width:0.8;"/>
   </g>
   <g id="patch_6">
    <path d="M 47.299176 7.2 
L 493.699176 7.2 
" style="fill:none;stroke:#000000;stroke-linecap:square;stroke-linejoin:miter;stroke-width:0.8;"/>
   </g>
  </g>
 </g>
 <defs>
  <clipPath id="pb4abdd2459">
   <rect height="108.72" width="446.4" x="47.299176" y="7.2"/>
  </clipPath>
 </defs>
</svg>
